<?xml version="1.0" encoding="utf-8"?>
<!-- Generator: Adobe Illustrator 16.0.0, SVG Export Plug-In . SVG Version: 6.00 Build 0)  -->
<!DOCTYPE svg PUBLIC "-//W3C//DTD SVG 1.1//EN" "http://www.w3.org/Graphics/SVG/1.1/DTD/svg11.dtd">
<svg version="1.1" id="Layer_1" xmlns="http://www.w3.org/2000/svg" xmlns:xlink="http://www.w3.org/1999/xlink" x="0px" y="0px"
	 width="93.9px" height="87.2px" viewBox="0 0 93.9 87.2" style="enable-background:new 0 0 93.9 87.2;" xml:space="preserve">
<path style="fill-rule:evenodd;clip-rule:evenodd;fill:#FFFFFF;" d="M90.3,37.9c0.3,0.2,0.2,0.4,0,0.6
	C90.3,38.4,90.3,38.2,90.3,37.9z"/>
<g>
	<path style="fill-rule:evenodd;clip-rule:evenodd;fill:#74C5ED;" d="M28.3,58.1c-0.3,0.3-0.6,0.3-0.8,0.1C27.4,58,27.2,58,27.1,58
		c-0.4,0-0.8-0.1-1-0.5c-0.1-0.1-0.1-0.2-0.2-0.2c0,0,0,0.1,0,0.1c-0.2,0-0.3,0-0.5,0c-0.1,0-0.1-0.1-0.2-0.1c-0.5,0.1-1,0-1.5,0.3
		c-0.3,0.2-0.7,0.2-1.1,0.3C22.4,58,22.2,58,22,58.1c-0.1,0-0.2,0-0.3,0c-0.7-0.1-1.5,0-2.1,0.3c0,0-0.1,0-0.1,0
		c-0.9,0-1.6,0.4-2.4,0.8c-0.7,0.4-1.5,0.6-2.3,0.6c-0.3,0-0.6,0.2-0.9,0.2c-0.6,0.1-1.1,0.3-1.7,0.4c-0.3,0.1-0.7,0.2-1,0.2
		c-0.4,0.1-0.8,0.1-1.1,0.4c0,0-0.1,0-0.1,0c-0.5-0.2-1,0.1-1.4,0.1c-0.4,0-0.8,0.2-1.2,0.3c-0.2,0-0.3,0-0.5-0.1
		c-0.1,0-0.2-0.1-0.2,0c-0.2,0-0.4-0.1-0.4-0.3c-0.1-0.4-0.3-0.7-0.3-1.1c0-0.2-0.2-0.5-0.2-0.7c-0.1-0.8-0.1-1.5-0.1-2.3
		c0-0.2,0-0.4,0-0.6c0-0.4,0.2-0.6,0.6-0.7c0.6-0.1,1.1-0.2,1.7-0.4c0.6-0.1,1.2-0.3,1.8-0.5c0.1,0,0.2-0.1,0.3-0.1
		c0.3,0,0.6-0.1,0.8-0.2c0.5-0.2,1-0.3,1.5-0.4c0.4-0.1,0.9-0.2,1.3-0.3c0.6-0.2,1.2-0.5,1.8-0.6c0.4-0.1,0.8-0.2,1.2-0.4
		c0,0,0,0,0.1,0c0.5,0.1,0.9-0.2,1.3-0.4c0.4-0.2,0.9-0.4,1.3-0.6c0.1,0,0.2-0.1,0.3-0.2c0.5-0.1,0.9-0.4,1.3-0.7c0,0,0.1,0,0.1-0.1
		c0.7,0,1.1-0.5,1.6-0.9c0.2-0.2,0.3-0.5,0.4-0.8c0.1-0.6,0.2-1.2,0.2-1.7c0-0.3,0.1-0.7,0.1-1c0-0.1-0.1-0.2-0.1-0.2
		c-0.5,0-0.8-0.4-1.2-0.6c-0.3-0.2-0.6-0.3-0.9-0.5c-0.2-0.1-0.5-0.3-0.7-0.5c-0.3-0.2-0.6-0.3-1-0.3c-0.2,0-0.5-0.1-0.7-0.2
		c-0.3-0.1-0.7-0.2-1-0.4c-0.3-0.1-0.7-0.3-1-0.4c-0.4-0.1-0.7-0.6-1.3-0.5c-0.1,0-0.2-0.1-0.2-0.1c-0.3-0.2-0.7-0.4-1.1-0.4
		c-0.2,0-0.3-0.1-0.5-0.2c-0.6-0.2-1.2-0.3-1.8-0.5c-0.3-0.1-0.7-0.3-1-0.5c-0.1-0.1-0.2-0.1-0.3-0.1c-0.8,0-1.4-0.4-2.1-0.6
		c-0.3-0.1-0.6-0.3-0.9-0.5c-0.3-0.1-0.6-0.3-0.8-0.4c-0.4-0.3-0.8-0.6-1.2-0.8c-0.3-0.2-0.7-0.4-1-0.6c-0.4-0.3-0.7-0.7-1-1.1
		c-0.2-0.4-0.2-0.8-0.1-1.2c0.1-0.5,0.2-0.8,0.5-1.1c0.3-0.3,0.4-0.7,0.7-1.1c0.2-0.3,0.4-0.6,0.8-0.7c0.1,0,0.1,0,0.2-0.1
		c0.3-0.4,0.6-0.1,1,0c0.6,0.2,1.2,0.4,1.9,0.6c0.8,0.3,1.7,0.6,2.5,0.8c0.6,0.2,1.3,0.4,1.9,0.6c0.2,0.1,0.4,0.2,0.6,0.2
		c0.6,0.1,1.2,0.1,1.8,0.1c0.5,0,1,0.1,1.5,0.2c0.1,0,0.1,0,0.2,0c0.8-0.3,1.7-0.1,2.5,0c0.6,0.1,1.3,0.1,1.9,0.2
		c0.4,0.1,0.9,0.2,1.3,0.1c0.4-0.1,1.1-0.8,1.1-1.2c0-0.4,0.2-0.6,0.5-0.6c0.4-0.1,0.5-0.4,0.5-0.7c0-0.4,0.2-0.7,0.4-1.1
		c0-0.1,0.1-0.2,0.1-0.3c0-0.1,0-0.2,0-0.2c0.3-0.3,0.1-0.5-0.1-0.8c-0.4-0.4-0.7-0.9-1.1-1.4c-0.2-0.3-0.4-0.6-0.6-0.9
		c-0.2-0.3-0.5-0.6-0.8-0.9c-0.3-0.3-0.7-0.7-1.1-1c-0.1-0.1-0.1-0.2-0.2-0.3c-0.2-0.2-0.4-0.5-0.8-0.6c-0.2,0-0.3-0.2-0.4-0.4
		c0,0-0.1-0.1-0.1-0.1c-0.3-0.2-0.6-0.4-0.8-0.7c-0.4-0.6-1.2-0.8-1.7-1.4c0,0-0.1-0.1-0.1-0.2c0.1,0,0.2-0.1,0.4-0.1
		c-0.3-0.1-0.5-0.1-0.6-0.2c-0.3-0.2-0.7-0.3-0.8-0.6c-0.3-0.4-0.6-0.7-1-0.9c-0.2-0.1-0.3-0.3-0.5-0.5c-0.3-0.4-0.6-0.7-1-1.1
		c-0.2-0.3-0.5-0.5-0.7-0.8c-0.1-0.1-0.2-0.1-0.2-0.2c0,0,0.1,0,0.1-0.1c-0.1-0.1-0.1-0.3-0.2-0.4c0,0,0-0.1,0-0.1
		c0.2-0.4,0.2-0.9,0.6-1.2c0.2-0.2,0.4-0.4,0.5-0.6c0.3-0.9,1-1.2,1.7-1.6c0.4-0.2,0.9,0,1.3,0.2c0.5,0.3,0.9,0.7,1.3,1
		c0.4,0.2,0.9,0.4,1.3,0.6c0.7,0.5,1.6,0.7,2.1,1.5c0.2,0.3,0.6,0.4,0.9,0.7c0.4,0.3,0.7,0.5,1.1,0.8c0.2,0.1,0.4,0.3,0.6,0.4
		c0.3,0.2,0.6,0.3,0.8,0.6c0.3,0.3,0.6,0.4,0.9,0.6c0.5,0.3,1,0.7,1.6,1.1c0.1,0,0.1,0.1,0.2,0.2c0,0,0,0.1,0.1,0.1
		c0.5,0.1,0.7,0.6,1.1,0.8c0.5,0.3,0.9,0.8,1.5,1c0.5,0.2,1.1,0.2,1.7,0.2c0.5,0,1,0.1,1.4-0.1c0.2,0.2,0.4,0.3,0.5,0.5
		c0,0,0,0.1,0,0c0.1,0,0.2,0,0.3,0c0.1-0.2,0.2-0.5,0.2-0.7c0.1-0.5,0.5-0.4,0.8-0.5c0.2-0.1,0.5-0.2,0.7-0.4
		c0.1-0.1,0.2-0.2,0.3-0.4c0.2-0.3,0.3-0.5,0.1-0.8c-0.1-0.2-0.2-0.5-0.2-0.8c-0.1,0.1-0.2,0.2-0.3,0.3c-0.1,0-0.2,0-0.2,0
		c-0.1-0.3-0.6-0.3-0.5-0.7c0-0.3,0.1-0.6,0.1-0.9c0.1-0.5,0.2-1,0.3-1.4c0.1-0.7,0.2-1.3,0.4-2c0.1-0.5,0.1-1,0.2-1.6
		c0-0.2,0.1-0.5,0.2-0.7c0-0.5,0-0.9,0.1-1.4c0-0.1,0-0.1,0-0.2c0.1-0.4,0.2-0.8,0.3-1.2c0-0.5,0.2-0.8,0.4-1.2
		c0.1-0.2,0.1-0.5,0.1-0.7c0.1-0.4,0.1-0.7,0.2-1.1c0.2-0.7,0.3-1.4,0.5-2.1C37.5,5.2,38,5,38.5,4.9c0.3-0.1,0.7-0.3,1,0
		c0.1,0.1,0.3-0.1,0.5,0c0.5,0.1,1,0.2,1.4,0.3c0.2,0,0.5,0.1,0.7,0.1c0.4,0.1,0.5,0.2,0.5,0.6c0,0.1,0,0.3,0,0.4c0,0.2,0,0.3,0,0.5
		c0,0.2,0,0.3,0,0.5c0,0.3,0,0.6-0.1,0.9c0,0.3,0,0.6,0,0.9c0,0-0.1,0-0.2,0c0,0,0,0.1,0,0.1c0,0.2,0.1,0.4,0.1,0.6
		c0,0.1,0.1,0.3,0.1,0.4c0.1,0.3,0,0.5-0.1,0.8c0,0.1,0,0.2-0.1,0.2c0,0.1,0,0.3,0,0.4c0,0.1,0.1,0.3,0.1,0.4c0,0.2,0.1,0.4,0,0.5
		c-0.1,0.4-0.1,0.7,0.1,1c0.1,0.1,0.2,0.3-0.1,0.4c0,0-0.1,0.2,0,0.3c0.1,0.3,0.1,0.6,0.2,1c0,0.1,0,0.3,0,0.4c0,0.2,0,0.5,0.1,0.7
		c0,0.1,0.1,0.2,0.2,0.3c0.1,0.1,0.2,0.1,0.2,0.1c-0.1,0.1-0.3,0.3-0.4,0.4c0,0,0,0.1,0,0.1c0.1,0,0.3,0,0.4,0
		c0,0.2,0.1,0.4,0.1,0.6c-0.2-0.1-0.2-0.1-0.4-0.2c0.1,0.2,0.1,0.3,0.2,0.4c-0.1,0-0.1,0-0.2,0c0,0.2,0,0.3,0.1,0.5
		c0.1,0.4,0.2,0.7,0.3,1.1c0,0.2,0.1,0.4-0.2,0.4c-0.2,0-0.3,0.2-0.2,0.5c0.1,0.2,0.2,0.2,0.4,0.1c0.2-0.1,0.4,0,0.4,0.3
		c-0.1,0.5,0,0.9,0.1,1.3c0.1,0.6,0.1,1.2,0.2,1.8c0.3,0.1,0.2-0.4,0.5-0.4c0.1,0.2,0.1,0.4,0.2,0.5c0.1,0.1,0.3,0.1,0.5,0.1
		c0.2,0,0.3,0,0.5,0c0.1,0,0.2,0,0.3,0c0.3,0.2,0.5,0.1,0.8,0c0.2-0.1,0.4,0,0.6-0.1c0.5-0.2,0.7-0.7,0.9-1.2c0.2-0.7,0.3-1.4,0.8-2
		c0.3-0.4,0.3-0.9,0.4-1.4c0.1-0.3,0.2-0.7,0.2-1c0.1-0.6,0.1-1.1,0.1-1.7c0-0.4,0.1-0.9,0.2-1.3c0.1-0.7,0.3-1.3,0.5-1.9
		c0-0.2,0.2-0.3,0.3-0.5c0.2-0.3,0.5-0.7,0.6-1c0.4-0.7,0.7-1.4,1-2.1c0.1-0.3,0.1-0.6,0.3-0.9C53,8.8,53,8.6,53.1,8.3
		c0.1-0.4,0.1-0.8,0.3-1.2c0.1-0.2,0.2-0.4,0.4-0.6c0.2-0.1,0.4-0.2,0.4-0.5c0,0,0.2-0.1,0.2-0.1c0.4,0,0.8,0.1,1.1,0.2
		c0.6,0.1,1.1,0.2,1.7,0.3c0.6,0.1,1,0.4,1.1,1c0.2,1.4,0,2.8-0.7,4c-0.2,0.4-0.4,0.8-0.8,1.2c-0.2,0.2-0.1,0.5-0.2,0.8
		c-0.1,0.6-0.2,1.2-0.4,1.8c-0.1,0.4-0.3,0.7-0.5,1c-0.3,0.8-0.5,1.7-0.4,2.6c0,0.6,0,1.2-0.2,1.8c-0.2,0.7-0.5,1.3-0.5,2
		c0,0.3-0.1,0.5-0.2,0.8c0,0.1-0.1,0.1-0.1,0.2c0.1,0.5-0.2,0.7-0.6,1c-0.3,0.2-0.3,0.6-0.3,0.9c0,0.4,0.1,0.8,0.1,1.2
		c0,0.1,0.1,0.2,0.2,0.4c0.3,0.7,1,0.8,1.6,1c0.1,0,0.2,0.2,0.3,0.3c0.1,0.1,0.1,0.2,0.2,0.2c0.3,0,0.7,0.1,1,0.1
		c0.2,0,0.4,0.1,0.6,0.2c0.3,0.1,0.5,0.2,0.8,0c0,0,0.1,0,0.1,0c0.6,0.1,1.1-0.3,1.6-0.6c0.5-0.4,1-0.8,1.6-1.1
		c0.6-0.3,1.2-0.7,1.8-1.1c0.1-0.1,0.2-0.2,0.2-0.3c0.2-0.2,0.3-0.3,0.5-0.5c0,0,0.1,0,0.1-0.1c0.3-0.3,0.5-0.6,0.8-0.9
		c0.2-0.2,0.4-0.4,0.6-0.6c0.2-0.2,0.3-0.4,0.5-0.6c0.5-0.5,0.9-1,1.4-1.6c0,0,0-0.1,0.1-0.1c0.8-0.4,1.4-1,2.1-1.6
		c0.3-0.2,0.4-0.6,0.7-0.8c0.1-0.1,0.3-0.2,0.5-0.3c0,0,0.1,0,0.1,0c0-0.3,0.3-0.4,0.5-0.5c0.3-0.4,0.6-0.6,1-0.8
		c0.4-0.2,0.6-0.6,0.9-0.9c0.3-0.3,0.7-0.6,1-0.8c0,0,0.2,0,0.2,0.1c0.2,0.1,0.5,0.3,0.7,0.4c0.1,0.1,0.2,0.1,0.2,0.2
		c0.3,0.2,0.5,0.4,0.8,0.6c0.1,0.1,0.3,0.2,0.3,0.4c0.2,0.4,0.6,0.5,1,0.7c0.3,0.2,0.6,0.6,0.9,0.9c0.1,0.1,0.2,0.2,0.3,0.3
		c0.3,0.2,0.4,0.4,0.1,0.6c-0.4,0.3-0.8,0.7-1.1,1c-0.2,0.2-0.4,0.4-0.6,0.6c-0.1,0.1-0.1,0.3-0.2,0.5c-0.1,0-0.1-0.1-0.2-0.1
		c-0.2,0.2-0.3,0.4-0.5,0.6c-0.2,0.2-0.3,0.6-0.6,0.6c-0.1,0.1-0.1,0.2-0.2,0.2c-0.2,0.2-0.4,0.3-0.5,0.4c-0.2,0.2-0.4,0.4-0.6,0.5
		c-0.5,0.4-0.9,0.7-1.4,1.1c-0.2,0.2-0.5,0.3-0.7,0.5c0,0-0.1,0-0.1,0.1c-0.3,0.3-0.6,0.5-0.8,0.8c-0.3,0.3-0.7,0.5-1,0.8
		c-0.4,0.4-0.8,0.8-1.2,1.2c-0.4,0.3-0.8,0.6-1.2,0.9c-0.3,0.2-0.5,0.5-0.8,0.7c-0.2,0.2-0.5,0.5-0.7,0.7c-0.3,0.3-0.6,0.5-0.9,0.8
		c-0.3,0.3-0.6,0.7-0.9,1c-0.3,0.2-0.6,0.4-0.9,0.6c-0.2,0.1-0.4,0.1-0.3,0.4c0,0.1-0.1,0.1-0.2,0.2c-0.5,0.5-0.9,1-0.7,1.8
		c0,0,0,0.1,0,0.2c0.4-0.1,0.3,0.2,0.4,0.4c0.1,0.3,0.3,0.5,0.5,0.6c0.2,0.1,0.4,0.3,0.6,0.5c0.2,0.1,0.4,0.3,0.6,0.4
		c0.3,0.1,0.6,0.2,0.9,0.2c0.2,0,0.5,0,0.7,0c0.3,0,0.6,0.1,0.9,0.2c0.3,0,0.7,0,1,0c0.5,0,1-0.1,1.6-0.2c0.5-0.1,1.1-0.1,1.6-0.1
		c0.3,0,0.6,0,0.9,0c0.3,0,0.7,0,1-0.1c1-0.3,1.9-0.4,2.9-0.5c0.4-0.1,0.7-0.2,1.1-0.3c0.2-0.1,0.5-0.1,0.7-0.1
		c0.5,0.1,0.9-0.3,1.3-0.4c0.1,0,0.1-0.1,0.2-0.1c0.4,0,0.7-0.1,1.1-0.1c0.3,0,0.7-0.1,1-0.2c0.5-0.1,1.1-0.2,1.6-0.3
		c0.2,0,0.3-0.1,0.5-0.2c0.2,0,0.3,0,0.5-0.1c0.1,0,0.2,0,0.3,0c0.5-0.3,1.1-0.2,1.7-0.4c0.5-0.1,1-0.3,1.5-0.4
		c0.4-0.1,0.7-0.2,1.1-0.3c0.4-0.1,0.9-0.2,1.3-0.2c0.1,0,0.3,0,0.4,0c0.2,0.2,0.4,0.4,0.7,0.7c0,0,0.1,0.1,0.1,0.1
		c0.2,0.6-0.1,1.2,0.4,1.7c0,0.5-0.1,1.1,0.1,1.6c0,0,0.1,0,0.1,0c0,0.1-0.1,0.2-0.1,0.4c0,0.4-0.2,0.5-0.6,0.6
		c-0.4,0.1-0.8,0.2-1.2,0.2c-0.2,0-0.5,0-0.8,0c0.1,0.2,0.2,0.3,0.3,0.4c0,0,0,0-0.1,0c-0.1-0.1-0.2-0.2-0.4-0.2
		c-0.2-0.1-0.5-0.2-0.8,0c-0.3,0.2-0.3,0.1-0.2,0.5c0,0.1,0,0.2,0,0.3c-0.2-0.2-0.3-0.4-0.4-0.5c-0.1,0-0.2,0.1-0.3,0.2
		c-0.2,0-0.5-0.4-0.8,0.1c0.1,0,0.2,0,0.3,0.1c0.1,0,0.1,0,0.2,0.1c0,0.1,0,0.2-0.1,0.2c-0.1,0.1-0.2,0.1-0.4,0.1
		c-0.1,0-0.3,0-0.4,0c-0.1,0-0.1,0-0.2,0c-0.3-0.3-0.4-0.3-0.6,0c0,0-0.1,0-0.2,0.1c-0.2,0-0.4,0.1-0.6,0.2c-0.2-0.1-0.3-0.2-0.5,0
		c-0.1,0.1-0.2,0.1-0.3,0.1c-0.3,0.1-0.6,0.2-0.8,0.2c-1.1,0.2-2.3,0.4-3.5,0.3c-0.5,0-1,0.1-1.5,0.2c-0.3,0-0.6,0.1-0.9,0.1
		c-0.3,0-0.6,0.1-1,0.1c-0.4,0.1-0.8,0.1-1.2,0.2c-0.3,0-0.5,0.1-0.8,0.2c-0.5,0-1,0-1.4,0.1c-0.6,0.1-1.1,0.2-1.7,0.4
		c-0.4,0.1-0.8,0.1-1.2,0.4c-0.5,0.4-0.8,0.8-1,1.4c-0.1,0.2,0,0.5,0.1,0.7c0.1,0.3,0.3,0.6,0.6,0.9c0.3,0.3,0.8,0.6,1.1,0.9
		c0.4,0.4,1.1,0.6,1.4,1.1c0,0,0.1,0.1,0.2,0.1c0.7,0.3,1.5,0.6,2.2,0.8c0.5,0.1,0.9,0.2,1.4,0.3c0.2,0,0.4,0.1,0.5,0.2
		c0.3,0.1,0.6,0.1,0.9,0.1c0.7,0,1.3,0.4,2,0.5c0.5,0.1,1,0.3,1.5,0.4c0.1,0,0.2,0.1,0.3,0.1c0.4,0.1,0.9,0.2,1.3,0.3
		c0.2,0,0.4,0.1,0.6,0.1c0.2,0,0.5,0.1,0.7,0.1c0.3,0,0.7-0.1,1,0c0.8,0.2,1.6,0.3,2.4,0.3c0.8,0,1.5,0.1,2.2,0.5
		c0.5,0.3,1,0.6,1.3,1.1c0.4,0.8,0.2,1.5,0,2.2c-0.1,0.2-0.2,0.4-0.3,0.6c-0.2,0.6-0.7,0.9-1.3,1c-1.6,0.1-3.2-0.2-4.8-0.4
		c-1.4-0.2-2.9-0.5-4.3-0.7C79,56,78.1,56,77.1,55.8c-0.7-0.1-1.4-0.3-2.1-0.4c-1.1-0.2-2.3-0.3-3.4-0.5c-0.7-0.1-1.3-0.2-2-0.3
		c-1-0.1-2-0.2-3-0.2c-0.4,0-0.7,0.1-1.1,0.2c-0.5,0.1-0.9,0.4-1.2,0.8c-0.2,0.3-0.2,1,0,1.3c0.2,0.3,0.3,0.7,0.5,1
		c0.2,0.3,0.4,0.6,0.6,0.9c0.1,0.1,0.2,0.1,0.2,0.2c0.1,0.5,0.6,0.5,0.9,0.8c0.2,0.2,0.5,0.4,0.7,0.5c0.2,0.1,0.4,0.3,0.6,0.3
		c0.3,0.1,0.6,0.3,0.8,0.5c0.5,0.3,0.9,0.7,1.3,1.1c0.3,0.2,0.5,0.4,0.8,0.6c0.4,0.3,0.8,0.6,1.2,0.9c0.1,0,0.1,0.1,0.2,0.1
		c0.5,0.4,1,0.8,1.5,1.2c0.4,0.3,0.8,0.5,1.2,0.8c0.1,0,0.1,0.1,0.2,0.2c0.1,0.1,0.2,0.1,0.4,0.2c0.1,0.1,0.2,0.1,0.2,0.2
		c0.2,0.6,0.6,0.9,1.1,1.1c0.2,0.1,0.4,0.3,0.6,0.4c0.3,0.3,0.6,0.5,1,0.6c0.1,0,0.2,0.2,0.2,0.3c0.5,0,0.6,0.6,0.9,0.8
		c0.3,0.2,0.6,0.4,0.9,0.7c0.7,0.5,1.3,1,1.9,1.6c0.3,0.3,0.6,0.6,0.9,0.8c0.5,0.3,0.5,0.8,0,1.2c-0.1,0.1-0.2,0.2-0.3,0.3
		c-0.4,0.5-0.7,0.9-1.1,1.4c-0.2,0.3-0.8,0.3-1.2,0.1c-0.5-0.3-1-0.5-1.5-0.8c-0.4-0.2-0.7-0.4-1-0.6c-0.6-0.3-1.3-0.7-1.9-1
		c-0.2-0.1-0.3-0.3-0.6-0.2c-0.1,0-0.2-0.1-0.3-0.1c-0.8-0.6-1.6-1.1-2.4-1.7c-0.6-0.4-1.3-0.9-1.9-1.3c-0.5-0.3-1-0.6-1.5-0.9
		c-0.4-0.3-0.7-0.6-1.1-0.9c-0.1-0.1-0.2-0.1-0.3-0.2c-0.3-0.2-0.7-0.5-1-0.7c-0.1-0.1-0.3-0.1-0.4-0.2c-0.4-0.2-0.8-0.5-1.1-0.7
		c-0.4-0.3-0.9-0.5-1.3-0.8c-0.5-0.3-1-0.7-1.5-1.1c-0.1-0.1-0.3-0.1-0.4-0.2c-0.8-0.5-1.7-1-2.5-1.5c-0.3-0.2-0.6-0.4-0.9-0.6
		c-0.1-0.1-0.2-0.1-0.3-0.1c-0.1,0-0.2,0-0.2,0c-0.4-0.3-0.9-0.2-1.4-0.1c-0.6,0-0.9,0.6-0.9,1.2c0,0.4-0.1,0.9-0.1,1.3
		c0,0.4,0,0.8,0.2,1.1c0.2,0.5,0.4,0.9,0.7,1.3c0.2,0.3,0.4,0.5,0.6,0.8c0.2,0.2,0.3,0.4,0.5,0.7c0.4,0.8,0.9,1.5,1.3,2.3
		c0.4,0.8,1,1.4,1.2,2.3c0,0.2,0.2,0.5,0.3,0.7c0.4,0.6,0.5,1.3,1,1.9c0.1,0.1,0.1,0.3,0.2,0.4c0.1,0.2,0.2,0.3,0.3,0.5
		c0.1,0.2,0.3,0.4,0.4,0.6c0.3,0.4,0.6,0.8,0.8,1.3c0,0.1,0.2,0.2,0.3,0.4c0.2,0.3,0.3,0.7,0.5,1c0.4,0.7,0.8,1.4,1.2,2.1
		c0.2,0.4,0.6,0.6,0.6,1.1c0,0.1,0.2,0.3,0.3,0.4c0.2,0.3,0.3,0.6,0.5,0.9c0.1,0.1,0.2,0.2,0.3,0.3c0.2,0.2,0.2,0.4-0.1,0.5
		c-0.1,0-0.2,0.1-0.3,0.1C66,84.8,65.5,85,64.9,85c-0.8,0.1-1.5,0-2.3,0c-0.1,0-0.2,0-0.3-0.1c-0.4-0.4-0.9-0.8-1-1.5
		c0-0.2-0.2-0.3-0.3-0.4c-0.2-0.3-0.4-0.7-0.7-1c-0.3-0.5-0.6-1.1-1.1-1.5c-0.4-0.4-0.5-0.8-0.8-1.3c-0.2-0.4-0.5-0.8-0.7-1.2
		c-0.3-0.7-0.6-1.3-0.9-2c-0.2-0.4-0.2-0.8-0.4-1.2c-0.3-0.6-0.7-1.2-1-1.7c-0.4-0.6-0.8-1.2-1.2-1.9c-0.2-0.5-0.7-0.8-0.8-1.3
		c-0.1-0.4-0.2-0.7-0.4-1.1c-0.4-0.8-0.8-1.7-1.3-2.5c-0.4-0.6-0.8-1.1-1.3-1.6c-0.4-0.4-0.8-0.6-1.3-0.6c-0.3,0-0.7-0.2-1,0
		c-0.2,0.1-0.4,0.3-0.6,0.4c-0.1,0.2-0.2,0.4-0.3,0.7c0,0.1,0,0.2,0,0.3c0.1,0.5,0.4,1,0.4,1.6c0.1,1,0.2,2-0.2,2.9
		c-0.1,0.2-0.1,0.4-0.1,0.6c-0.1,0.7-0.1,1.4-0.2,2.1c0,0.1,0,0.2,0,0.2c0.1,0.4,0,0.7-0.1,1c-0.3,0.8-0.4,1.7-0.5,2.5
		c0,0.4-0.2,0.9-0.2,1.3c-0.1,0.5-0.2,1-0.2,1.6c-0.1,0.6-0.2,1.3-0.4,1.9c-0.1,0.5-0.3,1-0.5,1.5c0,0.1-0.1,0.2-0.1,0.3
		c-0.3,0.3-0.3,0.7-0.4,1c-0.2,0.9-0.4,1.7-0.6,2.6c-0.1,0.4-0.5,0.7-0.9,0.6c-0.2,0-0.4,0-0.6,0c-0.2,0-0.4-0.1-0.6-0.2
		c-0.8-0.2-1.6-0.4-2.5-0.6c-0.4-0.1-0.5-0.4-0.5-0.9c0.1-0.5,0.2-1-0.1-1.5c-0.1-0.3-0.2-0.6-0.2-1c0-0.2,0-0.4,0-0.5
		c0.2-0.7,0.3-1.4,0.3-2.2c0-0.4,0.1-0.7,0.1-1.1c0-0.1,0-0.2,0-0.2c0-0.6,0-1.2,0-1.8c0-0.5-0.1-0.9-0.2-1.4
		c-0.1-0.6-0.2-1.2-0.2-1.8c0-0.9,0-1.7,0-2.6c0-0.1,0-0.1,0-0.2c-0.2-0.9-0.1-1.9-0.2-2.8c0-0.4-0.1-0.8-0.2-1.2c0-0.1,0-0.1,0-0.2
		c0-0.5,0.1-1,0.1-1.4c0-0.4,0-0.8-0.1-1.2c0-0.1-0.1-0.1-0.1-0.1c-0.2-0.2-0.4-0.3-0.4-0.6c0,0,0,0,0,0c-0.5-0.1-0.5-0.9-1.2-0.8
		c-0.5,0-0.9-0.2-1.4-0.3c-0.2,0-0.3,0.1-0.5,0.1c-0.1,0-0.2,0.1-0.3,0.1c-0.4,0.4-0.7,0.8-1.1,1.2c-0.3,0.3-0.5,0.6-0.6,1
		c-0.4,1.1-0.9,2.2-1.7,3.1c-0.3,0.3-0.6,0.5-0.9,0.8c-0.5,0.4-0.9,0.9-1.4,1.3c-0.4,0.3-0.5,0.8-0.8,1.1c-0.2,0.2-0.4,0.4-0.6,0.6
		c-0.4,0.5-0.8,1.1-1.2,1.6c-0.2,0.3-0.5,0.5-0.8,0.8c0,0-0.1,0-0.1,0.1c-0.4,0.7-1,1.2-1.5,1.8c-0.3,0.4-0.8,0.8-1.3,1.1
		c-0.3,0.3-0.9,0.1-1.2-0.2c-0.1-0.1-0.2-0.1-0.4-0.2c0.1,0,0.2-0.1,0.3-0.1c0.1,0,0.2,0,0.3,0c0-0.2,0-0.4-0.1-0.5
		c-0.3-0.4-0.7-0.7-1.1-1.1c-0.1-0.1-0.2-0.2-0.3-0.3c-0.1-0.1-0.1-0.1-0.2-0.2c-0.2-0.1-0.5-0.2-0.8-0.3c-0.3-0.1-0.4,0-0.5,0.3
		c-0.1,0.3,0.1,0.4,0.3,0.4c0.1,0,0.1,0,0.2,0c-0.1,0.2-0.6,0.2-0.9,0.1c-0.2-0.2-0.2-0.4-0.1-0.7c-0.4,0.1-0.4-0.2-0.5-0.5
		c0.1,0,0.2,0,0.2,0.1c0.3,0.3,0.4,0.4,0.8,0.2c0.1-0.1,0.3-0.1,0.5-0.1c-0.5-0.4-0.9-0.7-1.3-1c-0.2-0.2-0.3-0.5-0.1-0.7
		c0.4-0.5,0.9-1.1,1.3-1.6c0-0.1,0.1-0.1,0.1-0.2c0.6-0.6,1.2-1.2,1.6-1.9c0.1-0.2,0.3-0.3,0.4-0.4c0.3-0.3,0.6-0.6,0.9-0.9
		c0.1-0.1,0.1-0.1,0.2-0.2c0.6-0.2,1-0.7,1.4-1.1c0.4-0.4,0.8-0.7,1.2-1c0.1-0.1,0.2-0.3,0.3-0.4c0.2-0.2,0.4-0.4,0.6-0.5
		c0.5-0.4,0.8-1,1.2-1.5c0.1-0.1,0.2-0.2,0.3-0.3c0.1-0.1,0.1-0.1,0.2-0.2c0.3-0.5,0.6-1.1,0.9-1.6c0.1-0.1,0-0.3,0-0.4
		c0-0.5-0.3-1-0.2-1.5C28.4,58.3,28.4,58.2,28.3,58.1z M48.8,59C48.8,59,48.8,59.1,48.8,59c0.3,0,0.5,0,0.8-0.1c0.2,0,0.4,0,0.5-0.1
		c0.7-0.3,1.3-0.6,2-1c0.1-0.1,0.3-0.2,0.4-0.3c0.2-0.1,0.4-0.3,0.7-0.4c0.1,0,0.2-0.1,0.2-0.1c0.4-0.3,0.7-0.6,1.1-0.9
		c0.2-0.1,0.5-0.2,0.4-0.5c0-0.1,0.1-0.1,0.2-0.2c0.1-0.1,0.2-0.1,0.2-0.2c0.1-0.3,0.2-0.6,0.5-0.7c0,0,0-0.1,0-0.1
		c0-0.5,0.4-0.9,0.6-1.2c0.3-0.5,0.6-1,0.8-1.5c0.1-0.3,0.3-0.4,0.6-0.4c0.3,0,0.3-0.1,0.4-0.3c0-0.3,0-0.7-0.1-1
		c-0.1-0.4-0.1-0.7,0.1-1c0.2-0.2,0.2-0.5,0.2-0.7c0-0.3,0.1-0.6,0.4-0.8c0.1,0,0.2-0.1,0.2-0.2c0-0.4,0.1-0.8,0.1-1.2
		c0-0.3-0.2-0.5-0.3-0.8c-0.1-0.3-0.2-0.5,0-0.8c0.1-0.1,0.1-0.4,0-0.6c-0.1-0.2-0.2-0.4-0.3-0.6c-0.1-0.2,0-0.4-0.3-0.6
		c-0.1,0-0.1-0.2-0.1-0.3c-0.1-0.4-0.2-0.8-0.3-1.1c-0.3-0.7-0.6-1.3-1-1.9c-0.4-0.6-0.8-1.2-1.3-1.7c-0.1-0.1-0.2-0.1-0.4-0.2
		c-0.1-0.1-0.2-0.3-0.4-0.4c-0.4-0.3-0.8-0.6-1.3-0.9c-0.3-0.2-0.7-0.4-1-0.6c-0.6-0.3-1.3-0.5-1.9-0.8c-0.3-0.1-0.6-0.2-0.8-0.3
		c-0.5-0.4-1-0.4-1.6-0.6c-0.1,0-0.3-0.1-0.4-0.1c-0.4,0-0.8-0.3-1.3-0.1c0,0,0,0,0,0c-0.7,0-1.4-0.1-2,0c-0.8,0.1-1.6,0.3-2.4,0.4
		c-0.5,0.1-0.9,0.2-1.3,0.4c-0.4,0.2-0.7,0.4-1.2,0.4c-0.1,0-0.2,0.1-0.3,0.1c-0.3,0.3-0.6,0.7-1,1c-0.4,0.4-0.6,1.1-1.2,1.3
		c0,0-0.1,0.1-0.1,0.1c-0.2,0.3-0.5,0.6-0.7,0.9c-0.1,0.2-0.3,0.3-0.3,0.5c-0.1,0.2-0.2,0.4-0.3,0.6c-0.3,0.6-0.6,1.2-0.9,1.8
		c-0.2,0.4-0.3,0.7-0.4,1.1c0,0.1-0.1,0.2-0.2,0.3c-0.3,0.2-0.4,0.7-0.2,1.1c0.1,0.2,0.2,0.4,0.2,0.6c0,0.2-0.1,0.3-0.1,0.5
		c-0.1,0.6-0.2,1.2-0.3,1.8c0,0.5,0,1.1,0,1.6c0,0.6,0,1.1,0.3,1.6c0.3,0.5,0.5,1.1,0.4,1.8c0,0.2,0,0.4,0.1,0.6
		c0.3,0.5,0.6,1.1,0.9,1.6c0.1,0.2,0.3,0.5,0.4,0.7c0.3,0.4,0.6,0.8,0.9,1.2c0.2,0.3,0.5,0.6,0.8,0.8c0,0.1,0.1,0.1,0.1,0.2
		c0.5,0.3,1,0.5,1.6,0.8c0.1,0,0.1,0,0.2,0.1c0.1,0,0.3,0.1,0.4,0.1c0.6,0.3,1.2,0.6,1.8,0.8c0.5,0.2,1,0.4,1.6,0.4
		c0.4,0,0.7,0.1,1.1,0.1c0.3,0,0.6,0.1,0.9,0.2c0.1,0,0.1,0.1,0.2,0.1c0.6,0.2,1.3,0,1.9,0C47.8,59.2,48.3,59.1,48.8,59z"/>
	<path style="fill-rule:evenodd;clip-rule:evenodd;fill:#185D8C;" d="M74.1,11.2c0.4,0.3,0.8,0.5,1.2,0.8c0.2,0.1,0.4,0.1,0.5,0.2
		c0.3,0.2,0.6,0.5,0.9,0.7c0.4,0.3,0.8,0.6,1.1,0.9c0.5,0.4,0.9,0.8,1.4,1.1c0.1,0.1,0.3,0.2,0.4,0.3c0,0,0.1,0,0.1,0.1
		c0.2,0.3,0.5,0.7,0.7,1c0.1,0.1,0.1,0.2,0.2,0.2c0.3,0,0.6,0.2,0.8,0.4c0.1,0.1,0.1,0.2,0.1,0.4c0,0.3,0,0.6,0,0.9
		c0,0.2-0.1,0.4-0.2,0.5c-0.2,0.3-0.4,0.6-0.6,0.9c-0.1,0.2-0.4,0.3-0.5,0.5c-0.4,0.4-0.7,0.9-1.1,1.3c-0.2,0.2-0.4,0.4-0.6,0.5
		c-0.7,0.6-1.3,1.1-2,1.7c-0.1,0.1-0.4,0.2-0.5,0.3c-0.3,0.2-0.5,0.3-0.7,0.5c-0.4,0.4-0.9,0.6-1.3,1c-0.5,0.4-0.9,0.8-1.4,1.2
		c-0.3,0.3-0.6,0.6-0.9,0.8c-0.5,0.3-1,0.7-1.4,1.1c-0.1,0.1-0.4,0.2-0.5,0.3c-0.3,0.2-0.7,0.4-1,0.8c-0.1,0.2-0.4,0.2-0.6,0.4
		c-0.3,0.2-0.6,0.5-0.9,0.7c-0.4,0.4-0.8,0.9-1.3,1.3c-0.2,0.2-0.6,0.4-0.8,0.6c-0.2,0.3-0.7,0.4-0.7,0.9c0,0.1,0.1,0.4,0.3,0.4
		c0.4,0.1,0.8,0.2,1.1,0.2c0.4,0,0.8,0.1,1.2-0.1c0.2-0.1,0.5,0,0.7,0.1c0.1,0,0.2,0.1,0.2,0c0.7-0.2,1.5-0.1,2.3-0.2
		c1.2-0.2,2.3-0.3,3.5-0.5c0.4-0.1,0.8-0.2,1.2-0.3c0.1,0,0.3,0,0.4-0.1c0.5-0.1,1-0.2,1.5-0.4c0.6-0.1,1.2-0.3,1.7-0.4
		c1-0.2,2-0.3,3-0.5c0.5-0.1,1.1-0.2,1.6-0.3c1-0.2,2-0.4,2.9-0.7c0.8-0.2,1.5-0.4,2.3-0.6c0.6-0.2,1.3-0.4,1.9-0.4
		c0.3,0,0.5-0.2,0.7-0.2c0.4,0,0.9-0.2,1.3,0.2c0.1,0.1,0.2,0.1,0.2,0.2c0.1,0.5,0.4,1,0.3,1.5c-0.1,0.6-0.1,1.2-0.1,1.9
		c0,0.7,0.1,1.3,0.1,2c0,0.1,0,0.2,0,0.2c0.3,0.4,0.3,0.8,0.2,1.3c0,0.1,0.1,0.3,0.2,0.5c0.4,0.6,0.2,1.1-0.1,1.7
		c0,0.1-0.1,0.1-0.2,0.1c-0.6,0.1-1.2,0.4-1.8,0.7c-0.1,0.1-0.3,0.1-0.4,0.2C91,39.8,90.9,40,90.7,40c-0.3,0.1-0.6,0.2-1,0.3
		c-0.4,0.1-0.8,0.2-1.2,0.3c-0.4,0.1-0.8,0.2-1.2,0.2c-1.1,0-2.2,0.3-3.3,0.3c-0.3,0-0.6,0.1-1,0.2c-0.4,0.1-0.9,0.1-1.4,0.1
		c-1.1,0.1-2.2,0.1-3.2,0.4c-0.1,0-0.2,0-0.3,0c-0.7,0.1-1.4,0.2-1.9,0.6c-0.4-0.2-0.6,0.1-0.9,0.2c-0.3,0.1-0.7,0.1-0.8,0.6
		c-0.1-0.1-0.2-0.1-0.2-0.2c-0.1,0.1-0.1,0.2-0.2,0.3c-0.2-0.2-0.5-0.3-0.8-0.1c-0.1,0-0.1,0-0.2,0c-0.3,0-0.6-0.1-1-0.1
		c-0.2,0-0.3,0.1-0.5,0.2c-0.1-0.1-0.1-0.4-0.4-0.1c0.2,0.6,0.7,0.9,1.3,1.1c0.4,0.1,0.7,0.2,1.1,0.3c0.6,0.2,1.1,0.5,1.6,0.7
		c0.4,0.2,0.8,0.2,1.2,0.3c0.4,0.1,0.9,0.2,1.3,0.3c0.7,0.2,1.3,0.5,2.1,0.5c0.8,0,1.6,0.2,2.5,0.3c0.3,0.1,0.7,0.1,1,0.1
		c0.5,0,1.1,0.2,1.6,0.3c0.7,0.2,1.4,0.3,2.2,0.4c0.7,0.1,1.4,0.3,2.1,0.4c0.3,0.1,0.6,0.1,0.9,0.2c0.5,0.2,0.9,0.4,1.4,0.6
		c0.2,0.1,0.4,0.1,0.5,0.2c0.3,0.2,0.7,0.4,1,0.7c0.2,0.1,0.2,0.3,0.2,0.5c-0.1,0.4,0,0.8-0.1,1.2c-0.1,0.4,0,0.8,0.1,1.1
		c0,0.1,0.1,0.2,0.1,0.3c0.2,0.3,0.3,0.5-0.1,0.7c-0.1,0.1-0.1,0.2-0.1,0.3c-0.3,0.6-0.6,1.1-0.9,1.7c-0.1,0.3-0.2,0.6-0.2,0.9
		c-0.1,0.5-0.3,0.8-0.8,0.9c-0.1,0-0.2,0.1-0.3,0.2c-0.1,0.1-0.1,0.2-0.1,0.2c-0.2,0-0.4-0.1-0.6-0.1c-0.3,0-0.5-0.1-0.7-0.2
		c-0.1-0.1-0.2-0.1-0.3-0.1c-0.3,0.1-0.5,0-0.7-0.2C87.8,57,87.5,57,87.2,57c-0.1,0-0.2,0.2-0.2,0.2c-0.2-0.1-0.4-0.1-0.5-0.1
		c-0.1,0-0.1-0.1-0.2-0.1c-0.1,0-0.2-0.1-0.2-0.1c-0.4,0.1-0.7-0.1-1.1-0.2c-0.2,0-0.5,0-0.7-0.1c-0.3,0-0.5-0.1-0.8-0.2
		c-0.2,0-0.3,0-0.5,0c-0.1,0-0.2,0-0.2-0.1c-0.4-0.3-0.8-0.2-1.2-0.2c-0.2,0-0.4-0.2-0.6-0.2c-0.5-0.1-1-0.2-1.5-0.3
		c-0.6-0.1-1.3-0.2-1.8-0.5c-0.5-0.2-1.1-0.2-1.6-0.2c-0.6,0-1.3,0-1.9-0.1c-0.5-0.1-1-0.2-1.5-0.3c-0.2,0-0.4,0-0.5-0.1
		c-0.6-0.1-1.2-0.2-1.9-0.2c-0.5-0.1-1.1,0-1.6-0.1c-0.6-0.2-1.3,0-1.9,0c-0.3,0-0.7,0.2-1,0.4c-0.2,0.1-0.2,0.4-0.1,0.5
		c0.3,0.4,0.7,0.7,1.1,1c0.4,0.3,0.8,0.4,1.2,0.6c0.4,0.3,0.8,0.7,1.2,1c0.1,0.1,0.2,0.2,0.3,0.3c0.4,0.3,0.9,0.6,1.3,0.9
		c0.1,0.1,0.2,0.1,0.3,0.2c0.2,0.2,0.4,0.3,0.6,0.5c0.3,0.2,0.6,0.4,0.9,0.6c0.9,0.6,1.8,1.3,2.8,1.8c0.4,0.2,0.6,0.5,1,0.7
		c0.6,0.3,1.2,0.7,1.7,1.2c0.5,0.5,1,1,1.6,1.5c0.2,0.2,0.5,0.3,0.7,0.5c0.6,0.4,1.1,1,1.6,1.5c0.5,0.5,1.1,0.9,1.6,1.4
		c0.5,0.5,1.1,0.8,1.6,1.2c0.1,0.1,0.3,0.2,0.3,0.4c0.2,0.5,0.1,1.1-0.3,1.4c-0.4,0.4-0.7,0.8-1.1,1.2c-0.4,0.4-0.6,0.9-0.9,1.4
		c-0.1,0.1,0,0.2-0.1,0.3c-0.5,0.5-1,1-1.5,1.5c-0.1,0-0.3,0.1-0.5,0.1c-0.4-0.1-0.9-0.2-1.2-0.6c-0.2-0.2-0.5-0.3-0.7-0.5
		c0,0-0.1,0-0.2,0c-0.1-0.4-0.4-0.6-0.8-0.7c-0.3-0.1-0.5-0.2-0.7-0.4c-0.3-0.2-0.6-0.4-0.9-0.6c-0.3-0.2-0.6-0.3-0.8-0.4
		c-0.6-0.4-1.2-0.8-1.8-1.1c-0.4-0.2-0.8-0.5-1.2-0.7c-0.2-0.1-0.4-0.3-0.6-0.4c-0.5-0.1-0.9-0.4-1.3-0.8c-0.2-0.2-0.5-0.3-0.7-0.5
		c-0.4-0.3-0.9-0.6-1.3-0.9c-0.4-0.3-0.9-0.6-1.3-0.8c-0.3-0.1-0.6-0.2-0.8-0.4c-0.5-0.3-0.9-0.6-1.3-1c-0.3-0.3-0.6-0.5-1-0.7
		c-0.4-0.2-0.8-0.5-1.2-0.7c-0.4-0.3-0.9-0.5-1.3-0.8c-0.1-0.1-0.2-0.2-0.4-0.2c-0.1-0.1-0.3-0.1-0.4-0.2c-0.1,0-0.2-0.1-0.2-0.1
		c-0.5-0.3-1-0.6-1.5-1c-0.2-0.1-0.5-0.3-0.7-0.5c-0.3-0.3-0.7-0.3-1.1-0.5c-0.1,0-0.2-0.1-0.4-0.1c-0.1,0.5-0.1,1,0.3,1.4
		c0.2,0.2,0.2,0.4,0.4,0.6c0.2,0.3,0.4,0.6,0.6,0.9c0.1,0.1,0.2,0.2,0.2,0.3c0.2,0.4,0.3,0.8,0.4,1.1c0.1,0.3,0.3,0.6,0.5,0.9
		c0.2,0.4,0.4,0.9,0.6,1.3c0,0.1,0.1,0.2,0.1,0.2c0.4,0.5,0.7,1.1,1.1,1.6c0.1,0.1,0.1,0.2,0.1,0.3c0.3,0.9,0.8,1.7,1.4,2.4
		c0.2,0.3,0.4,0.6,0.6,0.9c0.1,0.2,0.3,0.4,0.4,0.6c0.1,0.2,0.2,0.4,0.3,0.5c0.2,0.3,0.4,0.5,0.6,0.8c0.2,0.3,0.4,0.6,0.6,0.9
		c0.3,0.4,0.4,0.9,0.6,1.3c0.3,0.5,0.5,0.9,0.8,1.3c0.3,0.5,0.6,1,0.9,1.4c0,0.1,0.1,0.1,0.1,0.1c0.4,0.2,0.6,0.5,0.7,1
		c0,0.2,0.3,0.4,0.4,0.6c0.1,0.2,0.3,0.4,0.3,0.6c0,0.1,0,0.3-0.1,0.5c-0.1,0.2-0.2,0.4-0.3,0.6c-0.1,0.4-0.5,0.4-0.8,0.5
		c-0.1,0-0.2,0-0.3-0.1c-0.3-0.4-0.7-0.3-1-0.2c-0.4,0-0.8,0.1-1.2,0.2c-0.5,0.1-0.9,0.2-1.4,0.3c-0.3,0.1-0.7,0.2-1,0.2
		c-0.1,0-0.1,0-0.2,0c-0.6,0.3-1.2,0.2-1.7,0.1c-0.5-0.1-1.2-0.6-1.2-1.2c0-0.1-0.1-0.2-0.1-0.3c-0.5-0.4-0.7-1-1-1.5
		c-0.3-0.5-0.6-1-0.9-1.5c-0.6-0.9-1-1.8-1.5-2.8c-0.2-0.5-0.5-1.1-0.9-1.6c-0.3-0.5-0.7-1-1-1.5c-0.2-0.3-0.5-0.4-0.6-0.7
		c-0.2-0.3-0.4-0.6-0.6-0.8c-0.3-0.5-0.7-0.9-0.9-1.4c-0.4-0.8-0.8-1.7-1.2-2.5c-0.1-0.2-0.2-0.4-0.3-0.5c-0.1-0.2-0.2-0.4-0.3-0.7
		c0-0.1,0-0.3-0.1-0.4c-0.5-0.6-0.5-1.3-0.6-2c0-0.1-0.1-0.2-0.1-0.4c-0.1-0.3-0.4-0.4-0.7-0.4c-0.3,0-0.5,0.3-0.5,0.6
		c0,0.2,0.1,0.3,0.1,0.5c0,0.3,0,0.6,0,0.8c0,0.1,0,0.2,0,0.3c0.3,0.4,0.1,0.9,0.1,1.3c0,0.2,0,0.3,0,0.5c0,0.3,0,0.7,0,1
		c0,0.5,0,0.9,0,1.4c0,0.6-0.1,1.2-0.4,1.7c-0.1,0.1-0.1,0.3-0.1,0.5c-0.3,0.8-0.4,1.7-0.5,2.5c-0.1,0.8-0.3,1.6-0.5,2.4
		c0,0.1,0,0.3-0.1,0.4c-0.1,0.6-0.2,1.2-0.4,1.7c-0.2,0.7-0.4,1.4-0.6,2.1c-0.1,0.2-0.1,0.5-0.1,0.8c-0.1,0.2-0.2,0.5-0.2,0.7
		c-0.1,0.4-0.2,0.8,0.1,1.2c0.2,0.3-0.2,1.3-0.4,1.5c-0.1,0.1-0.2,0.3-0.4,0.4c0,0,0-0.1,0-0.1c-0.3,0-0.6,0-0.9,0.1
		c-0.7,0.1-1.4,0-2-0.1c-1-0.2-1.9-0.5-2.9-0.7c-0.3-0.4-0.8-0.1-1.1-0.3c-0.3-0.2-0.7-0.4-1-0.6c-0.2-0.1-0.4-0.2-0.5-0.3
		c-0.1-0.2-0.1-0.4-0.2-0.7c-0.1-0.3-0.2-0.6,0.2-0.8c0,0,0-0.2,0-0.3c0-0.2-0.1-0.4-0.1-0.6c0-0.7-0.1-1.5-0.1-2.2
		c0-0.4-0.1-0.9-0.1-1.3c0,0,0-0.1-0.1-0.1c-0.3-0.3-0.3-0.7-0.3-1.1c-0.1-0.5-0.2-0.9-0.2-1.3c0-0.1,0.1-0.2,0.1-0.3
		c-0.1-0.5-0.3-0.9-0.4-1.3c0.1,0,0.2-0.1,0.3-0.2c-0.1-0.1-0.1-0.2-0.2-0.2c-0.2-0.1-0.2-0.2-0.1-0.4c0.1-0.2,0.1-0.5,0.1-0.8
		c0-0.1-0.1-0.2-0.2-0.4c0.3-0.4-0.2-1.2,0.5-1.4c-0.2-0.2-0.3-0.4-0.4-0.6c0.2-0.1,0.2-0.1,0.4-0.2c-0.3-0.2-0.2-0.5-0.2-0.8
		c0.1-0.5,0.2-1,0.2-1.5c0-0.1-0.1-0.2-0.1-0.3c0-0.2,0.1-0.4,0.1-0.6c0-0.5,0.1-1.1,0.1-1.6c0-0.2,0.1-0.5,0.1-0.7c0-0.5,0-1,0-1.5
		c0-0.1-0.1-0.2-0.2-0.2c0,0-0.2,0.1-0.2,0.1c-0.3,0.5-0.8,0.8-1.3,0.9c-0.3,0.1-0.6,0.3-0.8,0.6c-0.2,0.4-0.5,0.7-0.7,1.1
		c-0.2,0.6-0.7,1-1.1,1.4c-0.1,0.1-0.2,0.2-0.4,0.3c-0.2,0.1-0.3,0.3-0.4,0.4c-0.2,0.1-0.4,0.2-0.6,0.4c-0.3,0.2-0.5,0.5-0.7,0.7
		c-0.1,0.1-0.1,0.1-0.2,0.2c-0.5,0.2-0.7,0.7-1,1.2c-0.1,0.3-0.4,0.5-0.6,0.8c-0.3,0.3-0.5,0.7-0.8,1c-0.2,0.3-0.5,0.5-0.7,0.8
		C26,74,25.5,74.5,25,75.1c-0.4,0.4-0.6,0.9-1,1.3c-0.3,0.4-0.7,1-1.4,0.9c-0.2,0-0.5,0.2-0.7,0.3c-0.2,0.1-0.4,0.1-0.5,0
		c-0.1-0.1-0.3-0.2-0.3-0.3c-0.7-0.9-1.7-1.3-2.5-1.9c-0.6-0.5-1.3-0.6-1.8-1.2c-0.1-0.2-0.2-0.4-0.4-0.6c-0.3-0.3-0.6-0.7-1-1
		c-0.2-0.2-0.5-0.4-0.7-0.7c-0.3-0.3-0.4-0.6-0.3-0.9c0-0.1,0-0.3,0-0.4c-0.1-0.4,0-0.5,0.4-0.6c0.2-0.1,0.4-0.1,0.6-0.3
		c0.3-0.3,0.6-0.7,0.9-1c0.4-0.5,0.8-1,1.2-1.5c0.3-0.4,0.7-0.7,1-1.1c0.2-0.2,0.2-0.5,0.4-0.7c0.2-0.3,0.4-0.6,0.7-0.8
		c0.5-0.5,1.1-0.9,1.6-1.4c0.9-0.7,1.8-1.4,2.7-2.1c0.5-0.4,0.8-0.8,1-1.4c0.2-0.4,0.4-0.9,0.7-1.3c0.2-0.3,0.3-0.7,0-1
		c-0.2-0.3-0.5-0.4-1-0.3c-0.2,0.1-0.4,0.1-0.6,0.2c-0.5,0.1-1,0.2-1.6,0.3c-0.7,0.1-1.4,0.1-2.2,0.2c-0.3,0-0.6,0.1-0.9,0.2
		c-0.8,0.3-1.7,0.2-2.5,0.8c-0.1,0.1-0.3,0.1-0.5,0.1c-0.7,0.2-1.3,0.5-2,0.7c-0.6,0.2-1.2,0.3-1.8,0.4c-0.2,0.1-0.5,0.2-0.7,0.2
		c-0.3,0.1-0.6,0.1-0.9,0.2c-0.3,0.1-0.7,0.2-1,0.3c-0.5,0.1-1.1,0.3-1.7,0.4c-1.3,0.1-2.6,0.1-3.9,0.4c-0.2,0.1-0.4,0-0.5-0.2
		c-0.3-0.3-0.4-0.7-0.4-1.2c-0.1-0.8-0.3-1.7-0.4-2.5c0-0.3,0-0.7,0-1.1c0-0.2,0-0.3-0.1-0.5C3.1,56,3,55.8,3,55.6
		c0.1-0.5-0.3-0.9-0.5-1.3c-0.1-0.1-0.1-0.2-0.2-0.4c0-0.3,0-0.5,0-0.8c0-0.3,0.3-0.5,0.5-0.6c0.5-0.2,0.9-0.4,1.2-0.9
		c0.2-0.3,0.6-0.4,1-0.5c0.3-0.1,0.6,0,0.9,0c0.1,0,0.2,0,0.3,0c0.4-0.1,0.9-0.2,1.3-0.3c0.4-0.1,0.8-0.2,1.1-0.3
		c0.5-0.1,0.9-0.2,1.4-0.3c0.8-0.2,1.6-0.4,2.4-0.6c0.7-0.2,1.4-0.4,2.1-0.6c0.2-0.1,0.3-0.1,0.5-0.2c0.8-0.4,1.5-0.8,2.3-1.1
		c0.7-0.3,1.4-0.6,2.1-0.9c0.4-0.2,0.7-0.7,0.8-1.1c0-0.1-0.2-0.3-0.3-0.4c-0.2-0.1-0.5-0.1-0.8-0.2c-0.1,0-0.3-0.1-0.4-0.1
		c-0.2-0.1-0.4-0.2-0.6-0.1c-0.3,0.1-0.6-0.1-0.6-0.3c-0.2-0.1-0.3-0.2-0.4-0.3c-0.1-0.1-0.2-0.2-0.3-0.2c-0.4-0.2-0.7-0.4-1.1-0.6
		c-0.1,0-0.1-0.1-0.2-0.1c-0.6-0.1-0.9-0.4-1.4-0.7c-0.5-0.3-1.1-0.5-1.7-0.7c-0.6-0.2-1.3-0.5-1.9-0.7c-0.4-0.1-0.7-0.4-1.1-0.5
		c-0.3,0-0.5-0.2-0.8-0.3C8,40.3,7.3,40.2,6.7,40c-0.4-0.2-0.8-0.4-1.2-0.6c-0.3-0.1-0.6-0.3-0.9-0.5c-0.2-0.1-0.3-0.3-0.5-0.4
		C3.7,38.5,3.4,38,3,37.9c-0.1,0-0.2-0.1-0.3-0.2c-0.1-0.1-0.2-0.2-0.3-0.3c-0.1-0.1-0.2-0.2-0.3-0.2c-0.3-0.2-0.6-0.3-0.9-0.5
		c-0.2-0.1-0.3-0.3-0.4-0.5c-0.1-0.2-0.2-0.3-0.3-0.5c-0.2-0.2-0.4-0.5-0.5-0.8c0-0.2,0.2-0.4,0.3-0.6c0.1-0.3,0.3-0.5,0.1-0.8
		c0,0,0-0.1,0-0.2c0-0.3,0.1-0.6,0.1-0.9c0-0.5,0.2-0.9,0.6-1.2c0.3-0.2,0.5-0.5,0.7-0.8c0.2-0.3,0.4-0.8,0.6-1.1
		c0.4-0.4,0.7-1,1.4-1.1c0.2,0,0.4-0.1,0.6-0.2c0.2,0.1,0.4,0.2,0.7,0.3c0.7,0.3,1.4,0.6,2.2,0.7c0.1,0,0.2,0,0.3,0.1
		c0.3,0.1,0.6,0.3,0.9,0.4c0.1,0,0.2,0.1,0.3,0.1c0.2,0,0.5-0.2,0.6,0.1c0.5,0,0.8,0.2,1.2,0.4c0.5,0.3,1,0.3,1.5,0.4
		c0.4,0.1,0.8,0,1.1-0.1c0.2,0,0.4-0.1,0.5-0.1c0,0,0,0,0,0.1c-0.1,0-0.2,0.1-0.3,0.1c0,0,0,0,0,0.1c0.1,0,0.3,0,0.3,0
		c0.3-0.3,0.5-0.1,0.8,0.1c0.1,0.1,0.3,0.1,0.4,0c0.2-0.1,0.5-0.1,0.7-0.1c0.3,0.1,0.7,0,1,0c0.1,0,0.2,0,0.2,0
		c0.9,0.2,1.9,0.3,2.8,0.2c0.5,0,1.1-0.1,1.5-0.6c0.1-0.1,0.2-0.3,0.3-0.5c0.1-0.3,0.2-0.6,0.2-0.9c0,0,0-0.1,0-0.2
		c-0.3-0.4-0.6-0.9-0.8-1.3c-0.2-0.3-0.4-0.5-0.6-0.7c0,0,0-0.1-0.1-0.1c-0.6-0.3-0.9-0.9-1.4-1.4c-0.4-0.4-0.8-0.7-1.2-1.1
		c-0.6-0.5-1.1-1-1.7-1.4c-0.5-0.4-1-0.9-1.4-1.4c-0.5-0.6-1.1-1.2-1.6-1.7c-0.3-0.3-0.7-0.5-1-0.8c-0.2-0.2-0.3-0.4-0.4-0.6
		c-0.3-0.3-0.6-0.6-1-1c-0.1-0.1-0.2-0.2-0.3-0.2c-0.3-0.2-0.7-0.4-0.9-0.7c0-0.1-0.1-0.2-0.1-0.2c0-0.1-0.1-0.3-0.1-0.4
		c0-0.1,0-0.2,0-0.2c0.2-0.1,0.1-0.3,0.1-0.5c0-0.2,0.1-0.5,0.2-0.7c0.3-0.3,0.6-0.6,1-0.9c0,0,0.1-0.1,0.1-0.1
		c0.5-1.1,1.4-1.8,2.1-2.6c0.3-0.3,0.7-0.6,1-0.9c0.1-0.1,0.2-0.1,0.3,0c0.5,0.2,0.9,0.3,1.4,0.5c0.4,0.2,0.7,0.4,1,0.6
		c0.2,0.1,0.3,0.1,0.5-0.1c0.1,0.1,0.1,0.2,0.2,0.3c0.4-0.3,0.6,0.1,0.8,0.2c0.2,0.1,0.5,0.2,0.7,0.4c0.2,0.1,0.5,0.3,0.7,0.5
		c-0.1,0.1-0.2,0.1-0.3,0.2c0.1,0.1,0.2,0.1,0.3,0.1c0.3-0.1,0.5,0.2,0.7,0.3c0.7,0.5,1.3,1,2,1.4c0.5,0.4,0.9,0.8,1.4,1.1
		c0.7,0.5,1.3,1,2,1.3c0.5,0.2,0.9,0.6,1.4,0.8c0.7,0.4,1.5,0.8,2.2,1.2c0.1,0.1,0.2,0.1,0.3,0.2c0.4,0.4,0.9,0.5,1.3,0.7
		c0.2,0.1,0.4,0,0.6-0.1c0.1,0,0.2-0.1,0.3-0.2c0.4-0.2,0.4-0.2,0.1-0.5c0.1-0.5,0.2-1,0.3-1.5c0-0.1,0-0.1,0-0.2
		c0-0.1,0-0.2,0.1-0.3c0.3-0.2,0.4-0.6,0.3-0.9c0,0,0-0.1,0-0.1c0.1-0.5,0.2-1.1,0.3-1.6c0.1-0.4,0.1-0.8,0.1-1.2
		c0-0.3,0.2-0.6,0.2-0.9c0-0.5,0.3-0.9,0.3-1.4c0-0.6,0.1-1.2,0.2-1.8c0-0.5,0-0.9,0.1-1.4c0-0.2,0.1-0.4,0.2-0.7
		c0-0.1,0.1-0.1,0-0.1c-0.1-0.7,0.3-1.4,0.3-2.1c0-0.5,0.3-0.9,0.2-1.3c0-0.5,0.2-0.9,0.4-1.3c0.3-0.5,0.5-1.1,1.1-1.4
		c0,0,0.1-0.1,0.1-0.1C36.3-0.1,37.1,0,37.7,0c0.2,0,0.4,0,0.5,0c0.3,0.1,0.5,0.2,0.8,0.2c0.2,0.1,0.4,0.1,0.6,0.2
		c0.4,0.1,0.8,0.2,1.3,0.3c0.3,0.1,0.6-0.1,0.9-0.3c0.2-0.1,0.4-0.2,0.6-0.2c0.1,0,0.2,0.1,0.2,0.2c0.1,0.3,0.3,0.6,0.6,0.7
		c0.1,0,0.1,0.2,0.1,0.2c0.1,1.3,0.2,2.6,0.3,3.9c0,0.5,0.2,1.1,0.3,1.6C44,7.3,44,7.6,44,8c0.1,1.3,0.1,2.7,0.2,4
		c0.2,1.9,0.1,3.8,0.1,5.7c0,0.3,0.1,0.5,0.2,0.7c0.1,0.3,0.3,0.6,0.4,0.9c0.1,0.2,0.3,0.4,0.6,0.3c0.3,0,0.4-0.2,0.4-0.4
		c0,0,0-0.1,0-0.1c0.7-0.8,0.5-1.8,0.7-2.7c0-0.3,0.1-0.6,0.1-0.8c0-0.5,0.1-0.9,0.3-1.3c0.1-0.4,0.2-0.9,0.2-1.4
		c0-0.2,0.1-0.4,0.2-0.6c0.1-0.3,0.2-0.7,0.3-1c0.1-0.3,0.2-0.5,0.3-0.8c0-0.1,0.1-0.3,0.1-0.4c-0.1,0-0.2,0-0.3-0.1
		c0,0,0-0.1,0-0.1c0.5-0.7,1-1.5,1.5-2.2c0.1-0.2,0.2-0.4,0.1-0.6c-0.1-0.4,0.1-0.6,0.2-0.9c0.4-0.8,0.8-1.6,1.3-2.3
		c0.5-0.8,1-1.6,1.5-2.4c0.2-0.3,0.3-0.3,0.7-0.1c0.2,0.1,0.5,0.1,0.8,0.2c0.4,0.1,0.8,0.2,1.2,0.3c0.3,0.1,0.5,0.1,0.8,0.2
		c0.3,0.1,0.5,0.3,0.8,0.4c0.2,0.1,0.5,0.1,0.7,0.2c0.3,0.1,0.5,0.4,0.8,0.1c0,0,0.1,0,0.1,0.1c0.3,0.3,0.7,0.4,1,0.5
		c0.2,0.1,0.3,0.2,0.5,0.4c0.5,0.4,0.2,1,0.2,1.5c0,0,0,0.1,0,0.1c-0.4,0.4-0.3,1-0.4,1.5c-0.1,0.5-0.1,1.1-0.3,1.6
		c-0.1,0.4-0.4,0.8-0.6,1.2c-0.1,0.2-0.3,0.4-0.2,0.8c0,0.2-0.2,0.5-0.3,0.7c-0.1,0.3-0.3,0.5-0.3,0.8c-0.1,0.5-0.2,1.1-0.3,1.6
		c0,0.2-0.1,0.5-0.2,0.7c-0.3,0.3-0.3,0.7-0.4,1.1c0,0.3-0.2,0.6-0.2,0.9c0,0.7,0,1.3-0.1,2c0,0.2-0.1,0.5-0.2,0.7
		c-0.2,0.8-0.3,1.6-0.5,2.4c-0.1,0.5-0.2,0.9-0.3,1.4c-0.1,0.3-0.3,0.7-0.4,1c-0.1,0.3,0,0.4,0.3,0.5c0.3,0.1,0.5,0.2,0.8,0.3
		c0.5,0.3,0.9,0.2,1.4,0.1c0.6,0,0.9-0.4,1.3-0.7c0.2-0.1,0.5-0.2,0.7-0.4c0.4-0.3,0.9-0.5,1.2-0.9c0.1-0.2,0.4-0.3,0.5-0.4
		c0.5-0.4,1-0.7,1.1-1.4c0,0,0,0,0,0c0.4-0.4,0.7-1,1.3-1.3c0.2-0.1,0.4-0.3,0.5-0.5c0.3-0.4,0.6-0.7,0.9-1.1
		c0.2-0.2,0.5-0.4,0.7-0.5c0.2-0.2,0.5-0.3,0.7-0.6c0.2-0.3,0.3-0.7,0.8-0.8c0.6-0.6,1.2-1.3,1.9-1.9c0.3-0.2,0.6-0.4,0.9-0.6
		c0.3-0.2,0.5-0.4,0.7-0.7c0.2-0.1,0.4-0.3,0.5-0.4c0.2-0.2,0.3-0.3,0.5-0.5c0.1-0.1,0.2-0.2,0.3-0.2c0.2-0.1,0.4-0.2,0.5-0.3
		c0.2-0.1,0.4-0.3,0.7-0.1C73.8,11.4,74,11.2,74.1,11.2z M27.7,56.1c0,0.2,0.1,0.3,0.1,0.4C27.7,57,28,57.4,28,58c0,0.1,0,0.3,0,0.4
		c-0.3,0.6-0.6,1.1-0.9,1.6c0,0.1-0.1,0.1-0.2,0.2c-0.1,0.1-0.2,0.2-0.3,0.3c-0.4,0.5-0.6,1.1-1.2,1.5c-0.2,0.2-0.4,0.3-0.6,0.5
		c-0.1,0.1-0.2,0.3-0.3,0.4c-0.4,0.3-0.8,0.6-1.2,1C23,64.3,22.6,64.7,22,65c-0.1,0-0.1,0.1-0.2,0.2c-0.3,0.3-0.6,0.6-0.9,0.9
		c-0.1,0.1-0.3,0.3-0.4,0.4c-0.4,0.7-1,1.3-1.6,1.9c-0.1,0.1-0.1,0.1-0.1,0.2c-0.4,0.5-0.8,1.1-1.3,1.6c-0.2,0.2-0.1,0.5,0.1,0.7
		c0.4,0.3,0.9,0.7,1.3,1c-0.2,0.1-0.4,0.1-0.5,0.1c-0.4,0.2-0.5,0.1-0.8-0.2c0-0.1-0.2-0.1-0.2-0.1c0.1,0.3,0.1,0.6,0.5,0.5
		c-0.1,0.3-0.1,0.5,0.1,0.7c0.2,0.2,0.7,0.1,0.9-0.1c-0.1,0-0.1,0-0.2-0.1c-0.2,0-0.4-0.1-0.3-0.4c0.1-0.2,0.2-0.4,0.5-0.3
		c0.3,0.1,0.5,0.2,0.8,0.3c0.1,0,0.1,0.1,0.1,0.2c0.1,0.1,0.2,0.2,0.3,0.3c0.4,0.4,0.7,0.7,1.1,1.1c0.1,0.1,0.1,0.3,0.1,0.5
		c-0.1,0-0.2,0-0.3,0c-0.1,0-0.1,0-0.3,0.1c0.2,0.1,0.3,0.1,0.4,0.2c0.3,0.3,0.9,0.4,1.2,0.2c0.5-0.3,0.9-0.7,1.3-1.1
		c0.5-0.6,1.1-1.1,1.5-1.8c0,0,0.1-0.1,0.1-0.1c0.3-0.3,0.5-0.5,0.8-0.8c0.4-0.5,0.8-1.1,1.2-1.6c0.2-0.2,0.4-0.4,0.6-0.6
		c0.3-0.4,0.4-0.8,0.8-1.1c0.5-0.4,0.9-0.8,1.4-1.3c0.3-0.3,0.6-0.5,0.9-0.8c0.8-0.9,1.3-2,1.7-3.1c0.2-0.4,0.3-0.7,0.6-1
		c0.4-0.4,0.7-0.8,1.1-1.2c0.1-0.1,0.2-0.1,0.3-0.1c0.2,0,0.3-0.1,0.5-0.1c0.5,0.1,0.9,0.4,1.4,0.3c0.7-0.1,0.7,0.7,1.2,0.8
		c0,0,0,0,0,0c0,0.3,0.2,0.4,0.4,0.6c0,0,0.1,0.1,0.1,0.1c0,0.4,0.1,0.8,0.1,1.2c0,0.5-0.1,1-0.1,1.4c0,0.1,0,0.1,0,0.2
		c0.1,0.4,0.2,0.8,0.2,1.2c0.1,0.9,0,1.9,0.2,2.8c0,0,0,0.1,0,0.2c0,0.9,0,1.7,0,2.6c0,0.6,0.1,1.2,0.2,1.8c0.1,0.5,0.1,0.9,0.2,1.4
		c0,0.6,0,1.2,0,1.8c0,0.1,0,0.2,0,0.2c0,0.4-0.2,0.8-0.1,1.1c0.1,0.8,0,1.5-0.3,2.2c-0.1,0.2-0.1,0.4,0,0.5c0.1,0.3,0.1,0.7,0.2,1
		c0.2,0.5,0.1,1,0.1,1.5c-0.1,0.6,0,0.8,0.4,0.9c0.8,0.2,1.6,0.4,2.5,0.6c0.2,0,0.4,0.1,0.6,0.2c0.2,0,0.4,0,0.6,0
		c0.4,0.1,0.8-0.1,0.9-0.6c0.2-0.9,0.4-1.7,0.6-2.6c0.1-0.4,0.1-0.7,0.4-1c0.1-0.1,0.1-0.2,0.1-0.3c0.2-0.5,0.3-1,0.5-1.5
		c0.2-0.6,0.3-1.3,0.4-1.9c0.1-0.5,0.2-1,0.2-1.6c0.1-0.4,0.2-0.9,0.2-1.3c0-0.9,0.1-1.7,0.5-2.5c0.1-0.3,0.2-0.6,0.1-1
		c0-0.1,0-0.1,0-0.2c0.1-0.7,0.1-1.4,0.2-2.1c0-0.2,0-0.5,0.1-0.6c0.4-1,0.3-1.9,0.2-2.9c-0.1-0.5-0.3-1-0.4-1.6c0-0.1,0-0.2,0-0.3
		c0.1-0.2,0.2-0.5,0.3-0.7s0.4-0.3,0.6-0.4c0.3-0.2,0.7,0,1,0c0.6,0,0.9,0.2,1.3,0.6c0.5,0.5,0.9,1,1.3,1.6c0.5,0.8,0.9,1.7,1.3,2.5
		c0.2,0.3,0.3,0.7,0.4,1.1c0.1,0.5,0.6,0.8,0.8,1.3c0.4,0.6,0.8,1.2,1.2,1.9c0.3,0.6,0.7,1.1,1,1.7c0.2,0.4,0.3,0.8,0.4,1.2
		c0.3,0.7,0.6,1.3,0.9,2c0.2,0.4,0.4,0.8,0.7,1.2c0.3,0.4,0.4,0.9,0.8,1.3c0.4,0.4,0.7,1,1.1,1.5c0.2,0.3,0.4,0.7,0.7,1
		c0.1,0.2,0.3,0.3,0.3,0.4c0.2,0.6,0.6,1,1,1.5c0.1,0.1,0.2,0.1,0.3,0.1c0.8,0,1.5,0,2.3,0c0.5,0,1.1-0.2,1.6-0.3
		c0.1,0,0.2,0,0.3-0.1c0.2-0.1,0.3-0.3,0.1-0.5C66.1,82.1,66,82,66,81.9c-0.2-0.3-0.3-0.6-0.5-0.9c-0.1-0.1-0.3-0.3-0.3-0.4
		c0.1-0.5-0.4-0.7-0.6-1.1c-0.4-0.7-0.8-1.4-1.2-2.1c-0.2-0.3-0.3-0.7-0.5-1c-0.1-0.1-0.3-0.2-0.3-0.3c-0.2-0.5-0.5-0.9-0.8-1.3
		c-0.1-0.2-0.3-0.4-0.4-0.6c-0.1-0.2-0.2-0.3-0.3-0.5c-0.1-0.1-0.1-0.3-0.2-0.4c-0.5-0.5-0.7-1.3-1-1.9c-0.1-0.2-0.3-0.5-0.3-0.7
		c-0.2-0.9-0.8-1.5-1.2-2.3c-0.4-0.8-0.8-1.6-1.3-2.3c-0.1-0.2-0.3-0.5-0.5-0.7c-0.2-0.3-0.4-0.5-0.6-0.8c-0.3-0.4-0.5-0.9-0.7-1.3
		c-0.1-0.4-0.2-0.8-0.2-1.1c0-0.4,0.1-0.9,0.1-1.3c0-0.6,0.3-1.1,0.9-1.2c0.5,0,0.9-0.1,1.4,0.1c0.1,0,0.2,0,0.2,0
		c0.1,0,0.2,0,0.3,0.1c0.3,0.2,0.6,0.5,0.9,0.6c0.8,0.5,1.7,1,2.5,1.5c0.1,0.1,0.3,0.1,0.4,0.2c0.5,0.3,1,0.7,1.5,1.1
		c0.4,0.3,0.9,0.5,1.3,0.8c0.4,0.2,0.8,0.5,1.1,0.7c0.1,0.1,0.3,0.1,0.4,0.2c0.4,0.2,0.7,0.5,1,0.7c0.1,0.1,0.2,0.1,0.3,0.2
		c0.4,0.3,0.7,0.7,1.1,0.9c0.5,0.3,1,0.6,1.5,0.9c0.6,0.4,1.3,0.9,1.9,1.3c0.8,0.6,1.6,1.1,2.4,1.7c0.1,0.1,0.2,0.2,0.3,0.1
		c0.3-0.1,0.4,0.1,0.6,0.2c0.6,0.3,1.3,0.7,1.9,1c0.4,0.2,0.7,0.4,1,0.6c0.5,0.3,1,0.5,1.5,0.8c0.4,0.2,0.9,0.2,1.2-0.1
		c0.4-0.5,0.7-0.9,1.1-1.4c0.1-0.1,0.2-0.2,0.3-0.3c0.5-0.4,0.5-0.9,0-1.2c-0.3-0.2-0.6-0.5-0.9-0.8c-0.6-0.6-1.2-1.1-1.9-1.6
		c-0.3-0.2-0.6-0.5-0.9-0.7c-0.3-0.2-0.4-0.8-0.9-0.8c-0.1-0.1-0.1-0.3-0.2-0.3c-0.4-0.1-0.7-0.3-1-0.6c-0.2-0.2-0.4-0.4-0.6-0.4
		c-0.6-0.2-1-0.5-1.1-1.1c0-0.1-0.1-0.1-0.2-0.2c-0.1-0.1-0.3-0.1-0.4-0.2c-0.1,0-0.1-0.1-0.2-0.2c-0.4-0.3-0.8-0.5-1.2-0.8
		c-0.5-0.4-1-0.8-1.5-1.2c-0.1-0.1-0.1-0.1-0.2-0.2c-0.4-0.3-0.8-0.6-1.2-0.9c-0.3-0.2-0.5-0.4-0.8-0.6c-0.4-0.4-0.9-0.7-1.3-1.1
		c-0.2-0.2-0.5-0.4-0.8-0.5c-0.2-0.1-0.4-0.2-0.6-0.3c-0.2-0.2-0.5-0.4-0.7-0.5c-0.3-0.2-0.8-0.3-0.9-0.8c0-0.1-0.1-0.1-0.2-0.2
		c-0.2-0.3-0.5-0.6-0.6-0.9c-0.2-0.3-0.3-0.7-0.5-1c-0.2-0.3-0.2-1,0-1.3c0.3-0.4,0.7-0.7,1.2-0.8c0.4-0.1,0.7-0.3,1.1-0.2
		c1,0,2,0.1,3,0.2c0.7,0.1,1.3,0.2,2,0.3c1.1,0.2,2.3,0.3,3.4,0.5c0.7,0.1,1.4,0.3,2.1,0.4c0.9,0.1,1.9,0.2,2.9,0.4
		c1.4,0.2,2.9,0.5,4.3,0.7c1.6,0.2,3.2,0.5,4.8,0.4c0.7,0,1.1-0.3,1.3-1c0.1-0.2,0.2-0.4,0.3-0.6c0.2-0.7,0.5-1.4,0-2.2
		c-0.3-0.6-0.8-0.9-1.3-1.1c-0.7-0.4-1.4-0.5-2.2-0.5c-0.8,0-1.6-0.1-2.4-0.3c-0.3-0.1-0.6,0-1,0c-0.2,0-0.5-0.1-0.7-0.1
		c-0.2,0-0.4-0.1-0.6-0.1c-0.4-0.1-0.9-0.2-1.3-0.3c-0.1,0-0.2-0.1-0.3-0.1c-0.5-0.1-1-0.3-1.5-0.4c-0.7-0.1-1.3-0.5-2-0.5
		c-0.3,0-0.6-0.1-0.9-0.1c-0.2,0-0.4-0.1-0.5-0.2c-0.5-0.1-0.9-0.2-1.4-0.3c-0.8-0.2-1.5-0.5-2.2-0.8c-0.1,0-0.1-0.1-0.2-0.1
		c-0.3-0.6-1-0.7-1.4-1.1c-0.3-0.3-0.8-0.5-1.1-0.9c-0.2-0.2-0.4-0.6-0.6-0.9c-0.1-0.2-0.2-0.5-0.1-0.7c0.2-0.5,0.6-1,1-1.4
		c0.4-0.3,0.8-0.3,1.2-0.4c0.6-0.2,1.1-0.3,1.7-0.4c0.5-0.1,0.9,0,1.4-0.1c0.3,0,0.5-0.1,0.8-0.2c0.4-0.1,0.8-0.1,1.2-0.2
		c0.3,0,0.6-0.1,1-0.1c0.3,0,0.6-0.1,0.9-0.1c0.5-0.1,1-0.2,1.5-0.2c1.2,0.1,2.3-0.1,3.5-0.3c0.3-0.1,0.6-0.2,0.8-0.2
		c0.1,0,0.3-0.1,0.3-0.1c0.2-0.2,0.3-0.2,0.5,0c0.2-0.1,0.4-0.1,0.6-0.2c0.1,0,0.1,0,0.2-0.1c0.3-0.3,0.4-0.3,0.6,0c0,0,0.1,0,0.2,0
		c0.1,0,0.3,0,0.4,0c0.1,0,0.3,0,0.4-0.1c0.1,0,0.1-0.1,0.1-0.2c-0.1,0-0.1-0.1-0.2-0.1c-0.1,0-0.2,0-0.3-0.1c0.3-0.5,0.6,0,0.8-0.1
		c0.1-0.1,0.3-0.2,0.3-0.2c0.1,0.1,0.2,0.3,0.4,0.5c0-0.1,0-0.2,0-0.3c-0.1-0.3-0.1-0.3,0.2-0.5c0.3-0.1,0.5-0.1,0.8,0
		c0.1,0,0.3,0.1,0.4,0.2c0,0,0,0,0.1,0c-0.1-0.1-0.2-0.2-0.3-0.4c0.3,0,0.5,0,0.8,0c0.4-0.1,0.8-0.2,1.2-0.2c0.4,0,0.6-0.2,0.6-0.6
		c0-0.1,0.1-0.2,0.1-0.4c0,0-0.1,0-0.1,0c-0.3-0.5-0.2-1.1-0.1-1.6c-0.5-0.5-0.2-1.1-0.4-1.7c0,0-0.1-0.1-0.1-0.1
		c-0.2-0.2-0.4-0.5-0.7-0.7c-0.1-0.1-0.3-0.1-0.4,0c-0.4,0.1-0.9,0.2-1.3,0.2c-0.4,0.1-0.8,0.2-1.1,0.3c-0.5,0.1-1,0.3-1.5,0.4
		c-0.5,0.2-1.1,0.1-1.7,0.4c-0.1,0-0.2,0-0.3,0c-0.2,0-0.3,0-0.5,0.1c-0.2,0-0.3,0.1-0.5,0.2c-0.5,0.1-1.1,0.2-1.6,0.3
		c-0.3,0.1-0.7,0.2-1,0.2c-0.4,0.1-0.7,0.1-1.1,0.1c-0.1,0-0.1,0-0.2,0.1c-0.4,0.1-0.8,0.4-1.3,0.4c-0.2,0-0.5,0.1-0.7,0.1
		c-0.4,0.1-0.7,0.2-1.1,0.3c-1,0.1-2,0.2-2.9,0.5c-0.3,0.1-0.7,0.1-1,0.1c-0.3,0-0.6,0-0.9,0c-0.5,0-1.1,0.1-1.6,0.1
		c-0.5,0-1,0.1-1.6,0.2c-0.3,0-0.7,0-1,0c-0.3,0-0.6-0.1-0.9-0.2c-0.2,0-0.5,0-0.7,0c-0.3-0.1-0.6-0.1-0.9-0.2
		c-0.2-0.1-0.4-0.2-0.6-0.4c-0.2-0.1-0.4-0.3-0.6-0.5c-0.3-0.1-0.5-0.3-0.5-0.6c0-0.2,0-0.5-0.4-0.4c0-0.1,0-0.1,0-0.2
		C62,33,62.5,32.5,63,32c0.1-0.1,0.2-0.1,0.2-0.2c0-0.3,0.2-0.3,0.3-0.4c0.3-0.2,0.7-0.3,0.9-0.6c0.3-0.3,0.6-0.7,0.9-1
		c0.3-0.3,0.6-0.5,0.9-0.8c0.2-0.2,0.5-0.5,0.7-0.7c0.3-0.3,0.5-0.5,0.8-0.7c0.4-0.3,0.8-0.6,1.2-0.9c0.4-0.4,0.8-0.8,1.2-1.2
		c0.3-0.3,0.7-0.6,1-0.8c0.3-0.2,0.6-0.5,0.8-0.8c0,0,0.1,0,0.1-0.1c0.2-0.1,0.5-0.3,0.7-0.5c0.5-0.3,0.9-0.7,1.4-1.1
		c0.2-0.2,0.4-0.3,0.6-0.5c0.2-0.2,0.4-0.3,0.5-0.4c0.1,0,0.1-0.1,0.2-0.2c0.3,0,0.4-0.4,0.6-0.6c0.2-0.2,0.3-0.4,0.5-0.6
		c0.1,0.1,0.2,0.1,0.2,0.1c0-0.2,0.1-0.4,0.2-0.5c0.2-0.2,0.4-0.4,0.6-0.6c0.4-0.3,0.8-0.7,1.1-1c0.3-0.2,0.2-0.4-0.1-0.6
		c-0.1-0.1-0.2-0.2-0.3-0.3c-0.3-0.3-0.6-0.7-0.9-0.9c-0.3-0.2-0.7-0.4-1-0.7c-0.1-0.1-0.2-0.2-0.3-0.4c-0.3-0.2-0.5-0.4-0.8-0.6
		c-0.1-0.1-0.2-0.1-0.2-0.2c-0.2-0.2-0.5-0.3-0.7-0.4c-0.1,0-0.2-0.1-0.2-0.1c-0.4,0.3-0.7,0.5-1,0.8c-0.3,0.3-0.6,0.7-0.9,0.9
		c-0.4,0.2-0.7,0.5-1,0.8c-0.1,0.2-0.5,0.2-0.5,0.5c0,0-0.1,0-0.1,0c-0.2,0.1-0.4,0.2-0.5,0.3c-0.2,0.3-0.4,0.6-0.7,0.8
		c-0.7,0.6-1.3,1.2-2.1,1.6c0,0-0.1,0.1-0.1,0.1c-0.5,0.5-0.9,1-1.4,1.6c-0.2,0.2-0.3,0.4-0.5,0.6c-0.2,0.2-0.4,0.4-0.6,0.6
		c-0.3,0.3-0.5,0.6-0.8,0.9c0,0-0.1,0-0.1,0.1c-0.2,0.2-0.4,0.3-0.5,0.5c-0.1,0.1-0.1,0.2-0.2,0.3c-0.6,0.4-1.2,0.8-1.8,1.1
		c-0.6,0.3-1.1,0.7-1.6,1.1c-0.5,0.3-1,0.7-1.6,0.6c0,0-0.1,0-0.1,0c-0.3,0.2-0.5,0.1-0.8,0c-0.2-0.1-0.4-0.2-0.6-0.2
		c-0.3-0.1-0.7-0.1-1-0.1c-0.1,0-0.1-0.1-0.2-0.2c-0.1-0.1-0.2-0.3-0.3-0.3c-0.6-0.2-1.3-0.3-1.6-1c-0.1-0.1-0.1-0.2-0.2-0.4
		C53,24.4,53,24,53,23.6c0-0.3,0-0.7,0.3-0.9c0.4-0.2,0.6-0.5,0.6-1c0-0.1,0-0.1,0.1-0.2c0.1-0.3,0.2-0.5,0.2-0.8
		c0-0.7,0.3-1.3,0.5-2c0.2-0.6,0.2-1.2,0.2-1.8c0-0.9,0.1-1.8,0.4-2.6c0.1-0.4,0.4-0.7,0.5-1c0.2-0.6,0.3-1.2,0.4-1.8
		c0.1-0.3,0-0.6,0.2-0.8c0.4-0.3,0.5-0.8,0.8-1.2c0.7-1.3,0.9-2.6,0.7-4c-0.1-0.6-0.5-0.9-1.1-1c-0.6-0.1-1.1-0.2-1.7-0.3
		c-0.4-0.1-0.8-0.1-1.1-0.2c-0.1,0-0.2,0-0.2,0.1c0,0.3-0.3,0.3-0.4,0.5c-0.2,0.2-0.3,0.4-0.4,0.6c-0.1,0.4-0.2,0.8-0.3,1.1
		c0,0.3-0.1,0.5-0.3,0.7C52,7.3,52,7.6,51.9,7.9c-0.3,0.7-0.7,1.4-1,2.1c-0.2,0.4-0.4,0.7-0.6,1c-0.1,0.2-0.2,0.3-0.3,0.5
		c-0.2,0.6-0.3,1.3-0.5,1.9c-0.1,0.4-0.1,0.9-0.2,1.3c-0.1,0.6-0.1,1.1-0.1,1.7c0,0.3-0.1,0.7-0.2,1c-0.1,0.5-0.1,1-0.4,1.4
		c-0.5,0.6-0.6,1.3-0.8,2c-0.2,0.5-0.4,0.9-0.9,1.2c-0.2,0.1-0.4,0.1-0.6,0.1c-0.3,0.1-0.5,0.1-0.8,0c-0.1,0-0.2,0-0.3,0
		c-0.2,0-0.3,0-0.5,0c-0.2,0-0.4,0-0.5-0.1c-0.1-0.1-0.1-0.3-0.2-0.5c-0.3,0-0.2,0.5-0.5,0.4c-0.1-0.6-0.1-1.2-0.2-1.8
		c0-0.4-0.2-0.9-0.1-1.3c0-0.3-0.1-0.4-0.4-0.3c-0.2,0.1-0.4,0.1-0.4-0.1c-0.1-0.2,0.1-0.4,0.2-0.5c0.3,0,0.3-0.2,0.2-0.4
		c-0.1-0.4-0.2-0.7-0.3-1.1c0-0.2-0.1-0.3-0.1-0.5c0,0,0.1,0,0.2,0c0-0.1-0.1-0.2-0.2-0.4c0.1,0.1,0.2,0.1,0.4,0.2
		c-0.1-0.3-0.1-0.5-0.1-0.6c-0.2,0-0.3,0-0.4,0c0,0,0-0.1,0-0.1c0.1-0.1,0.2-0.2,0.4-0.4c-0.1,0-0.2-0.1-0.2-0.1
		c-0.1-0.1-0.2-0.2-0.2-0.3c0-0.2-0.1-0.5-0.1-0.7c0-0.1,0.1-0.3,0-0.4c0-0.3-0.1-0.6-0.2-1c0-0.1,0-0.3,0-0.3
		c0.3-0.1,0.2-0.2,0.1-0.4c-0.2-0.3-0.3-0.6-0.1-1c0.1-0.1,0-0.3,0-0.5c0-0.1-0.1-0.3-0.1-0.4c0-0.1,0-0.3,0-0.4
		c0-0.1,0-0.2,0.1-0.2C42,8.7,42.2,8.5,42,8.2c-0.1-0.1-0.1-0.3-0.1-0.4c0-0.2-0.1-0.4-0.1-0.6c0,0,0-0.1,0-0.1c0.1,0,0.2,0,0.2,0
		c0-0.3,0-0.6,0-0.9c0-0.3,0-0.6,0.1-0.9c0-0.2,0-0.3,0-0.5c0-0.2,0-0.3,0-0.5c0-0.1,0-0.3,0-0.4c0-0.4-0.1-0.5-0.5-0.6
		c-0.2,0-0.5-0.1-0.7-0.1c-0.5-0.1-1-0.2-1.4-0.3c-0.2,0-0.4,0.1-0.5,0c-0.4-0.3-0.7,0-1,0c-0.5,0.1-1,0.3-1.1,0.9
		c-0.2,0.7-0.3,1.4-0.5,2.1c-0.1,0.4-0.1,0.7-0.2,1.1c0,0.2,0,0.5-0.1,0.7c-0.1,0.4-0.3,0.8-0.4,1.2c0,0.4-0.2,0.8-0.3,1.2
		c0,0,0,0.1,0,0.2c0,0.5,0,0.9-0.1,1.4c0,0.2-0.1,0.5-0.2,0.7c-0.1,0.5-0.1,1-0.2,1.6c-0.1,0.7-0.2,1.3-0.4,2
		c-0.1,0.5-0.2,1-0.3,1.4c-0.1,0.3-0.1,0.6-0.1,0.9c0,0.4,0.5,0.4,0.5,0.7c0,0,0.2,0,0.2,0c0.1-0.1,0.2-0.2,0.3-0.3
		c0.1,0.3,0.1,0.5,0.2,0.8c0.1,0.3,0,0.6-0.1,0.8c-0.1,0.1-0.2,0.3-0.3,0.4c-0.2,0.2-0.5,0.2-0.7,0.4c-0.3,0.1-0.7,0-0.8,0.5
		c0,0.2-0.2,0.5-0.2,0.7c-0.1,0-0.2,0-0.3,0c0,0,0,0,0-0.1c-0.2-0.2-0.4-0.3-0.5-0.5c-0.5,0.3-1,0.2-1.5,0.1c-0.6,0-1.2,0-1.7-0.2
		c-0.5-0.2-1-0.7-1.5-1c-0.4-0.2-0.6-0.7-1.1-0.8c0,0,0-0.1-0.1-0.1c-0.1-0.1-0.1-0.2-0.2-0.2c-0.5-0.4-1-0.7-1.6-1
		c-0.3-0.2-0.7-0.3-0.9-0.6c-0.2-0.3-0.5-0.4-0.8-0.6c-0.2-0.1-0.4-0.2-0.6-0.4c-0.4-0.3-0.7-0.5-1.1-0.8c-0.3-0.2-0.6-0.4-0.9-0.7
		c-0.6-0.7-1.4-1-2.1-1.5c-0.4-0.2-0.9-0.4-1.3-0.6c-0.5-0.3-0.9-0.7-1.3-1c-0.4-0.2-0.9-0.4-1.3-0.2c-0.7,0.3-1.5,0.7-1.7,1.6
		c-0.1,0.2-0.3,0.5-0.5,0.6c-0.4,0.3-0.4,0.8-0.6,1.2c0,0,0,0.1,0,0.1c0.1,0.1,0.1,0.3,0.2,0.4c0,0-0.1,0-0.1,0.1
		c0.1,0,0.2,0.1,0.2,0.2c0.2,0.3,0.5,0.5,0.7,0.8c0.3,0.4,0.6,0.7,1,1.1c0.2,0.2,0.3,0.4,0.5,0.5c0.4,0.3,0.8,0.5,1,0.9
		c0.2,0.3,0.5,0.4,0.8,0.6c0.2,0.1,0.4,0.1,0.6,0.2c-0.2,0.1-0.3,0.1-0.4,0.1c0.1,0.1,0.1,0.1,0.1,0.2c0.5,0.5,1.2,0.8,1.7,1.4
		c0.2,0.3,0.5,0.5,0.8,0.7c0,0,0.1,0.1,0.1,0.1c0.1,0.1,0.3,0.3,0.4,0.4c0.4,0.1,0.5,0.3,0.8,0.6c0.1,0.1,0.1,0.2,0.2,0.3
		c0.4,0.3,0.7,0.7,1.1,1c0.3,0.3,0.6,0.6,0.8,0.9c0.2,0.3,0.4,0.6,0.6,0.9c0.3,0.5,0.7,0.9,1.1,1.4c0.2,0.3,0.4,0.5,0.1,0.8
		c0,0,0,0.2,0,0.2c0,0.1,0,0.2-0.1,0.3c-0.2,0.3-0.4,0.7-0.4,1.1c0,0.3-0.1,0.6-0.5,0.7c-0.3,0.1-0.5,0.2-0.5,0.6
		c0,0.4-0.7,1.1-1.1,1.2c-0.5,0.1-0.9,0-1.3-0.1c-0.6-0.1-1.3-0.1-1.9-0.2c-0.8-0.1-1.7-0.3-2.5,0c0,0-0.1,0-0.2,0
		c-0.5-0.1-1-0.2-1.5-0.2c-0.6-0.1-1.2-0.1-1.8-0.1c-0.2,0-0.4-0.1-0.6-0.2c-0.6-0.2-1.3-0.4-1.9-0.6c-0.8-0.3-1.7-0.6-2.5-0.8
		c-0.6-0.2-1.2-0.4-1.9-0.6c-0.3-0.1-0.6-0.4-1,0c0,0-0.1,0.1-0.2,0.1c-0.4,0.1-0.6,0.4-0.8,0.7c-0.2,0.3-0.4,0.8-0.7,1.1
		c-0.3,0.3-0.5,0.6-0.5,1.1c-0.1,0.4-0.1,0.8,0.1,1.2c0.2,0.5,0.6,0.8,1,1.1c0.3,0.2,0.7,0.4,1,0.6c0.4,0.3,0.8,0.6,1.2,0.8
		c0.3,0.2,0.6,0.3,0.8,0.4c0.3,0.1,0.6,0.3,0.9,0.5C8.1,38.6,8.7,39,9.5,39c0.1,0,0.2,0.1,0.3,0.1c0.3,0.2,0.6,0.4,1,0.5
		c0.6,0.2,1.2,0.3,1.8,0.5c0.2,0,0.3,0.2,0.5,0.2c0.4,0,0.8,0.1,1.1,0.4c0.1,0.1,0.2,0.1,0.2,0.1c0.5-0.1,0.8,0.3,1.3,0.5
		c0.4,0.1,0.7,0.3,1,0.4c0.3,0.1,0.7,0.3,1,0.4c0.2,0.1,0.5,0.2,0.7,0.2c0.4,0,0.7,0.1,1,0.3c0.2,0.1,0.5,0.3,0.7,0.5
		c0.3,0.2,0.6,0.3,0.9,0.5c0.4,0.2,0.7,0.6,1.2,0.6c0,0,0.1,0.1,0.1,0.2c0,0.3,0,0.7-0.1,1c-0.1,0.6-0.1,1.2-0.2,1.7
		c-0.1,0.3-0.2,0.6-0.4,0.8c-0.5,0.4-0.9,0.9-1.6,0.9c0,0-0.1,0-0.1,0.1c-0.4,0.2-0.8,0.6-1.3,0.7c-0.1,0-0.2,0.1-0.3,0.2
		c-0.4,0.2-0.8,0.5-1.3,0.6c-0.4,0.2-0.8,0.5-1.3,0.4c0,0,0,0-0.1,0c-0.3,0.3-0.7,0.4-1.2,0.4c-0.6,0.1-1.2,0.4-1.8,0.6
		c-0.4,0.1-0.9,0.2-1.3,0.3c-0.5,0.1-1.1,0.2-1.5,0.4c-0.3,0.1-0.5,0.2-0.8,0.2c-0.1,0-0.2,0-0.3,0.1C8.2,53,7.6,53.2,7,53.3
		c-0.5,0.1-1.1,0.2-1.7,0.4C5,53.8,4.8,54,4.8,54.4c0,0.2,0,0.4,0,0.6c0,0.8,0.1,1.5,0.1,2.3c0,0.2,0.2,0.5,0.2,0.7
		c0,0.4,0.1,0.7,0.3,1.1c0.1,0.2,0.2,0.3,0.4,0.3c0.1,0,0.2,0,0.2,0c0.2,0,0.3,0.1,0.5,0.1c0.4-0.1,0.8-0.2,1.2-0.3
		c0.5,0,0.9-0.3,1.4-0.1c0,0,0.1,0,0.1,0c0.3-0.2,0.7-0.3,1.1-0.4c0.3-0.1,0.7-0.2,1-0.2c0.6-0.1,1.1-0.3,1.7-0.4
		c0.3-0.1,0.6-0.2,0.9-0.2c0.8,0,1.6-0.2,2.3-0.6c0.8-0.4,1.5-0.7,2.4-0.8c0,0,0.1,0,0.1,0c0.7-0.4,1.4-0.4,2.1-0.3
		c0.1,0,0.2,0,0.3,0c0.2,0,0.4-0.1,0.6-0.2c0.4-0.1,0.8-0.2,1.1-0.3c0.5-0.3,1-0.1,1.5-0.3c0.1,0,0.1,0,0.2,0.1c0.2,0,0.3,0,0.5,0
		c0,0,0-0.1,0-0.1c0.1,0.1,0.1,0.1,0.2,0.2c0.2,0.4,0.6,0.5,1,0.5c0.2,0,0.3,0,0.4,0.1C27.1,56.3,27.4,56.4,27.7,56.1z M19.3,73.2
		c-0.1,0.3-0.2,0.5,0.1,0.6c0.2,0.1,0.3,0,0.3-0.1C19.6,73.5,19.4,73.4,19.3,73.2z M91,32.3c0,0.2,0,0.4,0,0.6
		C91.3,32.7,91.3,32.5,91,32.3z"/>
	<path style="fill-rule:evenodd;clip-rule:evenodd;fill:#185D8C;" d="M48.1,57c-0.5,0.1-0.9,0.2-1.4,0.2c-0.6,0-1.3,0.2-1.9,0
		c-0.1,0-0.1-0.1-0.2-0.1c-0.3-0.1-0.6-0.2-0.9-0.2c-0.4-0.1-0.7-0.1-1.1-0.1c-0.6,0-1.1-0.2-1.6-0.4c-0.6-0.2-1.2-0.5-1.8-0.8
		c-0.1-0.1-0.3-0.1-0.4-0.1c-0.1,0-0.2,0-0.2-0.1c-0.5-0.3-1-0.5-1.6-0.8c-0.1,0-0.1-0.1-0.1-0.2c-0.3-0.3-0.5-0.5-0.8-0.8
		c-0.3-0.4-0.6-0.8-0.9-1.2c-0.1-0.2-0.3-0.5-0.4-0.7c-0.3-0.5-0.6-1-0.9-1.6c-0.1-0.2-0.2-0.4-0.1-0.6c0.1-0.6-0.1-1.2-0.4-1.8
		c-0.3-0.5-0.2-1.1-0.3-1.6c0-0.5-0.1-1.1,0-1.6c0-0.6,0.2-1.2,0.3-1.8c0-0.2,0.1-0.3,0.1-0.5c0-0.2-0.1-0.4-0.2-0.6
		c-0.2-0.3-0.1-0.9,0.2-1.1c0.1-0.1,0.2-0.2,0.2-0.3c0.1-0.4,0.2-0.8,0.4-1.1c0.3-0.6,0.6-1.2,0.9-1.8c0.1-0.2,0.2-0.4,0.3-0.6
		c0.1-0.2,0.2-0.3,0.3-0.5c0.2-0.3,0.5-0.6,0.7-0.9c0,0,0-0.1,0.1-0.1c0.6-0.2,0.8-0.9,1.2-1.3c0.3-0.3,0.6-0.7,1-1
		c0.1-0.1,0.2-0.1,0.3-0.1c0.4,0,0.8-0.2,1.2-0.4c0.4-0.2,0.9-0.3,1.3-0.4c0.8-0.2,1.6-0.3,2.4-0.4c0.7-0.1,1.4,0,2,0c0,0,0,0,0,0
		c0.5-0.2,0.9,0.1,1.3,0.1c0.1,0,0.3,0.1,0.4,0.1c0.5,0.2,1.1,0.2,1.6,0.6c0.2,0.2,0.5,0.2,0.8,0.3c0.6,0.3,1.3,0.5,1.9,0.8
		c0.4,0.2,0.7,0.4,1,0.6c0.4,0.3,0.9,0.6,1.3,0.9c0.1,0.1,0.2,0.3,0.4,0.4c0.1,0.1,0.3,0.1,0.4,0.2c0.5,0.5,0.9,1.1,1.3,1.7
		c0.4,0.6,0.7,1.3,1,1.9c0.2,0.4,0.2,0.8,0.3,1.1c0,0.1,0.1,0.2,0.1,0.3c0.3,0.1,0.2,0.4,0.3,0.6c0.1,0.2,0.2,0.4,0.3,0.6
		c0,0.2,0.1,0.4,0,0.6c-0.2,0.3-0.1,0.5,0,0.8c0.1,0.3,0.3,0.5,0.3,0.8c0,0.4,0,0.8,0,1.2c0,0.1-0.2,0.2-0.3,0.2
		c-0.4,0.1-0.4,0.5-0.4,0.8c0,0.3,0,0.5-0.2,0.7c-0.2,0.3-0.2,0.7-0.1,1c0.1,0.3,0.1,0.6,0.1,1c0,0.2-0.1,0.3-0.4,0.3
		c-0.3,0-0.5,0.1-0.6,0.4c-0.2,0.5-0.5,1-0.8,1.5c-0.2,0.4-0.6,0.7-0.6,1.2c0,0,0,0.1,0,0.1c-0.3,0.1-0.4,0.4-0.5,0.7
		c0,0.1-0.2,0.2-0.2,0.2c-0.1,0.1-0.2,0.1-0.2,0.2c0,0.3-0.2,0.4-0.4,0.5c-0.4,0.2-0.7,0.6-1.1,0.9c-0.1,0.1-0.2,0.1-0.2,0.1
		c-0.2,0.1-0.4,0.3-0.7,0.4c-0.1,0.1-0.3,0.2-0.4,0.3c-0.7,0.3-1.3,0.7-2,1c-0.2,0.1-0.4,0.1-0.5,0.1C48.7,57,48.4,57,48.1,57
		C48.1,57.1,48.1,57,48.1,57z M54.1,48.7c0.4-0.8,0.8-1.5,1-2.2c0.2-0.7,0.4-1.3,0.6-2c0.1-0.5,0.1-1-0.3-1.4
		c-0.1-0.1-0.1-0.2-0.1-0.3c0-0.6,0-1.3,0-1.9c0-0.4-0.1-0.8-0.2-1.2c-0.2-0.4-0.6-0.7-0.6-1.2c0,0,0-0.1-0.1-0.1
		c-0.3-0.3-0.6-0.6-1-0.9c0.1-0.2,0-0.4-0.3-0.4c0,0-0.1,0-0.1-0.1c-0.4-0.3-0.6-0.7-1.1-0.9c-0.6-0.2-1.1-0.5-1.6-0.8
		c-0.5-0.3-1-0.6-1.6-0.9c-0.1-0.1-0.3-0.2-0.4-0.3c-0.8-0.3-1.6-0.4-2.4-0.4c-0.4,0-0.8,0.1-1.2,0c-0.4-0.1-0.7-0.1-1,0
		c-0.1,0-0.1,0-0.2,0c-0.7,0.1-1.4,0.1-2.2,0.2c-0.8,0.1-1.3,0.5-1.8,1.1c-0.5,0.6-1,1.1-1.6,1.5c-0.1,0.1-0.3,0.2-0.4,0.4
		c-0.3,0.4-0.6,0.7-0.9,1.1c-0.2,0.2-0.3,0.5-0.4,0.8c-0.1,0.6-0.1,1.3-0.1,1.9c0,0.7,0,1.3,0,2c-0.3,0.1-0.5,0.5-0.4,0.9
		c0.1,0.2,0,0.3-0.1,0.4c-0.1,0.1-0.2,0.3-0.3,0.4c0.1,0.3,0.1,0.3-0.1,0.5c-0.3,0.3-0.3,1,0.1,1.2c0.1,0,0.2,0.1,0.2,0.2
		c0,0.9,0.3,1.7,0.5,2.5c0.1,0.2,0.1,0.4,0.1,0.6c0.1,0.6,0.1,1.1,0.5,1.6c0.1,0.2,0.2,0.4,0.3,0.5c0.3,0.3,0.5,0.7,0.8,1
		c0.3,0.3,0.6,0.6,1,0.7c0.6,0.2,1.2,0.5,1.9,0.6c1.2,0.2,2.4,0.6,3.7,0.6c0.5,0,1,0,1.5,0.1c0.8,0.1,1.5-0.3,2.3-0.4
		c0.5-0.1,0.9-0.4,1.5-0.4c0.4,0,0.8-0.3,1.1-0.5c0.3-0.2,0.5-0.5,0.8-0.6c0.7-0.4,1.1-1.1,1.6-1.8c0.1-0.1,0.2-0.2,0.2-0.4
		c0.2-0.4,0.4-0.7,0.5-1.1C54.2,49.2,54.4,49,54.1,48.7z"/>
</g>
</svg>
