<?xml version="1.0" encoding="utf-8"?>
<!-- Generator: Adobe Illustrator 16.0.0, SVG Export Plug-In . SVG Version: 6.00 Build 0)  -->
<!DOCTYPE svg PUBLIC "-//W3C//DTD SVG 1.1//EN" "http://www.w3.org/Graphics/SVG/1.1/DTD/svg11.dtd">
<svg version="1.1" id="Layer_1" xmlns="http://www.w3.org/2000/svg" xmlns:xlink="http://www.w3.org/1999/xlink" x="0px" y="0px"
	 width="74.9px" height="77.6px" viewBox="0 0 74.9 77.6" style="enable-background:new 0 0 74.9 77.6;" xml:space="preserve">
<pattern  x="-562.7" y="-411.4" width="12" height="12" patternUnits="userSpaceOnUse" id="New_Pattern_Swatch_2" viewBox="1 -13 12 12" style="overflow:visible;">
	<g>
		<polygon style="fill:none;" points="1,-13 13,-13 13,-1 1,-1 		"/>
		<path d="M14-1c0,0.6-0.4,1-1,1s-1-0.4-1-1s0.4-1,1-1S14-1.6,14-1z"/>
		<path d="M2-1c0,0.6-0.4,1-1,1S0-0.4,0-1s0.4-1,1-1S2-1.6,2-1z"/>
		<path d="M14-5c0,0.6-0.4,1-1,1s-1-0.4-1-1s0.4-1,1-1S14-5.6,14-5z"/>
		<path d="M11-2c0,0.6-0.4,1-1,1S9-1.4,9-2s0.4-1,1-1S11-2.6,11-2z"/>
		<path d="M8-3c0,0.6-0.4,1-1,1S6-2.4,6-3s0.4-1,1-1S8-3.6,8-3z"/>
		<path d="M5-4c0,0.6-0.4,1-1,1S3-3.4,3-4s0.4-1,1-1S5-4.6,5-4z"/>
		<path d="M2-5c0,0.6-0.4,1-1,1S0-4.4,0-5s0.4-1,1-1S2-5.6,2-5z"/>
		<path d="M14-9c0,0.6-0.4,1-1,1s-1-0.4-1-1s0.4-1,1-1S14-9.6,14-9z"/>
		<path d="M11-6c0,0.6-0.4,1-1,1S9-5.4,9-6s0.4-1,1-1S11-6.6,11-6z"/>
		<path d="M8-7c0,0.6-0.4,1-1,1S6-6.4,6-7s0.4-1,1-1S8-7.6,8-7z"/>
		<path d="M5-8c0,0.6-0.4,1-1,1S3-7.4,3-8s0.4-1,1-1S5-8.6,5-8z"/>
		<path d="M2-9c0,0.6-0.4,1-1,1S0-8.4,0-9s0.4-1,1-1S2-9.6,2-9z"/>
		<path d="M14-13c0,0.6-0.4,1-1,1s-1-0.4-1-1s0.4-1,1-1S14-13.6,14-13z"/>
		<path d="M11-10c0,0.6-0.4,1-1,1s-1-0.4-1-1s0.4-1,1-1S11-10.6,11-10z"/>
		<path d="M8-11c0,0.6-0.4,1-1,1s-1-0.4-1-1s0.4-1,1-1S8-11.6,8-11z"/>
		<path d="M5-12c0,0.6-0.4,1-1,1s-1-0.4-1-1s0.4-1,1-1S5-12.6,5-12z"/>
		<path d="M2-13c0,0.6-0.4,1-1,1s-1-0.4-1-1s0.4-1,1-1S2-13.6,2-13z"/>
	</g>
</pattern>
<g>
	<path style="fill-rule:evenodd;clip-rule:evenodd;fill:#74C5ED;" d="M19.4,56.8c-0.4-0.1-0.5-0.5-0.7-0.8c-0.1-0.2-0.2-0.4-0.3-0.6
		C18.2,55.2,18,55,17.6,55c-0.3,0-0.5-0.1-0.7-0.1c-0.3,0.2-0.6,0.5-0.8,0.7c-0.1,0.1-0.2,0.3-0.2,0.5c-0.2,0.7-0.8,0.9-1.4,1.3
		c-0.3,0.2-0.8,0.4-1.1,0.6c-0.3,0.1-0.6,0.3-0.9,0.4c-1,0.4-1.8,1-2.7,1.6c-0.7,0.5-1.5,0.7-2.2,1.1c-0.4,0.2-0.8-0.1-1.1-0.5
		c-0.2-0.4-0.4-0.7-0.5-1.1c-0.5-1-1.1-2-1.3-3.2c-0.1-0.5-0.5-1-0.6-1.6c-0.1-0.2,0-0.6,0.1-0.7c0.4-0.5,0.9-0.9,1.3-1.3
		c0.1-0.1,0.1-0.2,0.2-0.3c0.1-0.3,0.3-0.4,0.6-0.3c0.3,0.1,0.3,0,0.2-0.3c0-0.2,0-0.5,0.1-0.8c0.2,0.2,0.3,0.2,0.4,0.3
		c0.2-0.1,0.4-0.2,0.6-0.4c0,0,0-0.1,0-0.2c0.1,0,0.1,0,0.1,0c0.3,0.3,0.4,0.1,0.6-0.2c0.1-0.3,0.2-0.5,0.3-0.8
		c0.1,0.1,0.2,0.2,0.3,0.3c0.1,0,0.1-0.1,0.2-0.1c0.3-0.5,0.8-0.8,1.3-1.2c0.2-0.1,0.4-0.4,0.7-0.5c0.7-0.1,0.8-0.8,1.2-1.1
		c0.5-0.4,0.9-0.8,1.3-1.2c0.1-0.1,0.2-0.3,0.3-0.4c0.2-0.5,0.8-0.8,1.3-0.8c0,0,0,0,0.1-0.1c0.5-0.5,0.4-1.1,0.2-1.7
		c-0.2-0.6-0.2-1.3-0.6-1.9c-0.5-0.7-1.1-1.4-1.6-2.2c-0.5-0.7-1.3-1.3-2-1.8c-0.2-0.1-0.3-0.4-0.5-0.5c-0.5-0.4-1.1-0.7-1.6-1.2
		c-0.7-0.6-1.6-1-2.1-1.9c-0.3-0.4-0.7-0.8-1.1-1.1c-0.6-0.4-0.9-1-1.4-1.6c-0.3-0.4-0.6-0.8-1-1.2c-0.5-0.5-0.4-1.1-0.2-1.6
		c0.3-0.8,0.7-1.5,1.1-2.3c0.2-0.4,0.4-0.4,0.7-0.1c0.2,0.3,0.4,0.4,0.8,0.4c0.4,0.1,0.7,0.3,1,0.5c0.4,0.2,0.9,0.3,1.2,0.6
		c0.6,0.5,1.3,0.5,2,0.6c0.2,0,0.4,0.2,0.6,0.2c1.1,0.4,2.2,0.4,3.4,0.5c0.3,0,0.6,0.1,0.9,0.2c0.1,0,0.1,0.1,0.2,0
		c0.5-0.3,0.8,0.2,1.2,0.3c0.5,0.2,1,0.4,1.6,0.4c0.3,0,0.7-0.4,1-0.7c0.1,0,0.1-0.2,0.1-0.2c0.8-0.6,1.2-1.5,1.9-2.2
		c0.3-0.3,0.3-0.9,0.3-1.4c0-0.7-0.2-1.4-0.2-2.1c0-0.8,0.1-1.7,0-2.5c0-0.7-0.2-1.3-0.3-2c0-0.4,0-0.8,0-1.2c0-0.6,0-1.2,0.1-1.8
		c0.2-1-0.1-1.9-0.3-2.8c-0.1-0.6-0.3-1.2-0.1-1.8c0-0.2,0.1-0.3,0.1-0.5c0.1-0.4,0.2-0.8,0.2-1.2c-0.1-0.6,0-1,0.5-1.4
		c0.6-0.4,1.1-0.9,1.7-1.2c0.3-0.2,0.7-0.2,1-0.3c0.6-0.3,1.3-0.2,2-0.3c0.2,0,0.3,0.1,0.5,0.1c0.3-0.2,0.5-0.4,0.8-0.6
		c0.1-0.1,0.2-0.1,0.3,0c0.4,0.2,0.7,0.1,1-0.2c0,0,0.1,0,0.2-0.1c0.5,0.8,0.9,1.7,1.4,2.5c0.6,1.1,1.1,2.2,1.6,3.3
		c0.2,0.3,0.5,0.6,0.7,0.9c0.2,0.4,0.4,0.7,0.7,1.1c0.2,0.3,0.5,0.5,0.7,0.8c0.4,0.5,0.7,1.1,1.2,1.6c0.4,0.4,1,0.7,1.4,1.1
		c0.2,0.2,0.4,0.4,0.7,0.5c0.1,0.1,0.3,0.2,0.5,0.3c0.4,0.1,0.8,0.2,1.1,0.3c0.4,0.2,0.8,0.3,1.2,0.2c0.3,0,0.6,0.2,0.9,0.3
		c0.2,0.1,0.5,0.1,0.7,0.1c0.1,0,0.3-0.1,0.3-0.2c0.4-0.5,0.8-1,1.5-1.2c0.4-0.2,0.8-0.3,0.7-0.9c0-0.2,0.1-0.4,0.2-0.5
		c0.3-0.3,0.6-0.6,0.8-0.9c0.1-0.2,0.3-0.4,0.4-0.6c0.1-0.5,0.5-0.8,0.8-1.1c0.2-0.3,0.4-0.5,0.6-0.8c0.5-0.9,1.3-1.6,2-2.4
		c0.3-0.4,0.6-0.8,0.9-1.2c0.1-0.1,0.1-0.3,0.2-0.4c0.3-0.4,0.7-0.4,1.2-0.2c0.7,0.3,1.4,0.4,2.1,0.6c0.7,0.1,1.3,0.2,2,0.4
		c0.7,0.2,1.4,0.1,2,0.2c0.1,0,0.2,0,0.2,0c0.5,0.1,0.7,0.4,0.9,0.9c0.2,0.7,0.1,1.4-0.1,2.1c0,0.1,0,0.3,0,0.4c0,0.2,0,0.4-0.1,0.6
		c-0.2,0.6-0.5,1.1-0.7,1.7c-0.3,0.9-0.4,1.8-0.6,2.6c-0.1,0.6-0.3,1.3-0.5,1.9c-0.2,0.7-0.4,1.4-0.6,2.1c-0.1,0.5-0.1,1-0.1,1.3
		c0.3,0.3,0.6,0.5,0.8,0.7c0.5,0.4,1,0.6,1.6,0.6c0.1,0,0.3,0,0.3,0c0.4,0.3,0.8,0.2,1.2,0.1c0.1,0,0.2,0,0.2,0
		c0.3-0.3,0.4-0.3,0.6,0.1c0,0.1,0.3,0.1,0.4,0.2c0.4,0.1,0.8,0.2,1.1,0.2c0.1,0,0.3-0.2,0.4-0.2c0.6,0,1.2-0.1,1.7-0.1
		c0.1,0.3,0.2,0.6,0.3,0.9c0,0.1,0.3,0.1,0.3,0c0.2-0.3,0.5-0.3,0.7-0.2c0.3,0,0.5,0,0.6-0.3c-0.5-0.3-0.5-0.3-0.2-0.8
		c0.5,0.2,1,0.2,1.5,0.1c0.4-0.1,0.8,0,1.1-0.2c0.1,0,0.3,0.1,0.4,0.2c0.3,0.3,0.5,0.4,0.9,0.4c0.5,0,0.5,0.5,0.7,0.8
		c0.2,0.4,0.5,0.8,0.7,1.2c0.1,0.1,0.2,0.2,0.2,0.4c0.3,1,0.6,2,0.8,3c0.1,0.4,0,0.9-0.1,1.4c0,0.2-0.9,0.7-1.1,0.7
		c-0.2,0-0.3,0.1-0.5,0.1c-0.6,0.2-1,0.6-1.7,0.7c-0.1,0-0.1,0.1-0.2,0.2c-0.2,0.2-0.3,0.4-0.5,0.4c-0.7,0.3-1.5,0.6-2.2,0.7
		c-0.6,0.1-1,0.3-1.2,0.9c-0.1,0.3-0.4,0.5-0.7,0.7c-0.2,0.2-0.2,0.4,0,0.6c0.3,0.3,0.3,0.7,0.2,1c-0.1,0.4-0.3,0.7-0.4,1.1
		c0,0,0,0.1,0,0.1c-0.7,0.6-0.5,1.5-0.6,2.3c-0.1,0.4-0.3,0.8-0.4,1.2c-0.2,0.5,0,1,0.2,1.5c0,0.1,0.1,0.1,0.1,0.2
		c0,0.7,0.6,0.9,1,1.2c0.5,0.4,1,0.6,1.6,0.8c0.1,0,0.1,0,0.1,0.1c0.5,0.6,1.3,0.7,2,1c1,0.4,2,0.6,2.9,1.4c0.4,0.4,0.7,0.6,0.7,1.2
		c0,0.2-0.1,0.3-0.1,0.5c-0.1,0.6-0.1,1.1-0.2,1.7c-0.1,0.5-0.3,1-0.5,1.5c0,0.1-0.1,0.2-0.1,0.3c-0.2,0.7-0.8,1-1.5,0.7
		c-0.2-0.1-0.4-0.1-0.6-0.2c-0.1,0-0.3,0-0.4-0.1c-0.8-0.4-1.6-0.4-2.4-0.3c-0.4,0.1-0.9,0.2-1.2-0.3c0,0-0.2,0-0.3,0.1
		c-0.3,0.1-0.5,0.4-0.8,0.4c-0.5-0.1-1.1,0-1.6-0.3c-0.3-0.2-0.6-0.3-0.8-0.4c-0.1,0-0.2,0-0.3,0c-0.5,0.3-0.9,0.7-1.1,1.3
		c-0.2,0.4-0.4,0.8-0.7,1.1c-0.4,0.4-0.8,0.7-1.3,1c-1,0.5-1.9,1.1-2.6,1.9c-0.4,0.4-0.8,0.8-1,1.3c-0.3,0.7-0.4,1.5,0,2.3
		c0.2,0.3,0.2,0.7,0.3,1c0.2,0.6,0.4,1.2,0.7,1.8c0.2,0.5,0.5,0.9,0.7,1.4c0.2,0.5,0.3,1,0.4,1.6c0.1,0.5,0.3,1.1,0.4,1.6
		c0.1,0.6-0.2,1-0.7,1.2c-0.5,0.2-0.9,0.3-1.4,0.4c-0.2,0.1-0.5,0.2-0.7,0.3c-0.9,0.3-1.9,0.6-2.8,0.9c-0.5,0.2-1,0.5-1.5,0.7
		c-0.3,0.1-0.7,0.2-1,0.1c-0.4,0-0.5,0.2-0.6,0.4c-0.3,0.3-0.6,0.6-0.9,0.8c-0.3,0.2-0.9-0.1-1.1-0.5c-0.2-0.4-0.5-0.7-0.8-1.1
		c0-0.1-0.1-0.1-0.2-0.2c-0.5-0.9-1.3-1.4-1.8-2.2c-0.4-0.6-1.1-1-1.4-1.7c-0.1-0.2-0.2-0.5-0.4-0.7c-0.2-0.2-0.4-0.4-0.6-0.5
		c0.1,0,0.3-0.1,0.5-0.1c-0.3-0.3-0.5-0.5-0.8-0.8c0,0-0.1-0.1-0.1-0.1c-0.5,0.1-0.7-0.3-0.8-0.6c-0.3,0-0.6-0.1-0.8,0
		c-0.3,0.1-0.6,0.2-0.7,0.4c-0.3,0.7-0.9,1-1.4,1.4c-0.5,0.3-1,0.6-1.5,0.8c-0.8,0.4-1.7,0.9-2.6,1.3c-0.1,0-0.1,0.1-0.2,0.2
		c-0.4,0.6-0.9,1.1-1.3,1.7c-0.4,0.7-0.8,1.4-1.1,2.1c-0.1,0.1-0.2,0.3-0.3,0.4c-0.5,0.6-1.1,1.2-1.5,1.8c-0.3,0.5-0.7,0.8-1.3,0.7
		C25.6,76,25.3,76,25,76c-0.1,0-0.3-0.1-0.4-0.2c-0.2-0.6-0.6-0.7-1.1-0.6c-0.3,0.1-0.4-0.1-0.6-0.2c-0.3-0.3-0.7-0.5-1-0.8
		c-0.1-0.1-0.1-0.1-0.2-0.2c-0.3-0.3-0.6-0.6-0.9-0.9c-0.2-0.3-0.3-0.6-0.3-0.9c0.1-0.9,0.4-1.7,0.5-2.5c0-0.1,0-0.1,0.1-0.2
		c0.2-0.8,0.4-1.6,0.6-2.3c0.1-0.4,0.3-0.8,0.4-1.1c0.2-0.8,0.4-1.5,0.6-2.3c0-0.1,0-0.2,0-0.2c0.5-0.6,0.1-1.2,0-1.8
		c-0.2-0.8-0.8-1.4-1.2-2.1c-0.1-0.2-0.5-0.4-0.8-0.6c0,0,0,0,0,0c-0.3-0.4-0.4-1-1.1-1C19.6,57.6,19.5,57.2,19.4,56.8z M41.8,50.6
		C41.9,50.6,41.9,50.6,41.8,50.6c0.3-0.1,0.6-0.4,0.8-0.6c0.4-0.6,0.7-1.1,1-1.7c0.1-0.1,0.2-0.3,0.3-0.4c0.3-0.2,0.5-0.5,0.5-0.8
		c0-0.3,0-0.5,0-0.8c0.1-1.5,0.4-2.9,0.2-4.4c-0.1-0.8,0.2-1.7-0.4-2.4c0,0,0-0.2,0-0.2c0.2-0.5-0.3-0.8-0.3-1.2
		c0,0-0.1-0.1-0.1-0.1c-0.2-0.1-0.4-0.2-0.5-0.3c-0.3-0.3-0.6-0.5-0.9-0.8c-0.6-0.5-1.2-0.9-1.8-1.4c-0.6-0.4-1.2-0.8-1.9-1
		c-0.7-0.3-1.4-0.4-2.2-0.5c-0.5-0.1-1.1-0.1-1.6,0c-0.7,0.1-1.4,0.4-2.1,0.6c-0.1,0-0.1,0.1-0.1,0.1c-0.3,0.3-0.6,0.7-1.1,0.6
		c-0.1,0-0.3,0.2-0.4,0.4c-0.1,0.4-0.2,0.8-0.7,0.6c0,0-0.1,0-0.2,0c-0.4,0.1-0.7,0.3-0.8,0.7c-0.1,0.3-0.5,0.5-0.7,0.7
		c-0.3,0.3-0.6,0.5-0.7,0.9c-0.1,0.6-0.3,1.2-0.6,1.7c-0.4,0.7-0.5,1.4-0.5,2.2c0,0.7,0.1,1.4,0.2,2.1c0,0.2,0,0.4,0,0.6
		c0.1,0.4,0.2,0.9,0.3,1.3c0,0.2,0.1,0.4,0.2,0.6c0.1,0.3,0.2,0.5,0.4,0.7c0.1,0.2,0.1,0.4,0.2,0.5c0.3,0.5,0.6,1,0.8,1.5
		c0.2,0.6,0.6,0.9,1,1.2c0.9,0.8,2,1.1,3,1.6c0.4,0.2,0.8,0.2,1.1,0.4c0.6,0.4,1.3,0.4,1.9,0.4c0.9,0.1,1.8-0.3,2.6-0.8
		C39.8,52,40.8,51.3,41.8,50.6z"/>
	<g>
		<path style="fill:#185D8C;" d="M28.4,3.6c0.5,0.8,0.9,1.7,1.4,2.5c0.6,1.1,1.1,2.2,1.6,3.3c0.2,0.3,0.5,0.6,0.7,0.9
			c0.2,0.3,0.4,0.7,0.7,1.1c0.2,0.3,0.5,0.5,0.7,0.8c0.4,0.5,0.7,1.1,1.2,1.6c0.4,0.4,1,0.7,1.4,1.1c0.2,0.2,0.4,0.4,0.7,0.5
			c0.1,0.1,0.3,0.2,0.5,0.3c0.4,0.1,0.8,0.2,1.1,0.3c0.3,0.1,0.6,0.2,1,0.2c0.1,0,0.1,0,0.2,0c0,0,0,0,0.1,0c0.3,0,0.6,0.2,0.9,0.3
			c0.2,0.1,0.5,0.1,0.7,0.1c0,0,0,0,0,0c0.1,0,0.2-0.1,0.3-0.2c0.4-0.5,0.8-1,1.5-1.2c0.4-0.2,0.8-0.3,0.7-0.9
			c0-0.2,0.1-0.4,0.2-0.5c0.3-0.3,0.6-0.6,0.8-0.9c0.1-0.2,0.3-0.4,0.4-0.6c0.1-0.5,0.5-0.8,0.8-1.1c0.2-0.3,0.4-0.5,0.6-0.8
			c0.5-0.9,1.3-1.6,2-2.4c0.3-0.4,0.6-0.8,0.9-1.2c0.1-0.1,0.1-0.2,0.2-0.4C49.8,6.1,50,6,50.2,6c0.2,0,0.3,0,0.5,0.1
			c0.7,0.3,1.4,0.4,2.1,0.6c0.7,0.1,1.3,0.2,2,0.4c0.7,0.2,1.4,0.1,2,0.2c0.1,0,0.2,0,0.2,0c0.5,0.1,0.7,0.4,0.9,0.9
			c0.2,0.7,0.1,1.4-0.1,2.1c0,0.1,0,0.3,0,0.4c0,0.2,0,0.4-0.1,0.6c-0.2,0.6-0.5,1.1-0.7,1.7c-0.3,0.9-0.4,1.8-0.6,2.6
			c-0.1,0.6-0.3,1.3-0.5,1.9c-0.2,0.7-0.4,1.4-0.6,2.1c-0.1,0.5-0.1,1-0.1,1.3c0.3,0.3,0.6,0.5,0.8,0.7c0.5,0.4,1,0.6,1.6,0.6
			c0,0,0,0,0,0c0.1,0,0.2,0,0.2,0c0,0,0.1,0,0.1,0c0.2,0.1,0.4,0.2,0.6,0.2c0.2,0,0.4,0,0.6-0.1c0,0,0,0,0,0c0,0,0.1,0,0.1,0
			c0,0,0,0,0,0c0.1-0.1,0.2-0.2,0.3-0.2c0.1,0,0.2,0.1,0.3,0.3c0,0.1,0.3,0.1,0.4,0.2c0.4,0.1,0.8,0.2,1.1,0.2c0,0,0,0,0,0
			c0.1,0,0.3-0.2,0.4-0.2c0.6,0,1.2-0.1,1.7-0.1c0.1,0.3,0.2,0.6,0.3,0.9c0,0,0.1,0.1,0.2,0.1c0,0,0.1,0,0.1,0
			c0.1-0.2,0.3-0.3,0.4-0.3c0.1,0,0.2,0,0.3,0c0.1,0,0.1,0,0.2,0c0.2,0,0.4-0.1,0.4-0.3c-0.5-0.3-0.5-0.3-0.2-0.8
			c0.3,0.1,0.6,0.2,0.9,0.2c0.2,0,0.4,0,0.6-0.1c0.4-0.1,0.8,0,1.1-0.2c0,0,0,0,0,0c0.1,0,0.3,0.1,0.4,0.2c0.2,0.3,0.5,0.4,0.8,0.4
			c0,0,0,0,0.1,0c0,0,0,0,0,0c0.5,0,0.5,0.5,0.7,0.8c0.2,0.4,0.5,0.8,0.7,1.2c0.1,0.1,0.2,0.2,0.2,0.4c0.3,1,0.6,2,0.8,3
			c0.1,0.4,0,0.9-0.1,1.4c0,0.2-0.9,0.7-1.1,0.7c-0.2,0-0.3,0.1-0.5,0.1c-0.6,0.2-1,0.6-1.7,0.7c-0.1,0-0.1,0.1-0.2,0.2
			c-0.2,0.1-0.3,0.4-0.5,0.4c-0.7,0.3-1.5,0.6-2.2,0.7c-0.6,0.1-1,0.3-1.2,0.9c-0.1,0.3-0.4,0.5-0.7,0.7c-0.2,0.2-0.2,0.4,0,0.6
			c0.3,0.3,0.3,0.7,0.2,1c-0.1,0.4-0.3,0.7-0.4,1.1c0,0,0,0.1,0,0.1c-0.7,0.6-0.5,1.5-0.6,2.3c-0.1,0.4-0.3,0.8-0.4,1.2
			c-0.2,0.5,0,1,0.2,1.5c0,0.1,0.1,0.1,0.1,0.2c0,0.7,0.6,0.9,1,1.2c0.5,0.4,1,0.6,1.6,0.8c0.1,0,0.1,0.1,0.1,0.1
			c0.5,0.6,1.3,0.7,2,1c1,0.4,2,0.6,2.9,1.4c0.4,0.4,0.7,0.6,0.7,1.2c0,0.2-0.1,0.3-0.1,0.5C71,48.5,71,49,70.9,49.6
			c-0.1,0.5-0.3,1-0.5,1.5c0,0.1-0.1,0.2-0.1,0.3c-0.1,0.5-0.5,0.8-1,0.8c-0.2,0-0.3,0-0.5-0.1C68.6,52,68.3,52,68.1,52
			c-0.1,0-0.3,0-0.4-0.1c-0.5-0.3-1-0.4-1.5-0.4c-0.3,0-0.6,0-0.9,0.1c-0.2,0-0.4,0.1-0.6,0.1c-0.2,0-0.4-0.1-0.6-0.3c0,0,0,0,0,0
			c-0.1,0-0.2,0-0.3,0.1c-0.2,0.1-0.5,0.4-0.7,0.4c0,0,0,0,0,0c-0.5-0.1-1.1,0-1.6-0.3c-0.3-0.2-0.6-0.3-0.8-0.4c0,0-0.1,0-0.1,0
			c-0.1,0-0.1,0-0.2,0c-0.5,0.3-0.9,0.7-1.1,1.3c-0.2,0.4-0.4,0.8-0.7,1.1c-0.4,0.4-0.8,0.7-1.3,1c-1,0.5-1.9,1.1-2.6,1.9
			c-0.4,0.4-0.8,0.8-1,1.3c-0.3,0.7-0.4,1.5,0,2.3c0.2,0.3,0.2,0.7,0.3,1c0.2,0.6,0.4,1.2,0.7,1.8c0.2,0.5,0.5,0.9,0.7,1.4
			c0.2,0.5,0.3,1.1,0.4,1.6c0.1,0.5,0.3,1.1,0.4,1.6c0.1,0.6-0.2,1-0.7,1.2c-0.5,0.2-0.9,0.3-1.4,0.4c-0.2,0.1-0.5,0.2-0.7,0.3
			c-0.9,0.3-1.9,0.6-2.8,0.9c-0.5,0.2-1,0.5-1.5,0.7c-0.3,0.1-0.6,0.1-0.9,0.1c0,0-0.1,0-0.1,0c0,0,0,0,0,0c-0.3,0-0.4,0.2-0.6,0.4
			c-0.3,0.3-0.6,0.6-0.9,0.8c-0.1,0-0.1,0.1-0.2,0.1c-0.3,0-0.7-0.3-0.8-0.5c-0.2-0.4-0.5-0.7-0.8-1.1c0-0.1-0.1-0.1-0.2-0.2
			c-0.5-0.9-1.3-1.4-1.8-2.2c-0.4-0.6-1.1-1-1.4-1.7c-0.1-0.2-0.2-0.5-0.4-0.7c-0.2-0.2-0.4-0.4-0.6-0.5c0.1,0,0.3-0.1,0.5-0.1
			c-0.3-0.3-0.5-0.5-0.8-0.8c0,0-0.1-0.1-0.1-0.1c0,0,0,0,0,0c-0.1,0-0.1,0-0.1,0c-0.4,0-0.6-0.4-0.7-0.6c-0.2,0-0.4,0-0.6,0
			c-0.1,0-0.2,0-0.3,0c-0.3,0.1-0.6,0.2-0.7,0.4c-0.3,0.7-0.9,1-1.4,1.4c-0.5,0.3-1,0.6-1.5,0.8c-0.8,0.4-1.7,0.9-2.6,1.3
			c-0.1,0-0.1,0.1-0.2,0.2c-0.4,0.6-0.9,1.1-1.3,1.7c-0.4,0.7-0.8,1.4-1.1,2.1c-0.1,0.1-0.2,0.3-0.3,0.4c-0.5,0.6-1.1,1.2-1.5,1.8
			c-0.3,0.5-0.6,0.7-1,0.7c-0.1,0-0.2,0-0.3,0c-0.3-0.1-0.6,0-0.8-0.1c-0.1,0-0.3-0.1-0.4-0.2c-0.1-0.5-0.4-0.6-0.7-0.6
			c-0.1,0-0.2,0-0.4,0c-0.1,0-0.1,0-0.1,0c-0.2,0-0.3-0.1-0.5-0.2c-0.3-0.3-0.7-0.5-1-0.8c-0.1-0.1-0.1-0.1-0.2-0.2
			c-0.3-0.3-0.6-0.6-0.9-0.9c-0.2-0.3-0.3-0.6-0.3-0.9c0.1-0.8,0.4-1.7,0.5-2.5c0-0.1,0-0.1,0.1-0.2c0.2-0.8,0.4-1.6,0.6-2.3
			c0.1-0.4,0.3-0.8,0.4-1.1c0.2-0.8,0.4-1.5,0.6-2.3c0-0.1,0-0.2,0-0.2c0.5-0.6,0.1-1.2,0-1.8c-0.2-0.8-0.8-1.4-1.2-2.1
			c-0.1-0.2-0.5-0.4-0.8-0.6c0,0,0,0,0,0c-0.3-0.4-0.4-1-1.1-1c-0.1-0.3-0.2-0.7-0.3-1.1c-0.4-0.1-0.5-0.5-0.7-0.8
			c-0.1-0.2-0.2-0.4-0.3-0.6c-0.2-0.3-0.4-0.5-0.8-0.5c0,0,0,0-0.1,0s-0.1,0-0.1,0c-0.2,0-0.5-0.1-0.7-0.1c-0.3,0.2-0.6,0.5-0.8,0.7
			c-0.1,0.1-0.2,0.3-0.2,0.5c-0.2,0.7-0.8,0.9-1.4,1.3c-0.3,0.2-0.8,0.4-1.1,0.6c-0.3,0.1-0.6,0.3-0.9,0.4c-1,0.4-1.8,1-2.7,1.6
			c-0.7,0.5-1.5,0.7-2.2,1.1c-0.1,0-0.2,0.1-0.3,0.1c-0.3,0-0.6-0.2-0.8-0.6c-0.2-0.4-0.4-0.7-0.5-1.1c-0.5-1-1.1-2-1.3-3.2
			c-0.1-0.5-0.5-1-0.6-1.6c-0.1-0.2,0-0.6,0.1-0.7c0.4-0.5,0.9-0.9,1.3-1.3c0.1-0.1,0.1-0.2,0.2-0.3c0.1-0.2,0.2-0.3,0.4-0.3
			c0.1,0,0.1,0,0.2,0.1c0.1,0,0.1,0,0.1,0c0.1,0,0.1-0.1,0.1-0.3c0-0.2,0-0.5,0.1-0.8C6.9,49.8,7,49.9,7,50c0.2-0.1,0.4-0.2,0.6-0.4
			c0,0,0-0.1,0-0.2c0,0,0.1,0,0.1,0c0,0,0,0,0,0c0.1,0.1,0.2,0.1,0.3,0.1c0.1,0,0.2-0.1,0.3-0.3c0.1-0.3,0.2-0.5,0.3-0.8
			c0.1,0.1,0.2,0.2,0.3,0.3c0.1,0,0.1-0.1,0.2-0.1c0.3-0.5,0.8-0.8,1.3-1.2c0.2-0.2,0.4-0.4,0.7-0.5c0.7-0.1,0.8-0.8,1.2-1.1
			c0.5-0.4,0.9-0.8,1.3-1.2c0.1-0.1,0.2-0.3,0.3-0.4c0.2-0.5,0.7-0.8,1.3-0.8c0,0,0,0,0,0c0,0,0,0,0.1-0.1c0.5-0.5,0.4-1.1,0.2-1.7
			c-0.2-0.6-0.2-1.3-0.6-1.9c-0.5-0.7-1.1-1.4-1.6-2.2c-0.5-0.8-1.3-1.3-2-1.8c-0.2-0.1-0.3-0.4-0.5-0.5C10,34.8,9.4,34.4,8.9,34
			c-0.7-0.6-1.6-1-2.1-1.9c-0.3-0.4-0.7-0.8-1.1-1.1c-0.6-0.4-0.9-1-1.4-1.6c-0.3-0.4-0.6-0.8-1-1.2c-0.5-0.5-0.4-1.1-0.2-1.6
			c0.3-0.8,0.7-1.5,1.1-2.3C4.4,24.1,4.5,24,4.6,24c0.1,0,0.2,0.1,0.3,0.2c0.2,0.3,0.4,0.4,0.8,0.4c0.4,0.1,0.7,0.3,1,0.5
			c0.4,0.2,0.9,0.3,1.2,0.6c0.6,0.5,1.3,0.5,2,0.6c0.2,0,0.4,0.2,0.6,0.2c1.1,0.4,2.2,0.4,3.4,0.5c0.3,0,0.6,0.1,0.9,0.2
			c0,0,0.1,0.1,0.1,0.1c0,0,0,0,0,0c0.1-0.1,0.2-0.1,0.3-0.1c0.3,0,0.6,0.3,0.8,0.4c0.5,0.2,1,0.4,1.5,0.4c0,0,0,0,0.1,0
			c0.3,0,0.7-0.4,1-0.7c0.1,0,0.1-0.2,0.1-0.2c0.8-0.6,1.2-1.5,1.9-2.2c0.3-0.3,0.3-0.9,0.3-1.4c0-0.7-0.2-1.4-0.2-2.1
			c0-0.8,0.1-1.7,0-2.5c0-0.7-0.2-1.3-0.3-2c0-0.4,0-0.8,0-1.2c0-0.6,0-1.2,0.1-1.8c0.2-1-0.1-1.9-0.3-2.8c-0.1-0.6-0.3-1.2-0.1-1.8
			c0-0.2,0.1-0.3,0.1-0.5c0.1-0.4,0.2-0.8,0.2-1.2c-0.1-0.6,0-1,0.5-1.4c0.6-0.4,1.1-0.9,1.7-1.2c0.3-0.2,0.7-0.2,1-0.3
			c0.6-0.3,1.3-0.2,2-0.3c0,0,0,0,0.1,0c0.1,0,0.3,0.1,0.4,0.1c0.3-0.2,0.5-0.4,0.8-0.6c0.1,0,0.1-0.1,0.2-0.1c0,0,0.1,0,0.1,0
			c0.1,0.1,0.2,0.1,0.4,0.1c0.2,0,0.4-0.1,0.6-0.3C28.2,3.6,28.3,3.6,28.4,3.6 M32.1,33.8C32,33.8,32,33.8,32.1,33.8
			C32,33.8,32,33.8,32.1,33.8c-0.2,0-0.4,0.2-0.5,0.4c-0.1,0.3-0.2,0.6-0.5,0.6c-0.1,0-0.1,0-0.2,0c0,0,0,0,0,0c0,0-0.1,0-0.1,0
			c-0.4,0.1-0.7,0.3-0.8,0.7c-0.1,0.3-0.5,0.5-0.7,0.7c-0.3,0.3-0.6,0.5-0.7,0.9c-0.1,0.6-0.3,1.2-0.6,1.7c-0.4,0.7-0.5,1.4-0.5,2.2
			c0,0.7,0.1,1.4,0.2,2.1c0,0.2,0,0.4,0,0.6c0.1,0.4,0.2,0.9,0.3,1.3c0,0.2,0.1,0.4,0.2,0.6c0.1,0.3,0.2,0.5,0.4,0.7
			c0.1,0.2,0.1,0.4,0.2,0.5c0.3,0.5,0.6,1,0.8,1.5c0.2,0.6,0.6,0.9,1,1.2c0.9,0.8,2,1.1,3,1.6c0.4,0.2,0.8,0.2,1.1,0.4
			c0.6,0.4,1.3,0.4,1.9,0.4c0.1,0,0.2,0,0.3,0c0.8,0,1.6-0.4,2.3-0.8c1-0.7,2-1.4,3-2.1c0,0,0.1,0.1,0.1,0.1
			c0.2-0.2,0.5-0.5,0.7-0.7c0.4-0.6,0.7-1.1,1-1.7c0.1-0.1,0.2-0.3,0.3-0.4c0.3-0.2,0.5-0.5,0.5-0.8c0-0.3,0-0.5,0-0.8
			c0.1-1.5,0.4-2.9,0.2-4.4c-0.1-0.8,0.2-1.7-0.4-2.4c0,0,0-0.2,0-0.2c0.2-0.5-0.3-0.8-0.3-1.2c0,0-0.1-0.1-0.1-0.1
			c-0.2-0.1-0.4-0.2-0.5-0.3c-0.3-0.3-0.6-0.5-0.9-0.8c-0.6-0.5-1.2-0.9-1.8-1.4c-0.6-0.4-1.2-0.8-1.9-1c-0.7-0.3-1.4-0.4-2.2-0.5
			c-0.3,0-0.6-0.1-0.9-0.1c-0.2,0-0.4,0-0.6,0.1c-0.7,0.1-1.4,0.4-2.1,0.6c-0.1,0-0.1,0.1-0.1,0.1C32.8,33.4,32.5,33.8,32.1,33.8
			 M29.8,0l-2.2,0.7c-0.1,0-0.3,0.1-0.5,0.1c0,0,0,0,0,0c-0.7,0-1.4,0.2-1.9,0.6c0,0-0.1,0-0.1,0c0,0-0.2,0-0.3,0
			c-0.6,0-1.4,0.1-2.3,0.5l0,0C22.1,2,21.6,2.2,21,2.5c-0.4,0.3-0.7,0.5-1,0.8c-0.2,0.2-0.4,0.3-0.6,0.5c-1,0.6-2,1.8-1.9,4
			c0,0,0,0.1,0,0.1c0,0.1-0.1,0.3-0.1,0.4l0,0c0,0.1-0.1,0.3-0.1,0.4c-0.2,1.1,0,2,0.1,2.7l0,0.2c0,0.2,0.1,0.4,0.1,0.6
			c0.1,0.4,0.2,0.9,0.2,1.1c-0.1,0.7-0.1,1.3-0.1,1.8c0,0.2,0,0.3,0,0.5c0,0.1,0,0.2,0,0.3c0,0.3-0.1,0.8,0,1.3
			c0,0.4,0.1,0.8,0.1,1.1c0,0.3,0.1,0.6,0.1,0.8c0,0.3,0,0.7,0,1c0,0.4,0,0.9,0,1.5c0,0.5,0.1,0.9,0.1,1.3c0,0.2,0.1,0.4,0.1,0.6
			c-0.2,0.3-0.4,0.5-0.6,0.7c-0.1,0.2-0.3,0.4-0.4,0.5c-0.4-0.2-1-0.5-1.8-0.5c-0.1,0-0.2,0-0.3,0c-0.2-0.1-0.5-0.1-0.8-0.1
			c-0.2,0-0.4,0-0.6,0c-0.8,0-1.4-0.1-2-0.2c-0.2-0.1-0.6-0.3-1.1-0.4c-0.1,0-0.2,0-0.4-0.1c-0.1,0-0.3-0.1-0.4-0.1
			c-0.6-0.4-1.1-0.6-1.5-0.7c-0.1,0-0.2-0.1-0.2-0.1c-0.1,0-0.1-0.1-0.2-0.1c-0.2-0.1-0.6-0.3-1-0.4C6.2,21.3,5.4,21,4.6,21
			c-1.3,0-2.4,0.8-3,2l-0.3,0.5c-0.3,0.6-0.6,1.2-0.9,1.9c-0.7,1.8-0.5,3.5,0.7,4.8c0.1,0.1,0.3,0.3,0.4,0.5
			c0.2,0.2,0.3,0.4,0.5,0.6c0.1,0.1,0.2,0.2,0.2,0.3c0.4,0.5,0.9,1.3,1.9,1.9c0,0,0.1,0.1,0.1,0.1c0.7,1.1,1.6,1.8,2.2,2.2
			c0.2,0.1,0.3,0.2,0.5,0.4c0.4,0.4,0.9,0.7,1.3,0.9c0.1,0.1,0.3,0.2,0.4,0.3c0.1,0.2,0.4,0.4,0.7,0.6l0.1,0.1c0.5,0.4,1,0.7,1.2,1
			c0.3,0.4,0.6,0.8,0.9,1.2c0.2,0.3,0.4,0.5,0.6,0.8c0,0,0,0.1,0,0.1c-0.4,0.3-0.7,0.7-0.9,1.1l-0.1,0.1c-0.3,0.3-0.6,0.5-0.8,0.7
			C10,43.6,9.7,44,9.5,44.2c-0.2,0.1-0.4,0.2-0.6,0.4L7.3,43l-0.9,2.5l-2.1-1.8l-0.6,4.9c-0.2,0.2-0.4,0.4-0.5,0.7
			c0,0-0.1,0.1-0.1,0.1c-0.3,0.3-0.7,0.7-1.1,1.1c-1,1.1-1,2.6-0.7,3.6c0.1,0.4,0.3,0.8,0.4,1.1c0.1,0.1,0.1,0.3,0.2,0.3
			c0.3,1.2,0.8,2.1,1.2,3c0.1,0.2,0.2,0.5,0.3,0.7c0.2,0.4,0.4,0.8,0.6,1.2c0.7,1.4,2,2.2,3.5,2.2c0.5,0,1-0.1,1.4-0.3
			c0.1-0.1,0.3-0.1,0.4-0.2c0.7-0.3,1.6-0.6,2.4-1.2c0.7-0.5,1.4-1,2-1.3c0.4-0.2,0.8-0.4,1.1-0.5c0.1,0,0.2-0.1,0.2-0.1
			c0.4-0.2,0.8-0.4,1.3-0.7c0.1-0.1,0.1-0.1,0.2-0.2c0.2-0.1,0.3-0.2,0.6-0.4l0.4,1.5l1.1,0.1l0.2,0.2l0.4,0.3
			c0.1,0.1,0.2,0.1,0.3,0.2c0.1,0.1,0.1,0.2,0.2,0.3c0.1,0.1,0.2,0.3,0.3,0.4c0,0.1,0,0.1,0.1,0.2c-0.1,0.2-0.1,0.4-0.1,0.6L20,61.9
			c-0.1,0.6-0.3,1.1-0.4,1.7c0,0.1-0.1,0.2-0.1,0.3c-0.1,0.2-0.2,0.5-0.3,0.9c-0.2,0.6-0.3,1.1-0.4,1.7c0,0.2-0.1,0.4-0.1,0.5
			c0,0.1-0.1,0.3-0.1,0.5c0,0.2-0.1,0.4-0.1,0.6c-0.2,0.7-0.3,1.4-0.4,2.1c-0.1,1,0.1,2.1,0.8,3c0.3,0.5,0.7,0.9,1,1.1
			c0.1,0,0.1,0.1,0.2,0.2c0.1,0.1,0.3,0.3,0.5,0.5c0.1,0.1,0.3,0.2,0.4,0.3c0.2,0.1,0.3,0.3,0.4,0.3c0.2,0.2,0.9,0.8,1.9,1
			c0.4,0.4,1,0.6,1.6,0.8c0.3,0.1,0.6,0.1,0.8,0.1l0.1,0c0.3,0,0.5,0.1,0.8,0.1c0.9,0,2.4-0.3,3.6-2.1c0.1-0.2,0.4-0.5,0.7-0.8
			c0.2-0.2,0.4-0.4,0.6-0.7c0.3-0.3,0.4-0.7,0.6-0.9c0.1-0.2,0.3-0.5,0.4-0.8c0.2-0.4,0.4-0.9,0.6-1.2c0.2-0.3,0.4-0.6,0.7-0.9
			c0-0.1,0.1-0.1,0.1-0.2c0.2-0.1,0.4-0.2,0.6-0.3c0.5-0.2,0.9-0.5,1.4-0.7l0.2-0.1c0.5-0.2,1-0.5,1.6-0.9l0.1-0.1
			c0.1-0.1,0.2-0.1,0.3-0.2l0,0c0.1,0.1,0.2,0.1,0.3,0.2c0.4,0.9,1,1.5,1.4,1.9c0.1,0.1,0.1,0.1,0.2,0.2c0.4,0.6,0.9,1.1,1.3,1.4
			c0.2,0.2,0.4,0.4,0.4,0.5c0.2,0.3,0.4,0.6,0.5,0.7c0,0,0.1,0.1,0.1,0.1c0.2,0.2,0.3,0.4,0.4,0.6c0.7,1.2,2.1,2,3.4,2
			c0.6,0,1.2-0.1,1.7-0.4c0.5-0.3,0.9-0.6,1.3-1c0.3-0.1,0.6-0.1,0.9-0.2c0.4-0.1,0.8-0.3,1-0.5c0.2-0.1,0.3-0.2,0.4-0.2
			c0.5-0.2,1.1-0.4,1.6-0.5c0.4-0.1,0.7-0.2,1.1-0.4c0.3-0.1,0.6-0.2,0.7-0.3l0.1,0c0.1,0,0.3-0.1,0.4-0.1c0.3-0.1,0.6-0.2,1-0.3
			c2-0.7,3-2.6,2.6-4.6c-0.1-0.4-0.2-0.9-0.3-1.3l-0.1-0.4c0-0.1-0.1-0.3-0.1-0.4c-0.1-0.4-0.2-0.9-0.4-1.5
			c-0.2-0.5-0.4-0.9-0.5-1.2c-0.1-0.1-0.1-0.2-0.2-0.4c-0.2-0.5-0.4-1-0.6-1.5c0,0,0-0.1,0-0.1c-0.1-0.3-0.1-0.7-0.3-1.2
			c0.1-0.1,0.2-0.2,0.3-0.3l0.1-0.1c0.5-0.5,1.1-1,1.8-1.3c0.7-0.4,1.5-0.9,2.2-1.6c0.3-0.3,0.5-0.6,0.7-0.9c0.4,0.1,0.7,0.1,1,0.1
			c0.1,0,0.1,0,0.2,0l0.3,0.1l0.3,0c0.3,0,0.6-0.1,0.9-0.1c0.2,0,0.5,0.1,0.7,0.1c0.4,0,0.7-0.1,0.9-0.1l0.1,0c0.2,0,0.4,0,0.5,0
			c0,0,0,0,0.1,0c0.5,0.3,1,0.4,1.2,0.4c0.1,0,0.2,0,0.2,0.1l0,0c0.5,0.2,1,0.3,1.6,0.3c1.9,0,3.4-1.2,3.9-3.1l0-0.1
			c0-0.1,0.1-0.2,0.1-0.4c0.1-0.4,0.3-0.9,0.4-1.4c0.1-0.5,0.2-1,0.2-1.5c0-0.1,0-0.2,0-0.4c0.1-0.2,0.1-0.6,0.1-1
			c0-1.9-1.2-2.9-1.8-3.4c-1.2-1-2.4-1.5-3.4-1.8L68.6,42c-0.2-0.1-0.5-0.2-0.7-0.2c-0.1,0-0.2-0.1-0.3-0.1c-0.4-0.4-1-0.7-1.5-0.8
			c-0.1,0-0.2-0.1-0.3-0.1c0,0-0.1-0.1-0.1-0.1c0,0,0-0.1-0.1-0.1c0.1-0.3,0.3-0.7,0.3-1.2c0-0.4,0.1-0.7,0.1-0.9
			c0.2-0.2,0.3-0.5,0.4-0.8c0,0,0.1-0.1,0.1-0.2c0.1-0.3,0.3-0.7,0.4-1.1c0.1-0.4,0.2-0.9,0.2-1.3c0.6-0.2,1-0.3,1.5-0.5l0.4-0.1
			c0.5-0.2,0.9-0.5,1.2-0.8c0.4-0.1,0.7-0.3,0.9-0.4c0,0,0.1,0,0.1-0.1l0.1,0l0,0c1-0.2,3.3-1.2,3.5-3.3l0-0.2
			c0.1-0.5,0.2-1.3,0-2.1c-0.2-0.9-0.4-1.7-0.7-2.5l-0.2-0.7c-0.1-0.5-0.4-0.9-0.5-1.1l-0.2-0.3c-0.2-0.3-0.3-0.6-0.5-0.9
			c-0.7-1.6-1.8-2.1-2.7-2.2c-0.5-0.3-1.1-0.6-1.9-0.6h-0.8l-0.3,0.2c-0.2,0-0.4,0-0.6,0.1l-2.1-0.9l-0.7,1.1l0,0l-0.4,0
			c-0.4,0-0.9,0-1.4,0.1c-0.1,0-0.2,0-0.3,0c-0.7-0.5-1.5-0.5-1.8-0.5c-0.3,0-0.6,0-1,0.2c0,0-0.1,0-0.1,0c0-0.1,0-0.1,0.1-0.2
			c0.1-0.3,0.2-0.6,0.2-0.9c0.2-0.7,0.3-1.3,0.5-1.9c0.1-0.3,0.1-0.6,0.2-0.9c0.1-0.6,0.2-1.1,0.4-1.6c0-0.1,0.2-0.4,0.3-0.6
			c0.1-0.3,0.2-0.5,0.4-0.8c0.2-0.5,0.3-1,0.3-1.3l0-0.1c0-0.1,0-0.2,0-0.3c0.2-1,0.4-2.1,0-3.4c-0.7-2.2-2.3-2.8-3.3-3
			c-0.1,0-0.2,0-0.3,0c-0.5-0.1-1-0.1-1.3-0.1c-0.1,0-0.3,0-0.4,0c-0.5-0.1-1-0.2-1.4-0.3c-0.2,0-0.4-0.1-0.7-0.1l-0.2,0
			c-0.5-0.1-1-0.2-1.4-0.4C51.3,3.1,50.8,3,50.2,3c-1.2,0-2.3,0.5-3,1.5C47,4.8,46.9,5,46.8,5.1c-0.1,0.1-0.2,0.3-0.2,0.4
			c-0.1,0.1-0.2,0.3-0.2,0.4c-0.1,0.1-0.3,0.3-0.4,0.4c-0.6,0.6-1.5,1.5-2.1,2.6c-0.1,0.1-0.1,0.2-0.2,0.3l-0.1,0.1
			c-0.3,0.3-0.9,0.9-1.2,1.8c0,0.1-0.1,0.1-0.1,0.2c-0.2,0.2-0.4,0.4-0.6,0.6c-0.3,0.4-0.5,0.7-0.6,1c-0.2,0.1-0.4,0.3-0.6,0.4
			c-0.2-0.1-0.5-0.1-0.8-0.1c0,0-0.1,0-0.1,0c0,0,0,0,0,0c-0.4-0.1-0.7-0.2-1-0.3c0,0-0.1,0-0.1,0c0,0,0,0,0,0
			c-0.2-0.1-0.3-0.3-0.5-0.4c-0.2-0.1-0.4-0.3-0.6-0.4c-0.2-0.1-0.4-0.2-0.4-0.3c-0.1-0.1-0.3-0.3-0.4-0.6c-0.2-0.3-0.4-0.5-0.6-0.8
			c-0.2-0.3-0.4-0.5-0.6-0.7c0,0-0.1-0.1-0.1-0.1c0-0.1-0.1-0.2-0.2-0.3c-0.1-0.2-0.3-0.5-0.4-0.7c-0.2-0.3-0.4-0.5-0.5-0.6
			c0,0,0,0-0.1-0.1c-0.3-0.5-0.5-1-0.8-1.5c-0.3-0.5-0.5-1.1-0.8-1.6c-0.3-0.6-0.7-1.3-1-1.9c-0.1-0.2-0.3-0.5-0.4-0.7L29.8,0
			L29.8,0z M34.7,35.7c0.4-0.1,0.8-0.2,1.1-0.3c0,0,0.1,0,0.1,0c0.1,0,0.3,0,0.4,0c0.6,0.1,1.1,0.2,1.6,0.4c0.4,0.2,0.9,0.5,1.3,0.7
			c0.5,0.3,0.9,0.7,1.4,1.1l0.2,0.2c0.1,0.1,0.2,0.2,0.3,0.3c0.1,0.1,0.3,0.3,0.4,0.4c0.1,0.4,0.2,0.7,0.4,1.1c0,0,0,0,0,0.1
			c0,0.3,0,0.7,0,1.1c0.1,0.7,0,1.5-0.1,2.4c0,0.5-0.1,1-0.1,1.5c-0.2,0.2-0.3,0.5-0.4,0.6c-0.1,0.2-0.3,0.4-0.4,0.6
			c-0.1,0.2-0.3,0.5-0.4,0.7l-0.2,0.1c-0.3,0.2-0.6,0.4-0.9,0.7c-0.7,0.5-1.3,1-2,1.4C37,49,36.8,49,36.8,49c-0.2,0-0.3,0-0.5,0
			c-0.1,0-0.2,0-0.3,0c-0.6-0.3-1.1-0.5-1.5-0.5l0,0c-0.3-0.1-0.5-0.2-0.8-0.3c-0.6-0.2-1.1-0.4-1.3-0.7c-0.1-0.1-0.2-0.1-0.3-0.2
			c-0.2-0.6-0.5-1-0.7-1.4c-0.1-0.1-0.1-0.2-0.2-0.3l0,0c-0.1-0.1-0.1-0.3-0.2-0.4c-0.1-0.1-0.1-0.3-0.2-0.4c0-0.1-0.1-0.1-0.1-0.2
			c0,0,0-0.1,0-0.2c-0.1-0.3-0.2-0.7-0.2-1c0-0.2,0-0.3,0-0.5c0-0.2-0.1-0.5-0.1-0.8c-0.1-0.4-0.1-0.8-0.1-1c0-0.5,0.1-0.6,0.1-0.7
			c0.4-0.7,0.7-1.4,0.8-2c0.2-0.1,0.5-0.4,0.8-0.7c0.6-0.2,1.3-0.6,1.8-1.4C34.3,36.1,34.5,35.9,34.7,35.7L34.7,35.7z"/>
	</g>
	
		<pattern  id="SVGID_1_" xlink:href="#New_Pattern_Swatch_2" patternTransform="matrix(0.1021 0.1485 -0.1485 0.1021 -7501.9219 -5423.6816)">
	</pattern>
	<polygon style="opacity:0.4;fill-rule:evenodd;clip-rule:evenodd;fill:url(#SVGID_1_);" points="3.9,54 12.8,50.2 18.2,49.1 
		22.5,54.7 24.8,59.4 22.5,60.8 20.5,57.2 18.5,54.3 16.6,53.1 13,56.2 5.8,59.5 	"/>
	
		<pattern  id="SVGID_2_" xlink:href="#New_Pattern_Swatch_2" patternTransform="matrix(0.1021 0.1485 -0.1485 0.1021 -7501.9219 -5423.6816)">
	</pattern>
	<path style="opacity:0.4;fill-rule:evenodd;clip-rule:evenodd;fill:url(#SVGID_2_);" d="M44.9,43.4c0,0-2.2,7-8.1,8.2
		c-5.9,1.2-10.6-6.8-9.8-11.1c0.5-0.9-4,14.2,6.5,15.2C44.1,56.9,46.6,46.6,44.9,43.4z"/>
	
		<pattern  id="SVGID_3_" xlink:href="#New_Pattern_Swatch_2" patternTransform="matrix(0.1021 0.1485 -0.1485 0.1021 -7503.2676 -5422.7554)">
	</pattern>
	<path style="opacity:0.4;fill-rule:evenodd;clip-rule:evenodd;fill:url(#SVGID_3_);" d="M49.4,6.2l1,15.5c0,0,2.9,4.6,5.1,4.8
		c2.2,0.3,4.9-2.8,4.9-2.8l-6.4-1.9L57,8.9L49.4,6.2z"/>
</g>
</svg>
