<?xml version="1.0" encoding="utf-8"?>
<!-- Generator: Adobe Illustrator 16.0.0, SVG Export Plug-In . SVG Version: 6.00 Build 0)  -->
<!DOCTYPE svg PUBLIC "-//W3C//DTD SVG 1.1//EN" "http://www.w3.org/Graphics/SVG/1.1/DTD/svg11.dtd">
<svg version="1.1" id="Layer_1" xmlns="http://www.w3.org/2000/svg" xmlns:xlink="http://www.w3.org/1999/xlink" x="0px" y="0px"
	 width="48.2px" height="49.5px" viewBox="0 0 48.2 49.5" style="enable-background:new 0 0 48.2 49.5;" xml:space="preserve">
<pattern  x="-576.3" y="-425.2" width="12" height="12" patternUnits="userSpaceOnUse" id="New_Pattern_Swatch_2" viewBox="1 -13 12 12" style="overflow:visible;">
	<g>
		<polygon style="fill:none;" points="1,-13 13,-13 13,-1 1,-1 		"/>
		<path d="M14-1c0,0.6-0.4,1-1,1s-1-0.4-1-1s0.4-1,1-1S14-1.6,14-1z"/>
		<path d="M2-1c0,0.6-0.4,1-1,1S0-0.4,0-1s0.4-1,1-1S2-1.6,2-1z"/>
		<path d="M14-5c0,0.6-0.4,1-1,1s-1-0.4-1-1s0.4-1,1-1S14-5.6,14-5z"/>
		<path d="M11-2c0,0.6-0.4,1-1,1S9-1.4,9-2s0.4-1,1-1S11-2.6,11-2z"/>
		<path d="M8-3c0,0.6-0.4,1-1,1S6-2.4,6-3s0.4-1,1-1S8-3.6,8-3z"/>
		<path d="M5-4c0,0.6-0.4,1-1,1S3-3.4,3-4s0.4-1,1-1S5-4.6,5-4z"/>
		<path d="M2-5c0,0.6-0.4,1-1,1S0-4.4,0-5s0.4-1,1-1S2-5.6,2-5z"/>
		<path d="M14-9c0,0.6-0.4,1-1,1s-1-0.4-1-1s0.4-1,1-1S14-9.6,14-9z"/>
		<path d="M11-6c0,0.6-0.4,1-1,1S9-5.4,9-6s0.4-1,1-1S11-6.6,11-6z"/>
		<path d="M8-7c0,0.6-0.4,1-1,1S6-6.4,6-7s0.4-1,1-1S8-7.6,8-7z"/>
		<path d="M5-8c0,0.6-0.4,1-1,1S3-7.4,3-8s0.4-1,1-1S5-8.6,5-8z"/>
		<path d="M2-9c0,0.6-0.4,1-1,1S0-8.4,0-9s0.4-1,1-1S2-9.6,2-9z"/>
		<path d="M14-13c0,0.6-0.4,1-1,1s-1-0.4-1-1s0.4-1,1-1S14-13.6,14-13z"/>
		<path d="M11-10c0,0.6-0.4,1-1,1s-1-0.4-1-1s0.4-1,1-1S11-10.6,11-10z"/>
		<path d="M8-11c0,0.6-0.4,1-1,1s-1-0.4-1-1s0.4-1,1-1S8-11.6,8-11z"/>
		<path d="M5-12c0,0.6-0.4,1-1,1s-1-0.4-1-1s0.4-1,1-1S5-12.6,5-12z"/>
		<path d="M2-13c0,0.6-0.4,1-1,1s-1-0.4-1-1s0.4-1,1-1S2-13.6,2-13z"/>
	</g>
</pattern>
<g>
	<path style="fill-rule:evenodd;clip-rule:evenodd;fill:#74C5ED;" d="M15,36.6c-0.3,0-0.3-0.3-0.5-0.4c-0.1-0.1-0.1-0.3-0.2-0.4
		c-0.1-0.2-0.3-0.3-0.5-0.3c-0.2,0-0.3,0-0.5,0c-0.2,0.2-0.3,0.3-0.5,0.5c-0.1,0.1-0.1,0.2-0.1,0.3c-0.1,0.4-0.5,0.6-0.8,0.9
		c-0.2,0.2-0.5,0.3-0.7,0.4c-0.2,0.1-0.4,0.2-0.5,0.3c-0.6,0.3-1.1,0.7-1.6,1.2c-0.4,0.3-0.9,0.6-1.4,0.8c-0.3,0.1-0.5,0-0.7-0.3
		c-0.1-0.2-0.3-0.4-0.4-0.6c-0.4-0.6-0.8-1.2-1-1.9c-0.1-0.3-0.4-0.6-0.5-1C5,36,5,35.8,5.1,35.7c0.2-0.3,0.5-0.6,0.8-0.9
		c0-0.1,0.1-0.1,0.1-0.2c0.1-0.2,0.2-0.3,0.4-0.2c0.2,0.1,0.2,0,0.1-0.2c0-0.2,0-0.3,0-0.5c0.1,0.1,0.2,0.1,0.3,0.2
		c0.1-0.1,0.2-0.2,0.4-0.3c0,0,0-0.1,0-0.1c0,0,0.1,0,0.1,0c0.2,0.1,0.3,0.1,0.3-0.1c0-0.2,0.1-0.3,0.1-0.5c0.1,0.1,0.1,0.1,0.2,0.2
		c0,0,0.1-0.1,0.1-0.1C8,32.5,8.3,32.3,8.6,32c0.1-0.1,0.2-0.3,0.4-0.3c0.4-0.1,0.4-0.5,0.7-0.8c0.3-0.3,0.5-0.5,0.8-0.8
		c0.1-0.1,0.1-0.2,0.2-0.3c0.1-0.3,0.4-0.6,0.8-0.6c0,0,0,0,0,0c0.3-0.4,0.2-0.7,0-1.1c-0.2-0.4-0.2-0.8-0.5-1.2
		c-0.4-0.4-0.8-0.8-1.2-1.3c-0.4-0.4-0.9-0.7-1.4-1c-0.1-0.1-0.2-0.2-0.4-0.3c-0.4-0.2-0.7-0.4-1.1-0.6c-0.5-0.3-1-0.6-1.4-1.1
		c-0.2-0.3-0.5-0.5-0.8-0.6c-0.4-0.2-0.7-0.6-1-0.9c-0.2-0.2-0.5-0.5-0.7-0.7c-0.3-0.3-0.3-0.7-0.2-1c0.2-0.5,0.4-1,0.6-1.5
		c0.1-0.2,0.3-0.3,0.4-0.1c0.1,0.2,0.3,0.2,0.5,0.2c0.2,0,0.5,0.2,0.7,0.2c0.3,0.1,0.6,0.1,0.8,0.3c0.4,0.3,0.8,0.2,1.3,0.3
		c0.1,0,0.2,0.1,0.4,0.1C8.3,19,9,19,9.7,19c0.2,0,0.4,0,0.6,0.1c0,0,0.1,0,0.1,0c0.3-0.2,0.5,0.1,0.8,0.1c0.3,0.1,0.7,0.2,1,0.2
		c0.2,0,0.4-0.3,0.6-0.5c0,0,0-0.1,0.1-0.1c0.5-0.4,0.7-1,1.1-1.5c0.2-0.2,0.2-0.6,0.1-0.9c0-0.4-0.2-0.9-0.3-1.3
		c-0.1-0.5-0.1-1.1-0.1-1.6c-0.1-0.4-0.2-0.8-0.3-1.2c0-0.2,0-0.5,0-0.8c0-0.4-0.1-0.8-0.1-1.1c0.1-0.6-0.2-1.2-0.3-1.8
		c-0.1-0.4-0.2-0.7-0.2-1.1c0-0.1,0-0.2,0-0.3c0-0.3,0.1-0.5,0-0.8c-0.1-0.4-0.1-0.6,0.3-0.9c0.3-0.3,0.6-0.6,1-0.9
		c0.2-0.1,0.4-0.2,0.6-0.3c0.4-0.2,0.8-0.2,1.3-0.3c0.1,0,0.2,0,0.3,0.1c0.1-0.1,0.3-0.3,0.4-0.4c0,0,0.1-0.1,0.2,0
		c0.2,0.1,0.4,0,0.6-0.2c0,0,0.1,0,0.1-0.1c0.3,0.5,0.7,1,1,1.5c0.4,0.7,0.8,1.3,1.2,2c0.1,0.2,0.3,0.4,0.5,0.5
		c0.2,0.2,0.3,0.4,0.5,0.6c0.2,0.2,0.4,0.3,0.5,0.5c0.3,0.3,0.5,0.7,0.8,0.9c0.3,0.2,0.6,0.4,1,0.6c0.2,0.1,0.3,0.2,0.4,0.3
		c0.1,0.1,0.2,0.1,0.3,0.1c0.2,0.1,0.5,0.1,0.7,0.2c0.3,0.1,0.5,0.1,0.8,0.1c0.2,0,0.4,0.1,0.6,0.1c0.2,0,0.3,0.1,0.5,0.1
		c0.1,0,0.2-0.1,0.2-0.1c0.2-0.4,0.5-0.7,0.9-0.9c0.2-0.1,0.5-0.3,0.4-0.6c0-0.1,0.1-0.2,0.1-0.3c0.1-0.2,0.3-0.4,0.5-0.6
		c0.1-0.1,0.2-0.3,0.2-0.4c0-0.3,0.2-0.5,0.4-0.7c0.1-0.2,0.2-0.4,0.3-0.6C29.7,6,30.2,5.5,30.6,5c0.2-0.2,0.3-0.5,0.5-0.8
		c0-0.1,0.1-0.2,0.1-0.2c0.2-0.3,0.4-0.3,0.7-0.2c0.4,0.1,0.9,0.2,1.4,0.3c0.4,0.1,0.9,0,1.3,0.1c0.4,0.1,0.9,0,1.3,0
		c0.1,0,0.1,0,0.2,0c0.3,0,0.5,0.2,0.6,0.5c0.2,0.4,0.1,0.9,0,1.3c0,0.1,0,0.2,0,0.3c0,0.1,0,0.3,0,0.4c-0.1,0.4-0.3,0.7-0.3,1.1
		c-0.1,0.6-0.2,1.1-0.2,1.7c-0.1,0.4-0.1,0.8-0.2,1.2c-0.1,0.5-0.2,0.9-0.2,1.4c0,0.3,0,0.6,0,0.8c0.2,0.2,0.4,0.3,0.5,0.4
		c0.3,0.2,0.7,0.3,1.1,0.3c0.1,0,0.2,0,0.2,0c0.3,0.1,0.5,0.1,0.8,0c0,0,0.1,0,0.1,0c0.2-0.2,0.3-0.2,0.4,0c0,0.1,0.2,0.1,0.3,0.1
		c0.2,0,0.5,0.1,0.7,0.1c0.1,0,0.2-0.1,0.2-0.1c0.4-0.1,0.7-0.1,1-0.1c0.1,0.2,0.2,0.4,0.3,0.6c0,0,0.2,0,0.2,0
		c0.1-0.2,0.3-0.2,0.5-0.2s0.3,0,0.4-0.2c-0.3-0.2-0.3-0.2-0.2-0.5c0.3,0.1,0.6,0.1,1,0c0.2-0.1,0.5,0,0.7-0.2c0,0,0.2,0,0.3,0.1
		c0.2,0.2,0.4,0.2,0.6,0.2c0.3,0,0.4,0.3,0.5,0.5c0.2,0.2,0.3,0.5,0.5,0.7c0.1,0.1,0.1,0.1,0.1,0.2c0.2,0.6,0.5,1.2,0.7,1.8
		c0.1,0.3,0,0.6,0,0.9c0,0.1-0.5,0.5-0.7,0.5c-0.1,0-0.2,0.1-0.3,0.1c-0.4,0.1-0.6,0.5-1,0.5c-0.1,0-0.1,0.1-0.1,0.1
		c-0.1,0.1-0.2,0.2-0.3,0.3c-0.4,0.2-0.9,0.5-1.4,0.6c-0.4,0.1-0.6,0.2-0.7,0.6c-0.1,0.2-0.2,0.3-0.4,0.5c-0.1,0.1-0.1,0.2,0,0.4
		c0.2,0.2,0.2,0.4,0.2,0.7c0,0.2-0.1,0.5-0.2,0.7c0,0,0,0,0,0.1c-0.4,0.4-0.2,1-0.2,1.5c0,0.3-0.1,0.5-0.2,0.8
		c-0.1,0.3,0.1,0.6,0.2,0.9c0,0,0.1,0.1,0.1,0.1c0,0.4,0.4,0.5,0.7,0.7c0.3,0.2,0.7,0.3,1,0.4c0,0,0.1,0,0.1,0
		c0.4,0.4,0.9,0.4,1.3,0.5c0.7,0.2,1.3,0.3,1.9,0.7c0.3,0.2,0.5,0.4,0.5,0.7c0,0.1,0,0.2,0,0.3c0,0.4,0,0.7,0,1.1
		c0,0.3-0.2,0.7-0.2,1c0,0.1,0,0.1,0,0.2c-0.1,0.4-0.5,0.7-0.9,0.5c-0.1,0-0.3-0.1-0.4-0.1c-0.1,0-0.2,0-0.3,0c-0.5-0.2-1-0.2-1.6,0
		c-0.2,0.1-0.5,0.2-0.8-0.1c0,0-0.1,0-0.2,0.1c-0.2,0.1-0.3,0.3-0.5,0.3c-0.3,0-0.7,0.1-1-0.1c-0.2-0.1-0.4-0.2-0.6-0.2
		c0,0-0.1,0-0.2,0c-0.3,0.2-0.5,0.5-0.7,0.9c-0.1,0.3-0.2,0.5-0.4,0.7c-0.2,0.3-0.5,0.5-0.7,0.7c-0.6,0.4-1.1,0.8-1.6,1.3
		c-0.2,0.3-0.5,0.6-0.6,0.9c-0.1,0.5-0.2,1,0.1,1.5c0.1,0.2,0.1,0.4,0.2,0.6c0.2,0.4,0.3,0.7,0.5,1.1c0.2,0.3,0.4,0.5,0.5,0.8
		c0.1,0.3,0.2,0.6,0.3,1c0.1,0.3,0.2,0.7,0.3,1c0.1,0.3,0,0.7-0.4,0.8c-0.3,0.1-0.6,0.2-0.9,0.3c-0.2,0.1-0.3,0.2-0.4,0.2
		c-0.6,0.2-1.2,0.5-1.7,0.7c-0.3,0.1-0.6,0.4-0.9,0.5c-0.2,0.1-0.4,0.1-0.6,0.1c-0.2,0-0.3,0.2-0.4,0.3c-0.2,0.2-0.3,0.4-0.6,0.6
		c-0.2,0.1-0.6,0-0.7-0.2c-0.2-0.2-0.4-0.4-0.5-0.6c0,0-0.1-0.1-0.1-0.1C31,44.2,30.4,44,30,43.5c-0.3-0.4-0.8-0.6-1-1
		c-0.1-0.1-0.2-0.3-0.3-0.4c-0.1-0.1-0.3-0.2-0.4-0.3c0.1,0,0.2-0.1,0.3-0.1c-0.2-0.2-0.4-0.3-0.5-0.5c0,0-0.1-0.1-0.1-0.1
		c-0.3,0.1-0.5-0.2-0.6-0.3c-0.2,0-0.4,0-0.5,0.1c-0.2,0.1-0.4,0.2-0.4,0.3c-0.1,0.4-0.5,0.7-0.8,0.9c-0.3,0.2-0.6,0.4-0.9,0.6
		c-0.5,0.3-1,0.6-1.5,1c0,0-0.1,0.1-0.1,0.1c-0.2,0.4-0.5,0.8-0.7,1.2c-0.2,0.5-0.4,0.9-0.6,1.4c0,0.1-0.1,0.2-0.1,0.3
		c-0.3,0.4-0.6,0.8-0.8,1.2c-0.2,0.4-0.4,0.5-0.8,0.5c-0.2,0-0.4,0-0.5,0c-0.1,0-0.2-0.1-0.2-0.1c-0.1-0.4-0.4-0.4-0.7-0.3
		c-0.2,0.1-0.3,0-0.4-0.1c-0.2-0.2-0.5-0.3-0.7-0.5c0,0-0.1-0.1-0.1-0.1c-0.2-0.2-0.4-0.3-0.6-0.5c-0.1-0.2-0.3-0.4-0.2-0.6
		c0-0.5,0.1-1.1,0.2-1.6c0,0,0-0.1,0-0.1c0.1-0.5,0.2-1,0.2-1.5c0-0.3,0.1-0.5,0.2-0.7c0.1-0.5,0.2-1,0.2-1.5c0-0.1,0-0.1,0-0.2
		c0.3-0.4,0-0.8-0.1-1.1c-0.2-0.5-0.6-0.8-0.9-1.3C16.4,38,16.2,38,16,37.9c0,0,0,0,0,0c-0.2-0.2-0.3-0.6-0.7-0.6
		C15.2,37,15.1,36.8,15,36.6z M28.9,31.4C28.9,31.4,28.9,31.4,28.9,31.4c0.2-0.1,0.3-0.3,0.4-0.4c0.2-0.4,0.4-0.8,0.6-1.1
		c0-0.1,0.1-0.2,0.2-0.3c0.2-0.1,0.3-0.3,0.3-0.6c0-0.2,0-0.3,0-0.5c0-0.9,0.1-1.9-0.1-2.8c-0.1-0.5,0-1.1-0.4-1.5c0,0,0-0.1,0-0.2
		c0.1-0.3-0.2-0.5-0.3-0.7c0,0-0.1,0-0.1,0c-0.1,0-0.2-0.1-0.3-0.1c-0.2-0.1-0.4-0.3-0.6-0.5c-0.4-0.3-0.8-0.5-1.2-0.8
		c-0.4-0.2-0.8-0.4-1.2-0.6c-0.5-0.1-0.9-0.2-1.4-0.2c-0.3,0-0.7,0-1,0.1c-0.4,0.1-0.9,0.3-1.3,0.5c0,0-0.1,0.1-0.1,0.1
		c-0.2,0.2-0.3,0.5-0.7,0.5c-0.1,0-0.2,0.2-0.2,0.3c-0.1,0.2-0.1,0.5-0.4,0.4c0,0-0.1,0-0.1,0c-0.3,0.1-0.4,0.2-0.5,0.5
		c0,0.2-0.3,0.3-0.4,0.5c-0.2,0.2-0.3,0.3-0.4,0.6c-0.1,0.4-0.1,0.8-0.3,1.1c-0.2,0.5-0.3,0.9-0.2,1.4c0,0.4,0.2,0.9,0.2,1.3
		c0,0.1,0,0.2,0.1,0.4c0.1,0.3,0.2,0.5,0.2,0.8c0,0.1,0.1,0.3,0.2,0.4c0.1,0.2,0.2,0.3,0.3,0.4c0.1,0.1,0.1,0.2,0.2,0.3
		c0.2,0.3,0.5,0.6,0.6,0.9c0.1,0.4,0.4,0.5,0.7,0.7c0.6,0.4,1.3,0.6,2,0.8c0.2,0.1,0.5,0.1,0.7,0.2c0.4,0.2,0.8,0.2,1.2,0.2
		c0.6,0,1.1-0.3,1.6-0.7C27.7,32.4,28.3,31.9,28.9,31.4z"/>
	<g>
		<path style="fill:#185D8C;" d="M16.7,2.5c0.3,0.5,0.7,1,1,1.5c0.4,0.7,0.8,1.3,1.2,2c0.1,0.2,0.3,0.4,0.5,0.5
			c0.2,0.2,0.3,0.4,0.5,0.6c0.2,0.2,0.4,0.3,0.5,0.5C20.7,8,21,8.3,21.3,8.6c0.3,0.2,0.6,0.4,1,0.6c0.2,0.1,0.3,0.2,0.4,0.3
			c0.1,0.1,0.2,0.1,0.3,0.1c0.2,0.1,0.5,0.1,0.7,0.2c0.2,0.1,0.4,0.1,0.5,0.1c0.1,0,0.2,0,0.2,0c0,0,0.1,0,0.1,0
			c0.2,0,0.4,0.1,0.5,0.1c0.1,0,0.3,0.1,0.4,0.1c0,0,0,0,0,0c0.1,0,0.2-0.1,0.2-0.1C26,9.5,26.3,9.2,26.7,9c0.2-0.1,0.5-0.3,0.4-0.6
			c0-0.1,0.1-0.2,0.1-0.3c0.1-0.2,0.3-0.4,0.5-0.6c0.1-0.1,0.2-0.3,0.2-0.4c0-0.3,0.2-0.5,0.4-0.7c0.1-0.2,0.2-0.4,0.3-0.6
			c0.3-0.6,0.7-1.1,1.2-1.6c0.2-0.2,0.3-0.5,0.5-0.8c0-0.1,0.1-0.2,0.1-0.2c0.1-0.2,0.3-0.3,0.4-0.3c0.1,0,0.2,0,0.3,0.1
			c0.4,0.1,0.9,0.2,1.4,0.3c0.4,0.1,0.9,0,1.3,0.1c0.1,0,0.2,0,0.4,0c0.2,0,0.5,0,0.7,0c0.1,0,0.2,0,0.3,0c0,0,0,0,0,0
			c0,0,0.1,0,0.1,0c0,0,0,0,0,0c0.3,0,0.5,0.2,0.6,0.5c0.2,0.4,0.1,0.9,0,1.3c0,0.1,0,0.2,0,0.3c0,0.1,0,0.3,0,0.4
			c-0.1,0.4-0.3,0.7-0.4,1.1c-0.1,0.6-0.2,1.1-0.2,1.7C35.1,9,35,9.4,34.9,9.8c-0.1,0.5-0.2,0.9-0.2,1.4c0,0.3,0,0.6,0,0.8
			c0.2,0.2,0.4,0.3,0.5,0.4c0.3,0.2,0.6,0.3,0.9,0.3c0.1,0,0.1,0,0.2,0c0.1,0,0.1,0,0.2,0c0,0,0,0,0,0c0.1,0.1,0.2,0.1,0.3,0.1
			c0.2,0,0.3,0,0.5-0.1c0,0,0,0,0,0c0,0,0,0,0.1,0s0,0,0,0c0.1-0.1,0.1-0.2,0.2-0.2c0.1,0,0.1,0.1,0.2,0.2c0,0.1,0.2,0.1,0.3,0.1
			c0.2,0,0.5,0.1,0.7,0.1h0c0.1,0,0.2-0.1,0.2-0.1c0.4-0.1,0.7-0.1,1-0.1c0.1,0.2,0.2,0.4,0.3,0.6c0,0,0.1,0,0.1,0c0,0,0.1,0,0.1,0
			c0.1-0.2,0.2-0.2,0.3-0.2c0,0,0.1,0,0.1,0c0,0,0,0,0,0c0.2,0,0.3-0.1,0.3-0.2c-0.3-0.2-0.3-0.2-0.2-0.5c0.1,0.1,0.3,0.1,0.4,0.1
			c0.2,0,0.3,0,0.5-0.1c0.2-0.1,0.5,0,0.7-0.2c0,0,0,0,0,0c0.1,0,0.2,0.1,0.2,0.1c0.1,0.1,0.3,0.2,0.5,0.2c0,0,0.1,0,0.1,0
			c0,0,0,0,0.1,0c0.3,0,0.3,0.3,0.5,0.5c0.2,0.2,0.3,0.5,0.5,0.7c0.1,0.1,0.1,0.1,0.1,0.2c0.2,0.6,0.5,1.2,0.7,1.8
			c0.1,0.3,0,0.6,0,0.9c0,0.1-0.5,0.5-0.7,0.5c-0.1,0-0.2,0.1-0.3,0.1c-0.4,0.1-0.6,0.5-1,0.5c0,0-0.1,0.1-0.1,0.1
			c-0.1,0.1-0.2,0.2-0.3,0.3c-0.4,0.2-0.9,0.5-1.4,0.6c-0.4,0.1-0.6,0.2-0.7,0.6c-0.1,0.2-0.2,0.3-0.4,0.5c-0.1,0.1-0.1,0.2,0,0.4
			c0.2,0.2,0.2,0.4,0.2,0.6c0,0.2-0.1,0.5-0.2,0.7c0,0,0,0,0,0.1c-0.4,0.4-0.2,1-0.2,1.5c0,0.3-0.1,0.5-0.2,0.8
			c-0.1,0.3,0.1,0.6,0.2,0.9c0,0,0.1,0.1,0.1,0.1c0,0.4,0.4,0.5,0.7,0.7c0.3,0.2,0.7,0.3,1,0.4c0,0,0.1,0,0.1,0
			c0.4,0.4,0.9,0.4,1.3,0.5c0.7,0.2,1.3,0.3,1.9,0.7c0.3,0.2,0.5,0.4,0.5,0.7c0,0.1,0,0.2,0,0.3c0,0.4,0,0.7,0,1.1
			c0,0.3-0.2,0.7-0.2,1c0,0.1,0,0.1,0,0.2c-0.1,0.4-0.3,0.6-0.7,0.6c-0.1,0-0.2,0-0.3,0c-0.1,0-0.3-0.1-0.4-0.1c-0.1,0-0.2,0-0.3,0
			c-0.2-0.1-0.5-0.2-0.7-0.2c-0.3,0-0.5,0-0.8,0.1c-0.1,0-0.3,0.1-0.4,0.1c-0.1,0-0.2,0-0.3-0.2c0,0,0,0,0,0c0,0-0.1,0-0.2,0.1
			c-0.2,0.1-0.3,0.3-0.4,0.3c0,0,0,0,0,0c-0.1,0-0.1,0-0.2,0c-0.1,0-0.2,0-0.3,0c-0.2,0-0.4,0-0.5-0.1c-0.2-0.1-0.4-0.2-0.6-0.2
			c0,0,0,0,0,0c0,0-0.1,0-0.1,0c-0.3,0.2-0.5,0.5-0.7,0.9c-0.1,0.3-0.2,0.5-0.4,0.7c-0.2,0.3-0.5,0.5-0.7,0.7
			c-0.6,0.4-1.1,0.8-1.5,1.3c-0.2,0.3-0.5,0.6-0.6,0.9c-0.1,0.5-0.2,1,0.1,1.5c0.1,0.2,0.1,0.4,0.2,0.6c0.2,0.4,0.3,0.7,0.5,1.1
			c0.2,0.3,0.4,0.5,0.5,0.8c0.1,0.3,0.2,0.7,0.3,1c0.1,0.3,0.2,0.7,0.3,1c0.1,0.3,0,0.7-0.4,0.8c-0.3,0.1-0.6,0.2-0.9,0.3
			c-0.2,0.1-0.3,0.2-0.4,0.2c-0.6,0.2-1.2,0.5-1.7,0.7c-0.3,0.1-0.6,0.4-0.9,0.5C33.2,44,33,44,32.8,44c-0.2,0-0.3,0.2-0.4,0.3
			c-0.2,0.2-0.3,0.4-0.6,0.6c-0.1,0-0.1,0-0.2,0c-0.2,0-0.4-0.1-0.5-0.3c-0.2-0.2-0.4-0.4-0.5-0.6c0,0-0.1-0.1-0.1-0.1
			c-0.3-0.5-0.9-0.8-1.3-1.3c-0.3-0.4-0.8-0.6-1-1c-0.1-0.1-0.2-0.3-0.3-0.4c-0.1-0.1-0.3-0.2-0.4-0.3c0.1,0,0.2-0.1,0.3-0.1
			c-0.2-0.2-0.4-0.3-0.5-0.5c0,0-0.1-0.1-0.1-0.1c0,0,0,0,0,0c0,0-0.1,0-0.1,0c-0.2,0-0.3-0.2-0.4-0.4c-0.2,0-0.4,0-0.5,0.1
			c-0.2,0.1-0.4,0.2-0.4,0.3c-0.1,0.4-0.5,0.7-0.8,0.9c-0.3,0.2-0.6,0.4-0.9,0.6c-0.5,0.3-1,0.6-1.5,1c0,0-0.1,0.1-0.1,0.1
			c-0.2,0.4-0.5,0.8-0.7,1.2c-0.2,0.5-0.4,0.9-0.6,1.4c0,0.1-0.1,0.2-0.1,0.3c-0.3,0.4-0.6,0.8-0.8,1.2c-0.2,0.3-0.3,0.5-0.7,0.5
			c0,0-0.1,0-0.1,0c-0.1,0-0.1,0-0.2,0c-0.1,0-0.1,0-0.2,0c-0.1,0-0.1,0-0.2,0c-0.1,0-0.2-0.1-0.2-0.1C18.4,47.1,18.2,47,18,47
			c-0.1,0-0.2,0-0.3,0c0,0-0.1,0-0.1,0c-0.1,0-0.2-0.1-0.3-0.1c-0.2-0.2-0.5-0.3-0.7-0.5c0,0-0.1-0.1-0.1-0.1
			c-0.2-0.2-0.4-0.3-0.6-0.5c-0.1-0.2-0.3-0.4-0.2-0.6c0-0.5,0.1-1.1,0.2-1.6c0,0,0-0.1,0-0.1c0.1-0.5,0.1-1,0.2-1.5
			c0-0.3,0.1-0.5,0.2-0.7c0.1-0.5,0.2-1,0.2-1.5c0-0.1,0-0.1,0-0.2c0.3-0.4,0-0.8-0.1-1.1c-0.2-0.5-0.6-0.8-0.9-1.3
			c-0.1-0.1-0.3-0.2-0.5-0.3c0,0,0,0,0,0c-0.2-0.2-0.3-0.6-0.7-0.6c0,0,0,0,0,0c-0.1-0.2-0.2-0.4-0.3-0.7c-0.3,0-0.3-0.3-0.5-0.4
			c-0.1-0.1-0.1-0.3-0.2-0.4c-0.1-0.1-0.3-0.3-0.5-0.3c0,0-0.1,0-0.1,0c0,0-0.1,0-0.1,0c-0.1,0-0.2,0-0.4,0
			c-0.2,0.2-0.3,0.3-0.5,0.5c-0.1,0.1-0.1,0.2-0.1,0.3c-0.1,0.4-0.5,0.6-0.8,0.9c-0.2,0.2-0.5,0.3-0.7,0.4c-0.2,0.1-0.4,0.2-0.6,0.3
			c-0.6,0.3-1.1,0.7-1.6,1.2c-0.4,0.3-0.9,0.6-1.4,0.8c-0.1,0-0.1,0.1-0.2,0.1c-0.2,0-0.4-0.1-0.5-0.3c-0.1-0.2-0.3-0.4-0.4-0.6
			c-0.4-0.6-0.8-1.2-1-1.9c-0.1-0.3-0.4-0.6-0.5-1c-0.1-0.1-0.1-0.4,0-0.5c0.2-0.3,0.5-0.6,0.8-0.9C5,33.9,5,33.8,5,33.7
			c0-0.1,0.1-0.2,0.2-0.2c0,0,0.1,0,0.1,0c0,0,0.1,0,0.1,0c0.1,0,0.1-0.1,0.1-0.2c0-0.2,0-0.3,0-0.5C5.7,32.9,5.8,33,5.8,33
			c0.1-0.1,0.2-0.2,0.4-0.3c0,0,0-0.1,0-0.1c0,0,0,0,0.1,0c0,0,0,0,0,0c0.1,0.1,0.1,0.1,0.2,0.1c0.1,0,0.1-0.1,0.2-0.2
			c0-0.2,0.1-0.3,0.1-0.5C6.8,32,6.8,32,6.9,32.1C6.9,32.1,7,32,7,32c0.2-0.4,0.5-0.6,0.8-0.8c0.1-0.1,0.2-0.3,0.4-0.3
			c0.4-0.1,0.4-0.5,0.7-0.8c0.3-0.3,0.5-0.6,0.8-0.8c0.1-0.1,0.1-0.2,0.2-0.3c0.1-0.3,0.4-0.6,0.8-0.6c0,0,0,0,0,0
			c0.3-0.4,0.2-0.7,0-1.1c-0.2-0.4-0.2-0.8-0.5-1.2c-0.4-0.4-0.8-0.8-1.2-1.3c-0.4-0.4-0.9-0.7-1.4-1c-0.1-0.1-0.2-0.2-0.4-0.3
			c-0.4-0.2-0.7-0.4-1.1-0.6c-0.5-0.3-1-0.6-1.4-1.1c-0.2-0.3-0.5-0.5-0.8-0.6c-0.4-0.2-0.7-0.6-1-0.9c-0.2-0.2-0.5-0.5-0.7-0.7
			c-0.3-0.3-0.3-0.7-0.2-1c0.2-0.5,0.4-1,0.6-1.5c0-0.1,0.1-0.2,0.2-0.2c0.1,0,0.1,0,0.2,0.1c0.1,0.2,0.3,0.2,0.5,0.2
			c0.2,0,0.5,0.2,0.7,0.2c0.3,0.1,0.6,0.1,0.8,0.3c0.4,0.3,0.8,0.2,1.3,0.3c0.1,0,0.2,0.1,0.4,0.1c0.4,0.1,0.8,0.1,1.2,0.1
			c0.3,0,0.6,0,0.9,0c0,0,0,0,0,0c0.2,0,0.4,0,0.6,0.1c0,0,0.1,0,0.1,0c0,0,0,0,0,0c0.1-0.1,0.2-0.1,0.2-0.1c0.2,0,0.3,0.2,0.5,0.2
			c0.3,0.1,0.6,0.2,0.9,0.2c0,0,0.1,0,0.1,0c0.2,0,0.4-0.3,0.6-0.5c0,0,0-0.1,0.1-0.1c0.5-0.4,0.7-1,1.1-1.5
			c0.2-0.2,0.2-0.6,0.1-0.9c0-0.4-0.2-0.9-0.3-1.3c-0.1-0.5-0.1-1.1-0.1-1.6c-0.1-0.4-0.2-0.8-0.3-1.2c0-0.2,0-0.5,0-0.8
			c0-0.4-0.1-0.8-0.1-1.1c0.1-0.6-0.2-1.2-0.3-1.8c-0.1-0.4-0.2-0.7-0.2-1.1c0-0.1,0-0.2,0-0.3C12,6,12,5.7,12,5.5
			c-0.1-0.4-0.1-0.6,0.3-0.9c0.3-0.3,0.6-0.6,1-0.9c0.2-0.1,0.4-0.2,0.6-0.3c0.4-0.2,0.8-0.2,1.3-0.3c0,0,0,0,0.1,0
			c0.1,0,0.2,0,0.3,0.1c0.1-0.1,0.3-0.3,0.4-0.4c0,0,0.1-0.1,0.1-0.1c0,0,0,0,0,0c0.1,0,0.1,0,0.2,0c0.2,0,0.3-0.1,0.4-0.2
			C16.6,2.5,16.7,2.5,16.7,2.5 M20.2,22.1c0,0-0.1,0-0.1,0c0,0,0,0,0,0c0,0-0.1,0-0.1,0c-0.3,0.1-0.4,0.2-0.5,0.5
			c0,0.2-0.3,0.3-0.4,0.5c-0.2,0.2-0.3,0.3-0.4,0.6c-0.1,0.4-0.1,0.8-0.3,1.1c-0.2,0.5-0.3,0.9-0.2,1.4c0,0.4,0.2,0.9,0.2,1.3
			c0,0.1,0,0.2,0.1,0.4c0.1,0.3,0.2,0.5,0.2,0.8c0,0.1,0.1,0.3,0.2,0.4c0.1,0.2,0.2,0.3,0.3,0.4c0.1,0.1,0.1,0.2,0.2,0.3
			c0.2,0.3,0.5,0.6,0.6,0.9c0.1,0.4,0.4,0.5,0.7,0.7c0.6,0.4,1.3,0.6,2,0.8c0.2,0.1,0.5,0,0.7,0.2c0.3,0.1,0.5,0.2,0.8,0.2
			c0.1,0,0.3,0,0.4,0c0,0,0,0,0,0c0,0,0,0,0,0c0.6,0,1.1-0.3,1.6-0.7c0.6-0.5,1.2-1,1.8-1.5c0,0,0,0,0.1,0.1
			c0.1-0.2,0.3-0.3,0.4-0.5c0.2-0.4,0.4-0.8,0.6-1.1c0-0.1,0.1-0.2,0.2-0.3c0.2-0.1,0.3-0.3,0.3-0.5c0-0.2,0-0.3,0-0.5
			c0-0.9,0.1-1.9-0.1-2.8c-0.1-0.5,0-1.1-0.4-1.5c0,0,0-0.1,0-0.2c0.1-0.3-0.2-0.5-0.3-0.7c0,0-0.1,0-0.1,0c-0.1,0-0.2-0.1-0.3-0.1
			c-0.2-0.1-0.4-0.3-0.6-0.5c-0.4-0.3-0.8-0.5-1.2-0.8c-0.4-0.2-0.8-0.4-1.2-0.6c-0.5-0.1-0.9-0.2-1.4-0.2c-0.1,0-0.2,0-0.3,0
			c-0.2,0-0.5,0-0.7,0.1c-0.4,0.1-0.9,0.3-1.3,0.5c0,0-0.1,0.1-0.1,0.1c-0.2,0.2-0.3,0.5-0.7,0.5c-0.1,0-0.2,0.2-0.2,0.3
			C20.4,21.9,20.4,22.1,20.2,22.1 M17.5,0L16,0.6c-0.1,0-0.2,0.1-0.2,0.1c-0.4,0-0.9,0.2-1.2,0.5c0,0,0,0-0.1,0c-0.1,0-0.1,0-0.2,0
			c-0.4,0.1-0.9,0.1-1.5,0.4l0,0c-0.2,0.1-0.5,0.2-0.9,0.5c-0.2,0.2-0.4,0.4-0.6,0.5C11.2,2.8,11.1,2.9,11,3c-0.6,0.5-1.2,1.3-1,2.7
			c0,0,0,0,0,0.1c0,0.1,0,0.2,0,0.3c0,0.1,0,0.2,0,0.3C9.8,7.1,10,7.7,10.1,8.1l0,0.1c0,0.1,0.1,0.3,0.1,0.4
			c0.1,0.2,0.2,0.5,0.2,0.7c0,0.4,0,0.8,0,1.2c0,0.1,0,0.2,0,0.3c0,0.1,0,0.1,0,0.2c0,0.2,0,0.5,0.1,0.8c0,0.2,0.1,0.5,0.2,0.7
			c0,0.2,0.1,0.3,0.1,0.5c0,0.2,0,0.4,0,0.6c0,0.3,0,0.6,0.1,0.9c0,0.3,0.1,0.6,0.2,0.8c0,0.1,0.1,0.2,0.1,0.3
			c-0.1,0.2-0.2,0.3-0.3,0.5c-0.1,0.1-0.1,0.2-0.2,0.3c-0.2-0.1-0.6-0.2-0.9-0.2c-0.1,0-0.3,0-0.4,0c-0.1,0-0.3,0-0.5,0l-0.4,0
			c-0.2,0-0.3,0-0.5,0c-0.3,0-0.5,0-0.7-0.1c-0.2-0.1-0.4-0.1-0.7-0.2l-0.2,0c-0.1,0-0.2,0-0.2,0c-0.4-0.2-0.7-0.3-1-0.4
			c-0.1,0-0.1,0-0.2,0c0,0-0.1,0-0.1,0c-0.2-0.1-0.4-0.2-0.6-0.2c-0.4-0.3-0.8-0.4-1.3-0.4c-0.9,0-1.7,0.6-2.1,1.5l-0.1,0.4
			c-0.2,0.4-0.3,0.8-0.5,1.2c-0.5,1.7,0.3,2.7,0.8,3.1c0.1,0.1,0.2,0.2,0.3,0.3c0.1,0.1,0.2,0.3,0.4,0.4c0,0,0.1,0.1,0.1,0.2
			c0.3,0.3,0.7,0.8,1.4,1.1c0,0,0,0,0,0c0.5,0.7,1.1,1,1.5,1.3c0.1,0.1,0.2,0.1,0.3,0.2c0.3,0.2,0.6,0.4,0.9,0.5
			c0.1,0,0.2,0.1,0.3,0.1c0.1,0.1,0.3,0.2,0.5,0.4l0.1,0c0.4,0.2,0.7,0.4,0.8,0.6c0.2,0.2,0.4,0.5,0.6,0.7c0.1,0.2,0.3,0.3,0.4,0.5
			c0,0,0,0,0,0C8.3,27.5,8.2,27.8,8,28L8,28.1c-0.2,0.2-0.3,0.4-0.4,0.5C7.3,28.8,7.1,29,7,29.2c-0.1,0.1-0.2,0.1-0.3,0.2l-1.2-1
			l-0.4,1.7l-1.5-1l-0.1,3.3c-0.1,0.1-0.2,0.3-0.3,0.5c0,0,0,0-0.1,0.1c-0.2,0.2-0.4,0.5-0.7,0.8C2,34.5,2.1,35.4,2.3,36
			c0.1,0.3,0.2,0.5,0.3,0.7c0,0.1,0.1,0.1,0.1,0.2c0.2,0.7,0.6,1.3,0.9,1.8C3.8,38.9,3.9,39,4,39.2c0.1,0.3,0.3,0.5,0.5,0.7
			c0.5,0.8,1.3,1.2,2.2,1.2c0.4,0,0.8-0.1,1.1-0.3L8,40.7c0.4-0.2,1-0.5,1.5-0.9c0.4-0.3,0.8-0.7,1.2-0.9c0.2-0.1,0.4-0.2,0.7-0.4
			l0.2-0.1c0.2-0.1,0.5-0.3,0.8-0.6c0,0,0.1-0.1,0.1-0.1c0.1-0.1,0.1-0.1,0.2-0.2l0.3,0.9l0.7,0l0,0l0.1,0.1l0.1,0.1l0.1,0.1l0,0
			l0,0c0,0,0.1,0.1,0.2,0.1c0,0,0.1,0.1,0.1,0.1c0.1,0.1,0.2,0.2,0.2,0.2c0,0,0,0.1,0,0.1c0,0.1,0,0.3,0,0.4l0,0.2
			c-0.1,0.4-0.1,0.7-0.2,1.1c0,0.1,0,0.1,0,0.2c0,0.2-0.1,0.4-0.1,0.6c-0.1,0.4-0.1,0.7-0.2,1.1L14,43.1c0,0.1,0,0.2-0.1,0.3
			c0,0.1,0,0.3-0.1,0.4c-0.1,0.4-0.1,0.9-0.2,1.4c-0.1,0.8,0.3,1.5,0.7,1.9c0.3,0.3,0.5,0.5,0.7,0.7c0,0,0.1,0.1,0.1,0.1
			c0.1,0.1,0.2,0.2,0.4,0.3c0.1,0,0.2,0.1,0.2,0.2c0.1,0.1,0.2,0.1,0.3,0.2c0.2,0.1,0.6,0.5,1.3,0.5c0.3,0.2,0.7,0.4,1.1,0.4
			c0.2,0,0.3,0,0.4,0l0.1,0h0.1c0.1,0,0.2,0,0.3,0c0.6,0,1.8-0.2,2.5-1.6c0.1-0.1,0.2-0.3,0.4-0.5c0.1-0.1,0.2-0.3,0.3-0.4
			c0.2-0.2,0.3-0.5,0.3-0.6c0.1-0.2,0.1-0.3,0.2-0.5c0.1-0.3,0.2-0.6,0.3-0.8c0.1-0.2,0.2-0.4,0.4-0.6c0,0,0-0.1,0.1-0.1
			c0.1-0.1,0.3-0.2,0.4-0.2c0.3-0.2,0.5-0.3,0.8-0.5l0.1-0.1c0.3-0.2,0.6-0.4,1-0.7l0.1-0.1c0,0,0.1-0.1,0.1-0.1c0,0,0.1,0,0.1,0.1
			c0.3,0.6,0.7,0.9,1,1.1c0,0,0.1,0.1,0.1,0.1c0.3,0.4,0.6,0.6,0.9,0.8c0.1,0.1,0.2,0.2,0.3,0.3c0.1,0.2,0.3,0.3,0.4,0.5l0.1,0.1
			c0.1,0.1,0.2,0.2,0.3,0.3c0.5,0.7,1.3,1.1,2.1,1.1c0.5,0,0.9-0.1,1.3-0.4c0.3-0.2,0.5-0.4,0.8-0.7c0.2-0.1,0.4-0.1,0.5-0.2
			c0.3-0.1,0.5-0.2,0.6-0.4c0.1,0,0.2-0.1,0.2-0.1c0.3-0.2,0.7-0.3,1-0.4c0.2-0.1,0.4-0.2,0.7-0.3c0.2-0.1,0.3-0.2,0.4-0.2l0,0
			c0.1,0,0.2-0.1,0.2-0.1c0.2-0.1,0.4-0.2,0.6-0.3c1.2-0.6,1.8-1.9,1.5-3.2c-0.1-0.3-0.2-0.5-0.3-0.8l-0.1-0.3
			c0-0.1-0.1-0.2-0.1-0.3c-0.1-0.3-0.2-0.6-0.3-0.9c-0.1-0.3-0.3-0.5-0.4-0.7c0-0.1-0.1-0.1-0.1-0.2c-0.1-0.3-0.3-0.6-0.4-0.9l0-0.1
			c0-0.2-0.1-0.4-0.3-0.7c0,0,0.1-0.1,0.1-0.1l0.1-0.1c0.3-0.4,0.6-0.7,1-0.9c0.5-0.3,0.9-0.7,1.3-1.2c0.1-0.2,0.3-0.4,0.4-0.5
			c0.2,0,0.3,0,0.4,0c0.1,0,0.1,0,0.2,0l0.1,0l0.1,0l0.1,0c0.3,0,0.6-0.1,0.8-0.1c0.1,0,0.2,0,0.2,0c0.4,0,0.7-0.1,0.8-0.1
			c0.2,0,0.3-0.1,0.4-0.1c0.3,0.1,0.6,0.2,0.8,0.2c0,0,0.1,0,0.1,0l0,0C44.7,33,45,33,45.2,33c1.3,0,2.4-0.9,2.6-2.3l0-0.1
			c0-0.1,0-0.1,0.1-0.2c0.1-0.3,0.2-0.6,0.2-0.9c0-0.4,0.1-0.7,0.1-1c0-0.1,0-0.2,0-0.2c0-0.1,0-0.4,0-0.6c-0.1-1.3-0.9-1.9-1.3-2.2
			c-0.8-0.6-1.6-0.8-2.3-1l-0.3-0.1c-0.2,0-0.3-0.1-0.5-0.1c-0.1,0-0.1,0-0.2,0c-0.3-0.3-0.7-0.4-1.1-0.5c0,0-0.1,0-0.1,0
			c0,0-0.1,0-0.1-0.1c0,0,0,0,0,0c0.1-0.2,0.1-0.5,0.1-0.8c0-0.2,0-0.3,0-0.5l0.1-0.1l0.1-0.5l0-0.1c0.1-0.2,0.1-0.5,0.2-0.8
			c0-0.3,0.1-0.5,0-0.8c0.3-0.1,0.6-0.3,0.9-0.4l0.2-0.1c0.3-0.2,0.6-0.4,0.7-0.6c0.2-0.1,0.4-0.2,0.6-0.3c0,0,0,0,0.1,0l0,0
			c0,0,0,0,0,0c0,0,0,0,0,0c0.7-0.2,2.1-1,2.2-2.4l0-0.2c0-0.3,0-0.8-0.1-1.4c-0.2-0.6-0.4-1.1-0.6-1.6L46.8,13
			c-0.1-0.3-0.3-0.6-0.4-0.7l-0.1-0.2c-0.1-0.2-0.3-0.4-0.4-0.5c-0.6-1-1.3-1.2-1.9-1.3c-0.3-0.2-0.7-0.3-1.1-0.3h-0.6l-0.3,0.2
			c-0.1,0-0.2,0-0.4,0.1l-1.4-0.5l-0.4,0.8l-0.3,0c-0.3,0-0.6,0.1-0.8,0.1c-0.1,0-0.1,0-0.2,0c-0.4-0.2-0.8-0.2-1-0.2
			c-0.2,0-0.5,0-0.8,0.2c0-0.2,0.1-0.4,0.1-0.6C37,9.7,37,9.2,37.1,8.8c0-0.2,0.1-0.4,0.1-0.6c0-0.4,0.1-0.7,0.2-1
			c0-0.1,0.1-0.2,0.1-0.4c0.1-0.2,0.1-0.4,0.2-0.6c0.1-0.4,0.1-0.7,0.1-0.9c0-0.1,0-0.1,0-0.2c0.1-0.6,0.1-1.4-0.2-2.2
			c-0.6-1.4-1.7-1.7-2.3-1.8l-0.1,0l-0.1,0h0c-0.1,0-0.3,0-0.4,0c-0.2,0-0.3,0-0.5,0c-0.1,0-0.1,0-0.2,0c-0.3-0.1-0.6-0.1-0.9-0.1
			c-0.1,0-0.3,0-0.4,0l-0.1,0c-0.3,0-0.7-0.1-0.9-0.2c-0.3-0.1-0.6-0.1-0.9-0.1c-0.9,0-1.6,0.4-2.1,1.2c-0.1,0.2-0.2,0.3-0.2,0.4
			c0,0.1-0.1,0.2-0.1,0.3c0,0.1-0.1,0.2-0.1,0.2C28.1,3,28,3.1,27.9,3.2c-0.4,0.4-0.8,1-1.2,1.8c0,0.1-0.1,0.1-0.1,0.2l-0.1,0.1
			c-0.2,0.2-0.5,0.6-0.7,1.2c0,0,0,0.1-0.1,0.1c-0.1,0.1-0.2,0.3-0.3,0.4c-0.2,0.2-0.3,0.4-0.4,0.7c-0.1,0.1-0.2,0.2-0.3,0.2
			c-0.1,0-0.2,0-0.3,0c-0.1,0-0.2,0-0.3,0c0,0,0,0,0,0c-0.3-0.1-0.5-0.1-0.7-0.1c0,0,0,0,0,0c-0.1-0.1-0.2-0.2-0.3-0.2
			c-0.1-0.1-0.3-0.2-0.4-0.2c-0.1-0.1-0.2-0.1-0.3-0.2c-0.1,0-0.2-0.2-0.3-0.3c-0.1-0.2-0.3-0.3-0.4-0.5c-0.2-0.2-0.3-0.3-0.4-0.4
			c0,0,0,0-0.1-0.1c0-0.1-0.1-0.1-0.1-0.2c-0.1-0.1-0.2-0.3-0.3-0.4c-0.1-0.1-0.2-0.3-0.4-0.4c0,0,0,0,0,0c-0.2-0.3-0.4-0.6-0.6-0.9
			c-0.2-0.3-0.4-0.6-0.6-1c-0.2-0.4-0.5-0.8-0.7-1.1l-0.3-0.4L17.5,0L17.5,0z M22.6,22.5c0.2-0.1,0.5-0.2,0.6-0.2c0,0,0.1,0,0.2,0
			c0,0,0.1,0,0.1,0c0.4,0,0.7,0.1,1,0.1c0.2,0.1,0.6,0.3,0.8,0.4c0.3,0.2,0.6,0.4,0.9,0.6l0.2,0.1c0.1,0,0.1,0.1,0.2,0.1
			c0.1,0.1,0.2,0.1,0.3,0.2c0.1,0.2,0.2,0.4,0.3,0.6c0,0,0,0,0,0c0,0.2,0,0.4,0.1,0.7c0.1,0.4,0.1,0.9,0.1,1.5c0,0.3,0,0.6,0,0.9
			c-0.1,0.2-0.2,0.3-0.2,0.4c-0.1,0.1-0.1,0.3-0.2,0.4c-0.1,0.2-0.1,0.3-0.2,0.5L26.7,29c-0.2,0.2-0.4,0.3-0.6,0.5
			c-0.4,0.4-0.8,0.7-1.2,1c-0.3,0.2-0.4,0.2-0.4,0.2c0,0,0,0-0.1,0c-0.1,0-0.2,0-0.2,0l-0.1,0c-0.4-0.2-0.8-0.2-1-0.3l0,0
			c-0.2-0.1-0.3-0.1-0.5-0.2c-0.4-0.1-0.7-0.2-0.9-0.3c0,0-0.1-0.1-0.2-0.1c-0.2-0.3-0.4-0.6-0.5-0.8c0-0.1-0.1-0.1-0.1-0.2
			c-0.1-0.1-0.1-0.2-0.1-0.3c0-0.1-0.1-0.2-0.2-0.2c0,0,0-0.1-0.1-0.1c0,0,0,0,0-0.1c-0.1-0.2-0.1-0.4-0.2-0.6c0-0.1,0-0.2,0-0.3
			c0-0.2-0.1-0.3-0.1-0.5c-0.1-0.2-0.1-0.5-0.1-0.6c0-0.3,0-0.3,0-0.4c0.2-0.5,0.3-0.9,0.4-1.3c0.1-0.1,0.3-0.3,0.4-0.5
			c0.4-0.2,0.8-0.4,1.1-1C22.3,22.8,22.5,22.7,22.6,22.5L22.6,22.5z"/>
	</g>
	
		<pattern  id="SVGID_1_" xlink:href="#New_Pattern_Swatch_2" patternTransform="matrix(7.285049e-02 8.824940e-02 -8.824865e-02 7.285035e-02 -7097.1025 -6094.7529)">
	</pattern>
	<path style="opacity:0.4;fill-rule:evenodd;clip-rule:evenodd;fill:url(#SVGID_1_);" d="M13.6,6.2l1.5,9.7c0,0,2.1,2.7,3.5,2.8
		c1.4,0.1,3-2.1,3-2.1l-4.1-0.9l1.1-8.2L13.6,6.2z"/>
</g>
</svg>
