<?xml version="1.0" encoding="utf-8"?>
<!-- Generator: Adobe Illustrator 16.0.0, SVG Export Plug-In . SVG Version: 6.00 Build 0)  -->
<!DOCTYPE svg PUBLIC "-//W3C//DTD SVG 1.1//EN" "http://www.w3.org/Graphics/SVG/1.1/DTD/svg11.dtd">
<svg version="1.1" id="Layer_1" xmlns="http://www.w3.org/2000/svg" xmlns:xlink="http://www.w3.org/1999/xlink" x="0px" y="0px"
	 width="220.9px" height="238px" viewBox="0 0 220.9 238" style="enable-background:new 0 0 220.9 238;" xml:space="preserve">
<pattern  x="-490.1" y="-330.5" width="12" height="12" patternUnits="userSpaceOnUse" id="New_Pattern_Swatch_2" viewBox="1 -13 12 12" style="overflow:visible;">
	<g>
		<polygon style="fill:none;" points="1,-13 13,-13 13,-1 1,-1 		"/>
		<path d="M14-1c0,0.6-0.4,1-1,1s-1-0.4-1-1s0.4-1,1-1S14-1.6,14-1z"/>
		<path d="M2-1c0,0.6-0.4,1-1,1S0-0.4,0-1s0.4-1,1-1S2-1.6,2-1z"/>
		<path d="M14-5c0,0.6-0.4,1-1,1s-1-0.4-1-1s0.4-1,1-1S14-5.6,14-5z"/>
		<path d="M11-2c0,0.6-0.4,1-1,1S9-1.4,9-2s0.4-1,1-1S11-2.6,11-2z"/>
		<path d="M8-3c0,0.6-0.4,1-1,1S6-2.4,6-3s0.4-1,1-1S8-3.6,8-3z"/>
		<path d="M5-4c0,0.6-0.4,1-1,1S3-3.4,3-4s0.4-1,1-1S5-4.6,5-4z"/>
		<path d="M2-5c0,0.6-0.4,1-1,1S0-4.4,0-5s0.4-1,1-1S2-5.6,2-5z"/>
		<path d="M14-9c0,0.6-0.4,1-1,1s-1-0.4-1-1s0.4-1,1-1S14-9.6,14-9z"/>
		<path d="M11-6c0,0.6-0.4,1-1,1S9-5.4,9-6s0.4-1,1-1S11-6.6,11-6z"/>
		<path d="M8-7c0,0.6-0.4,1-1,1S6-6.4,6-7s0.4-1,1-1S8-7.6,8-7z"/>
		<path d="M5-8c0,0.6-0.4,1-1,1S3-7.4,3-8s0.4-1,1-1S5-8.6,5-8z"/>
		<path d="M2-9c0,0.6-0.4,1-1,1S0-8.4,0-9s0.4-1,1-1S2-9.6,2-9z"/>
		<path d="M14-13c0,0.6-0.4,1-1,1s-1-0.4-1-1s0.4-1,1-1S14-13.6,14-13z"/>
		<path d="M11-10c0,0.6-0.4,1-1,1s-1-0.4-1-1s0.4-1,1-1S11-10.6,11-10z"/>
		<path d="M8-11c0,0.6-0.4,1-1,1s-1-0.4-1-1s0.4-1,1-1S8-11.6,8-11z"/>
		<path d="M5-12c0,0.6-0.4,1-1,1s-1-0.4-1-1s0.4-1,1-1S5-12.6,5-12z"/>
		<path d="M2-13c0,0.6-0.4,1-1,1s-1-0.4-1-1s0.4-1,1-1S2-13.6,2-13z"/>
	</g>
</pattern>
<path style="fill-rule:evenodd;clip-rule:evenodd;fill:#74C5ED;" d="M132.3,160.5c0,0,4,0,8,3s5,3,7,6s3,4,3,4l3-2c0,0-8-12-14-12
	S132.3,155.5,132.3,160.5z"/>
<path style="fill-rule:evenodd;clip-rule:evenodd;fill:#74C5ED;" d="M52.3,11.5c0,0,4,4,6,7s5,6,5,7s4-1,4-1s-2-7-6-9
	S54.3,8.5,52.3,11.5z"/>
<path style="fill-rule:evenodd;clip-rule:evenodd;fill:#74C5ED;" d="M7.3,159.5l2-2v-3c0,0,4-7,6-9s7-5,10-6s5-2,5-2l1-3
	c0,0-8-1-13,3s-8,8-9,10S1.3,153.5,7.3,159.5z"/>
<path style="fill-rule:evenodd;clip-rule:evenodd;fill:#74C5ED;" d="M185.3,110.5c0,0,16,6,18,9c-1,0,5,3,5,3l3-3
	C211.3,119.5,187.3,102.5,185.3,110.5z"/>
<path style="fill-rule:evenodd;clip-rule:evenodd;fill:#74C5ED;" d="M143.3,28.5c0,0,22-26,27-25v3C170.3,6.5,144.3,25.5,143.3,28.5
	z"/>
<path style="fill-rule:evenodd;clip-rule:evenodd;fill:#74C5ED;" d="M190.3,37.5c0,0,26-13,28-12s2,5,2,5s-22,4-27,9L190.3,37.5z"/>
<path style="fill-rule:evenodd;clip-rule:evenodd;fill:#74C5ED;" d="M4.3,61.5v3c0,0,27,0,28,3l1-5C33.3,62.5,14.3,57.5,4.3,61.5z"
	/>
<pattern  id="SVGID_1_" xlink:href="#New_Pattern_Swatch_2" patternTransform="matrix(1 0 0 1 122.3872 43)">
</pattern>
<path style="opacity:0.5;fill-rule:evenodd;clip-rule:evenodd;fill:url(#SVGID_1_);" d="M193.3,39.5c0,0,25-9,27-9s-2-5-2-5
	S190.3,34.5,193.3,39.5z"/>
<path style="fill-rule:evenodd;clip-rule:evenodd;fill:#74C5ED;" d="M108,68.2c-4.3-3.5-5.9-8.5-8.6-12.7
	c-6.2-9.7-14.8-14.8-26.5-13.6C65.3,42.6,59,46.6,54.4,52c-8.2,9.7-11.1,21.2-11.1,33.9c0,3.5,0,7,0.1,10.5c0.2,7.9,4,14.8,7.5,21.9
	c9.6,19.5,26.7,34.4,41.1,51.8c1.6,1.9,3.3,3.7,5,5.6l-1.2,5.2c1.5-1.3,0.2-3.8,2.6-5c8.8-4.4,17-9.5,24.3-15.8
	c13-11.2,27-21.5,35.9-36.2c3.8-6.3,8.4-12,12.1-18.3c5.2-9,8-18.8,8.3-29.4c0.2-5.8-0.6-11.2-3.1-16.5
	c-3.6-7.6-12.4-15.1-22.7-14.5c-9.8,0.6-18.7,3.4-26.5,8.3c-10.7,6.7-19.3,15-24.8,26"/>
<defs>
	<filter id="Adobe_OpacityMaskFilter" filterUnits="userSpaceOnUse" x="43.3" y="41.7" width="135.6" height="139.2">
		<feFlood  style="flood-color:white;flood-opacity:1" result="back"/>
		<feBlend  in="SourceGraphic" in2="back" mode="normal"/>
	</filter>
</defs>
<mask maskUnits="userSpaceOnUse" x="43.3" y="41.7" width="135.6" height="139.2" id="SVGID_2_">
	<g style="filter:url(#Adobe_OpacityMaskFilter);">
		<path style="fill-rule:evenodd;clip-rule:evenodd;" d="M108,68.2c-4.3-3.5-5.9-8.5-8.6-12.7c-6.2-9.7-14.8-14.8-26.5-13.6
			C65.3,42.6,59,46.6,54.4,52c-8.2,9.7-11.1,21.2-11.1,33.9c0,3.5,0,7,0.1,10.5c0.2,7.9,4,14.8,7.5,21.9
			c9.6,19.5,26.7,34.4,41.1,51.8c1.6,1.9,3.3,3.7,5,5.6l-1.2,5.2c1.5-1.3,0.2-3.8,2.6-5c8.8-4.4,17-9.5,24.3-15.8
			c13-11.2,27-21.5,35.9-36.2c3.8-6.3,8.4-12,12.1-18.3c5.2-9,8-18.8,8.3-29.4c0.2-5.8-0.6-11.2-3.1-16.5
			c-3.6-7.6-12.4-15.1-22.7-14.5c-9.8,0.6-18.7,3.4-26.5,8.3c-10.7,6.7-19.3,15-24.8,26"/>
		<path style="fill-rule:evenodd;clip-rule:evenodd;fill:#FFFFFF;" d="M47.3,108.5l12,12c0,0,9,7,10,9s5,8,7,9s8,9,10,10s11,4,11,4
			s5-7,7-8s6-8,8-9c2-1,16-11,16-11l9-6c0,0,11-12,12-13s8-9,8-9s6-11,7-11s6-6,6-6s2-5,2-8s-1-10-1-11s-2-7-2-7v-2h5c0,0,6,11,6,13
			s-1,18-1,20s-7,22-8,24s-19,25-19,25l-14,15c0,0-11,8-13,10s-13,8-14,10c-1,2-13,7.4-13,7.4l-5,3.6c0,0-14-13-15-14s-12-14-12-14
			l-12-20l-13-18C41.3,113.5,39.3,108.5,47.3,108.5z"/>
		<path style="fill-rule:evenodd;clip-rule:evenodd;fill:#FFFFFF;" d="M105.3,62.5c0,0-4-7-6-9s-5-5-5-5l-6-1c0,0-2,0-4,2s-5,4-5,6
			s-2,6-1,9s0,8,0,8s1,1,4,2s14,0,14,0h3C99.3,74.5,105.3,67.5,105.3,62.5z"/>
	</g>
</mask>
<pattern  id="SVGID_3_" xlink:href="#New_Pattern_Swatch_2" patternTransform="matrix(1 0 0 1 122.3872 43)"  style="mask:url(#SVGID_2_);">
</pattern>
<path style="opacity:0.5;mask:url(#SVGID_2_);fill-rule:evenodd;clip-rule:evenodd;fill:url(#SVGID_3_);" d="M108,68.2
	c-4.3-3.5-5.9-8.5-8.6-12.7c-6.2-9.7-14.8-14.8-26.5-13.6C65.3,42.6,59,46.6,54.4,52c-8.2,9.7-11.1,21.2-11.1,33.9
	c0,3.5,0,7,0.1,10.5c0.2,7.9,4,14.8,7.5,21.9c9.6,19.5,26.7,34.4,41.1,51.8c1.6,1.9,3.3,3.7,5,5.6l-1.2,5.2c1.5-1.3,0.2-3.8,2.6-5
	c8.8-4.4,17-9.5,24.3-15.8c13-11.2,27-21.5,35.9-36.2c3.8-6.3,8.4-12,12.1-18.3c5.2-9,8-18.8,8.3-29.4c0.2-5.8-0.6-11.2-3.1-16.5
	c-3.6-7.6-12.4-15.1-22.7-14.5c-9.8,0.6-18.7,3.4-26.5,8.3c-10.7,6.7-19.3,15-24.8,26"/>
<path style="fill-rule:evenodd;clip-rule:evenodd;fill:#E1FBFF;" d="M154.8,80.9c3.5,0.9,7.6-0.8,8.5-2.6c3.2-7.1,0.9-16.8-5.5-21.9
	c-1.5-1.2-3.4-2.1-6-1.2l-7.5,2.8c3.7,7.7,8.5,14,7.9,21.9L154.8,80.9z"/>
<g>
	
		<path style="fill-rule:evenodd;clip-rule:evenodd;fill:none;stroke:#185D8C;stroke-width:3;stroke-linecap:round;stroke-linejoin:round;stroke-miterlimit:10;" d="
		M107.5,64c-4.4-3.6-6-8.7-8.7-13.1C92.5,40.7,83.5,35.3,71,36.6c-8.1,0.9-14.9,5.1-19.9,10.8C42.4,57.7,39.3,69.9,39.4,83
		c0,3.6,0.1,7.2,0.2,10.8c0.2,8,4.2,14.9,7.9,22c10,19.1,27.4,33.2,41.6,49.4c1.5,1.8,3.2,3.4,4.9,5.1l-1.3,5
		c1.5-1.3,0.2-3.6,2.6-4.8c8.8-4.4,17.1-9.5,24.6-15.7c13.3-11.1,27.5-21.3,36.9-35.7c4-6.2,8.9-11.9,12.9-18.2
		c5.7-9,9-18.7,9.9-29.4c0.5-5.8,0-11.3-2.2-16.7C174,47,165.4,39.3,154.9,40c-10.1,0.6-19.4,3.6-27.7,8.7
		c-11.3,7-20.5,15.7-26.4,27.1"/>
	<g>
		
			<path style="fill-rule:evenodd;clip-rule:evenodd;fill:none;stroke:#185D8C;stroke-width:3;stroke-linecap:round;stroke-linejoin:round;stroke-miterlimit:10;" d="
			M172.6,1.5c-4,0.6-7.3,2.1-10.4,4.7c-7.8,6.5-14.3,14-19.8,22.2"/>
		
			<path style="fill-rule:evenodd;clip-rule:evenodd;fill:none;stroke:#185D8C;stroke-width:3;stroke-linecap:round;stroke-linejoin:round;stroke-miterlimit:10;" d="
			M216.3,25.9c-7.7,1.8-15.3,3.8-22.3,7.4c-4.6,2.4-7.8,6-11.9,8.9"/>
		
			<path style="fill-rule:evenodd;clip-rule:evenodd;fill:none;stroke:#185D8C;stroke-width:3;stroke-linecap:round;stroke-linejoin:round;stroke-miterlimit:10;" d="
			M28.8,133.3c-11.7,1.2-17.2,9.1-22.7,17c-1.1,1.5-3.6,3.1-2,5.6"/>
		
			<path style="fill-rule:evenodd;clip-rule:evenodd;fill:none;stroke:#185D8C;stroke-width:3;stroke-linecap:round;stroke-linejoin:round;stroke-miterlimit:10;" d="
			M32.1,61.1C21.9,58,11.7,58.6,1.5,60"/>
		
			<path style="fill-rule:evenodd;clip-rule:evenodd;fill:none;stroke:#185D8C;stroke-width:3;stroke-linecap:round;stroke-linejoin:round;stroke-miterlimit:10;" d="
			M152.7,169.5c-4.9-7.6-12.7-11.3-21.7-13.5c-1.7-0.4-3.4-0.5-4.9,0.5"/>
		
			<path style="fill-rule:evenodd;clip-rule:evenodd;fill:none;stroke:#185D8C;stroke-width:3;stroke-linecap:round;stroke-linejoin:round;stroke-miterlimit:10;" d="
			M182.1,106.8c8.5-0.5,15.3,3.5,22.2,7.5c1.6,0.9,2.8,2.4,4.8,2.5"/>
		
			<path style="fill-rule:evenodd;clip-rule:evenodd;fill:none;stroke:#185D8C;stroke-width:3;stroke-linecap:round;stroke-linejoin:round;stroke-miterlimit:10;" d="
			M51.8,7.5C57,11.2,62.5,14.6,66,19.8c0.6,0.9,1,1.9,1.5,2.8"/>
	</g>
</g>
<g>
	<path style="fill-rule:evenodd;clip-rule:evenodd;fill:#F40000;stroke:#F40000;stroke-width:3;stroke-miterlimit:10;" d="
		M128,215.7c-5.3,1.8-11,1.5-16.1,4.7c-5.2,3.2-9.3,1.7-12.9-3.3c-0.6-0.9-1-1.8-1.7-2.7c-0.9-1.3-2-3-3.7-2.6
		c-2,0.5-0.8,2.5-0.9,3.8c-0.1,1.8,0,3.7,0.2,5.5c0.2,1.9-0.9,3.4-2.5,3.6c-1.8,0.3-1.2-1.7-1.3-2.7c-0.5-2.9-1.8-1.6-2.9-0.6
		c-2.5,2.5-5.4,4.1-9.1,3.2c-0.7-0.1-1.6-0.1-1.9-0.5c-3.4-4.5-4.4-0.5-5.8,1.6c-1.8,2.8-3.5,5.4-7.1,6.7c-7,2.6-12.3,1.5-16.2-4.9
		c-1.6-2.7-2.9-2.1-4.5,0.4c-1.8,2.7-3.3,5.8-6.3,7.7c-0.8,0.5-1.5,1.5-2.4,0.4c-1-1.1-0.3-2,0.7-2.6c1.6-0.9,2.5-2.3,3.7-3.6
		c5.6-6.4,2.8-13,0.8-19.6c-2.9-9.2-2.7-18.5-0.2-27.7c1.6-5.9,5.2-10.3,11.6-12.3c3.4-1.1,5.3-0.1,6.5,3.2c2.2,6.1,0.9,12-0.6,17.9
		c-2.2,8.6-4.8,17.1-8.2,25.3c-1.2,3-0.9,5.3,1.2,7.6c3.3,3.6,6.1,8,12.4,5.8c2.4-0.8,4.4-2,5.7-4.2c2.6-4.5,5.6-8.8,5-14.3
		c-0.1-1,0.2-2.1,0.5-3.1c0.2-0.8,0.9-1.3,1.8-1.3c1.1,0,1.2,0.9,1.3,1.7c0.2,2.8,0.2,5.5,0.5,8.3c0.2,2.1,1,3.8,3.3,4.5
		c2.2,0.7,3.7-0.6,5.1-1.9c4.6-4.4,5-10,4.6-15.8c-0.6-8.5,0-16.9,1.4-25.2c0.2-1.3,0.7-2.6,1.2-3.8c0.5-1.1,1.3-2.2,2.7-2
		c1.3,0.2,1.3,1.4,1.6,2.4c2,6.5,1.3,13,0.8,19.6c-0.1,1.9-2,5.7,3.3,3.8c1.4-0.5,2.7,1.1,3.2,2.6c0.9,2.4,1.3,5.3-0.5,7.2
		c-3,3.3-1,5.6,1,7.9c2.1,2.5,4.9,2.5,7.8,1.3c3.6-1.4,6.1-2.6,4.5-7.6c-2-6.5,0.6-10.8,5.4-13c3.6-1.6,5.3-0.8,5.9,3.1
		c0.5,3.1-0.3,6-1.6,8.8c-0.6,1.3-1.6,2.4-1.3,4.4c3.2-1,4.4-3.4,5.1-5.8c1-3.5,2-7.1,1.1-10.9c-0.3-1.1,0-2.1,1-2.8
		c0.9-0.6,1.9-0.7,2.6,0.1c3.4,4,8,7.1,9.6,12.5c2.1,7-1.6,13.8-8.5,14.9C130.2,222.1,127.3,219.7,128,215.7
		c1.3,0.7,2.7,1.4,4.1,2.1c3.2,1.7,6.8,0.4,7.8-3c1.6-5.4-0.8-11.2-6.3-14.3C132.9,206,130.3,210.8,128,215.7z M38.9,196.2
		c0.5,6.1,1.7,10.8,3.4,15.4c0.4,1,0.3,2.7,1.9,2.6c1.6-0.1,2-1.6,2.4-2.9c1.3-4.3,3-8.5,4-12.9c1.6-6.6,4.4-13.1,3.3-20.1
		c-0.3-2-0.3-4.6-3-5c-2.5-0.4-4.3,1.1-5.9,2.9C39.6,182.4,38.8,189.8,38.9,196.2z M94.1,187.8c0-1.7,0-2.9,0-4.1
		c0-1,0.1-2.5-1.2-2.6c-1.5-0.1-1.4,1.4-1.4,2.4c-0.3,4.6-0.5,9.2-0.7,13.8c0,0.8-0.1,1.8,0.8,2c1.3,0.2,1.3-1.1,1.5-1.9
		C94,194.2,94.5,190.8,94.1,187.8z M118.5,206.1c0.4,1.5,0.3,3.8,2.2,4.1c2.1,0.3,2-2,2.5-3.4c0.1-0.1,0.1-0.3,0.1-0.4
		c0.6-1.9,0.9-3.9-0.3-5.6c-0.5-0.7-1.6-0.8-2.2-0.4C118.9,201.7,118.9,203.9,118.5,206.1z M100.1,205.3c-0.4-1.1-0.4-2.7-2.1-2.3
		c-1.4,0.3-2.1,1.7-2.1,3c0.1,1.3,1.3,2.2,2.5,2.2C100.5,208.2,99.6,206.3,100.1,205.3z"/>
	<path style="fill-rule:evenodd;clip-rule:evenodd;fill:#F40000;stroke:#F40000;stroke-width:3;stroke-miterlimit:10;" d="
		M158.5,203.5c-1.2-15.6-0.3-30.6,0.6-45.5c0.3-4.6,0.6-11.1,3.8-15.2c1.4-1.8,6.5,0.3,10.2,1.5c1.8,0.6,3.4-0.9,5.1-0.3
		c1.5,0.5,2.4,1.4,1.2,3c-4.7,6.5-6.7,16-10.8,30c-2.3,8-4.4,16-4.9,24.4c0,0.5-0.1,1.1-0.3,1.6c-0.9,2.2-0.5,6.1-3.4,6
		C156.8,208.7,159.3,204.9,158.5,203.5z"/>
	<path style="fill-rule:evenodd;clip-rule:evenodd;fill:#F40000;stroke:#F40000;stroke-width:3;stroke-miterlimit:10;" d="
		M72.7,205.1c-1.6,0.2-2.8,0.2-1.6-2c1.4-2.6-0.3-5.1-1.1-7.5c-0.6-1.9-0.6-3.6,0.8-5.1c1.5-1.6,3-1,4.8-0.2
		c1.4,0.6,3.1,0.3,4.7,0.6c2.8,0.4,3.4,2.4,3.1,4.7C82.8,199.1,76.3,204.8,72.7,205.1z M81.1,195.4c-0.5-2-1.9-2.4-3.7-2
		c-0.9,0.2-1.6,1.1-2.6,0.6c-0.6-0.3-1.1-1.4-2-0.4c-0.6,0.7,0,1.5,0.4,2.1c0.5,0.8,1.1,1.5,1.6,2.2c0.7,1.1,0.4,3.4,2.6,2.7
		C79.6,199.8,80.7,197.7,81.1,195.4z"/>
	<path style="fill-rule:evenodd;clip-rule:evenodd;fill:#F40000;stroke:#F40000;stroke-width:3;stroke-miterlimit:10;" d="
		M164.6,219.8c-0.2,0.8-0.5,2-0.9,3.2c-0.6,1.5-1.8,2.9-3.6,2.6c-2.1-0.4-1.9-2.3-1.9-3.8c0.4-9.9,0-7.1,0.4-6
		c-0.3-0.9,0.8-2.5,2.3-1.4C162.6,215.6,164.3,217,164.6,219.8z"/>
</g>
<pattern  id="SVGID_4_" xlink:href="#New_Pattern_Swatch_2" patternTransform="matrix(1 0 0 1 122.3872 43)">
</pattern>
<path style="opacity:0.5;fill-rule:evenodd;clip-rule:evenodd;fill:url(#SVGID_4_);" d="M185.3,110.5l23,12l3-3
	C211.3,119.5,186.3,103.5,185.3,110.5z"/>
<pattern  id="SVGID_5_" xlink:href="#New_Pattern_Swatch_2" patternTransform="matrix(1 0 0 1 122.3872 43)">
</pattern>
<path style="opacity:0.5;fill-rule:evenodd;clip-rule:evenodd;fill:url(#SVGID_5_);" d="M134.3,161.5c0,0,15,10,15,12s4-2,4-2
	S139.3,155.5,134.3,161.5z"/>
<pattern  id="SVGID_6_" xlink:href="#New_Pattern_Swatch_2" patternTransform="matrix(1 0 0 1 122.3872 43)">
</pattern>
<path style="opacity:0.5;fill-rule:evenodd;clip-rule:evenodd;fill:url(#SVGID_6_);" d="M14.3,59.5l19,3l-1,5
	C32.3,67.5,18.3,66.5,14.3,59.5z"/>
<pattern  id="SVGID_7_" xlink:href="#New_Pattern_Swatch_2" patternTransform="matrix(1 0 0 1 122.3872 43)">
</pattern>
<path style="opacity:0.5;fill-rule:evenodd;clip-rule:evenodd;fill:url(#SVGID_7_);" d="M63.3,25.5l-6-13l11,11
	C68.3,23.5,63.3,26.5,63.3,25.5z"/>
<pattern  id="SVGID_8_" xlink:href="#New_Pattern_Swatch_2" patternTransform="matrix(1 0 0 1 122.3872 43)">
</pattern>
<path style="opacity:0.5;fill-rule:evenodd;clip-rule:evenodd;fill:url(#SVGID_8_);" d="M152.3,19.5l18-13v-3
	C170.3,3.5,153.3,10.5,152.3,19.5z"/>
<pattern  id="SVGID_9_" xlink:href="#New_Pattern_Swatch_2" patternTransform="matrix(1 0 0 1 122.3872 43)">
</pattern>
<path style="opacity:0.5;fill-rule:evenodd;clip-rule:evenodd;fill:url(#SVGID_9_);" d="M7.3,159.5l2-5c0,0,5-10,7-11s6-2,6-2l3-7
	C25.3,134.5-1.7,148.5,7.3,159.5z"/>
</svg>
