<?xml version="1.0" encoding="utf-8"?>
<!-- Generator: Adobe Illustrator 16.0.0, SVG Export Plug-In . SVG Version: 6.00 Build 0)  -->
<!DOCTYPE svg PUBLIC "-//W3C//DTD SVG 1.1//EN" "http://www.w3.org/Graphics/SVG/1.1/DTD/svg11.dtd">
<svg version="1.1" id="Layer_1" xmlns="http://www.w3.org/2000/svg" xmlns:xlink="http://www.w3.org/1999/xlink" x="0px" y="0px"
	 width="175.6px" height="213.9px" viewBox="0 0 175.6 213.9" style="enable-background:new 0 0 175.6 213.9;" xml:space="preserve"
	>
<pattern  x="-512.9" y="-343.6" width="12" height="12" patternUnits="userSpaceOnUse" id="New_Pattern_Swatch_2" viewBox="1 -13 12 12" style="overflow:visible;">
	<g>
		<polygon style="fill:none;" points="1,-13 13,-13 13,-1 1,-1 		"/>
		<path d="M14-1c0,0.6-0.4,1-1,1s-1-0.4-1-1s0.4-1,1-1S14-1.6,14-1z"/>
		<path d="M2-1c0,0.6-0.4,1-1,1S0-0.4,0-1s0.4-1,1-1S2-1.6,2-1z"/>
		<path d="M14-5c0,0.6-0.4,1-1,1s-1-0.4-1-1s0.4-1,1-1S14-5.6,14-5z"/>
		<path d="M11-2c0,0.6-0.4,1-1,1S9-1.4,9-2s0.4-1,1-1S11-2.6,11-2z"/>
		<path d="M8-3c0,0.6-0.4,1-1,1S6-2.4,6-3s0.4-1,1-1S8-3.6,8-3z"/>
		<path d="M5-4c0,0.6-0.4,1-1,1S3-3.4,3-4s0.4-1,1-1S5-4.6,5-4z"/>
		<path d="M2-5c0,0.6-0.4,1-1,1S0-4.4,0-5s0.4-1,1-1S2-5.6,2-5z"/>
		<path d="M14-9c0,0.6-0.4,1-1,1s-1-0.4-1-1s0.4-1,1-1S14-9.6,14-9z"/>
		<path d="M11-6c0,0.6-0.4,1-1,1S9-5.4,9-6s0.4-1,1-1S11-6.6,11-6z"/>
		<path d="M8-7c0,0.6-0.4,1-1,1S6-6.4,6-7s0.4-1,1-1S8-7.6,8-7z"/>
		<path d="M5-8c0,0.6-0.4,1-1,1S3-7.4,3-8s0.4-1,1-1S5-8.6,5-8z"/>
		<path d="M2-9c0,0.6-0.4,1-1,1S0-8.4,0-9s0.4-1,1-1S2-9.6,2-9z"/>
		<path d="M14-13c0,0.6-0.4,1-1,1s-1-0.4-1-1s0.4-1,1-1S14-13.6,14-13z"/>
		<path d="M11-10c0,0.6-0.4,1-1,1s-1-0.4-1-1s0.4-1,1-1S11-10.6,11-10z"/>
		<path d="M8-11c0,0.6-0.4,1-1,1s-1-0.4-1-1s0.4-1,1-1S8-11.6,8-11z"/>
		<path d="M5-12c0,0.6-0.4,1-1,1s-1-0.4-1-1s0.4-1,1-1S5-12.6,5-12z"/>
		<path d="M2-13c0,0.6-0.4,1-1,1s-1-0.4-1-1s0.4-1,1-1S2-13.6,2-13z"/>
	</g>
</pattern>
<path style="fill-rule:evenodd;clip-rule:evenodd;fill:#E1FBFF;" d="M48.7,56.2c4.4,10.4,2.6,22,6.3,32.7
	c3.8,10.9,12.4,19.3,22.1,20.3c12.4,1.3,20-6.3,23.3-15.7c2.4-6.9,3.3-14.2,5.3-21.2c1.1-3.9-0.4-9.2,0.1-13.9
	c0.3-3.8,0.1-7.8,1-11.4c2-8.1,1.2-16.3-0.1-24C104.7,11,95.1,5,84.2,1.9C72.3-1.5,54.6,1.8,42.6,3.3l5.4,35.6L43,40.2
	c-4.8,1.5-7.1,6.6-5.4,11.6c1.7,5,6.1,7.2,11.1,5.4"/>
<path style="fill-rule:evenodd;clip-rule:evenodd;fill:#74C5ED;" d="M57.6,81.2c0,0-24,4.2-28.2,7.9c-4.2,3.7-18.7,11.7-20,15.6
	c-1.3,3.9-3.1,26.1-2.8,35.2c0.3,9.1,2.4,31.6,2.2,33.6c-0.2,2,2.1,10.3,2.1,10.3l69.4-5.6l74.3-5.2l1.3-40.4c0,0-3.1-35.7-3-36.7
	c0.1-1-3.3-8.4-5.2-9.5c-1.9-1.2-14.2-7.2-16.2-7.4s-15.6-2.3-16.6-2.3c-1-0.1-4.9-0.4-4.9-0.4s-2.5,19-6.8,23.8
	c-4.3,4.7-5.7,9.7-9.8,11.4c-4.1,1.7-7.1,2.5-12,1.6c-4.9-0.9-14.3-5.7-16-8.9C63.9,100.9,58.5,94.4,57.6,81.2z"/>
<g>
	
		<pattern  id="SVGID_1_" xlink:href="#New_Pattern_Swatch_2" patternTransform="matrix(0.9968 7.975542e-02 -7.975546e-02 0.9968 -535.3545 677.8438)">
	</pattern>
	<path style="opacity:0.3;fill-rule:evenodd;clip-rule:evenodd;fill:url(#SVGID_1_);" d="M40.3,53.4c-0.7-1.6-0.8-4.5-0.5-7.5
		c-1.4,2.2-1.7,5.1-0.8,8c1.7,5,6.1,7.2,11.1,5.4l0.1-1C45.8,59.1,42,57.2,40.3,53.4z"/>
	
		<pattern  id="SVGID_2_" xlink:href="#New_Pattern_Swatch_2" patternTransform="matrix(0.9968 7.975542e-02 -7.975546e-02 0.9968 -535.3545 677.8438)">
	</pattern>
	<path style="opacity:0.3;fill-rule:evenodd;clip-rule:evenodd;fill:url(#SVGID_2_);" d="M48.7,34.2l0.9,6.2h4l1-6v-9l3-5l6-4l7-2
		l7-1l7,2c0,0,6,0,7,0s4,0,5,1s6,6,6,6l3,1l1-2c0,0-0.4-2.7-2.4-6C100,9.6,93.1,6.2,85.7,4C74.2,0.7,57.4,3.7,45.4,5.2
		c0,1.9,0.2,5,0.5,7.8l-1.5-7.7c-0.1,0-0.2,0-0.3,0l4.4,28.9L48.7,34.2z"/>
	
		<pattern  id="SVGID_3_" xlink:href="#New_Pattern_Swatch_2" patternTransform="matrix(0.9968 7.975542e-02 -7.975546e-02 0.9968 -535.3545 677.8438)">
	</pattern>
	<path style="opacity:0.3;fill-rule:evenodd;clip-rule:evenodd;fill:url(#SVGID_3_);" d="M108.9,41.3c-0.8,2.7-0.6,5.7-0.8,8.6
		c0.1-0.3,0.1-0.6,0.2-0.9c0.9-3.4,1.2-6.8,1.2-10.3C109.3,39.5,109.1,40.4,108.9,41.3z"/>
	
		<pattern  id="SVGID_4_" xlink:href="#New_Pattern_Swatch_2" patternTransform="matrix(0.9968 7.975542e-02 -7.975546e-02 0.9968 -535.3545 677.8438)">
	</pattern>
	<path style="opacity:0.3;fill-rule:evenodd;clip-rule:evenodd;fill:url(#SVGID_4_);" d="M107.2,60.4c0.2-2.2,0.2-4.5,0.4-6.7
		c-0.6,3-1.5,6-2.3,8.4c-1.7,5.2-1.9,9.3-3.7,14.2c-0.1-0.6-0.1-0.8-1.3-1.5c-1.9-1.2-4.7-3.4-5.7-3.5c-1-0.1-1-0.1-3-0.2
		c-2-0.2-7-0.6-7-0.6s-2.9-1.2-4-0.3c-1.1,0.9-5.1,1.6-6.1,1.5s-4-0.3-5.1,0.6c-1.1,0.9-2.2,2.8-3.2,2.8c-1-0.1-3.1,1.8-3.1,1.8
		c-0.9-1.6-1.8-3.3-2.6-5.2c-3.9-8.8-4.4-5.6-8.9-14.3L51.5,58c-0.4,0.1-0.8,0.2-1.3,0.3c4.4,10.4,2.6,22,6.3,32.7
		c3.8,10.9,12.4,19.3,22.1,20.3c12.4,1.3,20-6.3,23.3-15.7c2.4-6.9,3.3-14.2,5.3-21.2C108.3,70.4,106.8,65.1,107.2,60.4z M81.5,84.2
		C74,85.4,69.5,84,66.3,81l1.4,0.1c0,0,2.2-2.8,3.3-3.7s5.1-1.6,6.1-1.5s6,0.5,7,0.6c1,0.1,0.1-1,3.1-0.8c3,0.2,3,0.2,4,0.3
		c1,0.1,1.9,1.2,2.9,1.2c1,0.1,0,0,0.9,1.1c0.9,1.1,0.8,2.1,2.8,3.2c0.4,0.2,0.7,0.4,0.9,0.5C95.6,85.4,91,85.2,81.5,84.2z"/>
</g>
<g>
	<pattern  id="SVGID_5_" xlink:href="#New_Pattern_Swatch_2" patternTransform="matrix(1 0 0 1 57.3872 113)">
	</pattern>
	<path style="opacity:0.6;fill-rule:evenodd;clip-rule:evenodd;fill:url(#SVGID_5_);" d="M128.1,76.9c-0.1,0-0.1,0-0.2,0
		C128,76.8,128.1,76.9,128.1,76.9z"/>
	<pattern  id="SVGID_6_" xlink:href="#New_Pattern_Swatch_2" patternTransform="matrix(1 0 0 1 57.3872 113)">
	</pattern>
	<path style="opacity:0.6;fill-rule:evenodd;clip-rule:evenodd;fill:url(#SVGID_6_);" d="M126.5,76.6c0,0-0.1,0-0.1,0
		C126.4,76.6,126.5,76.6,126.5,76.6z"/>
	<pattern  id="SVGID_7_" xlink:href="#New_Pattern_Swatch_2" patternTransform="matrix(1 0 0 1 57.3872 113)">
	</pattern>
	<path style="opacity:0.6;fill-rule:evenodd;clip-rule:evenodd;fill:url(#SVGID_7_);" d="M146.9,84.8c0,0-0.1-0.1-0.1-0.1
		C146.8,84.7,146.9,84.8,146.9,84.8z"/>
	<pattern  id="SVGID_8_" xlink:href="#New_Pattern_Swatch_2" patternTransform="matrix(1 0 0 1 57.3872 113)">
	</pattern>
	<path style="opacity:0.6;fill-rule:evenodd;clip-rule:evenodd;fill:url(#SVGID_8_);" d="M129.3,77c0,0-0.1,0-0.1,0
		C129.2,77,129.3,77,129.3,77z"/>
	<pattern  id="SVGID_9_" xlink:href="#New_Pattern_Swatch_2" patternTransform="matrix(1 0 0 1 57.3872 113)">
	</pattern>
	<path style="opacity:0.6;fill-rule:evenodd;clip-rule:evenodd;fill:url(#SVGID_9_);" d="M147.2,85.1c0,0,0.1,0.1,0.1,0.1
		C147.2,85.1,147.2,85.1,147.2,85.1z"/>
	<pattern  id="SVGID_10_" xlink:href="#New_Pattern_Swatch_2" patternTransform="matrix(1 0 0 1 57.3872 113)">
	</pattern>
	<path style="opacity:0.6;fill-rule:evenodd;clip-rule:evenodd;fill:url(#SVGID_10_);" d="M128.7,76.9c0,0-0.1,0-0.1,0
		C128.6,76.9,128.7,76.9,128.7,76.9z"/>
	<pattern  id="SVGID_11_" xlink:href="#New_Pattern_Swatch_2" patternTransform="matrix(1 0 0 1 57.3872 113)">
	</pattern>
	<path style="opacity:0.6;fill-rule:evenodd;clip-rule:evenodd;fill:url(#SVGID_11_);" d="M148.1,86.2c0.1,0.1,0.1,0.2,0.2,0.2
		C148.2,86.3,148.1,86.3,148.1,86.2z"/>
	<pattern  id="SVGID_12_" xlink:href="#New_Pattern_Swatch_2" patternTransform="matrix(1 0 0 1 57.3872 113)">
	</pattern>
	<path style="opacity:0.6;fill-rule:evenodd;clip-rule:evenodd;fill:url(#SVGID_12_);" d="M154.8,130.1c0,0.1,0,0.1,0,0.1
		S154.8,130.2,154.8,130.1z"/>
	<pattern  id="SVGID_13_" xlink:href="#New_Pattern_Swatch_2" patternTransform="matrix(1 0 0 1 57.3872 113)">
	</pattern>
	<path style="opacity:0.6;fill-rule:evenodd;clip-rule:evenodd;fill:url(#SVGID_13_);" d="M147.6,85.6c0,0,0.1,0.1,0.1,0.1
		C147.6,85.6,147.6,85.6,147.6,85.6z"/>
	<pattern  id="SVGID_14_" xlink:href="#New_Pattern_Swatch_2" patternTransform="matrix(1 0 0 1 57.3872 113)">
	</pattern>
	<path style="opacity:0.6;fill-rule:evenodd;clip-rule:evenodd;fill:url(#SVGID_14_);" d="M149,87.7c-4.8-3.3-16.4-9.3-24.3-11.3
		c-1.6-0.2-3.3-0.5-4.9-0.7c-1,0-1.8,0.3-2.3,0.7c0,0,6.9,5,10.4,7s8.1,8,10.4,10s7,8,8.2,11s2.2,13,2.2,15s1.2,11,1.2,14
		s-1.2,23-1.2,27s-1.2,9-1.2,9h6.1l0.8-28.1c0-6.5,0-12.2,0-14.7c0,0.4,0.1,0.8,0.1,1.2c-0.7-8.1-3-33-2.9-33.9
		c0.1-0.6-1.4-3.9-2.9-6.5C148.9,87.5,149,87.6,149,87.7z"/>
	<pattern  id="SVGID_15_" xlink:href="#New_Pattern_Swatch_2" patternTransform="matrix(1 0 0 1 57.3872 113)">
	</pattern>
	<path style="opacity:0.6;fill-rule:evenodd;clip-rule:evenodd;fill:url(#SVGID_15_);" d="M154.6,128.1
		C154.6,128.1,154.6,128.1,154.6,128.1C154.6,128.1,154.6,128.1,154.6,128.1z"/>
	<pattern  id="SVGID_16_" xlink:href="#New_Pattern_Swatch_2" patternTransform="matrix(1 0 0 1 57.3872 113)">
	</pattern>
	<path style="opacity:0.6;fill-rule:evenodd;clip-rule:evenodd;fill:url(#SVGID_16_);" d="M114.4,74.9
		C114.4,74.9,114.4,74.9,114.4,74.9C114.4,74.9,114.4,74.9,114.4,74.9z"/>
	<pattern  id="SVGID_17_" xlink:href="#New_Pattern_Swatch_2" patternTransform="matrix(1 0 0 1 57.3872 113)">
	</pattern>
	<path style="opacity:0.6;fill-rule:evenodd;clip-rule:evenodd;fill:url(#SVGID_17_);" d="M148.4,86.8c0.1,0.1,0.1,0.2,0.2,0.3
		C148.6,87,148.5,86.9,148.4,86.8z"/>
	<pattern  id="SVGID_18_" xlink:href="#New_Pattern_Swatch_2" patternTransform="matrix(1 0 0 1 57.3872 113)">
	</pattern>
	<path style="opacity:0.6;fill-rule:evenodd;clip-rule:evenodd;fill:url(#SVGID_18_);" d="M129.7,77.1c0,0-0.1,0-0.1,0
		C129.6,77.1,129.7,77.1,129.7,77.1z"/>
	<pattern  id="SVGID_19_" xlink:href="#New_Pattern_Swatch_2" patternTransform="matrix(1 0 0 1 57.3872 113)">
	</pattern>
	<path style="opacity:0.6;fill-rule:evenodd;clip-rule:evenodd;fill:url(#SVGID_19_);" d="M55.2,84.1c0.1,0.4,0.1,0.7,0.2,1.1
		C55.4,84.9,55.3,84.5,55.2,84.1z"/>
	<pattern  id="SVGID_20_" xlink:href="#New_Pattern_Swatch_2" patternTransform="matrix(1 0 0 1 57.3872 113)">
	</pattern>
	<path style="opacity:0.6;fill-rule:evenodd;clip-rule:evenodd;fill:url(#SVGID_20_);" d="M54.6,79.1c0.1,0.8,0.1,1.5,0.2,2.2
		C54.7,80.6,54.6,79.8,54.6,79.1z"/>
	<pattern  id="SVGID_21_" xlink:href="#New_Pattern_Swatch_2" patternTransform="matrix(1 0 0 1 57.3872 113)">
	</pattern>
	<path style="opacity:0.6;fill-rule:evenodd;clip-rule:evenodd;fill:url(#SVGID_21_);" d="M54.9,82c0.1,0.5,0.1,0.9,0.2,1.3
		C55,82.9,55,82.4,54.9,82z"/>
	<pattern  id="SVGID_22_" xlink:href="#New_Pattern_Swatch_2" patternTransform="matrix(1 0 0 1 57.3872 113)">
	</pattern>
	<path style="opacity:0.6;fill-rule:evenodd;clip-rule:evenodd;fill:url(#SVGID_22_);" d="M50.5,176.9c0-1.3,77-5.6,78-5.6
		c0.2,0,0.3-0.4,0.3-1h1.7l7-1c0,0-1-16-1-17s0-10-1-13s-6-13-8-12c0,0-3-1-3,3s-2,7-2,9s1,7,1,9s1,4,2,6c0.2,0.5,0.4,1,0.4,1.5
		c-2.4,1.9-11.6,9.2-12.4,9.2c-1,0-7,0-9,0s-5,1.3-9,1.3s-12,0-15,0s-7,1.3-10,1.3s-16,1.3-16,1.3l-10,2.6l-10,4
		c-0.3,1.5,0.8,2.3,2.6,2.8l-29.7,2.3l42.6-3.2C50.3,177.2,50.5,177.1,50.5,176.9z"/>
	<pattern  id="SVGID_23_" xlink:href="#New_Pattern_Swatch_2" patternTransform="matrix(1 0 0 1 57.3872 113)">
	</pattern>
	<path style="opacity:0.6;fill-rule:evenodd;clip-rule:evenodd;fill:url(#SVGID_23_);" d="M31.8,177.4c0,0,1.7-12.2,1.7-15.6
		s-1.7-8.9-1.7-12.2s-1.7-14.5-3.4-17.8c-1.7-3.3-5.1-3.3-6.8-3.3s-5.1,2.2-6.8,4.5c-1.7,2.2,0,5.6,1.7,10c1.7,4.5,1.7,6.7,1.7,10
		s3.4,8.9,3.4,13.4c0,4.5,0,11.1,0,11.1H31.8z"/>
	<pattern  id="SVGID_24_" xlink:href="#New_Pattern_Swatch_2" patternTransform="matrix(1 0 0 1 57.3872 113)">
	</pattern>
	<path style="opacity:0.6;fill-rule:evenodd;clip-rule:evenodd;fill:url(#SVGID_24_);" d="M56.9,90.6c0-0.1,0-0.1-0.1-0.2
		C56.9,90.5,56.9,90.6,56.9,90.6z"/>
	<pattern  id="SVGID_25_" xlink:href="#New_Pattern_Swatch_2" patternTransform="matrix(1 0 0 1 57.3872 113)">
	</pattern>
	<path style="opacity:0.6;fill-rule:evenodd;clip-rule:evenodd;fill:url(#SVGID_25_);" d="M55.8,86.9c-0.1-0.3-0.1-0.5-0.2-0.8
		C55.7,86.3,55.8,86.6,55.8,86.9z"/>
	<pattern  id="SVGID_26_" xlink:href="#New_Pattern_Swatch_2" patternTransform="matrix(1 0 0 1 57.3872 113)">
	</pattern>
	<path style="opacity:0.6;fill-rule:evenodd;clip-rule:evenodd;fill:url(#SVGID_26_);" d="M114,74.8C114,74.9,114.1,74.9,114,74.8
		C114.1,74.9,114,74.9,114,74.8z"/>
	<pattern  id="SVGID_27_" xlink:href="#New_Pattern_Swatch_2" patternTransform="matrix(1 0 0 1 57.3872 113)">
	</pattern>
	<path style="opacity:0.6;fill-rule:evenodd;clip-rule:evenodd;fill:url(#SVGID_27_);" d="M113.2,74.7
		C113.3,74.7,113.3,74.8,113.2,74.7C113.3,74.8,113.3,74.7,113.2,74.7z"/>
	<pattern  id="SVGID_28_" xlink:href="#New_Pattern_Swatch_2" patternTransform="matrix(1 0 0 1 57.3872 113)">
	</pattern>
	<path style="opacity:0.6;fill-rule:evenodd;clip-rule:evenodd;fill:url(#SVGID_28_);" d="M113.7,74.8
		C113.7,74.8,113.7,74.8,113.7,74.8C113.7,74.8,113.7,74.8,113.7,74.8z"/>
	<pattern  id="SVGID_29_" xlink:href="#New_Pattern_Swatch_2" patternTransform="matrix(1 0 0 1 57.3872 113)">
	</pattern>
	<path style="opacity:0.6;fill-rule:evenodd;clip-rule:evenodd;fill:url(#SVGID_29_);" d="M113.4,74.8
		C113.5,74.8,113.5,74.8,113.4,74.8C113.5,74.8,113.5,74.8,113.4,74.8z"/>
	<pattern  id="SVGID_30_" xlink:href="#New_Pattern_Swatch_2" patternTransform="matrix(1 0 0 1 57.3872 113)">
	</pattern>
	<path style="opacity:0.6;fill-rule:evenodd;clip-rule:evenodd;fill:url(#SVGID_30_);" d="M108.1,74.5
		C108.1,74.5,108.1,74.5,108.1,74.5C108.1,74.5,108.1,74.5,108.1,74.5z"/>
	<pattern  id="SVGID_31_" xlink:href="#New_Pattern_Swatch_2" patternTransform="matrix(1 0 0 1 57.3872 113)">
	</pattern>
	<path style="opacity:0.6;fill-rule:evenodd;clip-rule:evenodd;fill:url(#SVGID_31_);" d="M55.5,94.2c0,0,2,9.8,3.9,14.7
		s4.9,8.6,11.8,11c6.9,2.5,10.8,2.5,17.7,1.2c6.9-1.2,9.8-4.9,12.8-8.6c2.9-3.7,4.9-24.4,4.9-28.1c0-0.1,0-0.2-0.1-0.3
		c-1.2,5.3-2.9,11.3-5.1,13.6c-4.4,4.7-5.8,9.6-9.9,11.2c-4.1,1.7-7.2,2.5-12.2,1.5c-4.9-0.9-14.6-5.7-16.3-8.8
		c-1-1.9-3.4-5-5.4-9.9C56.3,92.6,55.6,93.4,55.5,94.2z"/>
</g>
<path style="fill-rule:evenodd;clip-rule:evenodd;fill:none;stroke:#185D8C;stroke-width:3;stroke-linecap:round;stroke-linejoin:round;stroke-miterlimit:10;" d="
	M108.6,74.4c0.5,0.2,1,0.6,1.4,0.6c10.2-1.5,19.7,0.6,28.7,5.3c6.1,3.2,12.8,6,14.4,13.7c0.8,3.9,0.4,8.1,0.8,12
	c1.3,12.1,0.6,24.2,0.7,36.2c0,9.5,0.7,19.1,0.4,28.6L6.4,180.1L5.2,176C3,168.8,3,161.6,2.8,154.2c-0.4-13.2-1.1-26.5-0.1-39.6
	c0.6-7.7,3.5-14.8,10-19.8c12-9.4,25.8-14,40.9-15.3"/>
<path style="fill-rule:evenodd;clip-rule:evenodd;fill:none;stroke:#185D8C;stroke-width:3;stroke-linecap:round;stroke-linejoin:round;stroke-miterlimit:10;" d="
	M22.1,140.2c1.1,11.6,2.7,23.1,2.8,34.8c0,1.2,0.4,2.4,0.7,3.6"/>
<path style="fill-rule:evenodd;clip-rule:evenodd;fill:none;stroke:#185D8C;stroke-width:3;stroke-linecap:round;stroke-linejoin:round;stroke-miterlimit:10;" d="
	M129.8,135.8c0.9,11,1.2,22,3.4,32.9c0.2,1.2,0.5,2.4,0.7,3.6"/>
<path style="fill-rule:evenodd;clip-rule:evenodd;fill:none;stroke:#185D8C;stroke-width:2;stroke-linecap:round;stroke-linejoin:round;stroke-miterlimit:10;" d="
	M85.9,32.9c3.4-0.2,7.1-1.1,8.8,3.2c0,0-7.8,3.4-3.3-2.3"/>
<path style="fill-rule:evenodd;clip-rule:evenodd;fill:none;stroke:#185D8C;stroke-width:2;stroke-linecap:round;stroke-linejoin:round;stroke-miterlimit:10;" d="
	M63.7,33.9c3.4-0.2,7.1-1.1,8.8,3.2c0,0-6.7,2.8-3.4-2"/>
<path style="fill-rule:evenodd;clip-rule:evenodd;fill:none;stroke:#185D8C;stroke-width:3;stroke-linecap:round;stroke-linejoin:round;stroke-miterlimit:10;" d="
	M85.8,46c-0.2,5.3,1.4,10.3,2.9,15.3c3.1,10.7-7.9,4.2-8.1,5.9"/>
<path style="fill-rule:evenodd;clip-rule:evenodd;fill:none;stroke:#185D8C;stroke-width:3;stroke-linecap:round;stroke-linejoin:round;stroke-miterlimit:10;" d="
	M93.3,79.1c-7.7,0.6-14.8,1.7-22.5,1.1"/>
<g>
	<path style="fill-rule:evenodd;clip-rule:evenodd;fill:#F40000;stroke:#F40000;stroke-width:3;stroke-miterlimit:10;" d="
		M101.2,193.2c-0.1-1.4-0.2-2.7-0.3-4.1c-0.3-3.6,0.2-4.5,4.7-4.1c6.5,0.6,7.8,3.8,8.7,9.1c0.8,4.6,7,5.3,10.5,1.4
		c2.4-2.7,2.9-7.4,1.9-11c-0.5-2-1.7-5.1,1.4-6.2c3-1.1,5.4,2,6.5,3.8c2.1,3.3,2.2,8.2,1.9,12.4c-0.1,2.4,1.1,3.1,3.2,2.1
		c1.1-0.5,2.2-1,3.2-1.6c1.4-0.8,3-1.5,4,0.3c1.1,2-0.4,3.1-2,3.9c-4.8,2.5-10,3.7-15.2,3.3c-3.4-0.3-6.8,0-10,0.3
		c-5.4,0.6-8.3-1.8-9.8-6.7c-0.4-1.4-0.6-3.2-2.7-3c-2,0.2-1.7,1.8-1.9,3.1c-1.7,9.8-14.3,12.7-20.4,7.3c-2.7-2.4-4.7-1.8-7.2-0.5
		c-5.2,2.6-10.6,4.5-16.5,4.4c-2.3-0.1-4.4-0.7-4.4-3.1c0-2.1,2.2-2.3,3.9-2.3c2.1,0.1,3.8-0.2,4.4-2.4c0.6-2.6,0.6-5.3-1.2-7.3
		c-2.4-2.6-3.6,0-4.5,1.7c-2.9,5.3-6.9,9.7-11.7,13.2c-3.1,2.3-6.5,3-9.9,0.7c-1.7-1.2-2.8-1-4.5,0.1c-5.9,3.8-11.9,6.3-17.6-0.6
		c-1.3-1.6-2.4,0-3.4,0.8c-2.3,1.9-4.8,3.2-7.6,4.1c-1.2,0.4-2.5,0.2-2.9-1.2c-0.4-1.2,0.6-1.9,1.6-2.2c6.5-2,10.2-6.2,11-13
		c0.1-1.1,1.1-2,1.8-3c1-1.5,2.3-2.8,4.2-1.8c2.1,1.1,1.1,2.9,0.6,4.5c-0.6,1.8-1.6,3.4-1.9,5.2c-0.8,5,2.6,8,7.3,6.5
		c4.4-1.4,8-3.9,8.6-9c0.1-1.2,0.4-2.4,0.7-3.5c0.5-1.5,1.3-2.9,3.2-2.5c1.6,0.4,2,1.7,1.8,3.2c-0.2,1.7-0.5,3.3-0.8,5
		c-0.2,1.5-0.6,3.1,1.1,4.1c1.6,1,3.4,0.8,4.8-0.4c5.3-5.1,10.2-13.2,10.7-21c0.1-1.7-0.2-3.5,1.8-4.4c2.3-1,3.3,0.9,4.6,2.1
		c4.4,4.1,7.6,11.5,7.3,17.7c-0.1,2.7,1.2,3,3,2.2c4-1.8,8.6-2.8,9-8.8c0.3-3.7,2.5-8.5,6.2-10.4c3.1-1.6,6.2-1.6,8.3,1.1
		c2.2,2.7,1.2,7.4-0.8,10c-1.6,2.1-4,3-6.2,4.3c-2.8,1.7-2,3.4,0.5,4.3C95.8,203.1,101.8,200.2,101.2,193.2z"/>
	<path style="fill-rule:evenodd;clip-rule:evenodd;fill:#F40000;stroke:#F40000;stroke-width:3;stroke-miterlimit:10;" d="
		M155.6,186.7c-1.2-11.4,0.1-23.6-1.5-35.8c-0.5-3.7-0.6-7.8,1.2-11c2.4-4.2,6.5,0,9.8-0.6c1-0.2,2,0,3,0.2c7.1,0.9,6.8,0.8,4.6,7.1
		c-4.5,12.8-8.4,25.8-10.3,39.3c-0.4,3-2.4,5.5-2.2,8.7c0.1,1.2-1.3,1.9-2.6,1.9c-1.4-0.1-2.1-1.1-2.2-2.4
		C155.4,191.9,155.5,189.7,155.6,186.7z"/>
	<path style="fill-rule:evenodd;clip-rule:evenodd;fill:#F40000;stroke:#F40000;stroke-width:3;stroke-miterlimit:10;" d="
		M155.1,212.3c-3,0.3-3.9-1.4-4.1-3.7c-0.2-3.3,3.3-7.4,6.3-7.4c3.5,0,4.7,2.7,4.7,5.4C161.8,211.1,158.2,211.8,155.1,212.3z"/>
</g>
<path style="fill-rule:evenodd;clip-rule:evenodd;fill:none;stroke:#185D8C;stroke-width:3;stroke-linecap:round;stroke-linejoin:round;stroke-miterlimit:10;" d="
	M50.1,57.3c4.4,10.4,2.6,22,6.3,32.7c3.8,10.9,12.4,19.3,22.1,20.3c12.4,1.3,20-6.3,23.3-15.7c2.4-6.9,3.3-14.2,5.3-21.2
	c1.1-4-0.4-9.2,0.1-13.9c0.3-3.8,0.1-7.8,1-11.4c2-8.1,1.2-16.3-0.1-24C106.1,12.1,96.4,6.2,85.5,3C73.6-0.4,55.9,2.9,43.9,4.4
	L49.3,40l-4.9,1.3c-4.8,1.5-7.1,6.6-5.4,11.6c1.7,5,6.1,7.2,11.1,5.4"/>
</svg>
