<?xml version="1.0" encoding="utf-8"?>
<!-- Generator: Adobe Illustrator 16.0.0, SVG Export Plug-In . SVG Version: 6.00 Build 0)  -->
<!DOCTYPE svg PUBLIC "-//W3C//DTD SVG 1.1//EN" "http://www.w3.org/Graphics/SVG/1.1/DTD/svg11.dtd">
<svg version="1.1" id="Layer_1" xmlns="http://www.w3.org/2000/svg" xmlns:xlink="http://www.w3.org/1999/xlink" x="0px" y="0px"
	 width="211.8px" height="187px" viewBox="0 0 211.8 187" style="enable-background:new 0 0 211.8 187;" xml:space="preserve">
<pattern  x="-493.9" y="-355.6" width="12" height="12" patternUnits="userSpaceOnUse" id="New_Pattern_Swatch_2" viewBox="1 -13 12 12" style="overflow:visible;">
	<g>
		<polygon style="fill:none;" points="1,-13 13,-13 13,-1 1,-1 		"/>
		<path d="M14-1c0,0.6-0.4,1-1,1s-1-0.4-1-1s0.4-1,1-1S14-1.6,14-1z"/>
		<path d="M2-1c0,0.6-0.4,1-1,1S0-0.4,0-1s0.4-1,1-1S2-1.6,2-1z"/>
		<path d="M14-5c0,0.6-0.4,1-1,1s-1-0.4-1-1s0.4-1,1-1S14-5.6,14-5z"/>
		<path d="M11-2c0,0.6-0.4,1-1,1S9-1.4,9-2s0.4-1,1-1S11-2.6,11-2z"/>
		<path d="M8-3c0,0.6-0.4,1-1,1S6-2.4,6-3s0.4-1,1-1S8-3.6,8-3z"/>
		<path d="M5-4c0,0.6-0.4,1-1,1S3-3.4,3-4s0.4-1,1-1S5-4.6,5-4z"/>
		<path d="M2-5c0,0.6-0.4,1-1,1S0-4.4,0-5s0.4-1,1-1S2-5.6,2-5z"/>
		<path d="M14-9c0,0.6-0.4,1-1,1s-1-0.4-1-1s0.4-1,1-1S14-9.6,14-9z"/>
		<path d="M11-6c0,0.6-0.4,1-1,1S9-5.4,9-6s0.4-1,1-1S11-6.6,11-6z"/>
		<path d="M8-7c0,0.6-0.4,1-1,1S6-6.4,6-7s0.4-1,1-1S8-7.6,8-7z"/>
		<path d="M5-8c0,0.6-0.4,1-1,1S3-7.4,3-8s0.4-1,1-1S5-8.6,5-8z"/>
		<path d="M2-9c0,0.6-0.4,1-1,1S0-8.4,0-9s0.4-1,1-1S2-9.6,2-9z"/>
		<path d="M14-13c0,0.6-0.4,1-1,1s-1-0.4-1-1s0.4-1,1-1S14-13.6,14-13z"/>
		<path d="M11-10c0,0.6-0.4,1-1,1s-1-0.4-1-1s0.4-1,1-1S11-10.6,11-10z"/>
		<path d="M8-11c0,0.6-0.4,1-1,1s-1-0.4-1-1s0.4-1,1-1S8-11.6,8-11z"/>
		<path d="M5-12c0,0.6-0.4,1-1,1s-1-0.4-1-1s0.4-1,1-1S5-12.6,5-12z"/>
		<path d="M2-13c0,0.6-0.4,1-1,1s-1-0.4-1-1s0.4-1,1-1S2-13.6,2-13z"/>
	</g>
</pattern>
<defs>
	<filter id="Adobe_OpacityMaskFilter" filterUnits="userSpaceOnUse" x="6.5" y="6.7" width="201.5" height="144.8">
		<feFlood  style="flood-color:white;flood-opacity:1" result="back"/>
		<feBlend  in="SourceGraphic" in2="back" mode="normal"/>
	</filter>
</defs>
<mask maskUnits="userSpaceOnUse" x="6.5" y="6.7" width="201.5" height="144.8" id="SVGID_1_">
	<g style="filter:url(#Adobe_OpacityMaskFilter);">
		<path style="fill-rule:evenodd;clip-rule:evenodd;" d="M108.5,35.5l78,85l-69-90C117.5,30.5,109.5,30.5,108.5,35.5z"/>
		<path style="fill-rule:evenodd;clip-rule:evenodd;" d="M90.5,114.5l52-33l-42,43C100.5,124.5,90.5,122.5,90.5,114.5z"/>
		<path style="fill-rule:evenodd;clip-rule:evenodd;" d="M125.5,56.5c0,0-33,20-35,22l-6,7l44-25C128.5,60.5,129.5,56.5,125.5,56.5z
			"/>
		<path style="fill-rule:evenodd;clip-rule:evenodd;" d="M131.5,111.5l29-20l2,3C162.5,94.5,133.5,112.5,131.5,111.5z"/>
	</g>
</mask>
<g style="mask:url(#SVGID_1_);">
	<polygon style="fill-rule:evenodd;clip-rule:evenodd;fill:#74C5ED;" points="6.5,10.5 208,6.7 200.5,151.5 10,150.1 	"/>
</g>
<g>
	<g>
		
			<pattern  id="SVGID_2_" xlink:href="#New_Pattern_Swatch_2" patternTransform="matrix(0.9996 2.841269e-02 -2.841269e-02 0.9996 197.0059 380.271)">
		</pattern>
		<path style="opacity:0.5;fill-rule:evenodd;clip-rule:evenodd;fill:url(#SVGID_2_);" d="M25.4,61.2c-1,4,0,8,0,8l7,13l22,22l26,25
			l23,16l-7-7c0,0-15-18-17-19s-15-16-15-17s-12-15-14-18c-2-3-8-11-10-17s5-18,6-19C46.4,48.2,26.4,57.2,25.4,61.2z"/>
	</g>
	<g>
		
			<pattern  id="SVGID_3_" xlink:href="#New_Pattern_Swatch_2" patternTransform="matrix(0.9996 2.841269e-02 -2.841269e-02 0.9996 197.0059 380.271)">
		</pattern>
		<path style="opacity:0.5;fill-rule:evenodd;clip-rule:evenodd;fill:url(#SVGID_3_);" d="M3.9,6.3L3.9,6.3l201.1-1.1l-5,62
			c-0.3,0-25,4-25,11l20,29l5-39.7l-6.1,76L34,147.9l22-2.6c0,0,2-2,1-2s-10-5-14-5s-9-2-13-2s-6-1-9-3s-3-4-4-6s-3-13-4-16
			s-4-24-4-24c2-5,0-27,0-27l-3.1,1.3l3,87l186.8-5.1L206.8,5.2L3.9,6.3z"/>
	</g>
	<g>
		
			<pattern  id="SVGID_4_" xlink:href="#New_Pattern_Swatch_2" patternTransform="matrix(0.9996 2.841269e-02 -2.841269e-02 0.9996 197.0059 380.271)">
		</pattern>
		<path style="opacity:0.5;fill-rule:evenodd;clip-rule:evenodd;fill:url(#SVGID_4_);" d="M157.9,50.2c2,0,3,0,4-1s11-7,11-7
			s14-8,15-9s7-4,7-5s2.4-5.6,1-7c-4-4-24,9-24,9l-10,9c0,0-5,4-9,9S155.9,50.2,157.9,50.2z"/>
	</g>
	<g>
		
			<pattern  id="SVGID_5_" xlink:href="#New_Pattern_Swatch_2" patternTransform="matrix(0.9996 2.841269e-02 -2.841269e-02 0.9996 197.0059 380.271)">
		</pattern>
		<path style="opacity:0.5;fill-rule:evenodd;clip-rule:evenodd;fill:url(#SVGID_5_);" d="M19.9,24.2c-2-3-4-4-5-5s-3-1-4-1
			s-5-1-2,4c0,0,3,8,4,9s3,2,5,4s7,5,9,3s2,0,0-5S21.9,27.2,19.9,24.2z"/>
	</g>
</g>
<path style="fill-rule:evenodd;clip-rule:evenodd;fill:#E1FBFF;" d="M54.7,69L114,31.6l82.1,93l1.1-15.5L126.4,19
	c0,0-4.8-11.1-14.5-7.6c-9.7,3.5-81,40.3-81,40.3s-11.7,11.2,2.7,24.4C48,89.3,101.1,143,101.1,143l12.6-0.2
	C113.7,142.8,55,73.9,54.7,69z"/>
<g>
	
		<path style="fill-rule:evenodd;clip-rule:evenodd;fill:none;stroke:#185D8C;stroke-width:3;stroke-linecap:round;stroke-linejoin:round;stroke-miterlimit:10;" d="
		M196.1,124.7c3.5-5.6,2.1-11.8-2.8-16.8C181.1,95.5,169.5,82.7,160,68c-10.8-16.6-22.3-32.7-33.5-49.1c-3.5-5.1-8.3-7.5-14.5-7.6
		c-3.8-0.1-6.7,2-9.7,3.5c-16,7.9-32,15.8-47.8,24.2c-3.8,2-7.4,4.3-11.5,5.6c-5.7,1.8-10.1,5.6-14.1,9.6c-3.5,3.6-1.7,8.2,0.2,11.9
		c3.6,7.4,9.2,13.4,15.1,19.2c6.3,6.2,12.8,12.3,18.7,18.9c10.5,12,23.2,21.6,34.3,32.9c0.6,0.6,1.3,1,1.9,1.7c5,5.6,5,5.6,11.8,2.8
		"/>
	
		<path style="fill-rule:evenodd;clip-rule:evenodd;fill:none;stroke:#185D8C;stroke-width:3;stroke-linecap:round;stroke-linejoin:round;stroke-miterlimit:10;" d="
		M115.4,32.7c13.4,14.5,24.3,31,37.4,45.7c6.9,7.7,13.2,15.8,19.3,24c6,8.2,13.8,14.6,21.3,21.2c3.6,3.2,4.6,6.3,5,10.2
		c0.3,3.3-0.5,6.6-0.2,10c0.4,3.5-2.1,3.4-4.7,3.2c-21.5-1.8-43-0.4-64.5-2.1c-0.3,0-0.7,0.3-1,0.4"/>
	
		<path style="fill-rule:evenodd;clip-rule:evenodd;fill:none;stroke:#185D8C;stroke-width:3;stroke-linecap:round;stroke-linejoin:round;stroke-miterlimit:10;" d="
		M11,156.2c1.5-3.1-1.5-5.3-1.5-8.1c0-7.1-0.1-14.2-1.5-21.1c-1.4-6.5-0.9-13.1-1.6-19.7c-0.6-5.5-0.8-11.2-1-16.7
		C5.2,83.2,4.2,75.9,4,68.5C3.8,60.2,3.5,52,2.6,43.8C1.4,32.5,1.3,21,1.8,9.7c0.1-1.8,0.4-2.9,2.7-3.4c8.4-1.7,16.9-3.2,25.3-3
		C45,3.8,60.3,3.4,75.4,2.8c13.1-0.5,26.1-1.2,39.2-1.2c14.2,0,28.4-0.3,42.6,0.2c4.2,0.2,8.9-0.8,12.9,1.7
		c10.8-2.9,21.8,0.7,32.6-0.7c4.4-0.5,5.6,1.1,5.1,5.8c-0.9,8.5-0.6,17-2.7,25.4c-0.9,3.7-1.4,7.5-1.6,11.4c-0.2,4.6-0.3,9.3-1.2,14
		c-2,10.3-1.8,20.9-2.9,31.4c-0.6,6.1,0.2,12.5-2.2,18.4"/>
	
		<path style="fill-rule:evenodd;clip-rule:evenodd;fill:none;stroke:#185D8C;stroke-width:3;stroke-linecap:round;stroke-linejoin:round;stroke-miterlimit:10;" d="
		M54.7,69c2.7,7.6,8.9,12.9,13.3,19.4C75.3,99,84.5,108.2,92.7,118c6.2,7.4,14.2,13.5,18,22.7c0.6,1.5,1.9,1.7,2.9,2.1
		c4.2,1.6,8.5,2.3,12.9,1.5"/>
	
		<path style="fill-rule:evenodd;clip-rule:evenodd;fill:none;stroke:#185D8C;stroke-width:3;stroke-linecap:round;stroke-linejoin:round;stroke-miterlimit:10;" d="
		M115.2,29.2c-0.1,1,0,1.9-1.2,2.4c-21.1,9.5-41.4,20.3-58.6,36c-1.7,1.5-5.6,0.1-5.4,4.1"/>
	
		<path style="fill-rule:evenodd;clip-rule:evenodd;fill:none;stroke:#185D8C;stroke-width:3;stroke-linecap:round;stroke-linejoin:round;stroke-miterlimit:10;" d="
		M174.3,108.1c-14.4,9.5-29.6,17.7-43.1,28.5c-5.1,4-5.2,4.5-3.2,9.8"/>
	
		<path style="fill-rule:evenodd;clip-rule:evenodd;fill:none;stroke:#185D8C;stroke-width:3;stroke-linecap:round;stroke-linejoin:round;stroke-miterlimit:10;" d="
		M141.4,84.2c-6.7,1.6-11.8,6.1-17.1,9.9c-9.9,7-19.9,14-28.7,22.4"/>
	
		<path style="fill-rule:evenodd;clip-rule:evenodd;fill:none;stroke:#185D8C;stroke-width:3;stroke-linecap:round;stroke-linejoin:round;stroke-miterlimit:10;" d="
		M195.9,21.9c-8.6,5.4-17.1,10.9-25.7,16.2c-4.6,2.8-8.7,6.1-12.2,10.2"/>
	
		<path style="fill-rule:evenodd;clip-rule:evenodd;fill:none;stroke:#185D8C;stroke-width:3;stroke-linecap:round;stroke-linejoin:round;stroke-miterlimit:10;" d="
		M101.1,143c-1.3,1.2-2.8,1.6-4.6,1.7c-6.9,0.4-13.7,0.4-20.6,0.6c-14.6,0.4-29,2-43.4,4.2c-6.9,1.1-14,0.5-20.7,2.7"/>
	
		<path style="fill-rule:evenodd;clip-rule:evenodd;fill:none;stroke:#185D8C;stroke-width:3;stroke-linecap:round;stroke-linejoin:round;stroke-miterlimit:10;" d="
		M61.5,114.4c-10.8,6.2-21.7,12.3-31,20.6"/>
	
		<path style="fill-rule:evenodd;clip-rule:evenodd;fill:none;stroke:#185D8C;stroke-width:3;stroke-linecap:round;stroke-linejoin:round;stroke-miterlimit:10;" d="
		M28.3,10c2.9,2.2,5.7,4.4,8.5,6.6C42.3,21,48.2,24.7,53,29.8c1.6,1.6,3.7,2.2,5.9,1"/>
	
		<path style="fill-rule:evenodd;clip-rule:evenodd;fill:none;stroke:#185D8C;stroke-width:3;stroke-linecap:round;stroke-linejoin:round;stroke-miterlimit:10;" d="
		M170.1,4c0.2,1.8-0.4,3-2.2,3.9c-7.7,4-15.3,8.3-23,12.2c-1.2,0.6-1,1.4-1.6,2"/>
	
		<path style="fill-rule:evenodd;clip-rule:evenodd;fill:none;stroke:#185D8C;stroke-width:3;stroke-linecap:round;stroke-linejoin:round;stroke-miterlimit:10;" d="
		M116.8,48.4c0.3,2.4-1.4,2.7-3.2,3.4c-5.4,1.9-10.6,4.4-15.6,7.3"/>
	
		<path style="fill-rule:evenodd;clip-rule:evenodd;fill:none;stroke:#185D8C;stroke-width:3;stroke-linecap:round;stroke-linejoin:round;stroke-miterlimit:10;" d="
		M33.7,76.1c-5.4,4.3-12.5,6.2-16.9,11.8c-0.2,0.3-0.4,0.6-0.6,1"/>
	
		<path style="fill-rule:evenodd;clip-rule:evenodd;fill:none;stroke:#185D8C;stroke-width:3;stroke-linecap:round;stroke-linejoin:round;stroke-miterlimit:10;" d="
		M75.4,3.8c1.7,5.6,4.7,10.3,9.6,13.7"/>
	
		<path style="fill-rule:evenodd;clip-rule:evenodd;fill:none;stroke:#185D8C;stroke-width:3;stroke-linecap:round;stroke-linejoin:round;stroke-miterlimit:10;" d="
		M13.4,23c4.1,4.9,7,10.7,12.5,14.4"/>
	
		<path style="fill-rule:evenodd;clip-rule:evenodd;fill:none;stroke:#185D8C;stroke-width:3;stroke-linecap:round;stroke-linejoin:round;stroke-miterlimit:10;" d="
		M79.1,71.8c-4.9,2.5-9.7,5-14.6,7.5"/>
</g>
<g>
	<g>
		<path style="fill-rule:evenodd;clip-rule:evenodd;fill:#F40000;stroke:#F40000;stroke-width:3;stroke-miterlimit:10;" d="
			M157.7,144.1c-5-0.2-9.9,0.6-14.9,1.3c-4.8,0.7-6,3.7-5.7,7.4c0.3,3.2,1.2,6.3,2.1,9.4c1.6,5.8,8.8,8.1,13.3,4
			c4.4-3.9,7.6-8.6,5.9-14.8c-0.5-1.6-0.4-3,1.3-3.6c1.7-0.5,2.6,0.4,3.1,2.1c1.3,4.6,6.3,6.9,8.1,11.3c1.4,3.5,1.1,6.4-1.2,8.8
			c-2.6,2.7-6.3,2.5-9.8,1.6c-1.5-0.4-2.1-1.5-1.6-3c0.6-1.7,1.9-1.8,3.2-1.1c2.2,1.2,4.7,1.3,5.4-1.1c0.9-2.9-0.7-5.7-3.1-7.6
			c-1.7-1.4-2.1,0.4-2.7,1.5c-1.4,2.7-2.9,5.4-5.3,7.5c-8.2,7-18.8,4-21.2-6.2c-0.3-1.2-0.6-2.5-1-3.7c-0.6-2.1-1.9-2.5-3.7-1.2
			c-1.5,1.1-2.8,2.5-4.4,3.1c-5.1,1.8-8.7,3.9-6,10.2c1,2.4-1.2,5-3.9,6c-3.7,1.3-7.9,1.4-10.9-1.3c-2.5-2.2-3.9-2.3-6.7-0.5
			c-4.7,3-10.1,2-13.9-2.2c-1.9-2-3.3-4.4-5-6.5c-2.4-2.9-4.8-3.1-7.1,0.2c-1.6,2.4-2.5,4.8-1.9,7.7c0.4,2.2,0.7,4.4,1,6.6
			c0.2,1.7-0.6,2.9-2.2,3.3c-1.8,0.4-2.1-1-2.3-2.4c-0.1-0.8-0.4-1.5-0.7-2.3c-0.6-2.2-1.7-3.1-3.7-1.2c-10.3,9.8-21.7,9.7-33.8,3.4
			c-2-1-3.9-0.4-5.8,0.1c-1.9,0.5-3.8,1.1-5.8,1.4c-1.4,0.2-2.8-0.1-2.9-1.8c-0.1-1.7,1.3-1.4,2.5-1.6c9.8-1.6,17.3-9.9,17.3-19.2
			c0-1.3-0.1-2.7,1.4-3.3c1.5-0.6,2.5,0.4,3.4,1.4c5.3,5.8,9.9,11.8,6.7,20.2c-1,2.5,0.1,3.2,2.7,2.6c6.6-1.4,11.2-5.4,15.1-10.3
			c1.7-2.1,0.5-3.9-0.4-5.8c-4-8.4-4.9-17.1-3.3-26.2c0.3-1.8,0.5-3.8,2.7-4.2c2.4-0.4,3.6,1.6,4.4,3.2c2.6,5,4.3,10.4,4.9,16
			c0.3,3,1.5,4.5,4.8,4.9c4.5,0.6,7.1,3.8,9.3,7.2c1.9,3,3.8,6.4,8.4,5.5c4.4-0.8,6.6-3.6,7.5-7.9c1.9-8.7,7.6-10.9,15.9-6.5
			c1.8,1,3.5,0.7,5.2-0.1c3.5-1.7,6.3-4,8.8-7c0.9-1.1,1.7-2,1.1-3.4c-0.6-1.7-2.1-1.2-3.4-1.1c-4.4,0.2-8.6-0.6-12.9-1.4
			c-1.3-0.2-3.2,0.1-3.2-1.5c0-1.9,2-2.4,3.7-2.4c3.5,0,7,0,10.5,0.3c3.6,0.3,5-1.3,5.6-4.5c0.6-3.8,1.2-7.6,4.5-10.4
			c1.3-1.1,2.8-2,4.5-1.4c1.8,0.6,2.1,2.3,2.2,4c0.2,2.2,0.1,4.4-0.5,6.6c-1.7,5.7-1,6.5,5.2,6.1c6.1-0.4,11.1,0.8,17.2,0.3
			c1.8-0.2,8.6,0,10-0.2c0.9-0.1,2.1-0.9,2.4,0.5c0.3,1.3-1,1.4-2,1.4C169.9,143.4,163.9,145.2,157.7,144.1z M42.6,172.4
			c-0.6-2.3-0.9-5.6-3.7-6.5c-2.7-0.8-2.5,2.7-3.7,4.2c-0.7,0.9-1.2,1.9-1.8,2.8c-2.9,4-2.2,5.5,2.8,6.4
			C39.7,179.9,42.4,177.2,42.6,172.4z M111,173.4c3.1,0.1,5-1,4.4-3.5c-0.7-3.2,0-8.2-4.2-8.6c-3.5-0.3-5.2,3.9-5.6,7.3
			C105.1,172.4,108.5,172.7,111,173.4z M67.9,159c-0.2-5-0.9-9.6-2.7-13.9c-0.3-0.8-0.1-2.1-1.5-1.9c-1.1,0.2-1.4,1.3-1.4,2.3
			c0.2,4.8,0.8,9.5,2.9,14c0.4,0.8,0.8,1.6,1.7,1.4C68.4,160.7,67.9,159.5,67.9,159z M139.1,131.2c-3.3,2.5-3.1,5.3-2.1,8.2
			C137.8,136.9,140.6,135.1,139.1,131.2z"/>
		<path style="fill-rule:evenodd;clip-rule:evenodd;fill:#F40000;stroke:#F40000;stroke-width:3;stroke-miterlimit:10;" d="
			M197.5,143.3c-2.6,10.2-6.8,9.2-7.3,20.2c-0.1,2.2-1.9,3-4.4,3c1.2-11.2-1.8-24.7,0.3-35.6c0.9-4.8,2.3-9.6,2.3-14.6
			c0-3.3,2.3-5.3,4.3-4c4.2,2.6,12.2,6.7,16.8,8.5c-4,6-6.5,11.4-10.1,15.9L197.5,143.3z"/>
	</g>
	<path style="fill-rule:evenodd;clip-rule:evenodd;fill:#F40000;stroke:#F40000;stroke-width:3;stroke-miterlimit:10;" d="
		M186,171.5c2.4,1,5.5,1.5,5.5,5c0,2.4-4.4,6.2-6.6,6c-1.3-0.1-6.8-5.8-6.2-6.7C180.3,173.3,182.9,172.2,186,171.5z"/>
</g>
</svg>
