<?xml version="1.0" encoding="utf-8"?>
<!-- Generator: Adobe Illustrator 16.0.0, SVG Export Plug-In . SVG Version: 6.00 Build 0)  -->
<!DOCTYPE svg PUBLIC "-//W3C//DTD SVG 1.1//EN" "http://www.w3.org/Graphics/SVG/1.1/DTD/svg11.dtd">
<svg version="1.1" id="Layer_1" xmlns="http://www.w3.org/2000/svg" xmlns:xlink="http://www.w3.org/1999/xlink" x="0px" y="0px"
	 width="220.5px" height="226.5px" viewBox="0 0 220.5 226.5" style="enable-background:new 0 0 220.5 226.5;" xml:space="preserve"
	>
<pattern  x="-489.9" y="-338.4" width="12" height="12" patternUnits="userSpaceOnUse" id="New_Pattern_Swatch_2" viewBox="1 -13 12 12" style="overflow:visible;">
	<g>
		<polygon style="fill:none;" points="1,-13 13,-13 13,-1 1,-1 		"/>
		<path d="M14-1c0,0.6-0.4,1-1,1s-1-0.4-1-1s0.4-1,1-1S14-1.6,14-1z"/>
		<path d="M2-1c0,0.6-0.4,1-1,1S0-0.4,0-1s0.4-1,1-1S2-1.6,2-1z"/>
		<path d="M14-5c0,0.6-0.4,1-1,1s-1-0.4-1-1s0.4-1,1-1S14-5.6,14-5z"/>
		<path d="M11-2c0,0.6-0.4,1-1,1S9-1.4,9-2s0.4-1,1-1S11-2.6,11-2z"/>
		<path d="M8-3c0,0.6-0.4,1-1,1S6-2.4,6-3s0.4-1,1-1S8-3.6,8-3z"/>
		<path d="M5-4c0,0.6-0.4,1-1,1S3-3.4,3-4s0.4-1,1-1S5-4.6,5-4z"/>
		<path d="M2-5c0,0.6-0.4,1-1,1S0-4.4,0-5s0.4-1,1-1S2-5.6,2-5z"/>
		<path d="M14-9c0,0.6-0.4,1-1,1s-1-0.4-1-1s0.4-1,1-1S14-9.6,14-9z"/>
		<path d="M11-6c0,0.6-0.4,1-1,1S9-5.4,9-6s0.4-1,1-1S11-6.6,11-6z"/>
		<path d="M8-7c0,0.6-0.4,1-1,1S6-6.4,6-7s0.4-1,1-1S8-7.6,8-7z"/>
		<path d="M5-8c0,0.6-0.4,1-1,1S3-7.4,3-8s0.4-1,1-1S5-8.6,5-8z"/>
		<path d="M2-9c0,0.6-0.4,1-1,1S0-8.4,0-9s0.4-1,1-1S2-9.6,2-9z"/>
		<path d="M14-13c0,0.6-0.4,1-1,1s-1-0.4-1-1s0.4-1,1-1S14-13.6,14-13z"/>
		<path d="M11-10c0,0.6-0.4,1-1,1s-1-0.4-1-1s0.4-1,1-1S11-10.6,11-10z"/>
		<path d="M8-11c0,0.6-0.4,1-1,1s-1-0.4-1-1s0.4-1,1-1S8-11.6,8-11z"/>
		<path d="M5-12c0,0.6-0.4,1-1,1s-1-0.4-1-1s0.4-1,1-1S5-12.6,5-12z"/>
		<path d="M2-13c0,0.6-0.4,1-1,1s-1-0.4-1-1s0.4-1,1-1S2-13.6,2-13z"/>
	</g>
</pattern>
<g>
	<path style="fill-rule:evenodd;clip-rule:evenodd;fill:#E1FBFF;" d="M163.3,34.7c0,0,15.4-4.4,19.8-3.3c4.4,1.1,12.1,2.2,15.4,5.5
		c3.3,3.3,6.6,12.1,7.7,15.4c1.1,3.3,1.1,14.3,1.1,16.5s-4.4,19.8-5.5,22c-1.1,2.2-1.1,9.9-2.2,11c-1.1,1.1-8.8,6.6-8.8,6.6
		s-5.5,2.2-8.8,3.3c-3.3,1.1-6.6,0-7.7-1.1c-1.1-1.1-2.2-3.3-3.3-4.4c-1.1-1.1-2.2-3.3-5.5-4.4c-3.3-1.1-7.7-2.2-8.8-5.5
		c-1.1-3.3-3.3-14.3-2.2-19.8C155.6,71,160,36.9,163.3,34.7z"/>
	<path style="fill-rule:evenodd;clip-rule:evenodd;fill:#E1FBFF;" d="M98.3,52.3c0,0-7.7,5.5-7.7,9.9c0,4.4,0,19.8,1.1,22
		c1.1,2.2,2.2,13.2,2.2,15.4c0,2.2-1.1,8.8,0,9.9c1.1,1.1,2.2,3.3,5.5,6.6c3.3,3.3,15.4,9.9,16.5,9.9c1.1,0,7.7,2.2,9.9,0
		c2.2-2.2,6.6-17.6,7.7-22c1.1-4.4,4.4-14.3,5.5-15.4c1.1-1.1,3.3-23.1,4.4-27.5c1.1-4.4,1.1-6.6,0-8.8c-1.1-2.2-5.5-3.3-7.7-5.5
		c-2.2-2.2-6.6-4.4-7.7-5.5c-1.1-1.1-2.2-3.3-3.3-3.3c-1.1,0-2.2,0-4.4,0c-2.2,0-12.1,0-12.1,0S101.6,51.2,98.3,52.3z"/>
	<pattern  id="SVGID_1_" xlink:href="#New_Pattern_Swatch_2" patternTransform="matrix(1 0 0 1 122.3872 39.3926)">
	</pattern>
	<path style="opacity:0.4;fill-rule:evenodd;clip-rule:evenodd;fill:url(#SVGID_1_);" d="M165.5,35c0,0,7-1,8-1s0,5,0,8s-2,7-2,9
		s1,5,0,7s0,4-2,7s-3,5-4,7s-2,1-3,3s-4,6-4,7s0,5,3,9s4,5,6,6s2,1,4,2s5,0,6,1s4,5,4,6s-1,2-1,3s-3,2-3,2l-3-3c0,0,2-2,2-3s1-1,0-2
		s-2,0-4,0s-5,1-7,0s-7-3-8-7s-2-13-2-15s1-9,1-9s6-1,6-4s4-15,4-22S165.5,35,165.5,35z"/>
	<pattern  id="SVGID_2_" xlink:href="#New_Pattern_Swatch_2" patternTransform="matrix(1 0 0 1 122.3872 39.3926)">
	</pattern>
	<path style="opacity:0.3;fill-rule:evenodd;clip-rule:evenodd;fill:url(#SVGID_2_);" d="M108.5,37c0,0-1,4-2,6s-3,7-4,7s-7,6-8,7
		s-4,6-4,8s2,9,2,11s0,12,1,15s-1,12-1,14s1,7,1,7l-1,3l4-1c0,0,2-6,2-7s1-12,1-12s0-7,0-8s0-7,0-9s0-9,0-9s1-5,1-6s3-7,3-7l3-5l3-7
		l2-2C111.5,42,109.5,38,108.5,37z"/>
	<path style="fill-rule:evenodd;clip-rule:evenodd;fill:#E1FBFF;" d="M69.7,38c0,0-8.8-2.2-15.4,0s-9.9,1.1-13.2,4.4
		c-3.3,3.3-7.7,13.2-7.7,15.4c0,2.2-3.3,16.5-3.3,16.5s-3.3,9.9-3.3,13.2c0,3.3,0,24.2,2.2,26.4c2.2,2.2,12.1,6.6,17.6,4.4
		s6.6-2.2,9.9-1.1s6.6,0,8.8-2.2c2.2-2.2,8.8-4.4,7.7-12.1c-1.1-7.7-4.4-22-4.4-26.4C68.6,72.1,73,40.2,69.7,38z"/>
	<pattern  id="SVGID_3_" xlink:href="#New_Pattern_Swatch_2" patternTransform="matrix(1 0 0 1 120.9429 42.1123)">
	</pattern>
	<path style="opacity:0.5;fill-rule:evenodd;clip-rule:evenodd;fill:url(#SVGID_3_);" d="M68.5,39c0,0-4-2-8-2s-3,0-3,4c0,4,1,5,1,8
		s-2,6-1,9s0,2,0,7c0,5,0,11,1,15s2,6,3,8s2,7,2,9s1,8,0,8s-2,2-3,3s-5,4-6,5s-4,3-4,4s0,2,1,2s2,1,5,0s1,1,5-1s7-7,9-9s2-6,2-9
		s-4-16-4-19s-3-14-3-15s0-15,1-17S70.5,41,68.5,39z"/>
	<path style="fill-rule:evenodd;clip-rule:evenodd;fill:#74C5ED;" d="M54.5,116.9c0,0-8.2,5.2-14.9,2.3c-6.7-2.9-11.3-3.6-11.5-4.4
		c-0.2-0.9-11.4,0.8-12.8,2.4C14,118.8,5.3,121,4.1,133.8c-1.2,12.8-2.2,48.3-0.8,51.7l53.6-4.4c0,0,1.4-13.3,0.7-19.8
		c-2.2-22,8.7-33.9,7.6-34.9C64.2,125.3,57.7,116.6,54.5,116.9"/>
	<pattern  id="SVGID_4_" xlink:href="#New_Pattern_Swatch_2" patternTransform="matrix(1 0 0 1 122.3872 39.3926)">
	</pattern>
	<path style="fill-rule:evenodd;clip-rule:evenodd;fill:url(#SVGID_4_);fill-opacity:0.7;" d="M3.3,185.5l29.2-2.5l13-1l8-1l2-7
		c0,0,0-10,0-14s1-12,1-16s6-14,6-15s-2-3-2-3s-3,6-4,7s-3,3-5,6s-2,2-3,6s-4,11-4,14s-1,5-1,7s-3,3-7,5s-8,3-10,3s-4,0-4,0
		s-3,1-3-3s1-5,1-7s0-1,0-4s2-4,0-5s-3-4-4-2s-2,0-2,3s0,7,0,9s-1,6-1,6s-1,3-2,4s0,3-3,1s-3-1-3-6s1-11,1-14s-1-6,0-9s-2-11,0-13
		s0-7,4-10s1-4,6-5s7-1,7-1s2-1,4,2s1,4,5,5s5,0,8,1s12-3,12-3l2,3l4-3c0,0,0.1-2-0.4-2.5c-0.6-0.5,1.4-3.5-3.6-2.5s-6,2-10,2
		s-8,0-10-1s-4-1-5-3s-2-3-2-3s-1-3-2-2s-9.1,1-11,2c-2,1-8,3-8,5s-4,8-4,11s-2,16-2,19s1,28,1,28L3.3,185.5z"/>
	<path style="fill-rule:evenodd;clip-rule:evenodd;fill:#74C5ED;" d="M170.3,168.1l-6.4-48.2c0,0,8.7-7.2,9.8-8.4
		c1.1-1.2,3.7,5.1,8.9,4.3c5.2-0.8,8.4-3.1,12.2-5.5c3.8-2.4,5.9-5.5,7.3-6.5c1.3-1,2.9-1.4,5.6,1.9c2.7,3.3,9.1,13,11,22.2
		c2,9.2,2.1,24.8,1.5,27.6c-0.5,2.8-1.5,6.2-1.5,6.2S171.6,166.7,170.3,168.1z"/>
	<pattern  id="SVGID_5_" xlink:href="#New_Pattern_Swatch_2" patternTransform="matrix(1 0 0 1 122.3872 39.3926)">
	</pattern>
	<path style="opacity:0.5;fill-rule:evenodd;clip-rule:evenodd;fill:url(#SVGID_5_);fill-opacity:0.7;" d="M162.5,117l3,19l2,15
		c0,0,1,8,1,9s1,3,1,3l0.8,5.1l6.2-1.1l6-1l5-1h4l5-1l2-3l-1-1l-5-1c0,0-2,1-4,0s-6-5-6-5s-3-8-3-9s-2-3-2-5s-4-12-4-12s-1-2-1-4
		s0-4,0-5s0-3,0-4s2-3,2-3l-3-3h-1C170.5,109,162.5,116,162.5,117z"/>
	<path style="fill-rule:evenodd;clip-rule:evenodd;fill:#74C5ED;" d="M66.5,132.1c0,0,12,4.3,16.3,2.2c4.4-2.2,10.9-8.6,12-11.8
		S96,117,96,117s13.1,11.8,19.6,14s14.2-1.1,15.3-5.4s7.6-19.4,7.6-19.4s1.1,5.4,4.4,7.5c3.3,2.2,6.5,5.4,8.7,6.5s10.9,2.2,10.9,2.2
		l4.4,30.1l1.1,19.4l3.3,20.4c0,0-2.2,3.2-4.4,3.2s-15.3-1.1-17.4,0s-12,0-14.2,1.1c-2.2,1.1-19.6,2.2-24,2.2
		c-4.4,0-16.3,2.2-20.7,2.2s-13.1,0-13.1,0L63.3,202c0,0-4.4-2.2-3.3-5.4c1.1-3.2,1.1-12.9,1.1-16.1s1.1-19.4,1.1-24.7
		C62.2,150.4,63.3,133.2,66.5,132.1z"/>
	<pattern  id="SVGID_6_" xlink:href="#New_Pattern_Swatch_2" patternTransform="matrix(1.1005 0 0 1.1005 816.2852 761.165)">
	</pattern>
	<path style="opacity:0.5;fill-rule:evenodd;clip-rule:evenodd;fill:url(#SVGID_6_);" d="M74.2,196.5l-7.7-1.1l-1.1-2.2l-2.2-5.5
		l-1.1-6.6l1.1-6.6l-1.1-7.7c0,0,2.2-4.4,1.1-6.6c-1.1-2.2,0-8.8,0-9.9s0-5.5,0-6.6s2.2-7.7,2.2-7.7l5.5,1.1c0,0,0,0,2.2,1.1
		s5.5,1.1,6.6,1.1c1.1,0,5.5-1.1,5.5-1.1l6.6-2.2c0,0,3.3-3.3,4.4-3.3c1.1,0,3.3-3.3,3.3-3.3s3.3,1.1,5.5,2.2s2.2,1.1,3.3,2.2
		c1.1,1.1,5.5,2.2,5.5,2.2s3.3,1.1,3.3,2.2s2.2,2.2,2.2,2.2V136l-1.1-5.5l-6.6-3.3l-6.6-4.4l-3.3-2.2L96,117l-0.9-0.8l-3.3,2.2
		c0,0-2.2,5.5-2.2,6.6s-3.3,4.4-3.3,4.4s-1.1,2.2-2.2,2.2c-1.1,0-2.2-1.1-3.3,0s-5.5,1.1-5.5,1.1l-3.3-1.1h-4.4l-3.3-1.1L61,136
		l-2.2,9.9l-1.1,8.8c0,0,0,6.6,0,8.8s0,9.9,0,11s-1.1,2.2-1.1,4.4s1.3,6.6,1.2,6.6c-0.1,0,1,7.7,1,7.7l1.1,5.5h16.5
		C76.4,198.7,75.3,196.5,74.2,196.5z"/>
	<pattern  id="SVGID_7_" xlink:href="#New_Pattern_Swatch_2" patternTransform="matrix(1.1005 0 0 1.1005 816.2852 761.165)">
	</pattern>
	<path style="opacity:0.5;fill-rule:evenodd;clip-rule:evenodd;fill:url(#SVGID_7_);" d="M120.4,162.4c0,0,1.1,3.3,2.2,2.2
		c1.1-1.1,4.4-3.3,4.4-3.3l-1.1-5.5v-5.5c0,0-1.1-6.6,0-7.7c1.1-1.1,1.1-6.6,1.1-7.7s1.1-3.3,2.2-4.4c1.1-1.1,1.1-1.1,2.2-2.2
		s1.1-3.3,2.2-3.3c1.1,0,1.1-1.1,2.2-2.2c1.1-1.1,3.3-5.5,3.3-5.5s3.3-1.1,4.4,1.1c1.1,2.2,2.2,4.4,3.3,5.5c1.1,1.1,2.2,1.1,3.3,2.2
		c1.1,1.1,2.2,0,3.3,1.1c1.1,1.1,4.4,1.1,4.4,2.2c0,1.1,1.1,5.5,1.1,6.6s-1.1,9.9-1.1,11s0,4.4,1.1,7.7c1.1,3.3,2.2,8.8,1.1,9.9
		c-1.1,1.1-2.2,4.4-2.2,6.6s1.1,8.8,0,9.9c-1.1,1.1,0,1.1-1.1,3.3c-1.1,2.2-2.2,2.2-3.3,3.3c-1.1,1.1-5.5,1.1-5.5,2.2
		s-0.8,3.7,0.1,2.9c1-0.7-3.4,2.6-3.4,2.6s-1.1,1.1,1.1,1.1s6.6-1.1,7.7-1.1c1.1,0,2.2-1.1,4.4,0c2.2,1.1,2.2,1.1,4.4,1.1
		s6.6-1.1,6.6-1.1s1.1,1.1,1.1-1.1c0-2.2,0-5.5,0-5.5v-13.2l-2.2-15.4l-3.3-18.7l-1.1-11l-2.2-12.1l-2.2-2.2c0,0-7.7,2.2-8.8,1.1
		c-1.1-1.1-6.6-6.6-6.6-6.6l-3.3-4.4l-2.2-4.4v-6.6l-3.3,11l-5.5,14.3c0,0-1.1,4.4-2.2,5.5c-1.1,1.1-5.5,2.2-5.5,2.2l-1.1,6.6V162.4
		z"/>
	<path style="fill-rule:evenodd;clip-rule:evenodd;fill:#74C5ED;" d="M118.6,41.9l-11.5-1.5c0,0-6.9,14.1-12.2,15.3
		c-5.3,1.2-4.4,11.5-4.3,12.8c0.1,1.3,3.9,38.4,2.9,41.2c-1,2.8-2.2,11.2-4.1,14.8c-3.4,6.5-10.6,7-18.9,5c-8.9-2.1-13-11.3-13-11.3
		s16.9-4.3,14.8-20.8c-2.1-16.5-7.7-40.4-3.7-54.3c4.1-13.9,27.2-37.7,39.7-30.9c12.5,6.8,6.4,1.9,6.4,1.9s13.9-18.2,22.5-12.3
		c8.6,5.9,18.4,16.5,22.6,23.9c4.2,7.5,7.5,32.7,1.5,40.7c-6,8-6.9,10.5-7.2,17.3c-0.2,6.8,5.8,20.3,12.3,20.4
		c8.2,0.1,8.2-0.7,8.2-0.7s-7.3,11.5-13.2,13.1c-8.9,2.4-20.7-5.2-20.6-11c0-5.7,0.5-24.9,0.5-24.9s3.2-12.7,3.4-19.2
		c0.3-6.5-1.4-11.1-4.3-12.6c-2.9-1.5-14.6-10.1-15-10.5C125,38,118.6,41.9,118.6,41.9z"/>
	<pattern  id="SVGID_8_" xlink:href="#New_Pattern_Swatch_2" patternTransform="matrix(1 0 0 1 122.3872 39.3926)">
	</pattern>
	<path style="opacity:0.5;fill-rule:evenodd;clip-rule:evenodd;fill:url(#SVGID_8_);" d="M140.5,90c0,0,4-15,4-19s0-13,0-15s1-3,0-5
		s-1-1-3-2s-3-2-1-3s4-1,6,0s2,1,3,3s1,4,1,7s-1,5-1,9s-2,12-2,16s-2,5-1,9s1,8,2,11s3,5,5,6s3,1,5,2s6,0,6,0l2,2v2l-2,1
		c0,0-3,2-4,2s-5,1-7,0s-6-2-8-5s-5-11-5-11S140.5,91,140.5,90z"/>
	<pattern  id="SVGID_9_" xlink:href="#New_Pattern_Swatch_2" patternTransform="matrix(1 0 0 1 122.3872 39.3926)">
	</pattern>
	<path style="opacity:0.5;fill-rule:evenodd;clip-rule:evenodd;fill:url(#SVGID_9_);" d="M117.5,16l4,6l9-4c0,0,6-3,8-3s4-1,7,2
		s4,3,5,7s2,7,3,11s3,12,2,15s-1,11-1,13s1,5,1,6s2-4,2-4s1-12,1-17s1-4,0-11s-5-13-6-15s-3-7-7-9s-6-4-7-4s-4-1-6-1c0,0-7,2-8,3
		S118.5,13,117.5,16z"/>
	
		<path style="fill-rule:evenodd;clip-rule:evenodd;fill:none;stroke:#185D8C;stroke-width:3;stroke-linecap:round;stroke-linejoin:round;stroke-miterlimit:10;" d="
		M161.3,116.5c1.4,9.8,3.7,25.3,4.8,35.2c1.3,11.6,2.9,23.2,4.5,34.7c0.7,5.2,0.6,5.5-4.7,5.1c-6-0.4-12-0.1-17.9,1.3
		c-9.8,2.4-19.9,1.5-29.8,1.9c-11.1,0.4-22,2.6-33,3.1c-7.6,0.4-15.1,2-22.7,2.2l-3.6,0.3c-0.5-5-1.4-10-1.2-15
		c0.1-2.7-2.4-4.5-1.8-6.8c2.3-8.1,0.8-16.3,0.9-24.4c0.1-9.4,2.2-18,7.1-26c0,0,13.8,4.8,20.5,2.4c4.8-1.7,9.1-19.7,9.1-19.7
		s10.2,10.3,15.2,12.5s7.6,6.7,13.3,3.7c5.8-3,8.2-5,8.5-7.5c0.3-2.4,3.5-11.7,3.6-12.3c0.1-0.6,2.5-11.1,2.5-11.1l3-5.3l1,4.6
		c0,0-0.9,9.3,1.2,12.6C144.1,111.6,150.5,119.7,161.3,116.5z"/>
	<pattern  id="SVGID_10_" xlink:href="#New_Pattern_Swatch_2" patternTransform="matrix(1 0 0 1 122.3872 39.3926)">
	</pattern>
	<path style="opacity:0.5;fill-rule:evenodd;clip-rule:evenodd;fill:url(#SVGID_10_);" d="M104.5,32c0,0-2,0-3,0s-5,1-6,2s-6,5-7,7
		s-2,4-3,7s-1,6-2,10s1,12,1,14s0,1,1,7c1,6,2,12,2,14s-1,8-1,11s-2,5-2,8s-3,6-5,8s-2,1-4,2s-3,0-2-1s1-1,3-4s4-8,5-11s2-12,2-17
		c0-5-3-11-3-16c0-5,0-15,0-18c0-3,2-9,5-14c3-5,5-9,8-10s4-2,6-2s5,1,5,1h2C106.5,30,105.5,32,104.5,32z"/>
	<pattern  id="SVGID_11_" xlink:href="#New_Pattern_Swatch_2" patternTransform="matrix(1 0 0 1 122.3872 39.3926)">
	</pattern>
	<path style="opacity:0.5;fill-rule:evenodd;clip-rule:evenodd;fill:url(#SVGID_11_);" d="M174.5,113c0,0,4,3,10,0s7-3,10-5s5-5,6-6
		s4,0,5,2s4,1,2,4s-9,6-10,7s-7,2-10,3s-7,0-7,0s-4,0-5-1S174.5,115,174.5,113z"/>
	
		<path style="fill-rule:evenodd;clip-rule:evenodd;fill:none;stroke:#185D8C;stroke-width:3;stroke-linecap:round;stroke-linejoin:round;stroke-miterlimit:10;" d="
		M165.4,33.6c7.8-0.7,15.1-4.1,23.3-2c13.4,3.6,19.3,14.2,19.4,25.6c0.1,11.4-2.8,22.4-6.1,33.2c-0.3,1.1-0.6,2.2-0.7,3.4
		c-1,9.8-7.5,14.7-15.8,18.2c-5.3,2.2-8.4,1.2-12.3-2.7c-2-2,4.3-6.6,1.4-5.9c-6.7,1.6-6.7,1.6-13.1-1.1c-6.6-2.8-8.9-17.5-6.7-25.9
		c0.6-2.4,0.7-4.4-0.4-6.6c-2.4-5-1-10.3-0.5-15.4c1-10.5-0.8-20.3-3.9-30.2c-2.5-8-11.2-10-16.9-6.2c-3.5,2.3-7.4,4-10.7,5.7
		c-1.7,0.1-2.1-0.7-2.5-1.5c-5.6-14.1-26.7-13.6-36.3-4.2C70.7,30.8,66,45.9,65.7,63c-0.2,10.9,2.4,21.5,5.8,31.8
		c2.8,8.4,0.5,17.9-9.1,22.1c-1.1,0.5-2.2,1.1-3.3,1.6"/>
	
		<path style="fill-rule:evenodd;clip-rule:evenodd;fill:none;stroke:#185D8C;stroke-width:3;stroke-linecap:round;stroke-linejoin:round;stroke-miterlimit:10;" d="
		M104.9,28.9c-6.5-2.5-11.3-1.4-15.8,4.6c-9.6,12.8-12.6,26.9-8.5,42.1c2.5,9.4,3.3,18.6,1.1,27.9c-1.1,4.6-3.5,9-6.9,12.5
		c-1.1,1.2-1.6,2.3-1.9,3.7"/>
	
		<path style="fill-rule:evenodd;clip-rule:evenodd;fill:none;stroke:#185D8C;stroke-width:3;stroke-linecap:round;stroke-linejoin:round;stroke-miterlimit:10;" d="
		M118.4,41.9c2.2-1.1,3.5-3.6,6.4-3.9c5,4.8,10.6,8.8,17.1,11.6c2.1,0.9,3,3,2.9,5.3c-0.3,7-0.3,14-1.2,20.8
		c-0.8,5.7-1.8,11.5-5.3,16.4c-1.1,1.5-1.2,3.3-1.6,4.9c-1.6,6.3-2.5,12.9-5,18.8c-5.8,13.6-11.7,14.5-23.8,7.2
		c-4.3-2.6-7.3-6.7-12-8.9c-2-0.9-3.1-4.3-2.6-6.8c2.6-13.2-2.2-25.8-2.9-38.7C90,62,90.5,57.9,96.7,54.5
		c6.9-3.8,9.9-10.9,11.3-18.4"/>
	
		<path style="fill-rule:evenodd;clip-rule:evenodd;fill:none;stroke:#185D8C;stroke-width:3;stroke-linecap:round;stroke-linejoin:round;stroke-miterlimit:10;" d="
		M157,71.1c3.1-1,4.1-4.3,4.8-6.6c4.4-14.6,6.6-29.1-3.8-42.5c-4.9-6.3-9.8-12.6-16.1-17.5c-4.7-3.7-10.2-3.7-15.5-1.2
		c-5,2.4-8.9,6.1-11.8,10.8"/>
	
		<path style="fill-rule:evenodd;clip-rule:evenodd;fill:none;stroke:#185D8C;stroke-width:3;stroke-linecap:round;stroke-linejoin:round;stroke-miterlimit:10;" d="
		M26.3,110.5c-3.6,2.5-7.9,1.1-11.8,2.5c-6.8,2.4-9.5,6.5-10.8,13.6c-2.7,15.7-1.8,31.3-2.2,47c-0.1,2.5,1.1,4.8,0.9,7
		c8.7,1,17.3-1.6,26-1c8.8,0.6,17.6-1.7,26.5-0.5"/>
	<pattern  id="SVGID_12_" xlink:href="#New_Pattern_Swatch_2" patternTransform="matrix(1.1005 0 0 1.1005 816.2852 761.165)">
	</pattern>
	<path style="opacity:0.5;fill-rule:evenodd;clip-rule:evenodd;fill:url(#SVGID_12_);" d="M74.2,191c0,0,0-2.2,0-3.3
		s-1.1-6.6-1.1-6.6v-5.5l-1.1-5.5v-8.8v-9.9l1.1-4.4v-2.2c0,0-1.1-3.3,1.1-3.3s5.5,0,5.5,0s2.2,4.4,2.2,5.5s0,6.6,0,8.8
		c0,2.2-1.1,13.2-1.1,16.5s-1.1,5.5-1.1,8.8c0,3.3,0,8.8,0,9.9s0,5.5,0,5.5h-3.3L74.2,191z"/>
	
		<path style="fill-rule:evenodd;clip-rule:evenodd;fill:none;stroke:#185D8C;stroke-width:3;stroke-linecap:round;stroke-linejoin:round;stroke-miterlimit:10;" d="
		M76.6,145.2c0.1,14.5,0.2,29,0.2,43.5c0,2.9,0.1,5.7,1.1,8.4"/>
	
		<path style="fill-rule:evenodd;clip-rule:evenodd;fill:none;stroke:#185D8C;stroke-width:3;stroke-linecap:round;stroke-linejoin:round;stroke-miterlimit:10;" d="
		M148,145.8c-1.7,13.7-2.9,27.4-1.6,41.3c0.2,1.8,0.4,3.6,0.6,5.4"/>
	
		<path style="fill-rule:evenodd;clip-rule:evenodd;fill:none;stroke:#185D8C;stroke-width:3;stroke-linecap:round;stroke-linejoin:round;stroke-miterlimit:10;" d="
		M120.2,128.5c1.6,8.8-0.5,17.6-0.2,26.4c0.1,1.9,1.2,3.9,0,5.8"/>
	
		<path style="fill-rule:evenodd;clip-rule:evenodd;fill:none;stroke:#185D8C;stroke-width:3;stroke-linecap:round;stroke-linejoin:round;stroke-miterlimit:10;" d="
		M121.2,66c0.8,3.8,2.8,7,3,11.2c0.2,5.5-0.6,9.6-6.3,11.5c-1,0.4-0.8,1.4-1.1,2.1"/>
	
		<path style="fill-rule:evenodd;clip-rule:evenodd;fill:none;stroke:#185D8C;stroke-width:3;stroke-linecap:round;stroke-linejoin:round;stroke-miterlimit:10;" d="
		M126.6,99.5c-7.1-1.6-14,3.5-20.8,1.3"/>
	
		<path style="fill-rule:evenodd;clip-rule:evenodd;fill:none;stroke:#185D8C;stroke-width:3;stroke-linecap:round;stroke-linejoin:round;stroke-miterlimit:10;" d="
		M57.7,103.4c-4.5,2.8-10.4,0.4-15.5,1.3"/>
	
		<path style="fill-rule:evenodd;clip-rule:evenodd;fill:none;stroke:#185D8C;stroke-width:3;stroke-linecap:round;stroke-linejoin:round;stroke-miterlimit:10;" d="
		M201.5,100.3c4.7,1.8,7.5,5.1,9.6,9.7c6.1,12.9,8.5,26.2,6.8,40.3c-0.4,3.6-0.5,7.3-0.7,11l-1.2-2.6c-8.2-0.3-8.6-0.6-9.2-8.5
		c-0.3-3.4-0.5-6.7-0.7-10.1l0.3,17.1c-3.5,2.9-8.1,3.7-12.1,4.1c-8.3,0.8-16.3,3.6-24.7,3.5"/>
	
		<path style="fill-rule:evenodd;clip-rule:evenodd;fill:none;stroke:#185D8C;stroke-width:3;stroke-linecap:round;stroke-linejoin:round;stroke-miterlimit:10;" d="
		M17.8,159c-1.1,6.5,0.3,13,0.4,19.4"/>
	
		<path style="fill-rule:evenodd;clip-rule:evenodd;fill:none;stroke:#185D8C;stroke-width:2;stroke-linecap:round;stroke-linejoin:round;stroke-miterlimit:10;" d="
		M122.3,53.3c7.3-3.8,11.1-2.9,14,3.1c0,0-5.2,5.2-6.3,2.1c-1.8-5.1,4.8-2.9,4.8-2.9"/>
	
		<path style="fill-rule:evenodd;clip-rule:evenodd;fill:none;stroke:#185D8C;stroke-width:2;stroke-linecap:round;stroke-linejoin:round;stroke-miterlimit:10;" d="
		M101,57.2c6.7-4.7,10.7-4.3,14.2,1.3c0,0-4.5,5.5-6,2.7c-3.1-5.7,4.6-3.3,4.6-3.3"/>
	
		<path style="fill-rule:evenodd;clip-rule:evenodd;fill:none;stroke:#185D8C;stroke-width:3;stroke-linecap:round;stroke-linejoin:round;stroke-miterlimit:10;" d="
		M188,61c-0.2,2.7,4,6.4,3.9,9.1c-0.4,9.2-0.6,9.4-10.2,8.9"/>
	
		<path style="fill-rule:evenodd;clip-rule:evenodd;fill:none;stroke:#185D8C;stroke-width:3;stroke-linecap:round;stroke-linejoin:round;stroke-miterlimit:10;" d="
		M47,72.9c-0.3,3.8-3.2,7-2.7,11.2c0.9,7.2-1.8,6.8,5.2,6.4"/>
	
		<path style="fill-rule:evenodd;clip-rule:evenodd;fill:none;stroke:#185D8C;stroke-width:3;stroke-linecap:round;stroke-linejoin:round;stroke-miterlimit:10;" d="
		M186.4,94.6c-3,0.5-6.6,4-9.1,1.5"/>
	
		<path style="fill-rule:evenodd;clip-rule:evenodd;fill:none;stroke:#185D8C;stroke-width:2;stroke-linecap:round;stroke-linejoin:round;stroke-miterlimit:10;" d="
		M171.9,57.2c4-3,6.5-2.9,8.8,0.5c0,0-2.3,3.4-3.6,1.9c-1.3-1.5-1.8-2.2-1.8-2.2"/>
	
		<path style="fill-rule:evenodd;clip-rule:evenodd;fill:none;stroke:#185D8C;stroke-width:2;stroke-linecap:round;stroke-linejoin:round;stroke-miterlimit:10;" d="
		M188.6,55.2c4-3,6.5-2.9,8.8,0.5c0,0-2.3,3.4-3.6,1.9s-1.8-2.2-1.8-2.2"/>
	
		<path style="fill-rule:evenodd;clip-rule:evenodd;fill:none;stroke:#185D8C;stroke-width:2;stroke-linecap:round;stroke-linejoin:round;stroke-miterlimit:10;" d="
		M63.1,64.8c-4.3-2.7-6.7-2.3-8.7,1.3c0,0,2.6,3.2,3.8,1.6c1.2-1.6,1.6-2.4,1.6-2.4"/>
	
		<path style="fill-rule:evenodd;clip-rule:evenodd;fill:none;stroke:#185D8C;stroke-width:2;stroke-linecap:round;stroke-linejoin:round;stroke-miterlimit:10;" d="
		M46.3,64.2c-4.3-2.7-6.7-2.3-8.7,1.3c0,0,2.6,3.2,3.8,1.6c1.2-1.6,1.6-2.4,1.6-2.4"/>
	
		<path style="fill-rule:evenodd;clip-rule:evenodd;fill:none;stroke:#185D8C;stroke-width:3;stroke-linecap:round;stroke-linejoin:round;stroke-miterlimit:10;" d="
		M94.7,114c-1.5,1.9-2.6,3.9-3.3,6.3c-1.9,6.2-8.9,11.7-14,10.8c-7.5-1.3-15.1-3.2-19.3-10.6c-1.7-2.9-3.4-3.9-6.6-2.1
		c-4.9,2.8-10.4,2.4-15.3,0.6c-4.7-1.8-8.8-5.1-9.3-10.7c-1-11.1-1.5-22.2,2-33c1.7-5.1,0.8-11.2,5.7-15.1c-2-5.6,2-9.4,4.2-13.7
		c5-10,20.6-12.4,30.2-9.1"/>
	<g>
		<path style="fill-rule:evenodd;clip-rule:evenodd;fill:#F40000;stroke:#F40000;stroke-width:3;stroke-miterlimit:10;" d="
			M67.9,211.3c4.3-4.3,5.8-9.2,10.1-11.8c2.4-1.4,4.8-2.9,7.4-1.4c2.7,1.6,3.6,4.2,2.4,7.3c-0.1,0.3-0.1,0.7-0.1,1
			c0.3,3.5-0.6,8.7,3.6,9.3c3.8,0.5,4.6-4.2,5.3-7.7c1.3-5.7,2.6-5.8,8.3-4.2c2.2,0.6,6.2,1.5,8.2-1.8c1.2-2,2.8-3.7,5.2-3.2
			c2.7,0.6,1.7,3.2,2,5c0.4,2.7-0.6,6.9,2.4,7.5c3.3,0.6,4.3-3.7,5.4-6.3c1.6-4,3.9-7.8,4-12.3c0-1.3,0.5-2.4,1.7-2.8
			c1.3-0.3,2.1,0.7,2.8,1.7c3.2,5,5.7,10.2,5,16.3c-0.4,3.4,1,4,4,3.6c7.5-1,14.8-2.5,20.5-8.1c1-1,2.7-3,4-0.7
			c1,1.7-0.8,2.7-2.2,3.7c-12,8.8-25.8,9.8-40,9c-1.8-0.1-3.1,0.4-4.6,1.3c-3.6,2.1-5.4,1.2-6.3-2.8c-0.2-1.1-0.3-2.3-0.5-3.4
			c-0.2-1,0.8-2.4-1.8-3.3c-0.4,2.9-0.9,5.8-1.2,8.6c-0.2,1.6-0.3,3.2-2.2,3.3c-2.5,0.1-2.1-2-2.4-3.6c-0.3-1.7,0.8-3.7-1.2-5
			c-1.4,1.5-1,3.4-1.4,5.2c-0.3,1.8-1.3,2.7-3.1,2.4c-1.7-0.2-2-1.5-1.9-2.9c0.1-1.6,1.2-3.3-0.6-4.8c-2.1,3-3.9,6.2-6.8,8.5
			c-3.5,2.8-6.7,2.6-8.8-1.2c-1.4-2.5-2.6-2.7-4.7-1.4c-2.5,1.5-5,1.7-7.5,0c-2.7-1.8-3.9,0.5-5.2,2c-2.7,2.9-5.2,5.5-9.9,5.7
			c-5.6,0.2-8.2-0.7-10.4-6.3c-0.4-1-0.2-2.6-1.7-2.8c-1.4-0.1-1.6,1.4-2.3,2.3c-1.2,1.8-2.3,3.7-3.6,5.4c-0.8,1.1-1.9,3-3.4,2.1
			c-1.9-1.2-0.1-2.6,0.6-3.8c2.6-4.2,5.4-8.4,7.4-13c2-4.6,3-9.5,3.6-14.5c0.4-3.4-0.3-4.8-4.2-4.5c-6.4,0.4-12.6,1.3-18.6,3.2
			c-1.2,0.4-2.3,1-2.9-0.5c-0.6-1.5,0.7-2.1,1.8-2.5c4.9-1.9,9.9-3.9,15.4-3.7c8.4,0.3,8.5,0.2,9.9-8.1c0.8-4.9,1.4-9.9,4.7-14
			c2.5-3.1,3.9-3.1,5.4,0.7c1.6,4.2,2.3,8.6,1.1,13.2c-1.5,5.4-1.2,5.8,4,4.5c11.3-2.9,22.8-4.7,34.4-5.5
			c10.5-0.7,21.1-0.8,31.6-1.8c-5.4,0.9-10.6,2.8-15.9,3.4c-17.7,1.9-35.3,4.5-52.7,8.1c-3.9,0.8-6.1,2.6-7.4,6.8
			c-2.2,7-5.2,13.8-2.9,21.3c0.7,2.3,0.9,5,4.5,5.5c0-3.1,0-6,0-8.9c0-4.2,1.3-7.9,3.9-11c1.3-1.5,2.9-3.2,5.1-2.4
			c1.8,0.7,2.4,2.6,2.8,4.4C68.8,204.6,68.3,207.3,67.9,211.3z M135,198.6c-2.5,3.1-3.1,6.5-4.3,9.7c-0.4,1-0.5,2.1,0.8,2.3
			c1.7,0.3,3.6,0.9,5.3-0.3c1.5-1,1.4-2.6,1.2-4C137.5,203.7,137.4,201,135,198.6z M83.2,206.1c-0.4-1.5,1.2-3.7-0.9-3.6
			c-3.8,0.2-5.5,3.3-6.3,6.7c-0.3,1.5-0.9,3.7,1.6,3.9C83.2,213.6,80.5,207.7,83.2,206.1z M53.4,183.8c3.7-4,4.9-8,4-12.6
			c-0.1-0.7-0.7-1.5-1.4-1.9c-0.6-0.4-1.2,0.2-1.3,1C53.9,174.5,52.6,178.7,53.4,183.8z M61.2,215.3c2.4-4.1,3.5-7.2,3.3-10.5
			c0-0.9,0-2.1-1.3-2.2c-0.9-0.1-1.4,0.8-1.7,1.6C60.4,207.4,60.2,210.6,61.2,215.3z"/>
		<path style="fill-rule:evenodd;clip-rule:evenodd;fill:#F40000;stroke:#F40000;stroke-width:3;stroke-miterlimit:10;" d="
			M178.4,179.8c0.6-13.7-1-26.8-0.5-40c0.1-3.1,1-4.4,4.3-3.2c3.2,1.1,11.2,1.1,12.7,3.2c1.3,1.9-1.2,6.1-1.7,9.4
			c-2.4,16.2-5.7,32.4-8.1,48.6c-0.3,2.1-1.5,4-3.8,4.8c-2.1,0.8-3.4,1-3.3-2.1C178.1,193.5,179.2,186.3,178.4,179.8z"/>
		<path style="fill-rule:evenodd;clip-rule:evenodd;fill:#F40000;stroke:#F40000;stroke-width:3;stroke-miterlimit:10;" d="
			M181.2,208.3c3,0.7,5.4,2.2,5,4.8c-0.5,3-2.7,6.3-6.2,6.1c-4.3-0.2-4.2-5.1-4.7-7.6C174.7,208.4,179.5,209.9,181.2,208.3z"/>
	</g>
	<pattern  id="SVGID_13_" xlink:href="#New_Pattern_Swatch_2" patternTransform="matrix(1 0 0 1 120.9429 42.1123)">
	</pattern>
	<path style="opacity:0.5;fill-rule:evenodd;clip-rule:evenodd;fill:url(#SVGID_13_);" d="M125.1,30.7c0,0,2,0,5-2s3-2,6-3s3-3,6,0
		s2,3,3,7c1,4,0,7,0,7s-3,2-3,1s-1-1-1-4s1-4-1-5c-2-1-2-3-4-2s-4,2-5,2S126.1,34.7,125.1,30.7z"/>
</g>
</svg>
