<?xml version="1.0" encoding="utf-8"?>
<!-- Generator: Adobe Illustrator 16.0.0, SVG Export Plug-In . SVG Version: 6.00 Build 0)  -->
<!DOCTYPE svg PUBLIC "-//W3C//DTD SVG 1.1//EN" "http://www.w3.org/Graphics/SVG/1.1/DTD/svg11.dtd">
<svg version="1.1" id="Layer_1" xmlns="http://www.w3.org/2000/svg" xmlns:xlink="http://www.w3.org/1999/xlink" x="0px" y="0px"
	 width="263.9px" height="240.3px" viewBox="0 0 263.9 240.3" style="enable-background:new 0 0 263.9 240.3;" xml:space="preserve"
	>
<pattern  x="-467.9" y="-329.6" width="12" height="12" patternUnits="userSpaceOnUse" id="New_Pattern_Swatch_2" viewBox="1 -13 12 12" style="overflow:visible;">
	<g>
		<polygon style="fill:none;" points="1,-13 13,-13 13,-1 1,-1 		"/>
		<path d="M14-1c0,0.6-0.4,1-1,1s-1-0.4-1-1s0.4-1,1-1S14-1.6,14-1z"/>
		<path d="M2-1c0,0.6-0.4,1-1,1S0-0.4,0-1s0.4-1,1-1S2-1.6,2-1z"/>
		<path d="M14-5c0,0.6-0.4,1-1,1s-1-0.4-1-1s0.4-1,1-1S14-5.6,14-5z"/>
		<path d="M11-2c0,0.6-0.4,1-1,1S9-1.4,9-2s0.4-1,1-1S11-2.6,11-2z"/>
		<path d="M8-3c0,0.6-0.4,1-1,1S6-2.4,6-3s0.4-1,1-1S8-3.6,8-3z"/>
		<path d="M5-4c0,0.6-0.4,1-1,1S3-3.4,3-4s0.4-1,1-1S5-4.6,5-4z"/>
		<path d="M2-5c0,0.6-0.4,1-1,1S0-4.4,0-5s0.4-1,1-1S2-5.6,2-5z"/>
		<path d="M14-9c0,0.6-0.4,1-1,1s-1-0.4-1-1s0.4-1,1-1S14-9.6,14-9z"/>
		<path d="M11-6c0,0.6-0.4,1-1,1S9-5.4,9-6s0.4-1,1-1S11-6.6,11-6z"/>
		<path d="M8-7c0,0.6-0.4,1-1,1S6-6.4,6-7s0.4-1,1-1S8-7.6,8-7z"/>
		<path d="M5-8c0,0.6-0.4,1-1,1S3-7.4,3-8s0.4-1,1-1S5-8.6,5-8z"/>
		<path d="M2-9c0,0.6-0.4,1-1,1S0-8.4,0-9s0.4-1,1-1S2-9.6,2-9z"/>
		<path d="M14-13c0,0.6-0.4,1-1,1s-1-0.4-1-1s0.4-1,1-1S14-13.6,14-13z"/>
		<path d="M11-10c0,0.6-0.4,1-1,1s-1-0.4-1-1s0.4-1,1-1S11-10.6,11-10z"/>
		<path d="M8-11c0,0.6-0.4,1-1,1s-1-0.4-1-1s0.4-1,1-1S8-11.6,8-11z"/>
		<path d="M5-12c0,0.6-0.4,1-1,1s-1-0.4-1-1s0.4-1,1-1S5-12.6,5-12z"/>
		<path d="M2-13c0,0.6-0.4,1-1,1s-1-0.4-1-1s0.4-1,1-1S2-13.6,2-13z"/>
	</g>
</pattern>
<g>
	<path style="fill-rule:evenodd;clip-rule:evenodd;fill:#74C5ED;" d="M206.2,76.5c0,0,12.4-0.5,12.5,12.8l4.5,0.3
		c0,0,0.1-5.1-0.6-7.4c-0.7-2.2-2.5-7.1-5.6-8.3S206.7,70.2,206.2,76.5z"/>
	<path style="fill-rule:evenodd;clip-rule:evenodd;fill:#74C5ED;" d="M212,94.5c0,0,8.5-3.3,12.9-3.3c4.4,0,8.2-0.9,10.8-0.6
		c2.6,0.3,8.4,1.2,8.4,1.2s-2.2,21-3.9,25.4c-1.7,4.4,0.4,13,0.6,17.2c0.3,4.2,0.2,6.9,0.2,6.9s-27-1.7-29.9-1.3
		C208.1,140.4,211.9,98.5,212,94.5z"/>
	<path style="fill-rule:evenodd;clip-rule:evenodd;fill:#74C5ED;" d="M174.1,151.6c0,0,22.3,0.9,25.3-0.9l-4.4-3.5
		c0,0-19.5,0.6-20.6,0.5C173.4,147.6,174.1,151.6,174.1,151.6z"/>
	<pattern  id="SVGID_1_" xlink:href="#New_Pattern_Swatch_2" patternTransform="matrix(1 0 0 1 146.2524 72.0771)">
	</pattern>
	<path style="opacity:0.5;fill-rule:evenodd;clip-rule:evenodd;fill:url(#SVGID_1_);" d="M205.4,139.5l35.7,1.7l-0.7-29.7l2-8
		C242.4,103.5,222.4,134.5,205.4,139.5z"/>
	<pattern  id="SVGID_2_" xlink:href="#New_Pattern_Swatch_2" patternTransform="matrix(1 0 0 1 146.2524 72.0767)">
	</pattern>
	<path style="opacity:0.5;fill-rule:evenodd;clip-rule:evenodd;fill:url(#SVGID_2_);" d="M174.1,151.6l25.3-0.9l-3.1-3.2
		c0,0-21,1-22,1S174.1,151.6,174.1,151.6z"/>
	<path style="fill-rule:evenodd;clip-rule:evenodd;fill:#74C5ED;" d="M158.4,137.2c-2-2.2,10.2-8.9,10.2-8.9l5.4,9.6
		C174.1,137.9,159.9,138.8,158.4,137.2z"/>
	<pattern  id="SVGID_3_" xlink:href="#New_Pattern_Swatch_2" patternTransform="matrix(1 0 0 1 146.2524 72.0767)">
	</pattern>
	<path style="opacity:0.5;fill-rule:evenodd;clip-rule:evenodd;fill:url(#SVGID_3_);" d="M158.4,137.2c0,0,9.9,1.3,14.9,0.3l-4-7
		L158.4,137.2z"/>
	<path style="fill-rule:evenodd;clip-rule:evenodd;fill:#74C5ED;" d="M45.8,120.5l10.7,28.8c0,0-22.3-2.5-23.8-2.3
		C31.2,147.3,44.3,122,45.8,120.5z"/>
	<path style="fill-rule:evenodd;clip-rule:evenodd;fill:#74C5ED;" d="M62.5,46.6l66.9-6c0,0,19-0.6,26.3-1c7.4-0.4,20.6-2.2,27-2.3
		c6.4-0.2,19.2,1.8,19.2,1.8s-0.6,28.2-1.7,32.9c-1.1,4.7-4.4,18.7-4.6,21.4c-0.1,2.7,1.7,26.4,1.7,26.4l0.1,3c0,0-88.5,6-92.7,6.4
		c-4.1,0.4-15.4-1.3-18.3-0.3c-2.8,1-20.9,4.2-20.9,4.2L62.5,46.6z"/>
	<pattern  id="SVGID_4_" xlink:href="#New_Pattern_Swatch_2" patternTransform="matrix(1 0 0 1 146.2524 72.0767)">
	</pattern>
	<path style="opacity:0.6;fill-rule:evenodd;clip-rule:evenodd;fill:url(#SVGID_4_);" d="M174.4,52.5l-4,49l2-2l2-8l2-14v-16l1-12
		c0,0-2-1-3-1S174.4,48.5,174.4,52.5z"/>
	<pattern  id="SVGID_5_" xlink:href="#New_Pattern_Swatch_2" patternTransform="matrix(1 0 0 1 146.2524 72.0767)">
	</pattern>
	<path style="opacity:0.5;fill-rule:evenodd;clip-rule:evenodd;fill:url(#SVGID_5_);" d="M136.4,126.5l27-1l19-2l15.1-0.7l-1.1-32.3
		l2-10l1-7l-6,1C193.4,74.5,167.4,119.5,136.4,126.5z"/>
	<pattern  id="SVGID_6_" xlink:href="#New_Pattern_Swatch_2" patternTransform="matrix(1 0 0 1 146.2524 72.0767)">
	</pattern>
	<path style="opacity:0.5;fill-rule:evenodd;clip-rule:evenodd;fill:url(#SVGID_6_);" d="M65.6,133c0,0,19.8-4.5,22.8-4.5
		s-9-14-9-14l-7-7l-5-13l-6-11v27v18l1,5L65.6,133z"/>
	<pattern  id="SVGID_7_" xlink:href="#New_Pattern_Swatch_2" patternTransform="matrix(1 0 0 1 146.2524 72.0771)">
	</pattern>
	<path style="opacity:0.5;fill-rule:evenodd;clip-rule:evenodd;fill:url(#SVGID_7_);" d="M31.4,146.5c1,1,25.2,2.9,25.2,2.9
		l-9.2-24.9l-2,12L31.4,146.5z"/>
	<path style="fill-rule:evenodd;clip-rule:evenodd;fill:#74C5ED;" d="M24.2,82c0,0,1.1,14.5,16.8,14.1l0-3.5c0,0-12.6,0.8-12.6-11.9
		L24.2,82z"/>
	<path style="fill-rule:evenodd;clip-rule:evenodd;fill:#E1FBFF;" d="M84.7,124.2l1.9-53c0,0,51.8-3.5,59.7-3.7
		c7.8-0.2,16.1-1.3,19-1.2c2.9,0.1,5.6-0.2,5.6-0.2l-0.8,54C170,120.1,84.6,127.3,84.7,124.2z"/>
	<path style="fill-rule:evenodd;clip-rule:evenodd;fill:#74C5ED;" d="M19.2,56.6l22.3,1.7L27.8,39.4C27.8,39.4,19,54.8,19.2,56.6z"
		/>
	<polygon style="fill-rule:evenodd;clip-rule:evenodd;fill:#74C5ED;" points="79.6,19.3 87.4,32.4 97.7,17.5 	"/>
	<path style="fill-rule:evenodd;clip-rule:evenodd;fill:#74C5ED;" d="M20.1,4.4c0,0,37.6-1,38.8,17.7c1.2,18.8-24.2,19.1-29.3,19.3
		c-5.1,0.2-24.8,0.3-25.1-17.3C4.2,6.5,20.1,4.4,20.1,4.4z"/>
	<pattern  id="SVGID_8_" xlink:href="#New_Pattern_Swatch_2" patternTransform="matrix(1 0 0 1 146.2524 72.0771)">
	</pattern>
	<polygon style="opacity:0.5;fill-rule:evenodd;clip-rule:evenodd;fill:url(#SVGID_8_);" points="86.4,34.5 97.7,17.5 85.4,18.5 	
		"/>
	
		<path style="fill-rule:evenodd;clip-rule:evenodd;fill:none;stroke:#185D8C;stroke-width:3;stroke-linecap:round;stroke-linejoin:round;stroke-miterlimit:10;" d="
		M115.2,124.4c1.7-4.3-0.3-8.5-0.9-12.6c-1.1-8.3-1.6-16.6-1.7-24.9c-0.1-3-0.3-6-2.6-7.9c-4.7,0.3-9,0.5-13.4,0.9
		c-2.1,0.2-3.3,0.9-3.8,3.5c-0.9,4.9-0.4,9.7-0.3,14.5c0.2,8.8,0.8,17.6,1.3,26.4c0.1,1.8,0.3,3.6,0.4,5.4"/>
	<pattern  id="SVGID_9_" xlink:href="#New_Pattern_Swatch_2" patternTransform="matrix(1 0 0 1 146.2524 72.0771)">
	</pattern>
	<path style="opacity:0.5;fill-rule:evenodd;clip-rule:evenodd;fill:url(#SVGID_9_);" d="M3.4,19.5c0,0-2,10,2,13s10,7,11,7s6,2,7,2
		s8,1,12,0s13-3,16-5s7-7,7-10s-2-6-2-6l-3-2c0,0-3,3-6,6s-14,4-16,5s-12,3-15,2S3.4,22.5,3.4,19.5z"/>
	
		<path style="fill-rule:evenodd;clip-rule:evenodd;fill:none;stroke:#185D8C;stroke-width:3;stroke-linecap:round;stroke-linejoin:round;stroke-miterlimit:10;" d="
		M198,37.8c-3.6-2.8-7.8-1.2-11.7-1.7c-6.3-0.8-12.7-0.5-19-0.2c-7.7,0.3-15.3,1-23,1.8c-9.9,1.1-20,0.9-29.9,2.9
		c-11.1,2.2-22.1,2.2-33.2,1.1c-4.9-0.5-10-0.2-14.9,0.8c-0.3,0.1-0.5,0.3-0.8,0.3c-2.1-0.1-4.8-0.9-6.1,1.2
		c-1.5,2.4-1.2,5.6-0.9,8.3c0.8,7.6,0.7,15.3,0.9,22.9c0.1,6-0.2,12,0.8,18c0.7,3.9,0.2,8.1,0,12.2c-0.3,6.1,0.3,12.2-0.1,18.3
		c-0.2,3.5,0.8,7.1,0.4,10.7"/>
	
		<path style="fill-rule:evenodd;clip-rule:evenodd;fill:none;stroke:#185D8C;stroke-width:3;stroke-linecap:round;stroke-linejoin:round;stroke-miterlimit:10;" d="
		M159.5,134.8c1.3-3.9,4.5-6.6,7.5-8.5c3.6-2.2,3.5-4.8,3-8c-1-6.2-1.1-12.5-0.7-18.7c0.6-9,1.2-18,2.7-26.9c1-6,0.9-12.1,1.2-18.2
		c0.1-2.3-0.1-4.1-3.6-3.8c-10.1,0.9-20.1,1.5-30.2,2c-16.2,0.8-32.3,2.9-48.5,2.3c-1.7-0.1-3.3,1.4-5,0.1"/>
	
		<path style="fill-rule:evenodd;clip-rule:evenodd;fill:none;stroke:#185D8C;stroke-width:3;stroke-linecap:round;stroke-linejoin:round;stroke-miterlimit:10;" d="
		M171.5,65.8c-1-0.4-1.9-0.6-3.1-0.2c-5.9,1.6-11.9,1.8-18,1.7c-8-0.1-16,0.5-24.1,0.7c-6.4,0.2-12.7-0.1-19.1,0.4
		c-6.7,0.6-13.3,1.9-20,2.9"/>
	
		<path style="fill-rule:evenodd;clip-rule:evenodd;fill:none;stroke:#185D8C;stroke-width:3;stroke-linecap:round;stroke-linejoin:round;stroke-miterlimit:10;" d="
		M29.9,39.3c2.3-1.7,4.9-2.1,7.8-2.3c6-0.3,11-2.7,15.3-6.9c4.6-4.5,3.7-13.8,0.3-17.5c-7-7.4-16-10.2-26-9.6
		c-2.9,0.2-6.1-0.6-8.6,2c-0.7,0.7-1,1.1-1.1,1.9"/>
	
		<path style="fill-rule:evenodd;clip-rule:evenodd;fill:none;stroke:#185D8C;stroke-width:3;stroke-linecap:round;stroke-linejoin:round;stroke-miterlimit:10;" d="
		M198.9,35.5c-0.6,5.9-1.4,11.9-1.8,17.8c-0.9,13-1.8,26.1-2.4,39.1c-0.3,6.9-0.5,13.7,0.1,20.6c0.2,2,0.2,4.1-0.8,6.3
		c-6-0.1-12.2,0-18.3,0.9c-5.9,0.9-11.8,1.1-17.7,1.8c-4.4,0.5-8.9,0.4-13.4,0.7c-4.9,0.4-9.7,1.3-14.6,1.6
		c-8.5,0.6-17.1,0.5-25.6,0.9c-6.2,0.3-12.3,0.6-18.4,1.5c-1.2,0.2-0.8,0.6-0.6,1.2"/>
	
		<path style="fill-rule:evenodd;clip-rule:evenodd;fill:none;stroke:#185D8C;stroke-width:3;stroke-linecap:round;stroke-linejoin:round;stroke-miterlimit:10;" d="
		M121.1,78.7c3.5,1.1,7.2,0.2,10.6,0c4.1-0.2,8.2,0,12.2,0.3c5.5,0.4,11-0.2,16.4-0.5c1.1-0.1,2.3,0.1,4.1,0.2
		c-3,9.8,0.9,19.6-2.6,29.4c-12.6-1.1-24.8,1.8-37.1,3.2"/>
	
		<path style="fill-rule:evenodd;clip-rule:evenodd;fill:none;stroke:#185D8C;stroke-width:3;stroke-linecap:round;stroke-linejoin:round;stroke-miterlimit:10;" d="
		M28.9,55.2c-0.2,4.7-0.2,9.4-0.5,14.1c-0.3,4.5-0.1,9,0.7,13.4c1.5,7.5,5.3,10,11.9,10c5.6-0.1,11.2-1.1,16.8-0.6"/>
	
		<path style="fill-rule:evenodd;clip-rule:evenodd;fill:none;stroke:#185D8C;stroke-width:3;stroke-linecap:round;stroke-linejoin:round;stroke-miterlimit:10;" d="
		M17,1.5C6.1,5.4,3,14.5,1.5,24.6c-0.6,4.2,5.3,11.6,9.4,12.8c5.1,1.4,10.3,1.6,15.5,1.2c1.3-0.1,2.7-0.4,3.3,1.2
		c1.8,4.2,5.1,7.3,7.4,11.1c0.8,1.3,1,2.6,1.2,3.9"/>
	
		<path style="fill-rule:evenodd;clip-rule:evenodd;fill:none;stroke:#185D8C;stroke-width:3;stroke-linecap:round;stroke-linejoin:round;stroke-miterlimit:10;" d="
		M87.5,56c-1.1,4.5-1.2,9.1-1,13.6c0.1,1.8-0.5,3.3-0.6,4.9c-0.6,8.5,0.2,17-0.5,25.5c-0.4,4.5-0.1,8.9-0.3,13.3
		c-0.2,4.3-0.8,8.6-0.1,12.8c-6.8,2.1-13.9,3.1-20.8,4.5c-0.8,0.2-1.8,0.7-2.6-0.1"/>
	
		<path style="fill-rule:evenodd;clip-rule:evenodd;fill:none;stroke:#185D8C;stroke-width:3;stroke-linecap:round;stroke-linejoin:round;stroke-miterlimit:10;" d="
		M58.8,109.3c-2.9,0.2-5.7,0.4-8.6,0.6c-3.8,0.3-4.6,2.4-3.7,6c2.6,10.5,7,20.4,9.1,31"/>
	
		<path style="fill-rule:evenodd;clip-rule:evenodd;fill:none;stroke:#185D8C;stroke-width:3;stroke-linecap:round;stroke-linejoin:round;stroke-miterlimit:10;" d="
		M167.8,136.8c0.1,0.6,0.2,1.4,0.2,1.9c-0.3,7.9,0.9,9,9.4,9c6.7,0,13.4,0.4,19.9-1.4"/>
	
		<path style="fill-rule:evenodd;clip-rule:evenodd;fill:none;stroke:#185D8C;stroke-width:3;stroke-linecap:round;stroke-linejoin:round;stroke-miterlimit:10;" d="
		M223.1,87c0-8.2-4-14.7-13.2-14.6c-4.4,0.1-8.9-0.7-13.3,0"/>
	
		<path style="fill-rule:evenodd;clip-rule:evenodd;fill:none;stroke:#185D8C;stroke-width:3;stroke-linecap:round;stroke-linejoin:round;stroke-miterlimit:10;" d="
		M85.2,15.1c1.6-6.2-0.5-9.3-6.6-9.5c-6.2-0.2-22.9-2.8-29.1-1.1"/>
	
		<path style="fill-rule:evenodd;clip-rule:evenodd;fill:none;stroke:#185D8C;stroke-width:3;stroke-linecap:round;stroke-linejoin:round;stroke-miterlimit:10;" d="
		M42.7,16.8c-9.3-2-18.6-1.2-27.8,0.7c-1.2,0.2-2.5-0.6-3.5,0.4"/>
	
		<path style="fill-rule:evenodd;clip-rule:evenodd;fill:none;stroke:#185D8C;stroke-width:3;stroke-linecap:round;stroke-linejoin:round;stroke-miterlimit:10;" d="
		M238,140.7c-7.4-1.4-14.8-2.5-22.3-2.2c-3.2,0.1-6.3-0.5-9.3,0c-1-3.3-0.3-6.2-0.3-8.9c0.2-11.8,0.8-23.6,1.3-35.4
		c0-0.6,0.3-1.3,0.5-1.9"/>
	
		<path style="fill-rule:evenodd;clip-rule:evenodd;fill:none;stroke:#185D8C;stroke-width:3;stroke-linecap:round;stroke-linejoin:round;stroke-miterlimit:10;" d="
		M44.8,114.8c-3.8,4.9-6.5,10.3-9,15.9c-1.7,3.8-5,6.8-5.1,11.5c0,1.5-3.4,1.7-3.2,4.1"/>
	
		<path style="fill-rule:evenodd;clip-rule:evenodd;fill:none;stroke:#185D8C;stroke-width:3;stroke-linecap:round;stroke-linejoin:round;stroke-miterlimit:10;" d="
		M242.4,89.3c1,3-0.8,5.6-1.3,8.3c-2.2,11.5-3.1,23.2-2.6,34.9c0.1,1.9,0,3.9-1.1,5.6"/>
	
		<path style="fill-rule:evenodd;clip-rule:evenodd;fill:none;stroke:#185D8C;stroke-width:3;stroke-linecap:round;stroke-linejoin:round;stroke-miterlimit:10;" d="
		M123.3,80c0.9,3.3-0.6,6.5-0.4,9.9c0.5,6.2,0.4,12.5,0.4,18.7c0,1.6,1.6,2.9,0.9,4.6"/>
	
		<path style="fill-rule:evenodd;clip-rule:evenodd;fill:none;stroke:#185D8C;stroke-width:3;stroke-linecap:round;stroke-linejoin:round;stroke-miterlimit:10;" d="
		M40.6,25.5c-8.3-1.2-16.4-0.4-24.5,1.5"/>
	
		<path style="fill-rule:evenodd;clip-rule:evenodd;fill:none;stroke:#185D8C;stroke-width:3;stroke-linecap:round;stroke-linejoin:round;stroke-miterlimit:10;" d="
		M54.1,145c-1.5,0.3-3.1,0.4-4.6,0.1c-5.3-1.3-10.8-1.4-16.3-1.6c-1.1,0-2-0.7-3-0.6"/>
	
		<path style="fill-rule:evenodd;clip-rule:evenodd;fill:none;stroke:#185D8C;stroke-width:3;stroke-linecap:round;stroke-linejoin:round;stroke-miterlimit:10;" d="
		M244,88.6c-4.5-0.4-9,0.7-13.3,0.1c-6.4-0.9-12.3,1.2-18.4,1.8c-2.2,0.2-3.8-0.9-5.7-1.2"/>
	
		<path style="fill-rule:evenodd;clip-rule:evenodd;fill:none;stroke:#185D8C;stroke-width:3;stroke-linecap:round;stroke-linejoin:round;stroke-miterlimit:10;" d="
		M95.5,14.4c-3.4,5.8-6.8,11.6-10.2,17.5c-0.3,0.4-0.5,1.3,0.2,1.9"/>
	
		<path style="fill-rule:evenodd;clip-rule:evenodd;fill:none;stroke:#185D8C;stroke-width:3;stroke-linecap:round;stroke-linejoin:round;stroke-miterlimit:10;" d="
		M84.9,31.5c-3.9-2.6-6-6.8-8.3-10.5c-1.1-1.8-2.3-2-3.8-2.4"/>
	
		<path style="fill-rule:evenodd;clip-rule:evenodd;fill:none;stroke:#185D8C;stroke-width:3;stroke-linecap:round;stroke-linejoin:round;stroke-miterlimit:10;" d="
		M143.1,93c-0.4,3.4-3.5,3.9-5.7,5.3c-2.4,1.5-5,2.8-7.5,4.1"/>
	
		<path style="fill-rule:evenodd;clip-rule:evenodd;fill:none;stroke:#185D8C;stroke-width:3;stroke-linecap:round;stroke-linejoin:round;stroke-miterlimit:10;" d="
		M24.2,39.3c0.2,2.8-2.2,4.3-3.5,6.2c-1.4,2.1-3.1,4-4.1,6.3"/>
	<pattern  id="SVGID_10_" xlink:href="#New_Pattern_Swatch_2" patternTransform="matrix(1 0 0 1 146.2524 72.0771)">
	</pattern>
	<polygon style="opacity:0.5;fill-rule:evenodd;clip-rule:evenodd;fill:url(#SVGID_10_);" points="19.2,56.6 41.5,58.3 31.4,45.5 	
		"/>
	
		<path style="fill-rule:evenodd;clip-rule:evenodd;fill:none;stroke:#185D8C;stroke-width:3;stroke-linecap:round;stroke-linejoin:round;stroke-miterlimit:10;" d="
		M147.2,94c3.8,2.4,6.9,5.8,11.4,7.2"/>
	
		<path style="fill-rule:evenodd;clip-rule:evenodd;fill:none;stroke:#185D8C;stroke-width:3;stroke-linecap:round;stroke-linejoin:round;stroke-miterlimit:10;" d="
		M13.8,53.1c1-0.3,2.2-1.1,3.1-0.9c4.9,1.6,10.2,1.1,15.1,2.7c2.3,0.7,5,0.7,7.6,0.2"/>
	
		<path style="fill-rule:evenodd;clip-rule:evenodd;fill:none;stroke:#185D8C;stroke-width:3;stroke-linecap:round;stroke-linejoin:round;stroke-miterlimit:10;" d="
		M156.4,87c-3,3-7.5,3.8-10.4,6.9c-0.3,0.4-1.5,0-2.2-0.1"/>
	
		<path style="fill-rule:evenodd;clip-rule:evenodd;fill:none;stroke:#185D8C;stroke-width:3;stroke-linecap:round;stroke-linejoin:round;stroke-miterlimit:10;" d="
		M106.7,90c-3.6-0.6-7.2,0.1-10.7,0.9"/>
	
		<path style="fill-rule:evenodd;clip-rule:evenodd;fill:none;stroke:#185D8C;stroke-width:3;stroke-linecap:round;stroke-linejoin:round;stroke-miterlimit:10;" d="
		M106.6,109.8c-3-0.2-5.9,0-8.8,0.6"/>
	
		<path style="fill-rule:evenodd;clip-rule:evenodd;fill:none;stroke:#185D8C;stroke-width:3;stroke-linecap:round;stroke-linejoin:round;stroke-miterlimit:10;" d="
		M93.9,15.3c-6.1,0-12.2,0.2-17.7,3.5"/>
	
		<path style="fill-rule:evenodd;clip-rule:evenodd;fill:none;stroke:#185D8C;stroke-width:3;stroke-linecap:round;stroke-linejoin:round;stroke-miterlimit:10;" d="
		M168.9,125.9c1.5,2.9,3.1,5.7,4.6,8.6c-3.6,3.1-7.5,1.8-11.3,1.2c-1.3-0.2-2.5-1-3.8-0.2"/>
	
		<path style="fill-rule:evenodd;clip-rule:evenodd;fill:none;stroke:#185D8C;stroke-width:3;stroke-linecap:round;stroke-linejoin:round;stroke-miterlimit:10;" d="
		M106.8,100.6c-2.8-1.6-5.6,0.7-8.4-0.1"/>
	
		<path style="fill-rule:evenodd;clip-rule:evenodd;fill:none;stroke:#185D8C;stroke-width:3;stroke-linecap:round;stroke-linejoin:round;stroke-miterlimit:10;" d="
		M110.2,119.5c-2.7,0-5.4,0.3-8.1,1"/>
	
		<path style="fill-rule:evenodd;clip-rule:evenodd;fill:none;stroke:#185D8C;stroke-width:3;stroke-linecap:round;stroke-linejoin:round;stroke-miterlimit:10;" d="
		M142.4,92.6c-2.5-1.1-5-2.3-7.8-3c-2.6-0.7-4.7-3.4-7-5.2"/>
	<g>
		<g>
			<path style="fill-rule:evenodd;clip-rule:evenodd;fill:#F40000;stroke:#F40000;stroke-width:3;stroke-miterlimit:10;" d="
				M231.1,149c1.3-8.4,2.7-16.7,6.1-24.5c1-2.3,2.2-4.1,1.1-7.1c-1.4-4,3.2-4.1,4.7-3.6c5.4,1.8,11.1,1.5,16.5,2.8
				c1.2,0.3,2.3,0.3,2.7,1.7c0.3,1.4-0.5,2.2-1.5,2.9c-12.4,9.7-19.6,22.6-22.1,38.3c-0.2,1.6-0.7,3.1-1.1,4.6
				c-0.4,1.3-1.3,1.9-2.6,1.9c-1.4,0-1.9-1.1-2.1-2.4C232.3,158.8,230.7,154,231.1,149z"/>
			<g>
				<path style="fill-rule:evenodd;clip-rule:evenodd;fill:#F40000;stroke:#F40000;stroke-width:3;stroke-miterlimit:10;" d="
					M232.7,187.8c-4.2,0.5-4.5-3-4.1-6.1c0.5-4,1-9,6.2-9.1c3.7-0.1,6.1,3.3,6.5,7.1C241.6,183.9,237.4,188,232.7,187.8z"/>
			</g>
		</g>
		<g>
			<path style="fill-rule:evenodd;clip-rule:evenodd;fill:#F40000;stroke:#F40000;stroke-width:3;stroke-miterlimit:10;" d="
				M34.8,165.3c2.7-1.7,3.7-3.9,4.7-5.8c1.8-3.3,5-4.4,8.3-4.2c3.4,0.2,4.3,3.4,5.2,6c0.9,2.8,1.1,5.7,0.4,8.5
				c-0.9,3.5,0.8,3.3,3.4,2.5c5-1.5,9.9-7.3,10.4-12.5c0.1-0.8,0.1-1.6,0.1-2.4c0-1.9,0.8-3.2,3-3.4c2.3-0.2,3.3,1.3,3.7,2.9
				c0.5,2,0.5,4,0.6,6c0.1,0.9,0,1.9,0.1,2.8c0.3,1.8-0.2,4.5,2.1,4.9c2.3,0.5,2.9-2.2,3.9-3.7c2.3-3.4,4-7.2,8.1-9.3
				c1.5-0.8,3-1.5,4.8-0.1c4.6,3.6,10,4.2,14.9,1.2c2.8-1.7,5.8-3.2,7.8-5.8c0.6-0.8,1.2-1.7,2.5-1.1c1.2,0.5,0.9,1.6,0.8,2.5
				c-0.5,3.4,0.6,6.7,1.2,10.1c0.5,2.6,1.8,3.3,4.2,1.9c2.6-1.5,5.3-2.8,8.5-3.2c2.4-0.3,2.9-2,3.3-3.8c0.6-2.6,1.5-4.9,3.9-6.6
				c1.4-1,2.9-2,4.8-0.8c1.8,1.2,1.3,3,0.6,4.5c-0.8,1.6-2,2.9-3.1,4.3c-0.8,1.1-2.1,2-2.7,3.1c-1.1,2.1-0.3,4.2,1.7,5.4
				c1.9,1.2,3.2-0.5,4.2-1.8c1.5-2,3-4,4.5-6c1-1.3,2.2-2.1,4-2.1c1.5,0,3.2,0,3.5,1.7c0.2,1.3-0.9,2-2.4,2.5
				c-4,1.2-5.2,3.7-3.2,7.1c2.1,3.6,5.2,6,9.8,6.1c3.9,0,9.1-3.3,10.5-6.4c0.6-1.3-0.3-2.4-0.7-3.5c-2-5.7-3.7-11.5-3.3-17.5
				c0.1-2.6-1.5-2.8-3.6-2.9c-4.9-0.1-9.7-0.3-14.6-0.6c-1-0.1-2.8,0-2.4-1.6c0.2-1.2,1.7-0.6,2.7-0.6c5.4,0.1,10.8-1.6,16.3-0.5
				c2,0.4,1.8-1.2,2-2.4c0.7-4.5,0.5-9.2,2.9-13.4c0.8-1.4,1.4-3.2,3.5-3.1c2,0.1,2.4,1.7,3.1,3.1c2.2,4.3,3.5,8.7,3.4,13.4
				c-0.1,3.3,1.6,4.6,5.2,4.4c8.7-0.7,17.4,0.1,26-1.3c1.6-0.3,2.9,0,4,1.2c-0.8,1.4-2.3,1.4-3.8,1.5c-8.3,0.7-16.7,1.4-25.1,1.3
				c-6.4-0.1-6.3,0.3-7.2,6.1c-0.5,3.5-1.4,6.9-2.2,10.3c-0.8,3.5,1.6,7.6,6,9.4c3.1,1.2,5-1,6.7-2.7c3.4-3.4,4.5-7.7,4.6-12.3
				c0-1.4-0.8-3.4,1.4-3.7c2.2-0.3,2.3,1.8,3,3c2.6,4.9,5.1,9.9,4.9,15.5c-0.1,2.5,1.1,3.4,3.8,2.9c3.8-0.6,7.6-1,12.4-1.6
				c-2.4,2.9-5.4,3.2-7.9,3.6c-4.7,0.9-9.5,1.5-14.2,2.8c-3.2,0.8-6.9,1.2-8.8-2.7c-0.3-0.7-1-1.7-2-1.3c-4.1,1.2-6.8-1.3-9.5-3.3
				c-2.5-1.9-4-2.2-6.4,0.4c-7.1,7.3-17.4,8.5-24-1.2c-1-1.5-1.9-1.4-3.6-0.9c-5.4,1.6-6.5,1.1-8.9-3.8c-1-2.1-2.3-2.2-4.1-1.6
				c-1.5,0.5-3.1,1-4.5,1.5c-3.7,1.4-5.4,3.3-3.8,7.5c3.8,9.9,4.6,20.5,6.7,30.7c0.8,3.7,0.4,7.6-1,11.2c-1.9,4.9-4.5,5.9-9.9,3.6
				c-7.9-3.4-12-9.6-14-17c-3.4-12.9,0.8-23.7,10.8-32.7c2.2-2,1.6-4,0.8-6.3c-2.3-6.8-2.3-6.8-9.2-3.5c-2.7,1.3-5.6,1.8-8.5,1.8
				c-2.6,0-3,0.9-2.3,3c1.6,4.7-0.7,8.1-4.5,10.9c-3.1,2.3-5.2,1.8-6.9-1.5c-0.5-1-1-2-1.3-3c-0.6-2.2-1.3-2.8-3.4-1
				c-5.7,4.6-8.2,3.7-9.7-3.3c-0.3-1.6-0.4-3.2-0.6-5.1c-2.8,1-3.1,3.6-4.4,5.3c-5.7,7.6-16.6,10.4-25.6,5.9
				c-4.1-2.1-4.9-0.5-5.1,2.6c-0.4,4.5,0,8.9,0.7,13.4c2.2,14.5,0.9,29.2,3.1,43.8c0.4,2.5-1.8,3.7-3.7,4.4
				c-2.3,0.8-2.9-1.3-3.6-2.7c-3.1-6-2.9-12.4-3.4-18.7c-0.4-6.3-0.2-12.7-0.8-19c-0.6-6.4,0.4-12.5,2.5-18.3
				c1.6-4.4,0.9-8.8,1-13.6c-3.2,1.3-4.3,3.7-6,5.6c-3.6,3.8-7.8,6.8-12.7,9.1c-0.9,0.4-2.3,1.4-3.2,0.2c-0.9-1.4,0.8-1.7,1.8-2.1
				c9.2-3.6,14.4-10.7,19.1-18.2c0.9-1.5,0.6-3.1,0.7-4.7c0.1-1.6,1-3.9,3.4-3.5c2.7,0.4,1.4,2.6,1,4
				C35,159.3,33.9,161.9,34.8,165.3z M127.9,212.6c-0.8-11.7-3.9-24.3-7.6-36.9c-0.7-2.3-2.1-1.1-3.1,0c-3.7,3.8-6.7,8.1-8.6,12.9
				c-3.4,8.8,0.8,22.2,8.8,28.1C122.6,220.6,126.8,219.5,127.9,212.6z M33.2,182.4c-5,8.1-3,48.6,2.6,52.5
				C36,217.2,33.8,199.9,33.2,182.4z M51.1,167.5c-0.1-1.5-0.2-3-0.5-4.4c-0.4-1.9-1-3.8-3.6-4.1c-2.3-0.3-3.6,1-4.6,2.5
				c-1.6,2.5-4.6,5.4-3.3,7.8c1.1,2,4.8,3.9,8.3,3.5C51,172.4,50.2,169.5,51.1,167.5z M175.1,127.8c-1.9,4.7-2.9,9.1-2.9,13.6
				c0,2.7,2.3,2.2,4.2,2.5c1.6,0.2,3.4,0.2,3.3-1.6C179.3,137.5,179.4,132.4,175.1,127.8z M176.2,162.3c2.4-4.1,2.6-8.1,3-12.1
				c0.2-2.1-0.9-2.9-3.2-2.8c-2,0.1-3.8-0.1-3.7,2.6C172.5,154.1,173.3,158.1,176.2,162.3z M94.3,169.7c0.9-3.1-1.3-5.4-3.6-6.1
				c-2.6-0.7-3.3,2.3-3.5,4.1c-0.3,2.5-0.6,5.8,2.8,6.5C93.2,174.8,93.7,171.9,94.3,169.7z M202.4,172.1c-0.2-1.3-0.4-2.8-0.8-4.2
				c-0.5-1.5-0.2-3.8-2.1-4.1c-2.4-0.3-1.5,2.4-2.4,3.5c-0.6,0.7-1.2,1.6-1.3,2.5c-0.6,3.2,2.6,3,4.5,3.9
				C201.7,174.4,202.4,173.7,202.4,172.1z"/>
			<path style="fill-rule:evenodd;clip-rule:evenodd;fill:#F40000;stroke:#F40000;stroke-width:3;stroke-miterlimit:10;" d="
				M122.3,144c-0.4,2.5-2.1,2.7-3.9,2.4c-1.6-0.3-3.6-0.8-2.9-2.7c0.7-2.4,2.7-4.9,5.2-4.5C122.8,139.5,121.1,142.7,122.3,144z"/>
		</g>
	</g>
	<pattern  id="SVGID_11_" xlink:href="#New_Pattern_Swatch_2" patternTransform="matrix(1 0 0 1 146.2524 72.0771)">
	</pattern>
	<path style="opacity:0.5;fill-rule:evenodd;clip-rule:evenodd;fill:url(#SVGID_11_);" d="M24.2,82c0,0,1.1,14.5,16.1,14.5v-3
		c0,0-12,1-13-12L24.2,82z"/>
	<pattern  id="SVGID_12_" xlink:href="#New_Pattern_Swatch_2" patternTransform="matrix(1 0 0 1 146.2524 72.0771)">
	</pattern>
	<path style="opacity:0.5;fill-rule:evenodd;clip-rule:evenodd;fill:url(#SVGID_12_);" d="M206.2,76.5c0,0,11.1,0,12.1,11l3-1
		c0,0,1-13-14-13L206.2,76.5z"/>
	<pattern  id="SVGID_13_" xlink:href="#New_Pattern_Swatch_2" patternTransform="matrix(1 0 0 1 146.2524 72.0767)">
	</pattern>
	<path style="opacity:0.4;fill-rule:evenodd;clip-rule:evenodd;fill:url(#SVGID_13_);" d="M105.4,60.5c0,0,6-1,12-1s7,0,15,0
		c8,0,10-1,14-1s8-1,12-1s9,0,9,0s1,2,0,2s-17,0-22,1s-12,2-17,2C123.4,62.5,105.4,63.5,105.4,60.5z"/>
	<pattern  id="SVGID_14_" xlink:href="#New_Pattern_Swatch_2" patternTransform="matrix(1 0 0 1 146.2524 72.0767)">
	</pattern>
	<path style="opacity:0.4;fill-rule:evenodd;clip-rule:evenodd;fill:url(#SVGID_14_);" d="M125.4,112.5l36-3c0,0,1,1,0,2s-22,2-22,2
		s-4,1-7,1c-3,0-7,0-7,0S123.4,114.5,125.4,112.5z"/>
</g>
</svg>
