<?xml version="1.0" encoding="utf-8"?>
<!-- Generator: Adobe Illustrator 16.0.0, SVG Export Plug-In . SVG Version: 6.00 Build 0)  -->
<!DOCTYPE svg PUBLIC "-//W3C//DTD SVG 1.1//EN" "http://www.w3.org/Graphics/SVG/1.1/DTD/svg11.dtd">
<svg version="1.1" id="Layer_1" xmlns="http://www.w3.org/2000/svg" xmlns:xlink="http://www.w3.org/1999/xlink" x="0px" y="0px"
	 width="253.2px" height="225.5px" viewBox="0 0 253.2 225.5" style="enable-background:new 0 0 253.2 225.5;" xml:space="preserve"
	>
<pattern  x="-473.7" y="-338.5" width="12" height="12" patternUnits="userSpaceOnUse" id="New_Pattern_Swatch_2" viewBox="1 -13 12 12" style="overflow:visible;">
	<g>
		<polygon style="fill:none;" points="1,-13 13,-13 13,-1 1,-1 		"/>
		<path d="M14-1c0,0.6-0.4,1-1,1s-1-0.4-1-1s0.4-1,1-1S14-1.6,14-1z"/>
		<path d="M2-1c0,0.6-0.4,1-1,1S0-0.4,0-1s0.4-1,1-1S2-1.6,2-1z"/>
		<path d="M14-5c0,0.6-0.4,1-1,1s-1-0.4-1-1s0.4-1,1-1S14-5.6,14-5z"/>
		<path d="M11-2c0,0.6-0.4,1-1,1S9-1.4,9-2s0.4-1,1-1S11-2.6,11-2z"/>
		<path d="M8-3c0,0.6-0.4,1-1,1S6-2.4,6-3s0.4-1,1-1S8-3.6,8-3z"/>
		<path d="M5-4c0,0.6-0.4,1-1,1S3-3.4,3-4s0.4-1,1-1S5-4.6,5-4z"/>
		<path d="M2-5c0,0.6-0.4,1-1,1S0-4.4,0-5s0.4-1,1-1S2-5.6,2-5z"/>
		<path d="M14-9c0,0.6-0.4,1-1,1s-1-0.4-1-1s0.4-1,1-1S14-9.6,14-9z"/>
		<path d="M11-6c0,0.6-0.4,1-1,1S9-5.4,9-6s0.4-1,1-1S11-6.6,11-6z"/>
		<path d="M8-7c0,0.6-0.4,1-1,1S6-6.4,6-7s0.4-1,1-1S8-7.6,8-7z"/>
		<path d="M5-8c0,0.6-0.4,1-1,1S3-7.4,3-8s0.4-1,1-1S5-8.6,5-8z"/>
		<path d="M2-9c0,0.6-0.4,1-1,1S0-8.4,0-9s0.4-1,1-1S2-9.6,2-9z"/>
		<path d="M14-13c0,0.6-0.4,1-1,1s-1-0.4-1-1s0.4-1,1-1S14-13.6,14-13z"/>
		<path d="M11-10c0,0.6-0.4,1-1,1s-1-0.4-1-1s0.4-1,1-1S11-10.6,11-10z"/>
		<path d="M8-11c0,0.6-0.4,1-1,1s-1-0.4-1-1s0.4-1,1-1S8-11.6,8-11z"/>
		<path d="M5-12c0,0.6-0.4,1-1,1s-1-0.4-1-1s0.4-1,1-1S5-12.6,5-12z"/>
		<path d="M2-13c0,0.6-0.4,1-1,1s-1-0.4-1-1s0.4-1,1-1S2-13.6,2-13z"/>
	</g>
</pattern>
<g>
	<path style="fill-rule:evenodd;clip-rule:evenodd;fill:#74C5ED;" d="M167.6,22.1c0,0-30.2-24.7-88.1,11
		C30.1,63.6,35.3,85.4,35.3,85.4s-12.5,55.2,67.1,52.7c22.7-5.9,35.1-8,35.1-8s-17.6,32.1-26.6,36c0,0,13.7,5.2,29.2-15.8
		c15.6-21,10.5-21,10.5-21s42.6-15,44-31.6C196.1,81.2,203.4,55.8,167.6,22.1z"/>
	
		<path style="fill-rule:evenodd;clip-rule:evenodd;fill:none;stroke:#185D8C;stroke-width:3;stroke-linecap:round;stroke-linejoin:round;stroke-miterlimit:10;" d="
		M127.8,13.2c-9.8-2.5-19-1.9-28.3,2.7c-7.5,3.8-15.7,6.3-22.7,11C66.1,34,55.9,41.8,47.4,51.6c-3.9,4.5-7.8,9-10.6,14.2
		c-5.9,10.9-9.3,22.6-6.8,35c2,9.8,8.5,16.6,17.3,21.5c8.9,5,18.3,8,28.2,10.4c19.2,4.7,36.3-1,53.9-7.4c2.9,1.1,2.4,3.2,1.2,5.7
		c-5.1,10.5-12.9,19-21.5,26.7c-1.7,1.5-2.9,3-3.8,4.9"/>
	
		<path style="fill-rule:evenodd;clip-rule:evenodd;fill:none;stroke:#185D8C;stroke-width:3;stroke-linecap:round;stroke-linejoin:round;stroke-miterlimit:10;" d="
		M100,168.7"/>
	
		<path style="fill-rule:evenodd;clip-rule:evenodd;fill:none;stroke:#185D8C;stroke-width:3;stroke-linecap:round;stroke-linejoin:round;stroke-miterlimit:10;" d="
		M116.1,1.5c12.6,1.4,25.4,2.2,36.9,7.9c13,6.4,21,17.6,27.9,30c5.2,9.5,9.7,19.3,11.3,29.8c1.9,12.5,1.1,24.4-8.3,35.2
		c-9.4,10.9-20.8,16.9-34.3,19.6c-2.7,0.5-3.3,2.4-3.8,4c-2.7,10.2-8.9,18-16.6,24.8c-4.5,4-9.6,6.8-14.7,9.6
		c-1.7,0.9-7.1,1.5-8.7,1"/>
	
		<path style="fill-rule:evenodd;clip-rule:evenodd;fill:none;stroke:#185D8C;stroke-width:3;stroke-linecap:round;stroke-linejoin:round;stroke-miterlimit:10;" d="
		M156,48.2c-3.7-1.6-7.1,0.4-10.1,1.7c-5.3,2.2-11,2.8-16.2,5.1c-2.5,1.1-5.1,1.9-7.8,0.2c-0.9-0.5-2.5-0.1-3.9,0.8
		c-6,3.7-12.7,5.8-19.4,7.8c-2.5,0.7-5.5-0.1-8.2-0.4c-8.5-0.8-16.9-1.8-23.8,4.9"/>
	
		<path style="fill-rule:evenodd;clip-rule:evenodd;fill:none;stroke:#185D8C;stroke-width:3;stroke-linecap:round;stroke-linejoin:round;stroke-miterlimit:10;" d="
		M162.8,77.4c-3,0-5.9,0.8-8.8,1.3c-7.7,1.4-15.1,3.3-22.3,6.2c-1.9,0.8-3.3,0.8-4.4-0.2c-1.7-1.6-3.7-1.9-5.4-1.3
		c-6,2.1-12.4,1.5-18.5,2.8c-4.5,1-9.1,1.2-13.6,2.1c-6.9,1.4-12.2,6.1-17.1,11"/>
	
		<path style="fill-rule:evenodd;clip-rule:evenodd;fill:none;stroke:#185D8C;stroke-width:3;stroke-linecap:round;stroke-linejoin:round;stroke-miterlimit:10;" d="
		M175.5,94c-4.5-1.3-8.8,0.6-13.1,1.1c-5.4,0.6-10.6,1.8-16.1,2c-6.5,0.3-13,2.3-19.5,3.1c-8.8,1.1-16.8,4.5-24.8,7.8
		c-2,0.8-4.2,1.3-6.3,2"/>
	<g>
		<path style="fill-rule:evenodd;clip-rule:evenodd;fill:#F40000;stroke:#F40000;stroke-width:3;stroke-miterlimit:10;" d="
			M193.1,191.9c-1,0.4-1.6,0.5-2,0.9c-4.6,4-10.1,4.8-15.6,5.1c-2.7,0.1-4.6,1.3-6.1,3.5c-1.4,2.2-3.1,3.9-5.7,4.5
			c-3.9,1-6.6-0.3-8.1-4.3c-0.8-2.3-1.3-4.8-2-7.1c-0.2-0.6,0-1.7-0.9-1.7c-0.8-0.1-1.1,0.8-1.5,1.4c-1.3,2.2-2.5,4.4-3,7.1
			c-0.2,1.4-0.7,2.9-2.3,2.7c-1.7-0.2-0.8-1.7-0.9-2.7c0-2.3-1.2-2.2-2.5-1.3c-4,2.6-7.5,2-10.6-1.6c-0.7-0.8-1.3-0.8-2.2-0.4
			c-0.8,0.5-1.7,0.9-2.5,1.3c-5,2.1-7.9,0.2-8.1-5.6c-0.1-1.9,0.2-3.7,0.1-5.6c-0.1-1.2,0.3-3-0.9-3.3c-1.4-0.3-1.8,1.5-2.4,2.7
			c-1.1,2.2-1.9,4.5-2.1,7c-0.1,1.2-0.3,2.5-0.7,3.6c-0.5,1.2-1.3,2.7-2.8,2.2c-1.6-0.5-0.7-2.1-0.6-3.2c0.2-3.8,0.6-7.5,1-12.4
			c-3.2,3.4-3.8,7-5.3,10.1c-0.4,0.9-0.5,1.9-1,2.8c-1.3,2.3-3.1,2.1-4.5-0.1c-1.7-2.7-1.4-5.7-1.3-8.6c0-1.1,0.1-2.2,0.1-3.3
			c0-0.8,0.2-2-0.8-2.2c-0.9-0.2-1.4,0.8-1.8,1.5c-1.8,3.2-3.3,6.5-4.1,10.2c-0.2,1-0.3,2-0.9,2.8c-0.4,0.6-1.4,1-2.1,0.9
			c-0.7-0.1-0.9-1.1-0.8-1.9c0.1-2-0.2-3.9-1.6-5.7c-0.5,2.9-1,5.8-1.4,8.8c-0.2,1.5-0.2,3.3-2.2,3.1c-1.9-0.2-1.3-2-1.3-3.2
			c0-4.3,0.1-8.7,0-13c0-1.3,0-3-1.7-3.2c-1.6-0.2-2.1,1.4-2.5,2.6c-1.1,3.2-0.2,6.7-0.7,10c-0.2,1.6-0.2,3.2-2,3.4
			c-2.1,0.2-1.4-1.9-1.7-3c-0.8-3.1-1.5-6.3-2.2-9.4c-0.2-0.7,0.1-1.7-0.9-1.8c-0.8-0.1-1.1,0.8-1.3,1.5c-1.7,3.9-3,7.8-2.7,12.2
			c0.1,1.1,0,2.2-0.1,3.3c-0.1,1.1-1,1.9-1.8,1.9c-1.3,0-1.2-1.3-1.2-2.2c0.2-3.6,0.1-7.2-0.6-10.8c-0.1-0.7-0.1-1.7-0.9-1.8
			c-0.8-0.1-1,0.8-1.4,1.4c-1.8,3.5-2.5,7.5-3.2,11.4c-0.2,1-0.4,1.9-0.7,2.9c-0.3,1.2-0.9,2.3-2,2.1c-1.5-0.2-1-1.7-0.8-2.7
			c0.9-7.4,1.3-14.7-0.1-23c-2.7,3.3-5.6,5.3-8.5,7.4c-2.4,1.7-1.5,4.8-0.9,7.3c0.9,3.9,1.3,7.5-0.5,11.2c-3.1,6.6-8.5,8-13.7,3.2
			c-1.6-1.4-2.3-1.1-3.6,0.4c-7.8,9.3-12.3,9.1-19.5-0.8c-1,1.2-1.9,2.4-3,3.5c-0.4,0.4-1,0.7-1.5,0.2c-0.4-0.4-0.6-1.2-0.1-1.7
			c5.7-5.9,3.9-14.6,7.1-21.4c1.7-3.5,2.9-7.3,5.7-10.1c2.8-2.7,6.3-1.6,7.1,2.3c0.3,1.5,0.1,2.9-2,2.2c-3.3-1.1-5.5,0.9-6.8,3.7
			c-2.7,5.7-3.9,11.9-3.5,18.4c0.2,3.9,2.7,5.6,5.5,7c2.7,1.3,4.8-0.1,6.5-2.1c3-3.4,5.7-6.7,5.3-12.2c-0.6-6.9,2-13.1,6.8-18.1
			c1.9-2,3.5-2.4,5.3,0.4c3.2,4.8,7.4,4.6,10.9-0.2c0.3-0.4,0.5-0.8,0.8-1.2c1-1.7,2.3-3,4.3-2.2c1.7,0.7,1.7,2.5,1.7,4.1
			c0,2.1,0.1,4.1,0.8,6.1c1.4-0.4,1.6-1.6,2.2-2.5c1.3-2,2.5-3,4.1-0.2c1.2,2.2,2,1.4,2.7-0.5c0.4-1,0.9-2,1.4-3
			c1.4-2.6,3.9-2.8,5.3-0.2c1.3,2.4,2.1,1.6,3.2,0.1c3.5-4.5,4.1-4.4,7.6,0.3c0.4,0.6,0.8,1.3,1.6,0.5c2.3-2.4,3.5-0.3,4,1.6
			c1,3.6,1.9,2,3.1,0.2c1-1.5,2.1-2.9,3.4-4.3c2.5-2.8,4.7-2.2,5.8,1.5c0.8,2.4,0,4.9,0.1,7.4c0,0.9-0.5,2.3,0.8,2.5
			c1,0.2,1.6-1,1.9-1.9c1-2.8,2.2-5.4,4.2-7.6c1.2-1.3,2-3.6,3.9-3.1c2,0.5,0.7,3.1,1.5,4.6c1.3-0.2,1.8-1.5,2.6-2.3
			c2.6-2.6,4-2.2,5.3,1.3c1,2.6,0.8,5.4,0.8,8.1c0,2.1-0.9,4.8,2,5.6c1.9,0.6,5.9-2.6,6.6-4.9c1-3.2,1.8-6.5,4.7-8.4
			c1-0.7,2.2-1.9,3.4-0.7c1.2,1.1,0.7,2.5-0.1,3.7c-1.6,2.4-1.8,5.6-3.8,7.9c-1.2,1.3,0.6,4.2,2.4,4.2c2,0,6.3-3.3,7-5.4
			c0.4-1.2,0.2-3,1.4-3.2c1.6-0.3,1.4,2,2.6,3.1c1-1.3,1.9-2.6,2.9-3.9c1.6-2,2.9-2,3.7,0.7c0.9,3.1,1.6,6.2,2.5,9.3
			c1.1,3.5,3.4,4.8,6.1,3.9c2.4-0.8,5.5-5.7,4.6-7.8c-2.9-6.3-2.4-13.1-2.4-19.7c0-2.2-0.6-2.7-2.6-2.6c-5.1,0.2-10.1,1.5-15.2,0.2
			c-0.8-0.2-2.3,0.1-2.1-1.2c0.1-1.4,1.6-1.3,2.5-1.2c4.9,0.3,9.7,0.2,14.6-0.3c2.3-0.2,3.1-1.2,3.1-3.7c0.1-5.1,0.6-10.2,2.8-14.9
			c0.7-1.6,1.6-2.9,3.3-2.9c2,0.1,2.1,2.1,2.4,3.6c0.8,4.4,2,8.7,1.7,13.2c-0.2,2.8,0.8,4.1,3.7,3.3c8.7-2.3,18-2.2,26.5-5.8
			c0.8-0.3,2.2-0.6,2.3,0.7c0.1,1.3-0.9,1.9-2.3,2.2c-9,1.7-17.9,3.6-26.9,5.3c-2.2,0.4-2.7,1.5-2.9,3.7c-0.6,5.7-1.5,11.3-2.5,16.9
			c-0.3,1.9-0.1,2.8,1.8,2.9c6.2,0.2,11.5-2.1,16.3-6.1c1.4-1.2,1.4-3.1,2.2-4.5c0.8-1.2,1.5-2.5,2.3-3.7c0.7-1,1.6-1.6,2.7-0.8
			c1,0.8,0.5,1.8,0,2.6c-3,4.8-3.5,10.5-5.2,15.7c-0.7,2.1,0.1,2.7,1.7,3.1c2.4,0.6,4.7,1.3,7.2,0.8c0.6-0.1,1.2,0,1.3,0.8
			c0.1,0.8-0.6,0.9-1.2,1c-2.7,0.6-5.5,1-8.3,0.1c-2.2-0.7-4-0.6-5.5,1.6c-0.5,0.8-1.4,1.3-2.3,1.6c-2.6,1.2-6.7,0.2-7.9-1.9
			c-1.9-3.4,1.6-4.1,2.8-5.8c1.5-2.1,4.4-2.9,6.3-2.5C193.4,197.8,192.4,194.7,193.1,191.9z M41.8,202.6c0.3-5.6-1.1-9.8-3.2-13.9
			c-0.3-0.5-0.8-1.1-1.2-1.1c-0.9-0.1-0.9,0.9-1.1,1.6c-1.6,5-3.1,10.1-5.7,14.6c-0.7,1.2-0.4,2.3,0.3,3.4c2.6,4.1,7.3,4,9.5-0.2
			C41.2,205.4,41.5,203.5,41.8,202.6z M175,177c-0.1-1.7,0.9-4.2-2.1-4.2c-1.5,0-3.9-1-4.1,1.9c-0.3,4.8,0.3,9.6,1.1,14.4
			c0.1,0.7,0.5,1.6,1.3,1.6c1,0,1.2-1.1,1.4-1.8C173.4,184.9,174.2,181,175,177z M169.1,162.8c-0.1,1.2-0.3,2.5-0.3,3.7
			c0,1.5-0.7,3.7,1.6,3.6c1.8-0.1,4.1-0.2,4.3-3.2c0.2-4-0.2-7.9-1.2-11.8c-0.2-0.8-0.4-1.8-1.4-1.8c-1.1,0-1.5,0.9-1.9,1.9
			C169.3,157.6,169.1,160.2,169.1,162.8z M184.3,206.1c2.3,0.1,5.4-2.4,5.3-4.5c0-1.1-0.8-1.7-1.8-1.8c-1.8-0.1-5.7,2.7-5.7,4.2
			C182.2,205.5,183,206.2,184.3,206.1z M33.4,187c-2.2,3.4-4.3,6.9-4,12C32.3,195,33.4,191.2,33.4,187z"/>
		<path style="fill-rule:evenodd;clip-rule:evenodd;fill:#F40000;stroke:#F40000;stroke-width:3;stroke-miterlimit:10;" d="
			M230.7,149.7c-1.5-7.5,2.7-7.7,4.7-6.3c3.9,2.8,8,3.1,12.1,3.8c1.8,0.3,4.1,1,4.2,3.6c0.1,2.6-2.3,1.4-3.5,1.9
			c-1.5,0.6-2.4,2.1-3.2,3.7c-5.4,11.5-10.9,22.9-16.1,34.6c-1.5,3.5-1.7,7.8-3.3,11.5c-0.5,1.2-0.5,2.7-2,2.7
			c-1.5-0.1-1.4-1.8-1.8-3c-2.5-6.5,0.5-12.5,1.5-18.5c1.4-9,4-17.6,6-26.5C230.1,154.4,230.4,151.4,230.7,149.7z"/>
		<path style="fill-rule:evenodd;clip-rule:evenodd;fill:#F40000;stroke:#F40000;stroke-width:3;stroke-miterlimit:10;" d="
			M223.7,222.4c-2.1,1.4-4.4,2.6-6.4,0.6c-1.8-1.8-4.2-3.7-3.1-5.6c0-2.8,0.6-5.2,1.2-6.1c0.6-0.9,1.3-0.1,1.9,0.3
			c2.6,1.8,6,0.8,8.6,2.9c1.2,1,1.6,0.9,1.6,3.1c0,2.2-0.2,3.7-1.8,4.6c-0.8,0.4-1.3,0.1-2.1,0.4"/>
	</g>
	<defs>
		<filter id="Adobe_OpacityMaskFilter" filterUnits="userSpaceOnUse" x="34.5" y="13.8" width="161.7" height="152.9">
			<feFlood  style="flood-color:white;flood-opacity:1" result="back"/>
			<feBlend  in="SourceGraphic" in2="back" mode="normal"/>
		</filter>
	</defs>
	<mask maskUnits="userSpaceOnUse" x="34.5" y="13.8" width="161.7" height="152.9" id="SVGID_1_">
		<g style="filter:url(#Adobe_OpacityMaskFilter);">
			<path style="fill-rule:evenodd;clip-rule:evenodd;" d="M167.6,22.1c0,0-30.2-24.7-88.1,11C30.1,63.6,35.3,85.4,35.3,85.4
				s-12.5,55.2,67.1,52.7c22.7-5.9,35.1-8,35.1-8c-24.1,44,22.7,14.8-26.6,36c0,0,19.8,15.2,35.3-5.8c15.6-21,10.5-21,10.5-21
				s42.6-15,44-31.6C202.1,91.2,203.4,55.8,167.6,22.1z"/>
			<path style="fill-rule:evenodd;clip-rule:evenodd;fill:#FFFFFF;" d="M140.7,114.5c0,0,16-6,24-14s7-17,9-22s2-21,2-21l1-11l3-2
				l15,2c0,0,4.1,40,4.1,46s-8,19-9,22s-11,9-12,10s-11,4-15,6s-9,4-10,5s-2,5-4,7s-19.1,22-19.1,22l-3-18c0,0-3-2-2-2s3-8,4-10
				s2-9,2-9s-6,0-8,1s-9,3-11,4s-5,1-8,1s-16,2-28,0s-19-6-19-6s-12-4-14-6s-7-7-7-7s36,8,48,8s26-8,31-7S137.7,115.5,140.7,114.5z"
				/>
		</g>
	</mask>
	
		<pattern  id="SVGID_2_" xlink:href="#New_Pattern_Swatch_2" patternTransform="matrix(1 0 0 1 122.3872 205)"  style="mask:url(#SVGID_1_);">
	</pattern>
	<path style="opacity:0.5;mask:url(#SVGID_1_);fill-rule:evenodd;clip-rule:evenodd;fill:url(#SVGID_2_);" d="M167.6,22.1
		c0,0-30.2-24.7-88.1,11C30.1,63.6,35.3,85.4,35.3,85.4s-12.5,55.2,67.1,52.7c22.7-5.9,35.1-8,35.1-8s-17.6,32.1-26.6,36
		c0,0,13.7,5.2,29.2-15.8c15.6-21,10.5-21,10.5-21s42.6-15,44-31.6C196.1,81.2,203.4,55.8,167.6,22.1z"/>
	<path style="fill-rule:evenodd;clip-rule:evenodd;fill:#E1FBFF;" d="M139.7,27.5c0,0,19,0,22,7c1-1,2-2,5-3S151.7,13.5,139.7,27.5z
		"/>
</g>
</svg>
