<?xml version="1.0" encoding="utf-8"?>
<!-- Generator: Adobe Illustrator 16.0.0, SVG Export Plug-In . SVG Version: 6.00 Build 0)  -->
<!DOCTYPE svg PUBLIC "-//W3C//DTD SVG 1.1//EN" "http://www.w3.org/Graphics/SVG/1.1/DTD/svg11.dtd">
<svg version="1.1" id="Layer_1" xmlns="http://www.w3.org/2000/svg" xmlns:xlink="http://www.w3.org/1999/xlink" x="0px" y="0px"
	 width="243.1px" height="198.6px" viewBox="0 0 243.1 198.6" style="enable-background:new 0 0 243.1 198.6;" xml:space="preserve"
	>
<pattern  x="-478.8" y="-350.4" width="12" height="12" patternUnits="userSpaceOnUse" id="New_Pattern_Swatch_2" viewBox="1 -13 12 12" style="overflow:visible;">
	<g>
		<polygon style="fill:none;" points="1,-13 13,-13 13,-1 1,-1 		"/>
		<path d="M14-1c0,0.6-0.4,1-1,1s-1-0.4-1-1s0.4-1,1-1S14-1.6,14-1z"/>
		<path d="M2-1c0,0.6-0.4,1-1,1S0-0.4,0-1s0.4-1,1-1S2-1.6,2-1z"/>
		<path d="M14-5c0,0.6-0.4,1-1,1s-1-0.4-1-1s0.4-1,1-1S14-5.6,14-5z"/>
		<path d="M11-2c0,0.6-0.4,1-1,1S9-1.4,9-2s0.4-1,1-1S11-2.6,11-2z"/>
		<path d="M8-3c0,0.6-0.4,1-1,1S6-2.4,6-3s0.4-1,1-1S8-3.6,8-3z"/>
		<path d="M5-4c0,0.6-0.4,1-1,1S3-3.4,3-4s0.4-1,1-1S5-4.6,5-4z"/>
		<path d="M2-5c0,0.6-0.4,1-1,1S0-4.4,0-5s0.4-1,1-1S2-5.6,2-5z"/>
		<path d="M14-9c0,0.6-0.4,1-1,1s-1-0.4-1-1s0.4-1,1-1S14-9.6,14-9z"/>
		<path d="M11-6c0,0.6-0.4,1-1,1S9-5.4,9-6s0.4-1,1-1S11-6.6,11-6z"/>
		<path d="M8-7c0,0.6-0.4,1-1,1S6-6.4,6-7s0.4-1,1-1S8-7.6,8-7z"/>
		<path d="M5-8c0,0.6-0.4,1-1,1S3-7.4,3-8s0.4-1,1-1S5-8.6,5-8z"/>
		<path d="M2-9c0,0.6-0.4,1-1,1S0-8.4,0-9s0.4-1,1-1S2-9.6,2-9z"/>
		<path d="M14-13c0,0.6-0.4,1-1,1s-1-0.4-1-1s0.4-1,1-1S14-13.6,14-13z"/>
		<path d="M11-10c0,0.6-0.4,1-1,1s-1-0.4-1-1s0.4-1,1-1S11-10.6,11-10z"/>
		<path d="M8-11c0,0.6-0.4,1-1,1s-1-0.4-1-1s0.4-1,1-1S8-11.6,8-11z"/>
		<path d="M5-12c0,0.6-0.4,1-1,1s-1-0.4-1-1s0.4-1,1-1S5-12.6,5-12z"/>
		<path d="M2-13c0,0.6-0.4,1-1,1s-1-0.4-1-1s0.4-1,1-1S2-13.6,2-13z"/>
	</g>
</pattern>
<g>
	<path style="fill-rule:evenodd;clip-rule:evenodd;fill:#74C5ED;" d="M27.8,36.7c1,0,51.4-11.5,51.4-11.5l17-0.5l47.1-2.6l36.1-1.9
		l24,0.7l2,67.1l-1.6,19l3.1,32.1l-0.3,11l-12,0.6l-22-0.6l-56.2,4.4c0,0-38,0.9-40.1,1.8c-2,0.9-44.1,2.7-44.1,2.7l-2.7-10.1
		l-1.5-18.1l-0.3-24l1.7-23l0.9-31L27.8,36.7z"/>
	
		<pattern  id="SVGID_1_" xlink:href="#New_Pattern_Swatch_2" patternTransform="matrix(1.1189 -4.801682e-02 4.913332e-02 1.0341 1323.145 -43.5586)">
	</pattern>
	<path style="opacity:0.5;fill-rule:evenodd;clip-rule:evenodd;fill:url(#SVGID_1_);" d="M115,148l8-3c0,0,11-5,12-5s9-5,9-5l10-2
		l8-2l10-4l8-7l7-11l7-15l3-13l3-5v14l1,16v9l1,14l2,3c0,0,2,4,2,5s0,7,0,7l-1,5l-11,1h-34l-16,2l-17,1l-8,1l-11-1h-8l-5,2L115,148z
		"/>
	<path style="fill:none;stroke:#185D8C;stroke-width:3;stroke-linecap:round;stroke-linejoin:round;stroke-miterlimit:10;" d="
		M198.8,145.4c-7.9,0.2-15.9,0.3-23.8,0.8c-12.1,0.7-24.2,1.8-36.3,2.7c-6,0.4-12,0.8-18,1.2c-9.1,0.7-18.3,0.8-27.5,1.5
		c-9.7,0.7-19.3,1.5-29,2.4c-2.9,0.3-5.9,0.3-8.8,0.5c-9.4,0.5-18.8,0.9-28.2,1.3"/>
	
		<path style="fill-rule:evenodd;clip-rule:evenodd;fill:none;stroke:#185D8C;stroke-width:3;stroke-linecap:round;stroke-linejoin:round;stroke-miterlimit:10;" d="
		M199.2,17.5c-0.6,7.9,1.1,15.5,2.7,23.1c0.5,2.6-0.1,5.1,0.4,7.7c1.3,7.1,0.7,14.2,0.4,21.3c-0.4,11.1-1.3,22.1-1,33.2
		c0.2,7.9,1.2,15.9,1.5,23.8c0.2,6,1.1,12.1-0.4,18.2"/>
	
		<path style="fill-rule:evenodd;clip-rule:evenodd;fill:none;stroke:#185D8C;stroke-width:3;stroke-linecap:round;stroke-linejoin:round;stroke-miterlimit:10;" d="
		M24.8,90c-0.8,4.5-0.5,13.6,0,18.2c0.7,6.1-0.1,12.1,0.4,18.2c0.7,8.5,1.2,17,1.8,25.6c0.1,1.4,0,2.9,1.3,3.9"/>
	
		<path style="fill-rule:evenodd;clip-rule:evenodd;fill:none;stroke:#185D8C;stroke-width:3;stroke-linecap:round;stroke-linejoin:round;stroke-miterlimit:10;" d="
		M61.8,24c-10.7,1.7-26.5,4-37.5,5.9c0.3,4,0.5,8,0.8,11.9c0.5,7.3-0.4,20.6-0.5,27.9"/>
	
		<path style="fill-rule:evenodd;clip-rule:evenodd;fill:none;stroke:#185D8C;stroke-width:3;stroke-linecap:round;stroke-linejoin:round;stroke-miterlimit:10;" d="
		M149.5,117c-7,1.7-14.3,1.3-21.3,3c-12.7,3-25.3,6.3-37.3,11.4c-3.6,1.5-7.5,2.6-11,4.3c-1.6,0.7-2.9,0.7-4.5,0.5"/>
	
		<path style="fill-rule:evenodd;clip-rule:evenodd;fill:none;stroke:#185D8C;stroke-width:3;stroke-linecap:round;stroke-linejoin:round;stroke-miterlimit:10;" d="
		M148.8,116.7c-1.2-6.5-3.8-12.5-6-18.8c-5.5,1.8-10.7,3.9-15.6,6.7c-10.8,6.2-21.8,12.2-32.3,18.7c-6,3.7-12.3,6.9-17.9,11
		c-6.7,4.9-13.9,9.1-20.6,14l-4.6-5.4c-2.5-5-3.6-10.4-5.6-15.6c-4.2-10.5-9.9-20.2-15.4-30.1L15.7,75.7l19.3-11
		c8.8-7.6,17.4-15.5,26.7-22.6"/>
	
		<path style="fill-rule:evenodd;clip-rule:evenodd;fill:none;stroke:#185D8C;stroke-width:3;stroke-linecap:round;stroke-linejoin:round;stroke-miterlimit:10;" d="
		M69.5,36.8c4.5-3.4,11.4-6.7,16-9.7l32.4-19.3c3.2-2.1,3.9-1.8,5.9,1.6c2.4,4,3.3,8.5,5,12.8c1.2,3.1,3.5,5.5,5,8.5
		c5.7,11.7,8.1,24.4,11.7,36.7c2.3,7.9,4.5,15.7,7.9,23.3c-2.7,3.3-6.6,4.7-9.9,7.1"/>
	
		<path style="fill-rule:evenodd;clip-rule:evenodd;fill:none;stroke:#185D8C;stroke-width:3;stroke-linecap:round;stroke-linejoin:round;stroke-miterlimit:10;" d="
		M136.2,10.1c0,4.4,0,14.8-2.7,18.8"/>
	
		<path style="fill-rule:evenodd;clip-rule:evenodd;fill:none;stroke:#185D8C;stroke-width:3;stroke-linecap:round;stroke-linejoin:round;stroke-miterlimit:10;" d="
		M136.6,18.4c12.1-1.4,50.9-2.1,63-2"/>
	
		<path style="fill-rule:evenodd;clip-rule:evenodd;fill:none;stroke:#185D8C;stroke-width:3;stroke-linecap:round;stroke-linejoin:round;stroke-miterlimit:10;" d="
		M68.4,23.5c5-0.8,23.5-3.4,28.6-3.4"/>
	
		<path style="fill-rule:evenodd;clip-rule:evenodd;fill:none;stroke:#185D8C;stroke-width:3;stroke-linecap:round;stroke-linejoin:round;stroke-miterlimit:10;" d="
		M135.4,10c-3.6-0.8-5.8,2.2-8.9,2.9"/>
	<polygon style="fill-rule:evenodd;clip-rule:evenodd;fill:#E1FBFF;" points="18.7,76.5 47.2,58.3 60.6,46.7 119.7,9.4 152.3,91.4 
		143.1,97.1 112.7,109.2 63.9,137.8 56.7,143.6 	"/>
	<path style="fill-rule:evenodd;clip-rule:evenodd;fill:#E1FBFF;" d="M87.4,19.4c0,0-4.7-11.1-5.6-13.2c-0.9-2-5.8-6.2-8.8-6.3
		c-3-0.1-7,0.8-8.1,4.8c-1.1,4-4.2,6.9-3.3,11.9c0.9,5,1,33,2,35.1c0.9,2,4.8,27.4,4.4,30.7c-0.4,3.4,4.2,15.5,7.2,17.6
		s9.9,4.3,12.9,2.4c3.1-1.9,6.3-13.2,7-17.5c0.7-4.3-0.9-18.4-1.9-19.4c-1-1-1.7-10.4-1.7-10.4s-2.1,3.3-2.1,5.3
		c-0.1,2,1.4,20,1.3,23c-0.1,3-1.3,11-2.4,12.9S85,98.4,83,98.3s-6.3-6.2-8.1-12.2c0,0-2.8-25.1-3.7-27.1c-0.9-2-2-33.1-2-33.1
		s-1.7-10.1-0.6-12c1.1-2,5.1-4.9,6.1-4.8c1,0,3,0.1,3.9,3.1c0.9,3,0.8,8,0.8,8L87.4,19.4z"/>
	<g>
		
			<path style="fill-rule:evenodd;clip-rule:evenodd;fill:none;stroke:#185D8C;stroke-width:3;stroke-linecap:round;stroke-linejoin:round;stroke-miterlimit:10;" d="
			M85.6,23C84.1,14.6,80,7.3,74.8,3.8c-3-2-6.2-1.9-8.8,0c-3.8,2.7-5.9,6.5-6.1,10.8l1.8,27.2c0.7,4.9,1.1,10.8,1.7,14.3
			c0.9,5.2,1.4,10.5,2.6,15.7c1,4.5,1.2,9.1,1.9,13.6c1.1,7,2.8,13.7,9.1,18.6c5.6,4.3,13.3,4.9,16.5-3.9C95,96,96,91.8,95,87.2
			c-0.7-3.5,0.2-7.2-0.5-10.8l-4-18.9c-1.1-1.7-2,1.8-1.9,3.5c0.7,7.4,1.4,14.9,1.8,22.4c0.2,4.6,0.5,9.4-0.7,14
			c-0.9,3.4-4.1,4.9-7.3,3.5c-4.8-2.2-6.4-6.4-7.2-10.8c-1.9-9.7-3.2-19.6-5.3-29.3c-2.4-11.3-2.7-22.8-2.8-34.2"/>
		
			<path style="fill-rule:evenodd;clip-rule:evenodd;fill:none;stroke:#185D8C;stroke-width:3;stroke-linecap:round;stroke-linejoin:round;stroke-miterlimit:10;" d="
			M78.6,23.7c-0.7-2.8-1.4-5.6-2.2-8.4c-0.5-1.7-1.1-3.5-3.6-3.5c-2.7-0.1-3.7,1.5-4.4,3.5c-1.2,3.4-1.1,7-1.1,10.5"/>
	</g>
	<defs>
		<filter id="Adobe_OpacityMaskFilter" filterUnits="userSpaceOnUse" x="54.4" y="7.1" width="41.2" height="106.2">
			<feFlood  style="flood-color:white;flood-opacity:1" result="back"/>
			<feBlend  in="SourceGraphic" in2="back" mode="normal"/>
		</filter>
	</defs>
	<mask maskUnits="userSpaceOnUse" x="54.4" y="7.1" width="41.2" height="106.2" id="SVGID_2_">
		<g style="filter:url(#Adobe_OpacityMaskFilter);">
			<g>
				<path style="fill-rule:evenodd;clip-rule:evenodd;stroke:#000000;stroke-width:2;stroke-miterlimit:10;" d="M84.9,23
					c-1.5-8.4-5.7-15.7-11.1-19.2c-3.1-2-6.3-1.9-9,0c-4,2.7-6,6.5-6.3,10.8l1.8,27.2c0.8,4.9,1.2,10.8,1.8,14.3
					c0.9,5.2,1.5,10.5,2.7,15.7c1,4.5,1.2,9.1,2,13.6c1.1,7,2.9,13.7,9.3,18.6c5.8,4.3,13.6,4.9,17-3.9c1.6-4.2,2.6-8.4,1.6-12.9
					c-0.7-3.5,0.3-7.2-0.5-10.8L90,57.5c-1.1-1.7-2.1,1.8-1.9,3.5c0.7,7.4,1.5,14.9,1.9,22.4c0.2,4.6,0.5,9.4-0.7,14
					c-0.9,3.4-4.2,4.9-7.5,3.5c-4.9-2.2-6.6-6.4-7.4-10.8c-2-9.7-3.3-19.6-5.4-29.3c-2.5-11.3-2.7-22.8-2.9-34.2"/>
				<path style="fill-rule:evenodd;clip-rule:evenodd;stroke:#000000;stroke-width:2;stroke-miterlimit:10;" d="M77.8,23.7
					c-0.8-2.8-1.4-5.6-2.3-8.4c-0.5-1.7-1.1-3.5-3.7-3.5c-2.8-0.1-3.8,1.5-4.5,3.5c-1.3,3.4-1.1,7-1.1,10.5"/>
			</g>
			<path style="fill-rule:evenodd;clip-rule:evenodd;" d="M63,9c-0.7-0.7-14,0-14,0l1,11l1,6l5-1l1-1l4-1C61,23,66,12,63,9z"/>
			<path style="fill-rule:evenodd;clip-rule:evenodd;" d="M88,26l-11,3l-4-4l1-4c0,0,5,0,8,0s7,0,7,0L88,26z"/>
		</g>
	</mask>
	
		<pattern  id="SVGID_3_" xlink:href="#New_Pattern_Swatch_2" patternTransform="matrix(1.1189 -4.801682e-02 4.913332e-02 1.0341 1323.145 -43.5586)"  style="mask:url(#SVGID_2_);">
	</pattern>
	<path style="opacity:0.5;mask:url(#SVGID_2_);fill-rule:evenodd;clip-rule:evenodd;fill:url(#SVGID_3_);" d="M83.8,26.5
		c0,0-5.8-11.3-6.9-13.3c-1.2-2.1-6.8-6.1-10.2-6c-3.4,0.1-7.8,1.2-8.9,5.3c-1.1,4.2-4.4,7.3-3.2,12.5c1.2,5.2,2.8,34.1,3.9,36.2
		c1.2,2.1,6.8,28.1,6.5,31.6c-0.3,3.5,5.5,15.9,8.9,17.9c3.4,2,11.3,4,14.6,1.8c3.3-2.1,6.4-13.9,7-18.4c0.5-4.5-1.9-18.9-3.1-20
		C91.3,73,90,63.3,90,63.3s-2.2,3.5-2.1,5.6c0,2.1,2.6,20.7,2.6,23.8c0,3.1-0.9,11.4-2,13.5c-1.1,2.1-3.3,2.1-5.6,2.2
		c-2.2,0-7.4-6.1-9.7-12.3c0,0-4.3-25.8-5.5-27.9c-1.2-2.1-3.9-34.1-3.9-34.1s-2.4-10.3-1.3-12.4c1.1-2.1,5.5-5.3,6.6-5.3
		c1.1,0,3.4-0.1,4.5,3c1.2,3.1,1.2,8.3,1.2,8.3L83.8,26.5z"/>
	<path style="fill-rule:evenodd;clip-rule:evenodd;fill:#F40000;stroke:#F40000;stroke-width:3;stroke-miterlimit:10;" d="
		M179.9,135.9c0,0.4-0.3,1,0.2,1.2c4.4,2.7,3.2,7.3,3.4,11.3c0.2,4.3,0.2,8.6-1,12.8c-0.4,1.6,0,2.3,1.7,2.3
		c9.1,0.1,18.1-0.1,27.2-1.6c4.1-0.7,5.3-2.5,6-6.5c0.9-5,2.1-9.9,2.1-15c0-3.7,2.8-1.7,3-1.3c2.8,5.3,8.2,4.6,12.5,6
		c2.6,0.8,4.9,1.5,6.6,3.8c-0.1,0.6-0.5,0.9-0.9,0.7c-3.8-1.9-4.9,1.3-6.4,3.7c-4.9,8-9.1,16.5-13,25.1c-0.5,1.2-0.9,2.1-2.4,2.7
		c-2.6,1-2.4,4.8-4.9,6.2c0.5,0.8,1.1,1.6,1.6,2.5c1.4,2.1,0.7,3.3-1.4,4.1c-0.4,0.1-0.8,0.3-1.3,0.3c-2.4,0.1-5.5,0.8-6.4-2.4
		c-0.8-3,2.3-3.7,4.2-4.8c1.2-0.7,1.9-1.1,2-2.6c0.2-6.3,1.1-12.6,2.4-18.8c0.4-1.7-0.2-2.6-2.1-2.3c-9.9,1.6-19.8,2.2-29.8,1.9
		c-1.1,0-2.4-0.2-2.6,1.4c-0.6,4.5-3.1,8.2-4.3,12.4c-0.1,0.4,0,0.9-0.1,1.8c3.9-2.6,6.1-5.8,7-10c0.9-4,1.4-4.2,4.4-1.4
		c3.7,3.6,4.1,8.5,3.6,13.2c-0.2,2.7,0.7,3.3,2.6,3.5c2.1,0.2,4.2,0.2,6.3,0.6c-3.3,1.3-6.7,0.8-10,0c-1.5-0.3-2.8-0.8-4.3-0.1
		c-1.1,0.5-2.4,0.6-3.5,0.1c-1.6-0.7-3.6-1.6-3.2-3.7c0.4-1.8,2.5-2.5,4.3-2.4c1.7,0.1,3.3,0.7,5.3,2.2c-0.3-4,1.1-7.6-1.7-10.7
		c-0.7-0.8-1.3-1.3-1.9,0.1c-1.7,4.6-4.8,8.1-8.9,10.3c-3,1.6-6.4,3.1-9.9,3.1c-1.9,0-2.2-1.9-2.7-3.4c-0.1-0.3-0.2-0.7-0.2-1
		c-0.4-1.6,0.1-4.5-1.9-4.4c-1.7,0.1-3.3,2.3-3.9,4.6c-0.3,1.1-0.5,2.2-0.7,3.3c-0.2,1.1-0.8,1.9-2,1.8c-1.7-0.2-0.8-1.4-0.9-2.3
		c0-0.4-0.1-0.8-0.3-1.8c-0.9,1.7-1.3,2.9-2.1,3.9c-1.7,2.3-3.9,3.7-6.8,2.1c-1.3-0.7-2.4-0.5-3.7,0.1c-3,1.3-4.2,0.4-4.4-3
		c-0.2-2.2-0.2-4.4-0.6-6.7c-2.1,2.6-2.3,5.9-2.6,9c-0.1,1.3,0.1,2.7-1.6,2.7c-1.6,0-1.1-1.6-1.3-2.6c-0.3-1.8,0.4-3.8-0.8-5.6
		c-1.6,1-1.3,2.8-1.8,4.2c-0.4,1.2-1.1,1.7-2.2,1.5c-1.3-0.3-0.7-1.4-0.6-2.2c0.2-1.3,0.6-2.6,0.8-4c0.1-0.6,0.2-1.5-0.6-1.7
		c-0.8-0.2-1.1,0.6-1.2,1.3c-0.6,3.2-2.2,5.9-4.3,8.3c-2.1,2.5-5,1.9-6.2-1.2c-1.3-3.2-1.1-6.7-1.5-10c-0.1-1.1-0.1-2.7-1.4-2.7
		c-1.4-0.1-1.2,1.6-1.4,2.6c-0.7,4.1-2.4,7.8-4.6,11.2c-1.9,2.9-3.6,3.4-6.3,1.4c-1.5-1.1-2.6-1.3-4,0c-2.1,2-4.8,2.6-7.4,3.1
		c-3.2,0.6-5.8-0.1-7.6-3.1c-0.9-1.4-1.7-2.2-3.7-1.4c-2.3,1-4-0.7-5.2-2.5c-1.3-1.8-2.1-2.2-3.9-0.7c-1.8,1.5-4,2.7-5.9-0.1
		c-0.8-1.1-1.4-0.2-1.8,0.4c-2.1,2.8-4.5,2.5-6.7,0.5c-1.5-1.3-2-0.6-2.5,0.8c-0.1,0.2-0.2,0.4-0.3,0.6c-4,7.6-9.5,8-14.2,1
		c-1.5-2.3-2-1.2-3.1,0.2c-3.5,4.5-6.2,4.8-10.4,1c-1-0.9-1.4-0.8-2.3,0.1c-1.1,1.2-2,2.7-3.5,3.5c-0.4,0.2-0.8,0.3-1.2,0.5
		c-2.1,0.7-4-2.1-5.1-1.5c-1.5,0.8-2.2,3.3-4.4,3.4c-0.3,0-0.6-0.2-1.3-0.5c3.8-1.6,4.5-4.9,5.1-8.2c0.8-4.4,2.4-8.5,5.3-11.9
		c2.8-3.2,5.1-2.9,7.2,0.8c1.1,1.9,2.2,3.9,1.4,6.4c-0.2,0.6,0.1,1.3,0.2,2c0.4,4,2.3,6.2,5,5.7c2.2-0.4,5-5,4.2-7.6
		c-1.1-3.9-1.4-7.8-1.1-11.8c0.2-2.7-0.9-3.5-3.4-2.3c-1.4,0.7-2.9,1-4.3,1.5c-1,0.3-2.2,0.4-2.5-0.8c-0.2-1.1,1-1.2,1.9-1.4
		c1.5-0.4,2.9-1,4.4-1c3.8-0.1,5-2.5,5.4-6c0.2-1.9,0.9-3.7,1.4-5.6c0.3-0.9,0.8-1.8,1.7-1.8c0.9,0,0.9,1.1,1.1,1.9
		c0.7,2.1,1.5,4.2,1.5,6.6c0,2.1,1,2.8,2.9,2.5c0.2,0,0.4,0,0.6-0.1c6.5-0.5,6.5-0.5,7.8-7.3c0-0.2,0.1-0.5,0.1-0.7
		c0.6-1.4,0.4-3.7,2.4-3.5c1.7,0.2,1.5,2.3,1.7,3.7c1,6.9,1,6.7,7.5,6.4c9-0.4,18-0.6,26.9-0.8c0.4,0,0.9,0,1.2,0.7
		c-0.8,1.1-2.2,0.9-3.3,0.9c-9.4-0.2-18.8,1.3-28.2,1.2c-2.6,0-3.5,0.9-3.7,3.7c-0.2,3.4-1,6.7-1.7,10c-0.6,2.7,0.1,4.9,2.3,6.1
		c2.3,1.3,3.5-0.9,4.6-2.6c1.2-1.7,2.2-3.7,3.5-5.3c1.4-1.7,3.2-3.1,5.4-2.2c2,0.8,3.3,2.5,2.7,5.1c-0.3,1.3,0.5,2.4,1,3.5
		c0.8,1.5,1.8,3.3,3.5,3.2c1.6-0.1,2.2-2,2.7-3.5c1.1-3.4,3.4-5.7,6.1-7.8c2-1.6,3.2-0.5,4,1.5c0.3,0.7,0.4,1.3-0.3,1.8
		c-0.5,0.3-1,0.5-1.4-0.1c-1.6-1.8-2.8-0.3-3.3,0.9c-1.2,2.6-4.1,4.7-2.2,8.3c1.9,3.7,5.4,4.8,9.8,2.8c1.5-0.7,2.8-1.8,4.1-2.7
		c1-0.7,0.9-1.5,0.6-2.6c-3.7-12.3-1.1-23.6,5.1-34.4c0.9-1.6,2.2-2.1,3.9-1.7c1.6,0.4,1.8,1.9,1.8,3.3c0,8,0.3,16.1-2.1,23.9
		c-0.9,2.8-1.3,5.7-3.5,7.8c-1.5,1.4-0.5,3.5,0.2,4.2c1,1,2-0.8,2.7-1.7c2.3-2.8,3.6-6.2,4-9.8c0.3-2.5,1.2-5.4,3.7-5.3
		c2.2,0.1,3.2,2.9,3.7,5.4c0.5,2.7,0.2,5.5,1.5,8c1.4,2.7,2.3,2.8,3.6,0.1c1.4-2.8,2.3-5.8,3.7-8.7c0.6-1.2,1.1-3,2.9-2.8
		c1.4,0.1,1.5,1.7,1.9,2.8c0.7,2,3.1,0.6,4.3,2.1c0.4,0.5,0.9-1.2,1.3-2c0.7-1.2,1.2-3,2.9-2.8c2,0.2,1.8,2.3,2,3.8
		c0.3,2,0.4,4.1,0.6,6.1c0.1,0.9-0.1,2.3,1.5,2c1.1-0.2,1.5-1.1,1.4-2.3c-0.3-3.3,0.1-6.3,2.3-8.9c0.5-0.6,1-1.2,1.6-1.7
		c0.8-0.6,1.7-1.3,2.7-0.6c0.8,0.6,0.7,1.6,0.5,2.5c-0.3,2.7-1.2,5.3-2.5,7.7c-0.6,1.2-1.5,2.6,0.3,3.4c1.6,0.7,2.4-0.7,2.9-2
		c0.6-1.5,0.7-3.1,1.3-4.5c1-2.1,1.6-5.3,5.2-3.3c1.1,0.6,1.9-0.8,2.8-1.4c3.5-2.4,4.6-2.1,6.2,2.1c0.5,1.2,0.5,2.6,0.7,4
		c0.1,1,0.5,1.7,1.5,2c0.8,0.2,1.5-0.1,2.1-0.7c0.9-0.9,0.1-1.6-0.2-2.4c-1.8-3.8-1.4-7.8-0.8-11.6c0.5-3.2-0.4-4.2-3.5-4.1
		c-10.7,0.1-21.4-0.8-32.9-1.7c2.5-1.8,4.6-1.6,6.6-1.4c9.1,1,18.3,1.7,27.5,1.6c2.5,0,3.4-0.7,3.8-3.2c1-5.4,2.2-10.9,3.9-16.1
		c0.5-1.5,1.1-3,2.1-4.2 M48.4,173.4c0.4-6.5,2.1-7-5.6-5.9c-0.5,0.1-1.1,0.1-1.6,0.2c-1.7,0.2-2.6,1.1-2.9,3c-0.5,3.7-1.3,7.3-2,11
		c-0.7,4,1.9,9,5.3,10.7c1.3,0.7,2.5,0.5,3.6-0.4c2.8-2.1,4.5-7.4,3.6-10.8C48.1,178.5,47.8,175.8,48.4,173.4z M104.3,163.2
		c0.1-2.9,0.2-5.6,0.3-8.4c0-0.9,0.2-2.1-0.7-2.4c-1.2-0.5-1.5,1-2.1,1.6c-1.7,1.9-2.2,4.4-3.1,6.7c-2.8,7.1-3.2,14.4-1.8,21.9
		c0.2,0.8,0.3,1.8,1,2c0.9,0.3,1.6-0.6,2.1-1.2c1.7-2,2.5-4.4,3-7C103.8,171.9,104.4,167.5,104.3,163.2z M176.4,163.7
		c2.2,0.6,3.2-0.7,3.7-3.3c1-5.7,1.4-11.4,0.7-17.1c-0.1-1,0.1-2.4-1-2.7c-1.4-0.4-1.7,1.2-2.1,2.1c-2.4,6-3.6,12.3-4.4,18.7
		C172.9,163.7,174.5,163.6,176.4,163.7z M20.2,184.3c0.3-4.1-0.9-5.2-3.8-4.1c-3,1.1-5.9,7.5-4.8,10.5c0.9,2.7,3.3,3.2,5.3,1.2
		C19.1,189.7,19.8,186.7,20.2,184.3z M178.2,167.3c0.2-0.8,0.4-2-0.6-1.9c-1.7,0.1-3.8-0.4-5.1,1.2c-1.4,1.7-1.8,8.9-0.8,10.8
		c0.8,1.6,1.8,1.7,2.6,0.2C176.1,174.4,177.5,171,178.2,167.3z M34,179.9c1.6-3.6,2.2-6.5,2.2-9.5c0-0.8,0-1.7-1-1.8
		c-0.9-0.1-1.3,0.7-1.5,1.5C32.8,173.1,33,176.1,34,179.9z M68.2,181.3c0.2-1.3-0.2-2.9-1.2-2.7c-2.4,0.4-2.5,3-3.2,4.9
		c-0.3,0.9-0.1,2,1,2C67.3,185.4,67.6,183.1,68.2,181.3z M51.3,177.6c0.8-3.4,1.3-6.1,1.3-8.9c0-0.6,0.1-1.2-0.6-1.5
		c-0.5-0.2-0.9,0-1,0.5C50.9,170.8,49.9,173.9,51.3,177.6z M148.1,176.5c-0.1-0.5-0.1-1.1-0.4-1.6c-0.2-0.3-0.9-0.2-1.1,0.2
		c-1.1,1.9-2.4,3.8-2.2,6.2c0,0.5,0.6,0.7,1,0.4C147.2,180.6,147.6,178.6,148.1,176.5z M36.6,163.7c-0.1-1,0.4-2.8-0.9-2.7
		c-1.5,0-1,1.9-1.2,3c-0.2,0.8-0.5,2,0.8,2C36.8,166.1,36.5,164.8,36.6,163.7z"/>
	
		<pattern  id="SVGID_4_" xlink:href="#New_Pattern_Swatch_2" patternTransform="matrix(1.1189 -4.801682e-02 4.913332e-02 1.0341 1323.145 -43.5586)">
	</pattern>
	<path style="opacity:0.5;fill-rule:evenodd;clip-rule:evenodd;fill:url(#SVGID_4_);" d="M57,149l18-11l13-9l17-11l17-9l13-7l9-3
		l10-7l1-1l-7-17l-4-15l-6-21l-3-9l-8-17l3-2l6,13c0,0,2,10,3,11s6,15,6,15l3,7l3,11l3,9l3,9l1,5l3,5l-1,4l-11,4l-12,4l-12,7l-8,5
		l-13,7l-18,10L57,149z"/>
	
		<pattern  id="SVGID_5_" xlink:href="#New_Pattern_Swatch_2" patternTransform="matrix(1.1189 -4.801682e-02 4.913332e-02 1.0341 1323.145 -43.5586)">
	</pattern>
	<path style="opacity:0.5;fill-rule:evenodd;clip-rule:evenodd;fill:url(#SVGID_5_);" d="M79,137l29-10l17-5l10-2l7-1l8-1h1l-3-9
		l-1-5h2l3,7l2,7l1,3l-10,2l-21,3l-11,1l-9,4l-11,4l-4,1c0,0-5,0-6,1S79,137,79,137z"/>
	
		<pattern  id="SVGID_6_" xlink:href="#New_Pattern_Swatch_2" patternTransform="matrix(-1.1178 6.986500e-02 -6.932019e-02 -1.0329 -15390.7344 -14103.2461)">
	</pattern>
	<path style="opacity:0.3;fill-rule:evenodd;clip-rule:evenodd;fill:url(#SVGID_6_);" d="M90.2,123l-14.8,9.3l-8.9,7.2
		c0,0-2,0-4,1.1c-2,1-5.9,4.1-5.9,4.1l-2,1c0,0-4.2-7.9-4.2-8.9c0-1-2.1-7-2.1-7s-3.1-4.9-4.1-5.9c-1-1-2.1-7-2.1-7l-2.1-3l5,1.9
		l4.1,2.9l5.1,2.9c0,0,2,0,4,0.9c2,1,9,1.8,9,1.8S77.3,127.3,90.2,123z"/>
</g>
</svg>
