<?xml version="1.0" encoding="utf-8"?>
<!-- Generator: Adobe Illustrator 16.0.0, SVG Export Plug-In . SVG Version: 6.00 Build 0)  -->
<!DOCTYPE svg PUBLIC "-//W3C//DTD SVG 1.1//EN" "http://www.w3.org/Graphics/SVG/1.1/DTD/svg11.dtd">
<svg version="1.1" id="Layer_1" xmlns="http://www.w3.org/2000/svg" xmlns:xlink="http://www.w3.org/1999/xlink" x="0px" y="0px"
	 width="274.1px" height="185.5px" viewBox="0 0 274.1 185.5" style="enable-background:new 0 0 274.1 185.5;" xml:space="preserve"
	>
<pattern  x="-462.9" y="-357" width="12" height="12" patternUnits="userSpaceOnUse" id="New_Pattern_Swatch_2" viewBox="1 -13 12 12" style="overflow:visible;">
	<g>
		<polygon style="fill:none;" points="1,-13 13,-13 13,-1 1,-1 		"/>
		<path d="M14-1c0,0.6-0.4,1-1,1s-1-0.4-1-1s0.4-1,1-1S14-1.6,14-1z"/>
		<path d="M2-1c0,0.6-0.4,1-1,1S0-0.4,0-1s0.4-1,1-1S2-1.6,2-1z"/>
		<path d="M14-5c0,0.6-0.4,1-1,1s-1-0.4-1-1s0.4-1,1-1S14-5.6,14-5z"/>
		<path d="M11-2c0,0.6-0.4,1-1,1S9-1.4,9-2s0.4-1,1-1S11-2.6,11-2z"/>
		<path d="M8-3c0,0.6-0.4,1-1,1S6-2.4,6-3s0.4-1,1-1S8-3.6,8-3z"/>
		<path d="M5-4c0,0.6-0.4,1-1,1S3-3.4,3-4s0.4-1,1-1S5-4.6,5-4z"/>
		<path d="M2-5c0,0.6-0.4,1-1,1S0-4.4,0-5s0.4-1,1-1S2-5.6,2-5z"/>
		<path d="M14-9c0,0.6-0.4,1-1,1s-1-0.4-1-1s0.4-1,1-1S14-9.6,14-9z"/>
		<path d="M11-6c0,0.6-0.4,1-1,1S9-5.4,9-6s0.4-1,1-1S11-6.6,11-6z"/>
		<path d="M8-7c0,0.6-0.4,1-1,1S6-6.4,6-7s0.4-1,1-1S8-7.6,8-7z"/>
		<path d="M5-8c0,0.6-0.4,1-1,1S3-7.4,3-8s0.4-1,1-1S5-8.6,5-8z"/>
		<path d="M2-9c0,0.6-0.4,1-1,1S0-8.4,0-9s0.4-1,1-1S2-9.6,2-9z"/>
		<path d="M14-13c0,0.6-0.4,1-1,1s-1-0.4-1-1s0.4-1,1-1S14-13.6,14-13z"/>
		<path d="M11-10c0,0.6-0.4,1-1,1s-1-0.4-1-1s0.4-1,1-1S11-10.6,11-10z"/>
		<path d="M8-11c0,0.6-0.4,1-1,1s-1-0.4-1-1s0.4-1,1-1S8-11.6,8-11z"/>
		<path d="M5-12c0,0.6-0.4,1-1,1s-1-0.4-1-1s0.4-1,1-1S5-12.6,5-12z"/>
		<path d="M2-13c0,0.6-0.4,1-1,1s-1-0.4-1-1s0.4-1,1-1S2-13.6,2-13z"/>
	</g>
</pattern>
<g>
	<defs>
		<filter id="Adobe_OpacityMaskFilter" filterUnits="userSpaceOnUse" x="623.2" y="819.6" width="87.9" height="133.9">
			<feFlood  style="flood-color:white;flood-opacity:1" result="back"/>
			<feBlend  in="SourceGraphic" in2="back" mode="normal"/>
		</filter>
	</defs>
	<mask maskUnits="userSpaceOnUse" x="623.2" y="819.6" width="87.9" height="133.9" id="SVGID_1_">
		<g style="filter:url(#Adobe_OpacityMaskFilter);">
			<polygon style="fill-rule:evenodd;clip-rule:evenodd;" points="661.1,896.5 672.1,912.5 678.1,919.5 680.1,919.5 670.1,905.5 
				662.1,894.5 			"/>
			<path style="fill-rule:evenodd;clip-rule:evenodd;" d="M663.1,947.5h10l-23-33C650.1,914.5,662.1,946.5,663.1,947.5z"/>
			<polygon style="fill-rule:evenodd;clip-rule:evenodd;" points="675.1,892.5 684.1,881.5 685.1,882.5 			"/>
			<polygon style="fill-rule:evenodd;clip-rule:evenodd;" points="698.1,866.5 689.1,875.5 690.1,878.5 			"/>
			<polygon style="fill-rule:evenodd;clip-rule:evenodd;fill:#595959;" points="628.1,905.5 648.1,882.5 655.1,868.5 663.1,855.5 
				670.1,852.5 651.1,884.5 637.1,900.5 630.1,908.5 			"/>
		</g>
	</mask>
	<path style="mask:url(#SVGID_1_);fill-rule:evenodd;clip-rule:evenodd;fill:#74C5ED;" d="M623.2,826.1c1.5-0.4,20.4-6.7,26.2-5.9
		c5.8,0.8,20.7,1.6,21.5,1.5c0.8,0,26.8-2.3,29.8-2.1c3,0.1,10.3,0.9,10.3,0.9l-8.4,83.6c0,0,0.3,26.8,0,27.9s-4.7,21.1-4.7,21.1
		s-14.7-1.4-17.1-1.4c-2.4,0-32,1.3-36.1,1.6c-4.1,0.3-13.5,0.1-13.5,0.1l-2.6-0.7L623.2,826.1z"/>
	<pattern  id="SVGID_2_" xlink:href="#New_Pattern_Swatch_2" patternTransform="matrix(1 0 0 1 176.0269 99.46)">
	</pattern>
	<path style="opacity:0.5;fill-rule:evenodd;clip-rule:evenodd;fill:url(#SVGID_2_);" d="M632.1,844.5c0,0,7,6,8,7s7,6,7,6l5,4l3-1
		l-6-7l-12-9l-4-6C633.1,838.5,628.1,840.5,632.1,844.5z"/>
	<pattern  id="SVGID_3_" xlink:href="#New_Pattern_Swatch_2" patternTransform="matrix(1 0 0 1 176.0269 99.46)">
	</pattern>
	<path style="opacity:0.5;fill-rule:evenodd;clip-rule:evenodd;fill:url(#SVGID_3_);" d="M633.1,870.5l-2,3c0,0,2,3,4,5s6,3,6,3
		l-1-4C640.1,877.5,633.1,869.5,633.1,870.5z"/>
	<pattern  id="SVGID_4_" xlink:href="#New_Pattern_Swatch_2" patternTransform="matrix(1 0 0 1 176.0269 99.46)">
	</pattern>
	<path style="opacity:0.5;fill-rule:evenodd;clip-rule:evenodd;fill:url(#SVGID_4_);" d="M665.1,830.5c0,0,3,3,4,4s4,0,4,0l-1-2
		C672.1,832.5,667.1,827.5,665.1,830.5z"/>
	<path style="fill-rule:evenodd;clip-rule:evenodd;fill:#74C5ED;" d="M570.8,897.9c0,0,3.4,8.8,8.2,10.4c4.7,1.6,10.6,2.2,12.3,1.6
		c1.7-0.6,0-2.5,0-2.5S572.7,900.1,570.8,897.9z"/>
	<pattern  id="SVGID_5_" xlink:href="#New_Pattern_Swatch_2" patternTransform="matrix(1 0 0 1 176.0269 99.46)">
	</pattern>
	<path style="opacity:0.5;fill-rule:evenodd;clip-rule:evenodd;fill:url(#SVGID_5_);" d="M628.1,952.5h26h13h24l6,1c0,0-3-5-4-5
		s-12-4-12-4l-20-1l-20-9l-8-6l-5-20l-3-3L628.1,952.5z"/>
	<pattern  id="SVGID_6_" xlink:href="#New_Pattern_Swatch_2" patternTransform="matrix(1 0 0 1 176.0269 99.46)">
	</pattern>
	<path style="opacity:0.5;fill-rule:evenodd;clip-rule:evenodd;fill:url(#SVGID_6_);" d="M569.1,897.4c0,0,3,9,7,11s13,3,14,3
		s1.1-4.1,1.1-4.1L569.1,897.4z"/>
	<path style="fill-rule:evenodd;clip-rule:evenodd;fill:#74C5ED;" d="M566.6,886.9c0,0,10.3-6.3,13.4-14.8c0,0,3.1-7.3,11.2-8
		l-1.5-2.7c0,0-9.4,2.3-10.8,4.3s-9.7,11.1-10.3,13.7C568.1,882,566.6,886.9,566.6,886.9z"/>
	<pattern  id="SVGID_7_" xlink:href="#New_Pattern_Swatch_2" patternTransform="matrix(1 0 0 1 176.0269 99.46)">
	</pattern>
	<path style="opacity:0.5;fill-rule:evenodd;clip-rule:evenodd;fill:url(#SVGID_7_);" d="M568.1,885.4c0,0,6-1,8-5s3-9,6-10
		s9.1-6.3,9.1-6.3l-1.1-4.7c0,0-11,2-13,6S567.1,884.4,568.1,885.4z"/>
	<polygon style="fill-rule:evenodd;clip-rule:evenodd;fill:#74C5ED;" points="598.2,893.1 601.2,922.7 616.5,901.3 	"/>
	<pattern  id="SVGID_8_" xlink:href="#New_Pattern_Swatch_2" patternTransform="matrix(1 0 0 1 176.0269 99.46)">
	</pattern>
	<polygon style="opacity:0.5;fill-rule:evenodd;clip-rule:evenodd;fill:url(#SVGID_8_);" points="601.1,916.4 598.1,894.4 
		611.1,906.4 	"/>
	<polygon style="fill-rule:evenodd;clip-rule:evenodd;fill:#74C5ED;" points="594.6,851.9 598,873.3 610.7,858.1 	"/>
	<defs>
		<filter id="Adobe_OpacityMaskFilter_1_" filterUnits="userSpaceOnUse" x="467.1" y="818.3" width="71.7" height="143.2">
			<feFlood  style="flood-color:white;flood-opacity:1" result="back"/>
			<feBlend  in="SourceGraphic" in2="back" mode="normal"/>
		</filter>
	</defs>
	<mask maskUnits="userSpaceOnUse" x="467.1" y="818.3" width="71.7" height="143.2" id="SVGID_9_">
		<g style="filter:url(#Adobe_OpacityMaskFilter_1_);">
			<polygon style="fill-rule:evenodd;clip-rule:evenodd;" points="492.1,886.4 475.1,902.4 471.1,907.4 471.1,910.4 494.1,890.4 			
				"/>
			<polygon style="fill-rule:evenodd;clip-rule:evenodd;" points="467.1,946.4 484.1,933.4 495.1,927.4 497.1,926.4 494.1,930.4 
				483.1,937.4 475.1,942.4 470.1,948.4 466.1,950.4 			"/>
			<path style="fill-rule:evenodd;clip-rule:evenodd;fill:#3A3A3A;" d="M507.1,881.4l28,36l1-3C536.1,914.4,511.1,880.4,507.1,881.4
				z"/>
		</g>
	</mask>
	<path style="mask:url(#SVGID_9_);fill-rule:evenodd;clip-rule:evenodd;fill:#74C5ED;" d="M467.1,823.5l68.1-5.2l3.6,47.7l-0.8,39.7
		c0,0-1.2,11.3-0.7,13.1c0.5,1.8,1.4,25.2,0.7,26.4c-0.7,1.2,0.6,16.3,0.6,16.3l-71.5-2V823.5z"/>
	<pattern  id="SVGID_10_" xlink:href="#New_Pattern_Swatch_2" patternTransform="matrix(1 0 0 1 176.0269 99.46)">
	</pattern>
	<path style="opacity:0.5;fill-rule:evenodd;clip-rule:evenodd;fill:url(#SVGID_10_);" d="M537.1,915.4l2-36c0,0-10,4-12,6
		s-10,9-10,9L537.1,915.4z"/>
	<pattern  id="SVGID_11_" xlink:href="#New_Pattern_Swatch_2" patternTransform="matrix(1 0 0 1 176.0269 99.46)">
	</pattern>
	<path style="opacity:0.5;fill-rule:evenodd;clip-rule:evenodd;fill:url(#SVGID_11_);" d="M466.1,872.5c0,0,2-5,6-6s12,6,14,8
		s11,17,11,17l9,11l11,18l4,7h-4l-14-17l-9-14l-7-11c0,0-9-8-11-8S466.1,872.5,466.1,872.5z"/>
	<pattern  id="SVGID_12_" xlink:href="#New_Pattern_Swatch_2" patternTransform="matrix(1 0 0 1 176.0269 99.46)">
	</pattern>
	<path style="opacity:0.5;fill-rule:evenodd;clip-rule:evenodd;fill:url(#SVGID_12_);" d="M467.1,959.5l51,1h19v-11v-15l-1-9l-14,7
		l-13,9l-10,6c0,0-11,3-12,3s-9,0-10,1S467.1,954.5,467.1,959.5z"/>
	<path style="fill-rule:evenodd;clip-rule:evenodd;fill:#E1FBFF;" d="M468,849.5c0,0,5.9-4.6,9.1-3.2c3.2,1.5,13.5,13.2,16,17.6
		s22.8,32.3,26.2,37.1s8.7,11.6,10.7,13.7c2,2.1,6,5.4,6,5.4l2,25c0,0-24.3-31.1-25.9-33.6c-1.6-2.4-13.7-20.1-15.4-21.7
		c-1.7-1.6-10.7-17.4-12.7-18.7c-2-1.2-4.1-5.5-5.7-6c-1.6-0.5-6.1-1.9-6.6-0.8c-0.6,1.1-4.6,6.2-4.6,6.2L468,849.5z"/>
	<path style="fill-rule:evenodd;clip-rule:evenodd;fill:#E1FBFF;" d="M623.6,914.7c0,0,25.4-27.8,34.9-42.6
		c9.6-14.8,20.9-26.3,22.9-28c2-1.7,7.6-2.8,8.9-3.3c1.3-0.5,5.2,0.6,6.8,2.5c1.6,1.8,6,4.2,6,4.2l4.9,3l-4.3,13.6l-10.7-3.6
		c0,0,1-1-3.4,0.5c-4.4,1.5-10.5,8.2-9.7,9.2c0.8,1-8.5,11.6-9.6,13.3c-1.1,1.8-11.9,13.5-13.7,15.9c-1.8,2.4-13.6,17.9-13.6,17.9
		l-2.6,3.2L626,933.7L623.6,914.7z"/>
	
		<path style="fill-rule:evenodd;clip-rule:evenodd;fill:none;stroke:#185D8C;stroke-width:3;stroke-linecap:round;stroke-linejoin:round;stroke-miterlimit:10;" d="
		M703.8,816.8c-7.4-1.2-14.6,0.6-21.9,1.5c-10.2,1.3-20.4,2.6-30.8,1.4c-8.2-1-16.5-0.4-24.8-0.2c-2.1,0.1-4.2,1.2-6.4,1.8
		c-1,0.3-1.4,1.2-1.3,2.1c0.5,5.2,0.5,10.4,1,15.7c1.1,10.8,1.8,21.7,2,32.7c0.2,10.6,1.4,21.1,1.8,31.7c0.3,7.7-0.1,15.6,0.9,23.2
		c1.1,7.9-0.4,16,1.9,23.8c0.1,0.2-0.2,0.7-0.4,0.9c-0.2,0.1-0.5-0.1-0.8-0.2"/>
	
		<path style="fill-rule:evenodd;clip-rule:evenodd;fill:none;stroke:#185D8C;stroke-width:3;stroke-linecap:round;stroke-linejoin:round;stroke-miterlimit:10;" d="
		M695.3,841.9c-0.4,0-0.9,0.1-1.2-0.1c-5-3.5-6.1-3.2-10.6,0.5c-9.3,7.7-17.8,16-23.7,27.4c-2.8,5.3-6.1,10.2-9.3,15.3
		c-6.1,9.7-14.3,17.2-20.8,26.6c-1.1,1.6-2.6,3.2-4.7,3.2"/>
	
		<path style="fill-rule:evenodd;clip-rule:evenodd;fill:none;stroke:#185D8C;stroke-width:3;stroke-linecap:round;stroke-linejoin:round;stroke-miterlimit:10;" d="
		M473,866c-0.2-1.2,0.6-1.3,1.3-1.4c3.9-0.4,6.6,1.6,8.9,5.1c4.9,7.5,9.7,15.2,15.2,22.2c8.6,10.9,15.8,22.9,23.4,34.6
		c4.2,6.4,8.4,12.8,14.7,17"/>
	
		<path style="fill-rule:evenodd;clip-rule:evenodd;fill:none;stroke:#185D8C;stroke-width:3;stroke-linecap:round;stroke-linejoin:round;stroke-miterlimit:10;" d="
		M537.7,958.6c0.1-7.9-1-15.7,0.3-23.6c0.5-3.2-0.2-6.6-0.3-9.9c-0.1-2-0.9-4.1-2.2-5.1c-10.5-9-17.5-21.3-25.6-32.7
		c-3.2-4.5-6.5-9-10.1-13.2c-5.7-6.6-8.6-15.5-14.7-21.8c-3.4-3.5-6.7-7.5-12.2-5.7c-0.7,0.2-1.2,0.4-1.7,1"/>
	
		<path style="fill-rule:evenodd;clip-rule:evenodd;fill:none;stroke:#185D8C;stroke-width:3;stroke-linecap:round;stroke-linejoin:round;stroke-miterlimit:10;" d="
		M536.9,954.4c-6.8,1.8-13.7,2.3-20.6,2.3c-11.1,0.1-22.1,0-33.2-1.2c-5-0.5-10.2,0.1-15.1,2.2"/>
	
		<path style="fill-rule:evenodd;clip-rule:evenodd;fill:none;stroke:#185D8C;stroke-width:3;stroke-linecap:round;stroke-linejoin:round;stroke-miterlimit:10;" d="
		M536.5,863.7c1.5,0.1,2.7-0.3,1.9-2.4c-3.1-8.1-1.6-25.7-2.7-34.1c-0.4-3.1-0.3-6.3-0.5-9.4c-0.1-2.7-1.6-3.4-3.8-3.3
		c-4.7,0.2-9.2,1.4-13.9,1.7c-2.2,0.1-4.6-0.1-6.7,0c-6.8,0.1-13.4,1-20.2,1.3c-1.2,0.1-2.2-1.6-3.4-0.1"/>
	
		<path style="fill-rule:evenodd;clip-rule:evenodd;fill:none;stroke:#185D8C;stroke-width:3;stroke-linecap:round;stroke-linejoin:round;stroke-miterlimit:10;" d="
		M536.1,920.1c1.3-2.4,2,3.9,1.6,1.2c-1.1-7,0.6-13.9,0.7-20.8c0.4-21.5-0.2-32.2-0.7-36.4"/>
	
		<path style="fill-rule:evenodd;clip-rule:evenodd;fill:none;stroke:#185D8C;stroke-width:3;stroke-linecap:round;stroke-linejoin:round;stroke-miterlimit:10;" d="
		M566.6,888.4c-4.4,2-4.9,7.2-7.1,10.9c-3.9,8.3-2,16.6-14.4,15.5"/>
	
		<path style="fill-rule:evenodd;clip-rule:evenodd;fill:none;stroke:#185D8C;stroke-width:3;stroke-linecap:round;stroke-linejoin:round;stroke-miterlimit:10;" d="
		M595.6,906c-13.3,1.7-22.4-5.5-28.3-17.7c-1.6-3.3-2.7-7.3-4.5-10.7c-4.1-7.8-10.3-11.2-18.4-10"/>
	
		<path style="fill-rule:evenodd;clip-rule:evenodd;fill:none;stroke:#185D8C;stroke-width:3;stroke-linecap:round;stroke-linejoin:round;stroke-miterlimit:10;" d="
		M702.6,863.3c-3.6-2.3-7.3-2.3-11.3-1.7c-4.1,0.6-7.1,3.3-8.9,6.9c-3.1,6.1-8.8,9.3-12,15.1c-3.5,6.4-9.5,10.2-13.7,15.9
		c-4.5,6.1-9.6,11.7-14.4,17.4c-0.9,1.1-1.7,2.2-1.8,3.7"/>
	
		<path style="fill-rule:evenodd;clip-rule:evenodd;fill:none;stroke:#185D8C;stroke-width:3;stroke-linecap:round;stroke-linejoin:round;stroke-miterlimit:10;" d="
		M593.5,861c-8.9,0.6-16.2,4.2-20.7,13.6c-1.5,3.2-3.1,6.7-6.2,8.6"/>
	
		<path style="fill-rule:evenodd;clip-rule:evenodd;fill:none;stroke:#185D8C;stroke-width:3;stroke-linecap:round;stroke-linejoin:round;stroke-miterlimit:10;" d="
		M658.3,949.2c0.1-3.9-0.8-7.3-3.4-10.1c-4.2-4.5-7.5-9.8-10.8-15.1c-2.4-3.8-4.4-4-7.5-1.3c-3.8,3.3-6.4,8-10.5,10.9"/>
	
		<path style="fill-rule:evenodd;clip-rule:evenodd;fill:none;stroke:#185D8C;stroke-width:3;stroke-linecap:round;stroke-linejoin:round;stroke-miterlimit:10;" d="
		M502,913.7c-8.6,6.2-17.3,12.1-25.2,19.4"/>
	
		<path style="fill-rule:evenodd;clip-rule:evenodd;fill:none;stroke:#185D8C;stroke-width:3;stroke-linecap:round;stroke-linejoin:round;stroke-miterlimit:10;" d="
		M632.9,835.7c-0.1,5.1,3.8,7,6.5,9.6c4.7,4.7,10,8.7,15,13"/>
	
		<path style="fill-rule:evenodd;clip-rule:evenodd;fill:none;stroke:#185D8C;stroke-width:3;stroke-linecap:round;stroke-linejoin:round;stroke-miterlimit:10;" d="
		M667.5,890c7.4,8,14.1,16.6,20.1,25.9"/>
	
		<path style="fill-rule:evenodd;clip-rule:evenodd;fill:none;stroke:#185D8C;stroke-width:3;stroke-linecap:round;stroke-linejoin:round;stroke-miterlimit:10;" d="
		M520.5,834.9c-0.1,0.9,0,2.3-0.5,2.8c-6,5.3-9.8,12.9-15.9,18"/>
	
		<path style="fill-rule:evenodd;clip-rule:evenodd;fill:none;stroke:#185D8C;stroke-width:3;stroke-linecap:round;stroke-linejoin:round;stroke-miterlimit:10;" d="
		M689.9,947.6c-1.5,2.8-4.1,1.4-6,1.5c-13.5,0.4-26.9,0.5-40.4,0.4c-3.6,0-7,1-10.6,1.2c-2,0.1-4,0.7-5.9-0.3
		c-1.5,1.3-1.9,3.1-1.9,5.1"/>
	
		<path style="fill-rule:evenodd;clip-rule:evenodd;fill:none;stroke:#185D8C;stroke-width:3;stroke-linecap:round;stroke-linejoin:round;stroke-miterlimit:10;" d="
		M614.1,899c-2.8,7.2-7.5,12.9-11.7,19c-0.4,0.6-1.3,0.6-2,0.9"/>
	
		<path style="fill-rule:evenodd;clip-rule:evenodd;fill:none;stroke:#185D8C;stroke-width:3;stroke-linecap:round;stroke-linejoin:round;stroke-miterlimit:10;" d="
		M681.2,872.4c6.7,6.6,13.1,13.4,19,20.8"/>
	
		<path style="fill-rule:evenodd;clip-rule:evenodd;fill:none;stroke:#185D8C;stroke-width:3;stroke-linecap:round;stroke-linejoin:round;stroke-miterlimit:10;" d="
		M610.6,858.7c-2.1,5.6-7.3,7.9-10.5,12.3c-0.9,1.3-2.9,1.9-2.3,4.2"/>
	
		<path style="fill-rule:evenodd;clip-rule:evenodd;fill:none;stroke:#185D8C;stroke-width:3;stroke-linecap:round;stroke-linejoin:round;stroke-miterlimit:10;" d="
		M615.7,898.5c-4.2-0.5-7-4.3-10.4-6.4c-2.2-1.4-4.1-3.4-6.9-3.1"/>
	
		<path style="fill-rule:evenodd;clip-rule:evenodd;fill:none;stroke:#185D8C;stroke-width:3;stroke-linecap:round;stroke-linejoin:round;stroke-miterlimit:10;" d="
		M593.8,845.5c2,3.7,6.2,3.8,8.9,6.6c2.3,2.5,6,3,8,6.1c0.2,0.3,1.5,0.5,2-0.4"/>
	
		<path style="fill-rule:evenodd;clip-rule:evenodd;fill:none;stroke:#185D8C;stroke-width:3;stroke-linecap:round;stroke-linejoin:round;stroke-miterlimit:10;" d="
		M526.4,867c-1.9,6.3-6.2,11.2-8.8,17"/>
	
		<path style="fill-rule:evenodd;clip-rule:evenodd;fill:none;stroke:#185D8C;stroke-width:3;stroke-linecap:round;stroke-linejoin:round;stroke-miterlimit:10;" d="
		M484.8,817.4c-6.1,1.2-12.3,2-18.5,1.9"/>
	
		<path style="fill-rule:evenodd;clip-rule:evenodd;fill:none;stroke:#185D8C;stroke-width:3;stroke-linecap:round;stroke-linejoin:round;stroke-miterlimit:10;" d="
		M497,821.6c-3.6,4.9-7.3,9.8-10.9,14.6"/>
	
		<path style="fill-rule:evenodd;clip-rule:evenodd;fill:none;stroke:#185D8C;stroke-width:3;stroke-linecap:round;stroke-linejoin:round;stroke-miterlimit:10;" d="
		M482.2,881.1c-0.3,2.8-2.6,3.4-4.2,4.7c-2.1,1.8-4.2,3.5-6.3,5.2"/>
	
		<path style="fill-rule:evenodd;clip-rule:evenodd;fill:none;stroke:#185D8C;stroke-width:3;stroke-linecap:round;stroke-linejoin:round;stroke-miterlimit:10;" d="
		M517.6,936.4c-4.3,3.2-7.7,7.4-10.9,11.8"/>
	
		<path style="fill-rule:evenodd;clip-rule:evenodd;fill:none;stroke:#185D8C;stroke-width:3;stroke-linecap:round;stroke-linejoin:round;stroke-miterlimit:10;" d="
		M594.8,887.2c1.3-0.3,2.3,0.4,3.3,1.3c-1.2,4.3,0.2,8.5,0,12.7c-0.4,5.9,1,11.5,1.9,17.2c0.3,1.7-1,3.6-1.5,5.4"/>
	
		<path style="fill-rule:evenodd;clip-rule:evenodd;fill:none;stroke:#185D8C;stroke-width:3;stroke-linecap:round;stroke-linejoin:round;stroke-miterlimit:10;" d="
		M595.1,848.3c-1.5,2.7-0.6,5.4,0.1,8c1.2,4.6,1.6,9.5,3.7,13.7"/>
	
		<path style="fill-rule:evenodd;clip-rule:evenodd;fill:none;stroke:#185D8C;stroke-width:3;stroke-linecap:round;stroke-linejoin:round;stroke-miterlimit:10;" d="
		M634.7,867c-0.6,0.8-0.9,1.3-0.1,2.4c2.1,2.9,4,6.1,6,9.2"/>
	
		<path style="fill-rule:evenodd;clip-rule:evenodd;fill:none;stroke:#185D8C;stroke-width:3;stroke-linecap:round;stroke-linejoin:round;stroke-miterlimit:10;" d="
		M667.2,827.6c0.9,1.3,2,2.5,2.8,3.9c1.1,2.2,2.4,1.3,3.8,0.6"/>
	<g>
		<path style="fill-rule:evenodd;clip-rule:evenodd;fill:#F40000;stroke:#F40000;stroke-width:3;stroke-miterlimit:10;" d="
			M642.7,980.9c-1.4-0.4-1.6-10.7-3.2-10.8c-1.6-0.2-2.6,1.7-3.3,3.1c-1,1.9-1.8,4.1-2.5,6.2c-0.3,1-0.2,2.3-1.8,2.3
			c-1.7,0-2.1-0.8-2.1-2.4c0-1.5-0.7-2.7-1.9-4.2c-1.8,3.3-2,7.6-6.4,8.3c-0.9,0.1-2.3,0.8-2.6,0.5c-3.5-3.9-6.4-1-9.6,0.6
			c-2.9,1.4-6.3-1.6-7.7-6.3c-0.5-1.7,0.6-5-2.4-4.7c-2.5,0.2-3.6,3.4-4.4,10.2c-0.8,6.7-10.1,6.5-10.3,4.9
			c-0.2-1.4,0-10.8,0.1-12.2c0.2-2.1-1.1-2.9-2.8-3.2c-2-0.4-2.2,1-2.4,2.6c-0.4,2.3-0.8,4.8-1.7,6.9c-0.7,5-3.4,7.6-4.5,7.5
			c-6.6-0.4-8.5-1.6-10.4-7.2c-0.9-2.7-0.5-5.4-1-8.2c-0.6-3.3-2.2-3.1-4.7-2.5c-3,0.8-2.7,2.6-1.9,4.7c0.7,1.8,1.1,3.6,1,5.6
			c-0.3,4.7-2,8.5-6.7,9.9c-5,1.5-9.5-0.8-12.1-5.8c-0.6-1.1-1.2-2.3-1.4-3.5c-0.7-5.1-3.2-6.1-7.9-4.9c-2.9,0.8-4.1,2-4.7,4.9
			c-2.2,10.3-3.7,11.1-13.7,8.1c-1.4-0.4-2.5-0.4-3.4,0.7c-3.1,4-6.1,2.6-10.2,4.3c-0.8,0.3-2.1,0.6-2.7,0.2c-4.8-3-9.2-2.5-14.2,0
			c-3.6,1.9-6.6-0.8-8.2-4.4c-1.6-3.8-3.6-7.5-3.7-11.8c0-1.2-0.4-2.5-1.9-3.9c-0.6,3.8-0.5,7.4-2,10.6c-1.3,2.9-2.7,5.8-4.9,8.1
			c-0.9,1-2.3,1.5-3.3,0.2c-0.9-1.3-0.7-2.5,0.8-3.6c5.5-3.8,7.6-10.4,5-16.5c-1.3-3.1-1.4-4.7,2.6-4.1c0.7,0.1,1.6,0,2.3-0.3
			c3.8-2.2,3.9,0.4,4,3.1c0.1,5.4,1.7,10.3,3.9,15.1c1.5,3.4,3.5,5.4,7.3,3.8c3.6-1.5,4.3-4,2.6-7.6c-2.3-4.7-1.2-9,2.5-12.6
			c2.7-2.6,5-2.1,6.7,1.3c2,4.1,1.5,8-0.5,11.9c-0.8,1.6-2.8,3.4-0.8,5.1c1.7,1.5,4,2.7,6.5,1.6c1.7-0.7,1.8,0.3,3.4-0.6
			c3.4-1.8,6.4-3.6,3.4-8.3c-0.9-1.5-1.3-3.7-1.1-5.6c0.9-9.5,1.8-19,6.9-27.4c0.8-1.4,1.5-3,3.4-2.8c1.7,0.2,2,1.9,2.4,3.2
			c4,10.9,2.6,21.3-3.4,31.1c-1.6,2.6-2.4,4.9,1,6.8c3.4,1.8,5.6,0.8,6.5-3.1c0.6-2.6,0.6-5.1-0.6-7.5c-0.7-1.5-0.7-2.8,0.5-3.9
			c1-1,2.1-0.7,3.4-0.2c6.2,2.2,9.7-0.1,10.2-6.8c0.4-5.5,1.2-10.8,3.1-15.9c0.7-1.8,1.5-4.8,4.2-4.3c2.5,0.4,2.4,3.1,2.7,5.1
			c1,6.8-2.5,12.3-5.2,18.1c-2.3,4.9,0.9,16.1,5.4,18.7c4,2.2,8.6-0.1,9-4.7c0.4-4.2-1.1-7.8-3.1-11.3c-0.9-1.5-2.4-2.9-1.1-4.7
			c1.4-1.9,2.8-0.8,4.5,0c4.2,1.8,8.6-0.8,9.5-5.4c0.8-3.9,1.7-7.8,2.4-11.7c0.4-1.8,1-3.3,2.4-4.6c0.8-0.8,1.6-1.6,2.9-1.1
			c1.3,0.5,1.4,1.6,1.3,2.8c-0.2,6.6-1.7,13-5.3,18.5c-3.9,6-4.8,18.9,2.5,19.9c3.2,0.7,3,0.2,4.8-2.9c2.5-4.4,3.5-8.9,0.6-13.5
			c-1-1.5-1.4-2.9,0-4.2c1.5-1.3,2.5-0.5,4,0.6c3.6,2.6,7.3,6.2,12,1.7c0.7-0.7,2-0.6,2.6,0.1c3.6,4,6,1.5,8.3-1.4
			c0.9-1.1,1.9-2.6,3.3-2c1.7,0.8,0.7,2.6,0.4,3.8c-1,3.2-0.8,6.3,0.4,9.3c0.6,1.7,1.3,3.4,3.5,3.4c2.1-0.1,3.3-1.5,4.2-3.4
			c1.4-2.8,0.1-5.7,0.5-8.5c0.2-1.7-0.9-4.5,1.9-4.6c2.7-0.2,1.6,2.6,1.9,4.1c0.5,2.6,0.6,5.4,1.1,8c0.3,1.3,0.8,3,2.6,2.8
			c1.4-0.2,1.9-1.4,2.3-2.7c0.8-2.9,1-6,2.7-8.6c2.1-3.4,4-3.5,5.6,0.1c1.3,3.1,2.5,2.4,3.7,0.3c1-1.7,1.9-3.3,3.9-3.9
			c2.4-0.7,4.3-0.6,5.1,2.4c0.3,1.2,0.7,2.4,1.2,3.6c0.7,1.7-0.7,4.1,1.7,4.1c2.3,0,1.5-1.4,2.4-3.5c1.6-3.9,4-6.3,8.1-7.1
			c2.8-0.5,1.6-2.8,1.4-4.3c-1-7.6,0.4-14.6,4.5-21c0.7-1.2,1.3-2.9,3-2.5c1.5,0.4,1.6,2,1.9,3.5c2,9,2.1,18,0.4,27
			c-0.9,4.8-3.8,6.1,0.9,5.9c5.2-0.3,9.4-5.3,9.4-11.2c0-1.9-0.7-4.2,1.9-4.6c2.9-0.4,2.5,2.4,2.7,4c0.3,2.3,0.9,4.4,1.7,6.5
			c1.2,3.2,1.1,6.2-0.5,9.2c-0.7,1.3-2,2.8-0.4,4.3c1.4,1.3,3.1,1.2,4.9,0.7c3.8-1.3,9.2-8.7,9.3-12.8c0-1.5-0.9-3.7,1.5-3.8
			c2.6-0.1,2.1,2.4,2,4c-0.1,10.7-13.6,18.5-24.4,14c-2.8-1.2-6.4-1.5-7.6-5.6c-0.5-1.7-5.3-1.3-7.1-0.2c-3.7,2.4-7.1,5.2-10.4,3.1
			c-5.7-3.7-5.6,0-6.6-0.9L642.7,980.9z M591.9,975.6c-0.5-1.6-1.6-2.5-3.1-1c-1.5,1.4-1.9,10-1.6,11.9
			C587.2,986.5,595.6,984.4,591.9,975.6z M515.1,965.6c0-2.8,0-5.7-0.1-8.5c-0.1-1.4-0.4-3.2-2-3.4c-1.8-0.2-2.8,1.4-2.9,3.1
			c-0.4,4.8-2.1,9.2-3.2,13.8c-0.8,3.3-0.8,6.6,0.9,9.7c0.8,1.5,2,2,2.7,0.3C512.7,975.8,515.9,971.3,515.1,965.6z M668.2,953.9
			c-0.3-2.2-0.5-4.4-0.8-6.6c-0.2-1.3-0.4-2.7-2-2.8c-1.6-0.1-1.9,1.2-2.4,2.4c-2.3,5.6-0.3,11,0.5,16.4c0.1,0.9,0.7,1.6,1.5,1.6
			c0.8,0,1.2-0.9,1.5-1.6C667.5,960.3,668,957.2,668.2,953.9z M656.8,978c2.4-0.7,5.3-2,5.7-5c0.4-2.7-2.7-3.6-4.6-3.4
			c-2.8,0.3-4.7,2.5-4.9,5.4C652.9,977.2,654.4,978.1,656.8,978z M682.7,973.3c-0.9-1,0.1-3.9-2.3-3.1c-2.3,0.7-4.7,2.8-5.1,5
			c-0.4,2.1,2.8,3.4,4.3,3.3C681.9,978.4,682.4,975.6,682.7,973.3z M486.3,979.8c0.6,1.4-0.1,4.4,2.3,4.3c2.2-0.1,1.8-3,2-4.8
			c0.2-1.6-0.3-3.5-2.3-3.5C486.3,976,486.4,978,486.3,979.8z M541.8,956.3c-0.1-1.4,0.2-2.9-1.2-3.1c-1.3-0.2-2,1.1-2,2.2
			c0,3-2,5.7-1,8.8c0.1,0.3,1,0.5,1.1,0.4C540.5,962.1,541.2,959.1,541.8,956.3z M569.3,950.5c-2.9,2.1-3.2,5-3.4,7.8
			c0,0.6,0.9,1,1.4,0.6c2.3-1.7,2-4.5,2.5-6.9C569.8,951.7,569.6,951.4,569.3,950.5z"/>
		<path style="fill-rule:evenodd;clip-rule:evenodd;fill:#F40000;stroke:#F40000;stroke-width:3;stroke-miterlimit:10;" d="
			M723.8,925.4c0,0-1.7,1.4-2.1,5.4c-0.2,5.4-4.2,19.2-5.3,25.8c-1.1,5.9-3.3,10-3.2,15.6c0,1.6-1.5,2.7-2.8,2.6c-1.7-0.2-1-2-1-3.1
			c0.1-11.9,1.3-31.8,1.5-43.7c0-3.1-0.2-6.1,3.2-4.9C715.7,923.6,723.8,925.4,723.8,925.4z"/>
		<path style="fill-rule:evenodd;clip-rule:evenodd;fill:#F40000;stroke:#F40000;stroke-width:3;stroke-miterlimit:10;" d="
			M709.7,978.1c3.5-0.1,5.7,0.8,6.2,3.9c0.4,2.9-1.2,4.9-3.8,5.8c-2.2,0.8-4.6,1.7-6.6-0.9c-0.6-0.7-1.2-2.7-1.3-3.7
			C706.3,977.1,708.2,978.7,709.7,978.1z"/>
	</g>
	<pattern  id="SVGID_13_" xlink:href="#New_Pattern_Swatch_2" patternTransform="matrix(1 0 0 1 176.0269 99.46)">
	</pattern>
	<path style="opacity:0.5;fill-rule:evenodd;clip-rule:evenodd;fill:url(#SVGID_13_);" d="M503.1,859.4l21-26c0,0,2-1,2,2
		s-6,12-7,14S504.1,864.4,503.1,859.4z"/>
	<pattern  id="SVGID_14_" xlink:href="#New_Pattern_Swatch_2" patternTransform="matrix(1 0 0 1 176.0269 99.46)">
	</pattern>
	<path style="opacity:0.5;fill-rule:evenodd;clip-rule:evenodd;fill:url(#SVGID_14_);" d="M668.1,821.5c0,0,4,1,7,4s7,5,9,7
		s11,5,11,5l12,13l2-10l2-18v-4h-22L668.1,821.5z"/>
</g>
<g>
	<defs>
		<filter id="Adobe_OpacityMaskFilter_2_" filterUnits="userSpaceOnUse" x="170.2" y="6.6" width="87.9" height="133.9">
			<feFlood  style="flood-color:white;flood-opacity:1" result="back"/>
			<feBlend  in="SourceGraphic" in2="back" mode="normal"/>
		</filter>
	</defs>
	<mask maskUnits="userSpaceOnUse" x="170.2" y="6.6" width="87.9" height="133.9" id="SVGID_15_">
		<g style="filter:url(#Adobe_OpacityMaskFilter_2_);">
			<polygon style="fill-rule:evenodd;clip-rule:evenodd;" points="208.1,83.5 219.1,99.5 225.1,106.5 227.1,106.5 217.1,92.5 
				209.1,81.5 			"/>
			<path style="fill-rule:evenodd;clip-rule:evenodd;" d="M210.1,134.5h10l-23-33C197.1,101.5,209.1,133.5,210.1,134.5z"/>
			<polygon style="fill-rule:evenodd;clip-rule:evenodd;" points="222.1,79.5 231.1,68.5 232.1,69.5 			"/>
			<polygon style="fill-rule:evenodd;clip-rule:evenodd;" points="245.1,53.5 236.1,62.5 237.1,65.5 			"/>
			<polygon style="fill-rule:evenodd;clip-rule:evenodd;fill:#595959;" points="175.1,92.5 195.1,69.5 202.1,55.5 210.1,42.5 
				217.1,39.5 198.1,71.5 184.1,87.5 177.1,95.5 			"/>
		</g>
	</mask>
	<path style="mask:url(#SVGID_15_);fill-rule:evenodd;clip-rule:evenodd;fill:#74C5ED;" d="M170.2,13.1c1.5-0.4,20.4-6.7,26.2-5.9
		c5.8,0.8,20.7,1.6,21.5,1.5c0.8,0,26.8-2.3,29.8-2.1c3,0.1,10.3,0.9,10.3,0.9l-8.4,83.6c0,0,0.3,26.8,0,27.9s-4.7,21.1-4.7,21.1
		s-14.7-1.4-17.1-1.4c-2.4,0-32,1.3-36.1,1.6c-4.1,0.3-13.5,0.1-13.5,0.1l-2.6-0.7L170.2,13.1z"/>
	<pattern  id="SVGID_16_" xlink:href="#New_Pattern_Swatch_2" patternTransform="matrix(1 0 0 1 179.0269 90.46)">
	</pattern>
	<path style="opacity:0.5;fill-rule:evenodd;clip-rule:evenodd;fill:url(#SVGID_16_);" d="M179.1,31.5c0,0,7,6,8,7s7,6,7,6l5,4l3-1
		l-6-7l-12-9l-4-6C180.1,25.5,175.1,27.5,179.1,31.5z"/>
	<pattern  id="SVGID_17_" xlink:href="#New_Pattern_Swatch_2" patternTransform="matrix(1 0 0 1 179.0269 90.46)">
	</pattern>
	<path style="opacity:0.5;fill-rule:evenodd;clip-rule:evenodd;fill:url(#SVGID_17_);" d="M180.1,57.5l-2,3c0,0,2,3,4,5s6,3,6,3
		l-1-4C187.1,64.5,180.1,56.5,180.1,57.5z"/>
	<pattern  id="SVGID_18_" xlink:href="#New_Pattern_Swatch_2" patternTransform="matrix(1 0 0 1 179.0269 90.46)">
	</pattern>
	<path style="opacity:0.5;fill-rule:evenodd;clip-rule:evenodd;fill:url(#SVGID_18_);" d="M212.1,17.5c0,0,3,3,4,4s4,0,4,0l-1-2
		C219.1,19.5,214.1,14.5,212.1,17.5z"/>
	<path style="fill-rule:evenodd;clip-rule:evenodd;fill:#74C5ED;" d="M117.8,84.9c0,0,3.4,8.8,8.2,10.4c4.7,1.6,10.6,2.2,12.3,1.6
		c1.7-0.6,0-2.5,0-2.5S119.7,87.1,117.8,84.9z"/>
	<pattern  id="SVGID_19_" xlink:href="#New_Pattern_Swatch_2" patternTransform="matrix(1 0 0 1 179.0269 90.46)">
	</pattern>
	<path style="opacity:0.5;fill-rule:evenodd;clip-rule:evenodd;fill:url(#SVGID_19_);" d="M175.1,139.5h26h13h24l6,1c0,0-3-5-4-5
		s-12-4-12-4l-20-1l-20-9l-8-6l-5-20l-3-3L175.1,139.5z"/>
	<pattern  id="SVGID_20_" xlink:href="#New_Pattern_Swatch_2" patternTransform="matrix(1 0 0 1 179.0269 90.46)">
	</pattern>
	<path style="opacity:0.5;fill-rule:evenodd;clip-rule:evenodd;fill:url(#SVGID_20_);" d="M116.1,84.4c0,0,3,9,7,11s13,3,14,3
		c1,0,1.1-4.1,1.1-4.1L116.1,84.4z"/>
	<path style="fill-rule:evenodd;clip-rule:evenodd;fill:#74C5ED;" d="M113.6,73.9c0,0,10.3-6.3,13.4-14.8c0,0,3.1-7.3,11.2-8
		l-1.5-2.7c0,0-9.4,2.3-10.8,4.3s-9.7,11.1-10.3,13.7S113.6,73.9,113.6,73.9z"/>
	<pattern  id="SVGID_21_" xlink:href="#New_Pattern_Swatch_2" patternTransform="matrix(1 0 0 1 179.0269 90.46)">
	</pattern>
	<path style="opacity:0.5;fill-rule:evenodd;clip-rule:evenodd;fill:url(#SVGID_21_);" d="M115.1,72.4c0,0,6-1,8-5s3-9,6-10
		s9.1-6.3,9.1-6.3l-1.1-4.7c0,0-11,2-13,6S114.1,71.4,115.1,72.4z"/>
	<polygon style="fill-rule:evenodd;clip-rule:evenodd;fill:#74C5ED;" points="145.2,80.1 148.2,109.7 163.5,88.3 	"/>
	<pattern  id="SVGID_22_" xlink:href="#New_Pattern_Swatch_2" patternTransform="matrix(1 0 0 1 179.0269 90.46)">
	</pattern>
	<polygon style="opacity:0.5;fill-rule:evenodd;clip-rule:evenodd;fill:url(#SVGID_22_);" points="148.1,103.4 145.1,81.4 
		158.1,93.4 	"/>
	<polygon style="fill-rule:evenodd;clip-rule:evenodd;fill:#74C5ED;" points="141.6,38.9 145,60.3 157.7,45.1 	"/>
	<defs>
		<filter id="Adobe_OpacityMaskFilter_3_" filterUnits="userSpaceOnUse" x="14.1" y="5.3" width="71.7" height="143.2">
			<feFlood  style="flood-color:white;flood-opacity:1" result="back"/>
			<feBlend  in="SourceGraphic" in2="back" mode="normal"/>
		</filter>
	</defs>
	<mask maskUnits="userSpaceOnUse" x="14.1" y="5.3" width="71.7" height="143.2" id="SVGID_23_">
		<g style="filter:url(#Adobe_OpacityMaskFilter_3_);">
			<polygon style="fill-rule:evenodd;clip-rule:evenodd;" points="39.1,73.4 22.1,89.4 18.1,94.4 18.1,97.4 41.1,77.4 			"/>
			<polygon style="fill-rule:evenodd;clip-rule:evenodd;" points="14.1,133.4 31.1,120.4 42.1,114.4 44.1,113.4 41.1,117.4 
				30.1,124.4 22.1,129.4 17.1,135.4 13.1,137.4 			"/>
			<path style="fill-rule:evenodd;clip-rule:evenodd;fill:#3A3A3A;" d="M54.1,68.4l28,36l1-3C83.1,101.4,58.1,67.4,54.1,68.4z"/>
		</g>
	</mask>
	<path style="mask:url(#SVGID_23_);fill-rule:evenodd;clip-rule:evenodd;fill:#74C5ED;" d="M14.1,10.5l68.1-5.2L85.8,53L85,92.7
		c0,0-1.2,11.3-0.7,13.1c0.5,1.8,1.4,25.2,0.7,26.4c-0.7,1.2,0.6,16.3,0.6,16.3l-71.5-2V10.5z"/>
	<pattern  id="SVGID_24_" xlink:href="#New_Pattern_Swatch_2" patternTransform="matrix(1 0 0 1 179.0269 90.46)">
	</pattern>
	<path style="opacity:0.5;fill-rule:evenodd;clip-rule:evenodd;fill:url(#SVGID_24_);" d="M84.1,102.4l2-36c0,0-10,4-12,6
		s-10,9-10,9L84.1,102.4z"/>
	<pattern  id="SVGID_25_" xlink:href="#New_Pattern_Swatch_2" patternTransform="matrix(1 0 0 1 179.0269 90.46)">
	</pattern>
	<path style="opacity:0.5;fill-rule:evenodd;clip-rule:evenodd;fill:url(#SVGID_25_);" d="M13.1,59.5c0,0,2-5,6-6s12,6,14,8
		s11,17,11,17l9,11l11,18l4,7h-4l-14-17l-9-14l-7-11c0,0-9-8-11-8S13.1,59.5,13.1,59.5z"/>
	<pattern  id="SVGID_26_" xlink:href="#New_Pattern_Swatch_2" patternTransform="matrix(1 0 0 1 179.0269 90.46)">
	</pattern>
	<path style="opacity:0.5;fill-rule:evenodd;clip-rule:evenodd;fill:url(#SVGID_26_);" d="M14.1,146.5l51,1h19v-11v-15l-1-9l-14,7
		l-13,9l-10,6c0,0-11,3-12,3s-9,0-10,1S14.1,141.5,14.1,146.5z"/>
	<path style="fill-rule:evenodd;clip-rule:evenodd;fill:#E1FBFF;" d="M15,36.5c0,0,5.9-4.6,9.1-3.2s13.5,13.2,16,17.6
		S62.9,83.2,66.3,88c3.5,4.8,8.7,11.6,10.7,13.7c2,2.1,6,5.4,6,5.4l2,25c0,0-24.3-31.1-25.9-33.6c-1.6-2.4-13.7-20.1-15.4-21.7
		C42,75.2,33,59.4,31.1,58.2c-2-1.2-4.1-5.5-5.7-6c-1.6-0.5-6.1-1.9-6.6-0.8c-0.6,1.1-4.6,6.2-4.6,6.2L15,36.5z"/>
	<path style="fill-rule:evenodd;clip-rule:evenodd;fill:#E1FBFF;" d="M170.6,101.7c0,0,25.4-27.8,34.9-42.6
		c9.6-14.8,20.9-26.3,22.9-28c2-1.7,7.6-2.8,8.9-3.3c1.3-0.5,5.2,0.6,6.8,2.5c1.6,1.8,6,4.2,6,4.2l4.9,3L250.7,51L240,47.5
		c0,0,1-1-3.4,0.5c-4.4,1.5-10.5,8.2-9.7,9.2c0.8,1-8.5,11.6-9.6,13.3c-1.1,1.8-11.9,13.5-13.7,15.9c-1.8,2.4-13.6,17.9-13.6,17.9
		l-2.6,3.2L173,120.7L170.6,101.7z"/>
	
		<path style="fill-rule:evenodd;clip-rule:evenodd;fill:none;stroke:#185D8C;stroke-width:3;stroke-linecap:round;stroke-linejoin:round;stroke-miterlimit:10;" d="
		M250.8,3.8c-7.4-1.2-14.6,0.6-21.9,1.5c-10.2,1.3-20.4,2.6-30.8,1.4c-8.2-1-16.5-0.4-24.8-0.2c-2.1,0.1-4.2,1.2-6.4,1.8
		c-1,0.3-1.4,1.2-1.3,2.1c0.5,5.2,0.5,10.4,1,15.7c1.1,10.8,1.8,21.7,2,32.7c0.2,10.6,1.4,21.1,1.8,31.7c0.3,7.7-0.1,15.6,0.9,23.2
		c1.1,7.9-0.4,16,1.9,23.8c0.1,0.2-0.2,0.7-0.4,0.9c-0.2,0.1-0.5-0.1-0.8-0.2"/>
	
		<path style="fill-rule:evenodd;clip-rule:evenodd;fill:none;stroke:#185D8C;stroke-width:3;stroke-linecap:round;stroke-linejoin:round;stroke-miterlimit:10;" d="
		M242.3,28.9c-0.4,0-0.9,0.1-1.2-0.1c-5-3.5-6.1-3.2-10.6,0.5c-9.3,7.7-17.8,16-23.7,27.4c-2.8,5.3-6.1,10.2-9.3,15.3
		c-6.1,9.7-14.3,17.2-20.8,26.6c-1.1,1.6-2.6,3.2-4.7,3.2"/>
	
		<path style="fill-rule:evenodd;clip-rule:evenodd;fill:none;stroke:#185D8C;stroke-width:3;stroke-linecap:round;stroke-linejoin:round;stroke-miterlimit:10;" d="
		M20,53c-0.2-1.2,0.6-1.3,1.3-1.4c3.9-0.4,6.6,1.6,8.9,5.1C35,64.3,39.8,72,45.3,78.9c8.6,10.9,15.8,22.9,23.4,34.6
		c4.2,6.4,8.4,12.8,14.7,17"/>
	
		<path style="fill-rule:evenodd;clip-rule:evenodd;fill:none;stroke:#185D8C;stroke-width:3;stroke-linecap:round;stroke-linejoin:round;stroke-miterlimit:10;" d="
		M84.7,145.6c0.1-7.9-1-15.7,0.3-23.6c0.5-3.2-0.2-6.6-0.3-9.9c-0.1-2-0.9-4.1-2.2-5.1C72.1,98,65,85.7,57,74.3
		c-3.2-4.5-6.5-9-10.1-13.2c-5.7-6.6-8.6-15.5-14.7-21.8c-3.4-3.5-6.7-7.5-12.2-5.7c-0.7,0.2-1.2,0.4-1.7,1"/>
	
		<path style="fill-rule:evenodd;clip-rule:evenodd;fill:none;stroke:#185D8C;stroke-width:3;stroke-linecap:round;stroke-linejoin:round;stroke-miterlimit:10;" d="
		M83.9,141.4c-6.8,1.8-13.7,2.3-20.6,2.3c-11.1,0.1-22.1,0-33.2-1.2c-5-0.5-10.2,0.1-15.1,2.2"/>
	
		<path style="fill-rule:evenodd;clip-rule:evenodd;fill:none;stroke:#185D8C;stroke-width:3;stroke-linecap:round;stroke-linejoin:round;stroke-miterlimit:10;" d="
		M83.5,50.7c1.5,0.1,2.7-0.3,1.9-2.4c-3.1-8.1-1.6-25.7-2.7-34.1c-0.4-3.1-0.3-6.3-0.5-9.4c-0.1-2.7-1.6-3.4-3.8-3.3
		c-4.7,0.2-9.2,1.4-13.9,1.7c-2.2,0.1-4.6-0.1-6.7,0c-6.8,0.1-13.4,1-20.2,1.3c-1.2,0.1-2.2-1.6-3.4-0.1"/>
	
		<path style="fill-rule:evenodd;clip-rule:evenodd;fill:none;stroke:#185D8C;stroke-width:3;stroke-linecap:round;stroke-linejoin:round;stroke-miterlimit:10;" d="
		M83.1,107.1c1.3-2.4,2,3.9,1.6,1.2c-1.1-7,0.6-13.9,0.7-20.8c0.4-21.5-0.2-32.2-0.7-36.4"/>
	
		<path style="fill-rule:evenodd;clip-rule:evenodd;fill:none;stroke:#185D8C;stroke-width:3;stroke-linecap:round;stroke-linejoin:round;stroke-miterlimit:10;" d="
		M113.6,75.4c-4.4,2-4.9,7.2-7.1,10.9c-3.9,8.3-2,16.6-14.4,15.5"/>
	
		<path style="fill-rule:evenodd;clip-rule:evenodd;fill:none;stroke:#185D8C;stroke-width:3;stroke-linecap:round;stroke-linejoin:round;stroke-miterlimit:10;" d="
		M142.6,93c-13.3,1.7-22.4-5.5-28.3-17.7c-1.6-3.3-2.7-7.3-4.5-10.7c-4.1-7.8-10.3-11.2-18.4-10"/>
	
		<path style="fill-rule:evenodd;clip-rule:evenodd;fill:none;stroke:#185D8C;stroke-width:3;stroke-linecap:round;stroke-linejoin:round;stroke-miterlimit:10;" d="
		M249.6,50.3c-3.6-2.3-7.3-2.3-11.3-1.7c-4.1,0.6-7.1,3.3-8.9,6.9c-3.1,6.1-8.8,9.3-12,15.1c-3.5,6.4-9.5,10.2-13.7,15.9
		c-4.5,6.1-9.6,11.7-14.4,17.4c-0.9,1.1-1.7,2.2-1.8,3.7"/>
	
		<path style="fill-rule:evenodd;clip-rule:evenodd;fill:none;stroke:#185D8C;stroke-width:3;stroke-linecap:round;stroke-linejoin:round;stroke-miterlimit:10;" d="
		M140.5,48c-8.9,0.6-16.2,4.2-20.7,13.6c-1.5,3.2-3.1,6.7-6.2,8.6"/>
	
		<path style="fill-rule:evenodd;clip-rule:evenodd;fill:none;stroke:#185D8C;stroke-width:3;stroke-linecap:round;stroke-linejoin:round;stroke-miterlimit:10;" d="
		M205.3,136.2c0.1-3.9-0.8-7.3-3.4-10.1c-4.2-4.5-7.5-9.8-10.8-15.1c-2.4-3.8-4.4-4-7.5-1.3c-3.8,3.3-6.4,8-10.5,10.9"/>
	
		<path style="fill-rule:evenodd;clip-rule:evenodd;fill:none;stroke:#185D8C;stroke-width:3;stroke-linecap:round;stroke-linejoin:round;stroke-miterlimit:10;" d="
		M49,100.7c-8.6,6.2-17.3,12.1-25.2,19.4"/>
	
		<path style="fill-rule:evenodd;clip-rule:evenodd;fill:none;stroke:#185D8C;stroke-width:3;stroke-linecap:round;stroke-linejoin:round;stroke-miterlimit:10;" d="
		M179.9,22.7c-0.1,5.1,3.8,7,6.5,9.6c4.7,4.7,10,8.7,15,13"/>
	
		<path style="fill-rule:evenodd;clip-rule:evenodd;fill:none;stroke:#185D8C;stroke-width:3;stroke-linecap:round;stroke-linejoin:round;stroke-miterlimit:10;" d="
		M214.5,77c7.4,8,14.1,16.6,20.1,25.9"/>
	
		<path style="fill-rule:evenodd;clip-rule:evenodd;fill:none;stroke:#185D8C;stroke-width:3;stroke-linecap:round;stroke-linejoin:round;stroke-miterlimit:10;" d="
		M67.5,21.9c-0.1,0.9,0,2.3-0.5,2.8c-6,5.3-9.8,12.9-15.9,18"/>
	
		<path style="fill-rule:evenodd;clip-rule:evenodd;fill:none;stroke:#185D8C;stroke-width:3;stroke-linecap:round;stroke-linejoin:round;stroke-miterlimit:10;" d="
		M236.9,134.6c-1.5,2.8-4.1,1.4-6,1.5c-13.5,0.4-26.9,0.5-40.4,0.4c-3.6,0-7,1-10.6,1.2c-2,0.1-4,0.7-5.9-0.3
		c-1.5,1.3-1.9,3.1-1.9,5.1"/>
	
		<path style="fill-rule:evenodd;clip-rule:evenodd;fill:none;stroke:#185D8C;stroke-width:3;stroke-linecap:round;stroke-linejoin:round;stroke-miterlimit:10;" d="
		M161.1,86c-2.8,7.2-7.5,12.9-11.7,19c-0.4,0.6-1.3,0.6-2,0.9"/>
	
		<path style="fill-rule:evenodd;clip-rule:evenodd;fill:none;stroke:#185D8C;stroke-width:3;stroke-linecap:round;stroke-linejoin:round;stroke-miterlimit:10;" d="
		M228.2,59.4c6.7,6.6,13.1,13.4,19,20.8"/>
	
		<path style="fill-rule:evenodd;clip-rule:evenodd;fill:none;stroke:#185D8C;stroke-width:3;stroke-linecap:round;stroke-linejoin:round;stroke-miterlimit:10;" d="
		M157.6,45.7c-2.1,5.6-7.3,7.9-10.5,12.3c-0.9,1.3-2.9,1.9-2.3,4.2"/>
	
		<path style="fill-rule:evenodd;clip-rule:evenodd;fill:none;stroke:#185D8C;stroke-width:3;stroke-linecap:round;stroke-linejoin:round;stroke-miterlimit:10;" d="
		M162.7,85.5c-4.2-0.5-7-4.3-10.4-6.4c-2.2-1.4-4.1-3.4-6.9-3.1"/>
	
		<path style="fill-rule:evenodd;clip-rule:evenodd;fill:none;stroke:#185D8C;stroke-width:3;stroke-linecap:round;stroke-linejoin:round;stroke-miterlimit:10;" d="
		M140.8,32.5c2,3.7,6.2,3.8,8.9,6.6c2.3,2.5,6,3,8,6.1c0.2,0.3,1.5,0.5,2-0.4"/>
	
		<path style="fill-rule:evenodd;clip-rule:evenodd;fill:none;stroke:#185D8C;stroke-width:3;stroke-linecap:round;stroke-linejoin:round;stroke-miterlimit:10;" d="
		M73.4,54c-1.9,6.3-6.2,11.2-8.8,17"/>
	
		<path style="fill-rule:evenodd;clip-rule:evenodd;fill:none;stroke:#185D8C;stroke-width:3;stroke-linecap:round;stroke-linejoin:round;stroke-miterlimit:10;" d="
		M31.8,4.4c-6.1,1.2-12.3,2-18.5,1.9"/>
	
		<path style="fill-rule:evenodd;clip-rule:evenodd;fill:none;stroke:#185D8C;stroke-width:3;stroke-linecap:round;stroke-linejoin:round;stroke-miterlimit:10;" d="
		M44,8.6c-3.6,4.9-7.3,9.8-10.9,14.6"/>
	
		<path style="fill-rule:evenodd;clip-rule:evenodd;fill:none;stroke:#185D8C;stroke-width:3;stroke-linecap:round;stroke-linejoin:round;stroke-miterlimit:10;" d="
		M29.2,68.1c-0.3,2.8-2.6,3.4-4.2,4.7c-2.1,1.8-4.2,3.5-6.3,5.2"/>
	
		<path style="fill-rule:evenodd;clip-rule:evenodd;fill:none;stroke:#185D8C;stroke-width:3;stroke-linecap:round;stroke-linejoin:round;stroke-miterlimit:10;" d="
		M64.6,123.4c-4.3,3.2-7.7,7.4-10.9,11.8"/>
	
		<path style="fill-rule:evenodd;clip-rule:evenodd;fill:none;stroke:#185D8C;stroke-width:3;stroke-linecap:round;stroke-linejoin:round;stroke-miterlimit:10;" d="
		M141.8,74.2c1.3-0.3,2.3,0.4,3.3,1.3c-1.2,4.3,0.2,8.5,0,12.7c-0.4,5.9,1,11.5,1.9,17.2c0.3,1.7-1,3.6-1.5,5.4"/>
	
		<path style="fill-rule:evenodd;clip-rule:evenodd;fill:none;stroke:#185D8C;stroke-width:3;stroke-linecap:round;stroke-linejoin:round;stroke-miterlimit:10;" d="
		M142.1,35.3c-1.5,2.7-0.6,5.4,0.1,8c1.2,4.6,1.6,9.5,3.7,13.7"/>
	
		<path style="fill-rule:evenodd;clip-rule:evenodd;fill:none;stroke:#185D8C;stroke-width:3;stroke-linecap:round;stroke-linejoin:round;stroke-miterlimit:10;" d="
		M181.7,54c-0.6,0.8-0.9,1.3-0.1,2.4c2.1,2.9,4,6.1,6,9.2"/>
	
		<path style="fill-rule:evenodd;clip-rule:evenodd;fill:none;stroke:#185D8C;stroke-width:3;stroke-linecap:round;stroke-linejoin:round;stroke-miterlimit:10;" d="
		M214.2,14.6c0.9,1.3,2,2.5,2.8,3.9c1.1,2.2,2.4,1.3,3.8,0.6"/>
	<g>
		<path style="fill-rule:evenodd;clip-rule:evenodd;fill:#F40000;stroke:#F40000;stroke-width:3;stroke-miterlimit:10;" d="
			M189.7,167.9c-1.4-0.4-1.6-10.7-3.2-10.8c-1.6-0.2-2.6,1.7-3.3,3.1c-1,1.9-1.8,4.1-2.5,6.2c-0.3,1-0.2,2.3-1.8,2.3
			c-1.7,0-2.1-0.8-2.1-2.4c0-1.5-0.7-2.7-1.9-4.2c-1.8,3.3-2,7.6-6.4,8.3c-0.9,0.1-2.3,0.8-2.6,0.5c-3.5-3.9-6.4-1-9.6,0.6
			c-2.9,1.4-6.3-1.6-7.7-6.3c-0.5-1.7,0.6-5-2.4-4.7c-2.5,0.2-3.6,3.4-4.4,10.2c-0.8,6.7-10.1,6.5-10.3,4.9
			c-0.2-1.4,0-10.8,0.1-12.2c0.2-2.1-1.1-2.9-2.8-3.2c-2-0.4-2.2,1-2.4,2.6c-0.4,2.3-0.8,4.8-1.7,6.9c-0.7,5-3.4,7.6-4.5,7.5
			c-6.6-0.4-8.5-1.6-10.4-7.2c-0.9-2.7-0.5-5.4-1-8.2c-0.6-3.3-2.2-3.1-4.7-2.5c-3,0.8-2.7,2.6-1.9,4.7c0.7,1.8,1.1,3.6,1,5.6
			c-0.3,4.7-2,8.5-6.7,9.9c-5,1.5-9.5-0.8-12.1-5.8c-0.6-1.1-1.2-2.3-1.4-3.5c-0.7-5.1-3.2-6.1-7.9-4.9c-2.9,0.8-4.1,2-4.7,4.9
			c-2.2,10.3-3.7,11.1-13.7,8.1c-1.4-0.4-2.5-0.4-3.4,0.7c-3.1,4-6.1,2.6-10.2,4.3c-0.8,0.3-2.1,0.6-2.7,0.2c-4.8-3-9.2-2.5-14.2,0
			c-3.6,1.9-6.6-0.8-8.2-4.4c-1.6-3.8-3.6-7.5-3.7-11.8c0-1.2-0.4-2.5-1.9-3.9c-0.6,3.8-0.5,7.4-2,10.6c-1.3,2.9-2.7,5.8-4.9,8.1
			c-0.9,1-2.3,1.5-3.3,0.2c-0.9-1.3-0.7-2.5,0.8-3.6c5.5-3.8,7.6-10.4,5-16.5c-1.3-3.1-1.4-4.7,2.6-4.1c0.7,0.1,1.6,0,2.3-0.3
			c3.8-2.2,3.9,0.4,4,3.1c0.1,5.4,1.7,10.3,3.9,15.1c1.5,3.4,3.5,5.4,7.3,3.8c3.6-1.5,4.3-4,2.6-7.6c-2.3-4.7-1.2-9,2.5-12.6
			c2.7-2.6,5-2.1,6.7,1.3c2,4.1,1.5,8-0.5,11.9c-0.8,1.6-2.8,3.4-0.8,5.1c1.7,1.5,4,2.7,6.5,1.6c1.7-0.7,1.8,0.3,3.4-0.6
			c3.4-1.8,6.4-3.6,3.4-8.3c-0.9-1.5-1.3-3.7-1.1-5.6c0.9-9.5,1.8-19,6.9-27.4c0.8-1.4,1.5-3,3.4-2.8c1.7,0.2,2,1.9,2.4,3.2
			c4,10.9,2.6,21.3-3.4,31.1c-1.6,2.6-2.4,4.9,1,6.8c3.4,1.8,5.6,0.8,6.5-3.1c0.6-2.6,0.6-5.1-0.6-7.5c-0.7-1.5-0.7-2.8,0.5-3.9
			c1-1,2.1-0.7,3.4-0.2c6.2,2.2,9.7-0.1,10.2-6.8c0.4-5.5,1.2-10.8,3.1-15.9c0.7-1.8,1.5-4.8,4.2-4.3c2.5,0.4,2.4,3.1,2.7,5.1
			c1,6.8-2.5,12.3-5.2,18.1c-2.3,4.9,0.9,16.1,5.4,18.7c4,2.2,8.6-0.1,9-4.7c0.4-4.2-1.1-7.8-3.1-11.3c-0.9-1.5-2.4-2.9-1.1-4.7
			c1.4-1.9,2.8-0.8,4.5,0c4.2,1.8,8.6-0.8,9.5-5.4c0.8-3.9,1.7-7.8,2.4-11.7c0.4-1.8,1-3.3,2.4-4.6c0.8-0.8,1.6-1.6,2.9-1.1
			c1.3,0.5,1.4,1.6,1.3,2.8c-0.2,6.6-1.7,13-5.3,18.5c-3.9,6-4.8,18.9,2.5,19.9c3.2,0.7,3,0.2,4.8-2.9c2.5-4.4,3.5-8.9,0.6-13.5
			c-1-1.5-1.4-2.9,0-4.2c1.5-1.3,2.5-0.5,4,0.6c3.6,2.6,7.3,6.2,12,1.7c0.7-0.7,2-0.6,2.6,0.1c3.6,4,6,1.5,8.3-1.4
			c0.9-1.1,1.9-2.6,3.3-2c1.7,0.8,0.7,2.6,0.4,3.8c-1,3.2-0.8,6.3,0.4,9.3c0.6,1.7,1.3,3.4,3.5,3.4c2.1-0.1,3.3-1.5,4.2-3.4
			c1.4-2.8,0.1-5.7,0.5-8.5c0.2-1.7-0.9-4.5,1.9-4.6c2.7-0.2,1.6,2.6,1.9,4.1c0.5,2.6,0.6,5.4,1.1,8c0.3,1.3,0.8,3,2.6,2.8
			c1.4-0.2,1.9-1.4,2.3-2.7c0.8-2.9,1-6,2.7-8.6c2.1-3.4,4-3.5,5.6,0.1c1.3,3.1,2.5,2.4,3.7,0.3c1-1.7,1.9-3.3,3.9-3.9
			c2.4-0.7,4.3-0.6,5.1,2.4c0.3,1.2,0.7,2.4,1.2,3.6c0.7,1.7-0.7,4.1,1.7,4.1c2.3,0,1.5-1.4,2.4-3.5c1.6-3.9,4-6.3,8.1-7.1
			c2.8-0.5,1.6-2.8,1.4-4.3c-1-7.6,0.4-14.6,4.5-21c0.7-1.2,1.3-2.9,3-2.5c1.5,0.4,1.6,2,1.9,3.5c2,9,2.1,18,0.4,27
			c-0.9,4.8-3.8,6.1,0.9,5.9c5.2-0.3,9.4-5.3,9.4-11.2c0-1.9-0.7-4.2,1.9-4.6c2.9-0.4,2.5,2.4,2.7,4c0.3,2.3,0.9,4.4,1.7,6.5
			c1.2,3.2,1.1,6.2-0.5,9.2c-0.7,1.3-2,2.8-0.4,4.3c1.4,1.3,3.1,1.2,4.9,0.7c3.8-1.3,9.2-8.7,9.3-12.8c0-1.5-0.9-3.7,1.5-3.8
			c2.6-0.1,2.1,2.4,2,4c-0.1,10.7-13.6,18.5-24.4,14c-2.8-1.2-6.4-1.5-7.6-5.6c-0.5-1.7-5.3-1.3-7.1-0.2c-3.7,2.4-7.1,5.2-10.4,3.1
			c-5.7-3.7-5.6,0-6.6-0.9L189.7,167.9z M138.9,162.6c-0.5-1.6-1.6-2.5-3.1-1c-1.5,1.4-1.9,10-1.6,11.9
			C134.2,173.5,142.6,171.4,138.9,162.6z M62.1,152.6c0-2.8,0-5.7-0.1-8.5c-0.1-1.4-0.4-3.2-2-3.4c-1.8-0.2-2.8,1.4-2.9,3.1
			c-0.4,4.8-2.1,9.2-3.2,13.8c-0.8,3.3-0.8,6.6,0.9,9.7c0.8,1.5,2,2,2.7,0.3C59.7,162.8,62.9,158.3,62.1,152.6z M215.2,140.9
			c-0.3-2.2-0.5-4.4-0.8-6.6c-0.2-1.3-0.4-2.7-2-2.8c-1.6-0.1-1.9,1.2-2.4,2.4c-2.3,5.6-0.3,11,0.5,16.4c0.1,0.9,0.7,1.6,1.5,1.6
			c0.8,0,1.2-0.9,1.5-1.6C214.5,147.3,215,144.2,215.2,140.9z M203.8,165c2.4-0.7,5.3-2,5.7-5c0.4-2.7-2.7-3.6-4.6-3.4
			c-2.8,0.3-4.7,2.5-4.9,5.4C199.9,164.2,201.4,165.1,203.8,165z M229.7,160.3c-0.9-1,0.1-3.9-2.3-3.1c-2.3,0.7-4.7,2.8-5.1,5
			c-0.4,2.1,2.8,3.4,4.3,3.3C228.9,165.4,229.4,162.6,229.7,160.3z M33.3,166.8c0.6,1.4-0.1,4.4,2.3,4.3c2.2-0.1,1.8-3,2-4.8
			c0.2-1.6-0.3-3.5-2.3-3.5C33.3,163,33.4,165,33.3,166.8z M88.8,143.3c-0.1-1.4,0.2-2.9-1.2-3.1c-1.3-0.2-2,1.1-2,2.2
			c0,3-2,5.7-1,8.8c0.1,0.3,1,0.5,1.1,0.4C87.5,149.1,88.2,146.1,88.8,143.3z M116.3,137.5c-2.9,2.1-3.2,5-3.4,7.8
			c0,0.6,0.9,1,1.4,0.6c2.3-1.7,2-4.5,2.5-6.9C116.8,138.7,116.6,138.4,116.3,137.5z"/>
		<path style="fill-rule:evenodd;clip-rule:evenodd;fill:#F40000;stroke:#F40000;stroke-width:3;stroke-miterlimit:10;" d="
			M270.8,112.4c0,0-1.7,1.4-2.1,5.4c-0.2,5.4-4.2,19.2-5.3,25.8c-1.1,5.9-3.3,10-3.2,15.6c0,1.6-1.5,2.7-2.8,2.6c-1.7-0.2-1-2-1-3.1
			c0.1-11.9,1.3-31.8,1.5-43.7c0-3.1-0.2-6.1,3.2-4.9C262.7,110.6,270.8,112.4,270.8,112.4z"/>
		<path style="fill-rule:evenodd;clip-rule:evenodd;fill:#F40000;stroke:#F40000;stroke-width:3;stroke-miterlimit:10;" d="
			M256.7,165.1c3.5-0.1,5.7,0.8,6.2,3.9c0.4,2.9-1.2,4.9-3.8,5.8c-2.2,0.8-4.6,1.7-6.6-0.9c-0.6-0.7-1.2-2.7-1.3-3.7
			C253.3,164.1,255.2,165.7,256.7,165.1z"/>
	</g>
	<pattern  id="SVGID_27_" xlink:href="#New_Pattern_Swatch_2" patternTransform="matrix(1 0 0 1 179.0269 90.46)">
	</pattern>
	<path style="opacity:0.5;fill-rule:evenodd;clip-rule:evenodd;fill:url(#SVGID_27_);" d="M50.1,46.4l21-26c0,0,2-1,2,2s-6,12-7,14
		S51.1,51.4,50.1,46.4z"/>
	<pattern  id="SVGID_28_" xlink:href="#New_Pattern_Swatch_2" patternTransform="matrix(1 0 0 1 179.0269 90.46)">
	</pattern>
	<path style="opacity:0.5;fill-rule:evenodd;clip-rule:evenodd;fill:url(#SVGID_28_);" d="M215.1,8.5c0,0,4,1,7,4s7,5,9,7s11,5,11,5
		l12,13l2-10l2-18v-4h-22L215.1,8.5z"/>
</g>
</svg>
