<?xml version="1.0" encoding="utf-8"?>
<!-- Generator: Adobe Illustrator 16.0.0, SVG Export Plug-In . SVG Version: 6.00 Build 0)  -->
<!DOCTYPE svg PUBLIC "-//W3C//DTD SVG 1.1//EN" "http://www.w3.org/Graphics/SVG/1.1/DTD/svg11.dtd">
<svg version="1.1" id="Layer_1" xmlns="http://www.w3.org/2000/svg" xmlns:xlink="http://www.w3.org/1999/xlink" x="0px" y="0px"
	 width="193.8px" height="221.9px" viewBox="0 0 193.8 221.9" style="enable-background:new 0 0 193.8 221.9;" xml:space="preserve"
	>
<pattern  x="-502.9" y="-338.6" width="12" height="12" patternUnits="userSpaceOnUse" id="New_Pattern_Swatch_2" viewBox="1 -13 12 12" style="overflow:visible;">
	<g>
		<polygon style="fill:none;" points="1,-13 13,-13 13,-1 1,-1 		"/>
		<path d="M14-1c0,0.6-0.4,1-1,1s-1-0.4-1-1s0.4-1,1-1S14-1.6,14-1z"/>
		<path d="M2-1c0,0.6-0.4,1-1,1S0-0.4,0-1s0.4-1,1-1S2-1.6,2-1z"/>
		<path d="M14-5c0,0.6-0.4,1-1,1s-1-0.4-1-1s0.4-1,1-1S14-5.6,14-5z"/>
		<path d="M11-2c0,0.6-0.4,1-1,1S9-1.4,9-2s0.4-1,1-1S11-2.6,11-2z"/>
		<path d="M8-3c0,0.6-0.4,1-1,1S6-2.4,6-3s0.4-1,1-1S8-3.6,8-3z"/>
		<path d="M5-4c0,0.6-0.4,1-1,1S3-3.4,3-4s0.4-1,1-1S5-4.6,5-4z"/>
		<path d="M2-5c0,0.6-0.4,1-1,1S0-4.4,0-5s0.4-1,1-1S2-5.6,2-5z"/>
		<path d="M14-9c0,0.6-0.4,1-1,1s-1-0.4-1-1s0.4-1,1-1S14-9.6,14-9z"/>
		<path d="M11-6c0,0.6-0.4,1-1,1S9-5.4,9-6s0.4-1,1-1S11-6.6,11-6z"/>
		<path d="M8-7c0,0.6-0.4,1-1,1S6-6.4,6-7s0.4-1,1-1S8-7.6,8-7z"/>
		<path d="M5-8c0,0.6-0.4,1-1,1S3-7.4,3-8s0.4-1,1-1S5-8.6,5-8z"/>
		<path d="M2-9c0,0.6-0.4,1-1,1S0-8.4,0-9s0.4-1,1-1S2-9.6,2-9z"/>
		<path d="M14-13c0,0.6-0.4,1-1,1s-1-0.4-1-1s0.4-1,1-1S14-13.6,14-13z"/>
		<path d="M11-10c0,0.6-0.4,1-1,1s-1-0.4-1-1s0.4-1,1-1S11-10.6,11-10z"/>
		<path d="M8-11c0,0.6-0.4,1-1,1s-1-0.4-1-1s0.4-1,1-1S8-11.6,8-11z"/>
		<path d="M5-12c0,0.6-0.4,1-1,1s-1-0.4-1-1s0.4-1,1-1S5-12.6,5-12z"/>
		<path d="M2-13c0,0.6-0.4,1-1,1s-1-0.4-1-1s0.4-1,1-1S2-13.6,2-13z"/>
	</g>
</pattern>
<g>
	<path style="fill-rule:evenodd;clip-rule:evenodd;fill:#74C5ED;" d="M154.9,45.3l0.9,2.5c0,0-3.8,2.5-4.7,5.1
		c-0.9,2.5-2.8,5.9-2.8,5.9h-3.8c0,0-0.9-7.6,0.9-8.4C147.4,49.5,154.9,43.6,154.9,45.3z"/>
	<path style="fill-rule:evenodd;clip-rule:evenodd;fill:#74C5ED;" d="M36.6,23.4c0,0,3.8-0.8,4.7-0.8s8.5-3.4,11.3-4.2
		c2.8-0.8,22.5-11,30-11.8c7.5-0.8,28.2-1.7,37.6,2.5s15,10.1,15,10.1l5.6,5.9l2.8-0.8c0,0-9.4-13.5-16.9-16s-24.4-7.6-30-6.7
		C91.1,2.3,78.9,3.2,78,4C77,4.9,66.7,7.4,66.7,7.4s-9.4,4.2-10.3,5.1c-0.9,0.8-7.5,4.2-8.5,4.2s-3.8-0.8-4.7,0
		C42.3,17.5,35.7,22.6,36.6,23.4z"/>
	<pattern  id="SVGID_1_" xlink:href="#New_Pattern_Swatch_2" patternTransform="matrix(1 0 0 1 116.2314 184.0342)">
	</pattern>
	<path style="opacity:0.5;fill-rule:evenodd;clip-rule:evenodd;fill:url(#SVGID_1_);" d="M37.3,22.4c0,0,30-18,45-19s31-3,38,2
		s13,5,15,8s8,10,8,10l-3,2c0,0-9-8-12-10s-13-9-24-9c-11,0-22,0-27,2s-16,6-19,8s-12,6-12,6l-5,2h-2L37.3,22.4z"/>
	<path style="fill-rule:evenodd;clip-rule:evenodd;fill:#74C5ED;" d="M32.9,63.9c1.3,0,40.4-12.6,51.6-13.5
		c11.3-0.8,24.4-0.8,30-0.8c5.6,0,13.1,0.8,16.9,1.7c3.8,0.8,8.4,1.7,8.4,1.7l3.8,2.5v4.2c0,0-22.5,7.6-30,8.4
		c-7.5,0.8-26.3,2.5-33.8,2.5S62,69.8,57.3,68.9c-4.7-0.8-7.5-0.8-11.3-0.8s-4.7,0-6.6,0c-1.9,0-7.5-1.7-7.5-1.7
		S31.9,63.9,32.9,63.9z"/>
	<defs>
		<filter id="Adobe_OpacityMaskFilter" filterUnits="userSpaceOnUse" x="29.2" y="64.4" width="116.3" height="109">
			<feFlood  style="flood-color:white;flood-opacity:1" result="back"/>
			<feBlend  in="SourceGraphic" in2="back" mode="normal"/>
		</filter>
	</defs>
	<mask maskUnits="userSpaceOnUse" x="29.2" y="64.4" width="116.3" height="109" id="SVGID_2_">
		<g style="filter:url(#Adobe_OpacityMaskFilter);">
			<path style="fill-rule:evenodd;clip-rule:evenodd;" d="M38.3,89.4c0,0,49,4,68-1c0,0,1-2,0-2S33.3,85.4,38.3,89.4z"/>
		</g>
	</mask>
	<path style="mask:url(#SVGID_2_);fill-rule:evenodd;clip-rule:evenodd;fill:#74C5ED;" d="M29.2,70.2c0,0,12.2,2.4,17.9,3.1
		c5.6,0.8,15,0.6,17.9,1.4c2.8,0.8,21.6,0.5,27.2,0.5c5.6-0.1,18.7-1.9,22.5-2.8c3.7-0.9,22.4-5.4,26.2-6.3c3.7-0.9,4.7-1.8,4.7-1.8
		l-3.8,54c0,0-1.3,37.1-1.2,37.9c0,0.8-1.8,5.9-1.8,5.9s-5.6,4.3-10.2,5.2c-4.7,0.9-24.4,2.9-24.4,2.9s-18.8,1.1-24.4,2
		c-5.6,0.9-12.2,1-16.9,1.1c-4.7,0.1-12.3-3.2-12.3-3.2l-4-14.3c0,0-4.1-19.3-5.1-23.5c-1-4.2-7-26-6.1-29.4
		c0.9-3.4-3-13.4-3.1-16.8c-0.1-3.4-3-10.1-3-11.8C29.3,72.7,29.2,70.2,29.2,70.2z"/>
	
		<path style="fill-rule:evenodd;clip-rule:evenodd;fill:none;stroke:#185D8C;stroke-width:3;stroke-linecap:round;stroke-linejoin:round;stroke-miterlimit:10;" d="
		M144.6,53.3c-9.1-5-19.6-6.7-30.5-6.6c-21.5,0.1-42.8,1.8-62.9,8c-7.7,2.4-15.8,4.3-22.1,8.7"/>
	<defs>
		<filter id="Adobe_OpacityMaskFilter_1_" filterUnits="userSpaceOnUse" x="29.2" y="64.4" width="116.3" height="109">
			<feFlood  style="flood-color:white;flood-opacity:1" result="back"/>
			<feBlend  in="SourceGraphic" in2="back" mode="normal"/>
		</filter>
	</defs>
	<mask maskUnits="userSpaceOnUse" x="29.2" y="64.4" width="116.3" height="109" id="SVGID_3_">
		<g style="filter:url(#Adobe_OpacityMaskFilter_1_);">
			<path style="fill-rule:evenodd;clip-rule:evenodd;" d="M29.2,70.2c0,0,12.2,2.4,17.9,3.1c5.6,0.8,15,0.6,17.9,1.4
				c2.8,0.8,21.6,0.5,27.2,0.5c5.6-0.1,18.7-1.9,22.5-2.8c3.7-0.9,22.4-5.4,26.2-6.3c3.7-0.9,4.7-1.8,4.7-1.8l-3.8,54
				c0,0-1.3,37.1-1.2,37.9c0,0.8-1.8,5.9-1.8,5.9s-5.6,4.3-10.2,5.2c-4.7,0.9-24.4,2.9-24.4,2.9s-18.8,1.1-24.4,2
				c-5.6,0.9-12.2,1-16.9,1.1c-4.7,0.1-12.3-3.2-12.3-3.2l-4-14.3c0,0-4.1-19.3-5.1-23.5c-1-4.2-7-26-6.1-29.4
				c0.9-3.4-3-13.4-3.1-16.8c-0.1-3.4-3-10.1-3-11.8C29.3,72.7,29.2,70.2,29.2,70.2z"/>
			<path style="fill-rule:evenodd;clip-rule:evenodd;fill:#FFFFFF;" d="M38.3,97.4c0,0,5,3,9,3s12-1,14,0s11,1,16,1s11,0,14,0
				s10,1,14,0s7-1,10-1s4-2,6-2s3-2,5-2s4-1,4-1l-2-6l-7,2c0,0-21,2-22,3s-14,0-16,1s-5,0-9,0s-12-1-13-1s-5,0-7,0s-5-1-5-1
				s-4,0-7,0s-4-1-4,0s-5,5-2,7s9,39,9,39l5,7c0,0,4,4,5,4s7,1,8,2s8,2,8,2l10,1h11c0,0,6-1,8-1s14-2,14-2l6-3l6-4c0,0,3-5,4-6
				s5-7,5-7l3-2c0,0,0,13,0,14s0,12,0,12s-5,6-6,6s-13,1-15,1s-25,4-26,4s-10,0-13,0s-13,0-15,0s-9,0-12-1s-7-3-7-3l-6-14l-2-22
				l-3-26C33.3,101.4,36.3,94.4,38.3,97.4z"/>
			<path style="fill-rule:evenodd;clip-rule:evenodd;fill:#FFFFFF;" d="M128.3,71.4c0,0,1-1,4,2s3,4,4,5s3,8,3,8l2,1l3-15v-7
				C144.3,65.4,128.3,68.4,128.3,71.4z"/>
		</g>
	</mask>
	
		<pattern  id="SVGID_4_" xlink:href="#New_Pattern_Swatch_2" patternTransform="matrix(1 0 0 1 116.2314 184.0342)"  style="mask:url(#SVGID_3_);">
	</pattern>
	<path style="opacity:0.5;mask:url(#SVGID_3_);fill-rule:evenodd;clip-rule:evenodd;fill:url(#SVGID_4_);" d="M29.2,70.2
		c0,0,12.2,2.4,17.9,3.1c5.6,0.8,15,0.6,17.9,1.4c2.8,0.8,21.6,0.5,27.2,0.5c5.6-0.1,18.7-1.9,22.5-2.8c3.7-0.9,22.4-5.4,26.2-6.3
		c3.7-0.9,4.7-1.8,4.7-1.8l-3.8,54c0,0-1.3,37.1-1.2,37.9c0,0.8-1.8,5.9-1.8,5.9s-5.6,4.3-10.2,5.2c-4.7,0.9-24.4,2.9-24.4,2.9
		s-18.8,1.1-24.4,2c-5.6,0.9-12.2,1-16.9,1.1c-4.7,0.1-12.3-3.2-12.3-3.2l-4-14.3c0,0-4.1-19.3-5.1-23.5c-1-4.2-7-26-6.1-29.4
		c0.9-3.4-3-13.4-3.1-16.8c-0.1-3.4-3-10.1-3-11.8C29.3,72.7,29.2,70.2,29.2,70.2z"/>
	
		<path style="fill-rule:evenodd;clip-rule:evenodd;fill:none;stroke:#185D8C;stroke-width:3;stroke-linecap:round;stroke-linejoin:round;stroke-miterlimit:10;" d="
		M131.2,120.4c-9.9,3.2-20.5,4.8-31,6.2c-6.4,0.9-13.1,0.8-19.7,1.1c-1.8,0.1-3.6,0-5.2,0.7"/>
	
		<path style="fill-rule:evenodd;clip-rule:evenodd;fill:none;stroke:#185D8C;stroke-width:3;stroke-linecap:round;stroke-linejoin:round;stroke-miterlimit:10;" d="
		M124.4,91.1c-4.1,2-9,2.3-13.6,3.1C99.7,96,88.3,96.6,77,96.5c-12.5-0.1-25.3,0.6-37.5-2.3c-0.6-0.1-1-0.7-1.4-1"/>
	
		<path style="fill-rule:evenodd;clip-rule:evenodd;fill:none;stroke:#185D8C;stroke-width:3;stroke-linecap:round;stroke-linejoin:round;stroke-miterlimit:10;" d="
		M18.3,50.5c3.2,1.1,4.6,3,4.2,5.6c-0.2,1.3,0.1,2.6,1.1,3.4c4,3.5,2.5,6.5-1,9.5"/>
	
		<path style="fill-rule:evenodd;clip-rule:evenodd;fill:none;stroke:#185D8C;stroke-width:3;stroke-linecap:round;stroke-linejoin:round;stroke-miterlimit:10;" d="
		M46.5,124.4c5.8,2.1,11.9,3.1,18.3,3.1c3,0,6,0.1,8.9,0.7"/>
	<defs>
		<filter id="Adobe_OpacityMaskFilter_2_" filterUnits="userSpaceOnUse" x="31.9" y="49.5" width="111.7" height="21.1">
			<feFlood  style="flood-color:white;flood-opacity:1" result="back"/>
			<feBlend  in="SourceGraphic" in2="back" mode="normal"/>
		</filter>
	</defs>
	<mask maskUnits="userSpaceOnUse" x="31.9" y="49.5" width="111.7" height="21.1" id="SVGID_5_">
		<g style="filter:url(#Adobe_OpacityMaskFilter_2_);">
			<path style="fill-rule:evenodd;clip-rule:evenodd;" d="M35.3,63.4c0,0,15,2,18,3s16,2,16,2h12c0,0,14-1,17-1c3,0,9-1,11-2
				s10-3,11-3s7-2,7-2s6-1,7-1s5-3,6-3s4,0,4,0v4l-15,7c0,0-29,3-29,4s-30,2-30,2s-11-1-14-1s-10,0-13-1s-9-2-10-2s-5-2-5-2
				L35.3,63.4z"/>
			<path style="fill-rule:evenodd;clip-rule:evenodd;" d="M44.3,58.4c0,0,2,2,4,2s6,0,8-1s7-2,10-3s19-4,21-4s6-1,11-1c5,0,7-1,12,0
				s5,0,9,1s4,2,6,2s7,0,7,0l5-1l5,3l2-2l-9-4l-24-3c0,0-23-1-24,0s-20,3-20,3l-18,4C49.3,54.4,42.3,56.4,44.3,58.4z"/>
		</g>
	</mask>
	
		<pattern  id="SVGID_6_" xlink:href="#New_Pattern_Swatch_2" patternTransform="matrix(1 0 0 1 116.2314 184.0342)"  style="mask:url(#SVGID_5_);">
	</pattern>
	<path style="opacity:0.5;mask:url(#SVGID_5_);fill-rule:evenodd;clip-rule:evenodd;fill:url(#SVGID_6_);" d="M32.9,63.9
		c1.3,0,40.4-12.6,51.6-13.5c11.3-0.8,24.4-0.8,30-0.8c5.6,0,13.1,0.8,16.9,1.7c3.8,0.8,8.4,1.7,8.4,1.7l3.8,2.5v4.2
		c0,0-22.5,7.6-30,8.4c-7.5,0.8-26.3,2.5-33.8,2.5S62,69.8,57.3,68.9c-4.7-0.8-7.5-0.8-11.3-0.8s-4.7,0-6.6,0
		c-1.9,0-7.5-1.7-7.5-1.7S31.9,63.9,32.9,63.9z"/>
	
		<path style="fill-rule:evenodd;clip-rule:evenodd;fill:none;stroke:#185D8C;stroke-width:3;stroke-linecap:round;stroke-linejoin:round;stroke-miterlimit:10;" d="
		M26.8,64.5c2-0.1,3.2,1.1,4.7,1.7c5.3,1.9,10.7,3.7,16.8,2.5c4.2-0.8,7.9,0.3,11.7,1.1c8.5,1.7,17.2,1.7,25.8,1.3
		c10-0.4,19.9-1.6,29.6-3.5c7.3-1.4,14.2-3.8,21.1-5.9c3.7-1.1,7-2.4,11.3-2.2c4,0.3,9.8-4.8,10.3-8.6c0.4-2.8,1.3-5.4-2.1-8
		c-2.2-1.7-2.3-5.1-3-7.7c-0.9-3.1-2.1-5.9-5.1-8.4c-4.9-4.2-7.7-9.6-13.2-13.6C125.1,5.9,113.9,1.9,100,1.5
		C83.5,1.1,69.2,4.8,56.2,12.3c-3.3,1.9-6.5,4.3-11.6,4.5c-3,0.1-5.3,2.8-7.5,4.7c-6.2,5.1-13.3,9.8-16,16.8
		c-1.5,3.8-4.8,7.2-3.3,11.5c0.4,1.3-1.9,2.1-1.8,3.5c0.1,5.6-0.9,11,5.4,15.9c5,3.9,6.5,9.8,7.4,15.5c1.9,12.7,4.2,25.4,6.3,38.1
		c0.7,4.6-0.2,9.3,1.2,14c2.3,7.7,4.3,15.4,6.6,23.1c1.8,6,2.4,6,10.8,6.7c5.6,0.5,11.2,1.4,16.9,1.4c11.9-0.2,23.7-1.4,35.2-3.3
		c7.2-1.2,14.6-1.5,21.7-3.3c3-0.8,5.6-2,8.4-2.9c1.7-0.6,1.9-1.5,2.1-3.1c1.7-11.2,0.6-22.4,1.6-33.6c0.7-7.6,1.2-15.1,1.4-22.7
		c0.2-7.7,2.2-15.4,2.3-23.1c0.1-6.1,2.2-12,1.7-18.2c-0.6-5.9,4.1-10.2,10.2-13.6"/>
	<g>
		<path style="fill-rule:evenodd;clip-rule:evenodd;fill:#F40000;stroke:#F40000;stroke-width:3;stroke-miterlimit:10;" d="
			M83.4,194.2c0.2,3.9,0.3,7.7,0.6,11.5c0.1,1.5-0.2,2.7-1.8,3.2c-2.1,0.6-2.4-1-2.9-2.2c-1.3-3.4-3.3-3-5.7-1.1
			c-2.1,1.7-4.1,3.4-6.4,4.8c-5.1,3.2-9.8,2.6-13.8-1.8c-1.2-1.3-2-1.2-3.3-0.4c-2.2,1.4-4.1,1-5.8-0.7c-1.5-1.6-2.6-1.4-3.7,0.4
			c-0.6,1-1.4,2.1-2.3,2.9c-2.9,2.5-4.8,2-6.1-1.4c-1.4-3.7-2.5-7.4-2.7-11.3c0-0.9,0.2-2.4-1.6-2.3c-1.6,0.1-2.1,1.2-2,2.6
			c0.1,2.5,0.2,5.1,0.3,7.6c0.1,2.1-0.9,3.9-2,5.6c-1.5,2.2-3.5,3.8-6.8,3.7c-3.4-0.1-4.6-2.3-5.5-4.5c-1.3-3.3-2.5-4.6-4.9-0.8
			c-0.4,0.6-1.3,1-2.1,1.4c-0.9,0.6-1.9,1.6-3,0.3c-0.8-1.1,0.3-1.8,1-2.3c6.3-4.3,6.6-10.2,6.1-16.8c-0.7-8.7-1.2-17.6,1.2-26.2
			c0.2-0.9,0.6-1.8,1-2.6c0.5-1.3,1.4-2.5,3.1-2.4c1.5,0.1,1.8,1.7,2.2,2.8c3.2,9,2.1,18,0.2,26.9c-0.5,2.5-1.4,4.9-2.5,7.2
			c-2.1,4.3-0.2,8.1,1.7,11.9c0.6,1.2,1.9,1.8,3.3,1.4c1.7-0.4,2.5-1.6,2.9-3.2c1-4.1-0.7-7.9-1.3-11.9c-0.7-4.7-0.9-4.7,4-4.1
			c2.8,0.3,4-1.2,4.7-3.3c0.5-1.5,1.2-3.1,3.1-2.6c2.1,0.5,1.6,2.3,1.2,3.7c-1.4,5.1-0.2,10.1,0.9,15.1c0.2,0.9,0.2,2.1,1.6,2.1
			c1.2,0,1.6-1.1,1.9-1.9c1.2-2.8,2.4-5.7,2.2-8.9c-0.1-1.3,0-2.7,0.2-4c0.2-1.3,0.9-2.3,2.6-2.1c1.6,0.2,1.4,1.4,1.4,2.5
			c0,2.4-0.1,4.8,0.2,7.2c0.2,2.1,0.8,4.9,3.4,5c2.6,0.1,3.2-2.6,3.5-4.8c0.8-5.5,3.7-10,9-13c3.3-1.8,8.6-0.2,10.1,3
			c0.5,1,0.1,1.5-0.6,2c-0.8,0.6-1.4,1.1-2.6,0.3c-2.8-1.8-2.8-1.7-4.7,0.7c-0.1,0.2-0.5,0.4-0.6,0.4c-1.6-0.5-3.3-0.9-4,1
			c-1,2.8-2.8,5.3-2.8,8.3c0,3.5,3.7,6.2,7.7,5.3c5.5-1.2,9.3-4.7,12.8-8.5c1.1-1.2,0.5-2.8,0.2-4.3c-2.4-10.6-3.1-21.2-2.5-31.9
			c0.1-1.9,0.2-3.8,0.7-5.6c0.7-2.8,2.2-5.9,5.7-5.7c2.9,0.2,3.2,3.5,3.9,5.7c1.8,6.4,3,12.8,2.3,19.4c-0.2,2,0.5,2.7,2.6,3.3
			c6.5,1.8,9,8.8,5.2,13.5c-2,2.5-0.2,6.9,3.3,7.9c5.2,1.4,9.3-2.1,8-6.9c-1.3-4.9-0.3-9.2,3.6-12.9c2.9-2.7,4.6-2.4,5.7,1.3
			c1.2,3.8,0.4,7.4-0.9,11c-0.4,1.2-1.7,2.6-0.4,3.7c1.4,1.3,3.3,0.6,5,0.1c6.1-2,8.4-5.3,7.8-11.2c-0.3-2.8-0.6-5.6-0.4-8.4
			c0.1-2.1,0.4-5-4-3c-1.8,0.9-4.4-0.3-6.3,1.2c-0.5,0.4-1.5,0.1-1.8-0.7c-0.3-0.8,0.3-1.3,1-1.6c2.6-1.2,5-2.8,8-3.1
			c2.9-0.4,4.1-1.7,4.1-4.6c-0.1-6.4,2.9-12.2,4.8-18.1c0.4-1.3,1.2-2.7,2.9-2.6c1.7,0.2,2,1.8,2.2,3.1c1.3,6.1,0.9,12.3,1.1,18.4
			c0.1,2.9,1,3.1,3.8,3.1c3.9-0.1,7.5-0.7,10.8-2.7c1.9-1.1,3.9-1.4,6.6,0.2c-6.7,2.4-11.7,7-19.1,5.9c-2.6-0.4-3.9,0.8-4.6,3.2
			c-1.2,4.1-2.9,8.1-4.4,12.1c-2,5.6,2.9,11.9,9.3,12c2.2,0,7.5-5.1,8.1-8.2c0.7-3.2,2-6.4,1.6-9.8c-0.1-1.1,0-2.3,1.5-2.5
			c1.7-0.2,2.2,0.9,2.6,2.1c1.5,4.7,3.9,9.3,3.8,14.4c0,2.9,2.1,4.4,5.2,4.4c3.5,0,6.7-0.3,7-4.7c0.7-11.3,3.2-22.4,6.5-33.3
			c1-3.5,2.5-6.8,2.9-10.4c0.1-1.5,0.7-3.1,2.2-3.6c1.7-0.6,2.9,0.7,3.7,2.1c0.9,1.5,2.8,2,4.4,2.5c3.9,1.3,3.5,3.4,1.9,6.1
			c-8.2,13.3-13.9,27.4-16,42.6c-0.2,1.8-1.7,2.7-2.7,3.9c-1.2,1.4-3,1.1-3.2-0.6c-0.4-3.4-2.3-2.7-4.6-2.1c-1,0.3-2.1,0.8-3,0.5
			c-4-1.3-7.9-1.9-11.9,0.3c-0.9,0.5-2.1,0.1-2.9-0.6c-1.8-1.6-3.3-1.5-5.4-0.2c-2.9,1.8-5.9,0.2-8.6-1.2c-1.6-0.8-3.1-2.2-4.1-3.6
			c-1.8-2.6-3.1-2.4-5.3-0.4c-3.3,3-7.4,4.2-12.1,2.7c-1.5-0.5-2.5-0.1-3.5,0.8c-0.9,0.7-1.9,1.3-2.9,1.8
			c-6.9,3.5-11.8,4.6-15.2-4.5C88.9,197.4,87.2,195.1,83.4,194.2z M80.7,185.2c0.4-0.8,1.1-1.6,1.3-2.4c1.9-7.8,1-15.5-1.6-23.2
			c-0.2-0.6-0.5-1.3-1.4-1.3c-1.2,0.1-1.2,1.1-1.3,1.8C76.4,168.6,77.9,176.9,80.7,185.2z M129.1,163.6c0,0.6-0.4,1.6-0.1,2.4
			c0.6,1.5-1.2,4,2.6,4.3c4,0.3,3.3-2.2,3.7-4c1-4.5-0.3-9-0.8-13.5c-0.1-0.8,0.2-1.7-1-1.9c-1.1-0.1-1.6,0.7-1.7,1.5
			C131.1,156.1,129.2,159.5,129.1,163.6z M91.7,189.8c0-2.8-1.7-5.1-4.1-5.6c-2.9-0.5-3.8,2.5-3.8,4.4c0.1,3.5,5,0.8,6.4,3.5
			C90.4,192.4,91.6,190.8,91.7,189.8z M13.6,169.1c-1.3,5.4-2.4,10.8-0.8,16.3C14.4,180,14.9,174.5,13.6,169.1z M129.3,183
			c2.4-2.1,1.9-4.3,2.2-6.3c0.1-0.8,0.1-1.7-1.1-1.8c-1.1-0.1-1.4,0.8-1.5,1.6C128.7,178.4,128.1,180.5,129.3,183z M109.4,194.6
			c1.6-2.1,2.5-4.2,1.2-6.6c-0.3-0.6-1.4-0.6-1.9-0.1c-1.6,2-1.4,4.1-0.2,6.3C108.6,194.3,108.8,194.4,109.4,194.6z"/>
		<path style="fill-rule:evenodd;clip-rule:evenodd;fill:#F40000;stroke:#F40000;stroke-width:3;stroke-miterlimit:10;" d="
			M172.4,216.1c-0.3,1.6-1.3,4.2-4.8,4.2c-2.8,0-3.8-2.5-3.5-4.4c0.3-2.3,1.1-5.1,4.8-5.1C172.4,210.8,172.6,213.3,172.4,216.1z"/>
		<path style="fill-rule:evenodd;clip-rule:evenodd;fill:#F40000;stroke:#F40000;stroke-width:3;stroke-miterlimit:10;" d="
			M174.4,189.2c1.6-10.7,3.7-21.3,7.6-31.5c0.8-2.1,2.3-1.7,3.8-1c1.3,0.6,3.5,1,2.4,3c-5.2,9.1-8.6,18.9-12,28.7
			C176,188.9,175.8,189.8,174.4,189.2z"/>
		<path style="fill-rule:evenodd;clip-rule:evenodd;fill:#F40000;stroke:#F40000;stroke-width:3;stroke-miterlimit:10;" d="
			M80.7,185.2c-2.9-8.3-4.4-16.6-3-25.1c0.1-0.7,0.1-1.7,1.3-1.8c0.9,0,1.2,0.7,1.4,1.3c2.6,7.6,3.5,15.3,1.6,23.2
			C81.8,183.7,81.2,184.4,80.7,185.2z"/>
		<path style="fill-rule:evenodd;clip-rule:evenodd;fill:#F40000;stroke:#F40000;stroke-width:3;stroke-miterlimit:10;" d="
			M129.1,163.6c0.1-4.2,2-7.6,2.7-11.2c0.2-0.7,0.6-1.6,1.7-1.5c1.2,0.2,0.9,1.1,1,1.9c0.5,4.5,1.8,9,0.8,13.5
			c-0.4,1.8,0.2,4.3-3.7,4c-3.9-0.3-2.1-2.8-2.6-4.3C128.7,165.2,129.1,164.2,129.1,163.6z"/>
		<path style="fill-rule:evenodd;clip-rule:evenodd;fill:#F40000;stroke:#F40000;stroke-width:3;stroke-miterlimit:10;" d="
			M91.7,189.8c-0.1,1-1.3,2.6-1.5,2.3c-1.4-2.6-6.3,0-6.4-3.5c-0.1-1.9,0.9-4.9,3.8-4.4C90,184.7,91.8,187,91.7,189.8z"/>
		<path style="fill-rule:evenodd;clip-rule:evenodd;fill:#F40000;stroke:#F40000;stroke-width:3;stroke-miterlimit:10;" d="
			M13.6,169.1c1.3,5.5,0.8,10.9-0.8,16.3C11.2,179.9,12.4,174.5,13.6,169.1z"/>
		<path style="fill-rule:evenodd;clip-rule:evenodd;fill:#F40000;stroke:#F40000;stroke-width:3;stroke-miterlimit:10;" d="
			M129.3,183c-1.1-2.5-0.6-4.6-0.3-6.6c0.1-0.8,0.4-1.7,1.5-1.6c1.1,0.1,1.2,1,1.1,1.8C131.1,178.7,131.7,180.9,129.3,183z"/>
		<path style="fill-rule:evenodd;clip-rule:evenodd;fill:#F40000;stroke:#F40000;stroke-width:3;stroke-miterlimit:10;" d="
			M109.4,194.6c-0.6-0.3-0.8-0.3-0.8-0.4c-1.2-2.1-1.4-4.3,0.2-6.3c0.5-0.6,1.5-0.5,1.9,0.1C111.9,190.5,111,192.6,109.4,194.6z"/>
	</g>
</g>
</svg>
